%TF.GenerationSoftware,tscircuit,circuit-json-to-gerber,0.0.96*%
%TF.CreationDate,2026-08-31T02:33:00.495Z*%
%TF.SameCoordinates,Original*%
%TF.FileFunction,Copper,L2,Bot*%
%TF.FilePolarity,Positive*%
%FSLAX46Y46*%
%MOMM*%
G04 Gerber Fmt 4.6, Leading zero omitted, Abs format (unit mm)*
G04 Created by tscircuit (builder) date 2026-08-31T02:33:00.495Z*
G01*
%LPD*%
G75*
G04 APERTURE MACROS START*
%AMHORZPILL*
0 Horizontal pill (stadium) shape macro*
0 Parameters:*
0 $1 = Total width*
0 $2 = Total height*
0 $3 = Circle diameter (equal to height)*
0 $4 = Circle center offset
0 21 = Center Line(Exposure, Width, Height, Center X, Center Y, Rotation)*
0 1 = Circle(Exposure, Diameter, Center X, Center Y, Rotation)*
21,1,$1-$3,$2,0.0,0.0,0.0*
1,1,$3,0.0-$4,0.0*
1,1,$3,$4,0.0*%
%AMVERTPILL*
0 Vertical pill (stadium) shape macro*
0 Parameters:*
0 $1 = Total width*
0 $2 = Total height*
0 $3 = Circle diameter (equal to width)*
0 $4 = Circle center offset
0 21 = Center Line(Exposure, Width, Height, Center X, Center Y, Rotation)*
21,1,$1,$2-$3,0.0,0.0,0.0*
1,1,$3,0.0,0.0-$4*
1,1,$3,0.0,$4*%
%AMROUNDRECT*
0 Rectangle with rounded corners*
0 $1 Corner radius*
0 $2 $3 $4 $5 $6 $7 $8 $9 X,Y Position of each corner*
0 Polygon box body*
4,1,4,$2,$3,$4,$5,$6,$7,$8,$9,$2,$3,0*
0 Circles for rounded corners*
1,1,$1+$1,$2,$3*
1,1,$1+$1,$4,$5*
1,1,$1+$1,$6,$7*
1,1,$1+$1,$8,$9*
0 Rectangles between the rounded corners*
20,1,$1+$1,$2,$3,$4,$5,0*
20,1,$1+$1,$4,$5,$6,$7,0*
20,1,$1+$1,$6,$7,$8,$9,0*
20,1,$1+$1,$8,$9,$2,$3,0*%
G04 APERTURE MACROS END*
G04 aperture START LIST*
%ADD10C,0.200000*%
%ADD11C,0.175000*%
%ADD12C,0.150000*%
%ADD13C,0.500000*%
%ADD14C,0.312500*%
%ADD15C,0.350000*%
%ADD16C,0.800000*%
%ADD17C,0.275000*%
%ADD18C,0.325000*%
%ADD19C,0.475000*%
%ADD20C,0.450000*%
%ADD21C,0.375000*%
%ADD22C,0.400000*%
%ADD23C,1.600000*%
%ADD24C,0.046800*%
%ADD25C,0.063000*%
%ADD26C,0.054000*%
%ADD27C,0.120000*%
%ADD28C,0.036000*%
%ADD29C,0.100000*%
%ADD30C,0.045000*%
%ADD31C,0.090000*%
%ADD32R,1.800000X1.800000*%
%ADD33C,1.800000*%
%ADD34C,2.200000*%
%ADD35C,0.650000*%
%ADD36C,0.800000*%
%ADD37C,0.300000*%
%ADD38C,0.001000*%
%TD*%
G04 aperture END LIST*
D38*
G36*
X001978852Y-22612859D02*
G01*
X003941863Y-22355270D01*
G01*
X005875250Y-21925957D01*
G01*
X007763305Y-21330820D01*
G01*
X009593120Y-20572839D01*
G01*
X011349841Y-19658949D01*
G01*
X013019737Y-18594045D01*
G01*
X014590965Y-17388976D01*
G01*
X015126028Y-16898411D01*
G01*
X014744977Y-17102087D01*
G01*
X014257235Y-17250042D01*
G01*
X013750000Y-17300000D01*
G01*
X013242765Y-17250042D01*
G01*
X012755023Y-17102087D01*
G01*
X012305517Y-16861821D01*
G01*
X011911522Y-16538478D01*
G01*
X011588179Y-16144483D01*
G01*
X011347913Y-15694977D01*
G01*
X011199958Y-15207235D01*
G01*
X011150000Y-14700000D01*
G01*
X011199958Y-14192765D01*
G01*
X011347913Y-13705023D01*
G01*
X011588179Y-13255517D01*
G01*
X011911522Y-12861522D01*
G01*
X012305517Y-12538179D01*
G01*
X012755023Y-12297913D01*
G01*
X013242765Y-12149958D01*
G01*
X013750000Y-12100000D01*
G01*
X014257235Y-12149958D01*
G01*
X014744977Y-12297913D01*
G01*
X015194483Y-12538179D01*
G01*
X015588478Y-12861522D01*
G01*
X015911821Y-13255517D01*
G01*
X016152087Y-13705023D01*
G01*
X016300042Y-14192765D01*
G01*
X016350000Y-14700000D01*
G01*
X016300042Y-15207235D01*
G01*
X016152087Y-15694977D01*
G01*
X015911821Y-16144483D01*
G01*
X015800822Y-16279736D01*
G01*
X016050668Y-16050668D01*
G01*
X017388976Y-14590965D01*
G01*
X018594045Y-13019737D01*
G01*
X019658949Y-11349841D01*
G01*
X020572839Y-09593120D01*
G01*
X021330820Y-07763305D01*
G01*
X021925957Y-05875250D01*
G01*
X022355270Y-03941863D01*
G01*
X022612859Y-01978852D01*
G01*
X022699712Y000000000D01*
G01*
X022612859Y001978852D01*
G01*
X022355270Y003941863D01*
G01*
X021925957Y005875250D01*
G01*
X021330820Y007763305D01*
G01*
X020572839Y009593120D01*
G01*
X019658949Y011349841D01*
G01*
X018594045Y013019737D01*
G01*
X017388976Y014590965D01*
G01*
X016050668Y016050668D01*
G01*
X014590965Y017388976D01*
G01*
X013019737Y018594045D01*
G01*
X011349841Y019658949D01*
G01*
X009593120Y020572839D01*
G01*
X007763305Y021330820D01*
G01*
X005875250Y021925957D01*
G01*
X003941863Y022355270D01*
G01*
X001978852Y022612859D01*
G01*
X001477321Y022634872D01*
G01*
X001838478Y022338478D01*
G01*
X002161821Y021944483D01*
G01*
X002402087Y021494977D01*
G01*
X002550042Y021007235D01*
G01*
X002600000Y020500000D01*
G01*
X002550042Y019992765D01*
G01*
X002402087Y019505023D01*
G01*
X002161821Y019055517D01*
G01*
X001838478Y018661522D01*
G01*
X001444483Y018338179D01*
G01*
X000994977Y018097913D01*
G01*
X000507235Y017949958D01*
G01*
X000011042Y017901088D01*
G01*
X001806404Y017850000D01*
G01*
X002200000Y017850000D01*
G01*
X002413604Y017850000D01*
G01*
X002731412Y018167808D01*
G01*
X002668530Y018244430D01*
G01*
X002576120Y018417317D01*
G01*
X002519215Y018604910D01*
G01*
X002500000Y018800000D01*
G01*
X002519215Y018995090D01*
G01*
X002576120Y019182683D01*
G01*
X002668530Y019355570D01*
G01*
X002792893Y019507107D01*
G01*
X002944430Y019631470D01*
G01*
X003117317Y019723880D01*
G01*
X003304910Y019780785D01*
G01*
X003500000Y019800000D01*
G01*
X003695090Y019780785D01*
G01*
X003882683Y019723880D01*
G01*
X004055570Y019631470D01*
G01*
X004207107Y019507107D01*
G01*
X004331470Y019355570D01*
G01*
X004423880Y019182683D01*
G01*
X004480785Y018995090D01*
G01*
X004500000Y018800000D01*
G01*
X004480785Y018604910D01*
G01*
X004423880Y018417317D01*
G01*
X004331470Y018244430D01*
G01*
X004292045Y018196390D01*
G01*
X010621723Y011866712D01*
G01*
X010665770Y011862374D01*
G01*
X010750187Y011836767D01*
G01*
X010827986Y011795182D01*
G01*
X010896177Y011739219D01*
G01*
X010967198Y011668198D01*
G01*
X011023161Y011600007D01*
G01*
X011064746Y011522208D01*
G01*
X011090353Y011437791D01*
G01*
X011099000Y011350000D01*
G01*
X011090353Y011262209D01*
G01*
X011064746Y011177792D01*
G01*
X011023161Y011099993D01*
G01*
X010967198Y011031802D01*
G01*
X010899007Y010975839D01*
G01*
X010821208Y010934254D01*
G01*
X010736791Y010908647D01*
G01*
X010649000Y010900000D01*
G01*
X010561209Y010908647D01*
G01*
X010476792Y010934254D01*
G01*
X010402809Y010973799D01*
G01*
X010343228Y010979667D01*
G01*
X010258811Y011005275D01*
G01*
X010181012Y011046859D01*
G01*
X010112820Y011102823D01*
G01*
X003525249Y017690394D01*
G01*
X003518198Y017681802D01*
G01*
X002918198Y017081802D01*
G01*
X002850007Y017025839D01*
G01*
X002772208Y016984254D01*
G01*
X002687791Y016958647D01*
G01*
X002600000Y016950000D01*
G01*
X002200000Y016950000D01*
G01*
X001800000Y016950000D01*
G01*
X001787231Y016951258D01*
G01*
X001787200Y016950182D01*
G01*
X-02825300Y017081432D01*
G01*
X-02825269Y017082508D01*
G01*
X-02900291Y017089897D01*
G01*
X-02984708Y017115504D01*
G01*
X-03062507Y017157089D01*
G01*
X-03130698Y017213052D01*
G01*
X-03142128Y017226979D01*
G01*
X-03143162Y017226024D01*
G01*
X-03464590Y017574238D01*
G01*
X-03786019Y017922453D01*
G01*
X-04107447Y018270667D01*
G01*
X-04428876Y018618881D01*
G01*
X-04610365Y018815495D01*
G01*
X-04672208Y018834254D01*
G01*
X-04750007Y018875839D01*
G01*
X-04818198Y018931802D01*
G01*
X-04874161Y018999993D01*
G01*
X-04915746Y019077792D01*
G01*
X-04941353Y019162209D01*
G01*
X-04950000Y019250000D01*
G01*
X-04950000Y019563604D01*
G01*
X-05186396Y019800000D01*
G01*
X-06000000Y019800000D01*
G01*
X-05804910Y019780785D01*
G01*
X-05617317Y019723880D01*
G01*
X-05444430Y019631470D01*
G01*
X-05292893Y019507107D01*
G01*
X-05168530Y019355570D01*
G01*
X-05076120Y019182683D01*
G01*
X-05019215Y018995090D01*
G01*
X-05000000Y018800000D01*
G01*
X-05019215Y018604910D01*
G01*
X-05076120Y018417317D01*
G01*
X-05168530Y018244430D01*
G01*
X-05292893Y018092893D01*
G01*
X-05444430Y017968530D01*
G01*
X-05617317Y017876120D01*
G01*
X-05804910Y017819215D01*
G01*
X-06000000Y017800000D01*
G01*
X-06195090Y017819215D01*
G01*
X-06382683Y017876120D01*
G01*
X-06555570Y017968530D01*
G01*
X-06707107Y018092893D01*
G01*
X-06831470Y018244430D01*
G01*
X-06923880Y018417317D01*
G01*
X-06980785Y018604910D01*
G01*
X-07000000Y018800000D01*
G01*
X-06980785Y018995090D01*
G01*
X-06923880Y019182683D01*
G01*
X-06831470Y019355570D01*
G01*
X-06707107Y019507107D01*
G01*
X-06555570Y019631470D01*
G01*
X-06382683Y019723880D01*
G01*
X-06195090Y019780785D01*
G01*
X-06000000Y019800000D01*
G01*
X-08813604Y019800000D01*
G01*
X-09050000Y019563604D01*
G01*
X-09050000Y019500000D01*
G01*
X-09058647Y019412209D01*
G01*
X-09084254Y019327792D01*
G01*
X-09118968Y019262847D01*
G01*
X-09076120Y019182683D01*
G01*
X-09019215Y018995090D01*
G01*
X-09000000Y018800000D01*
G01*
X-09019215Y018604910D01*
G01*
X-09076120Y018417317D01*
G01*
X-09168530Y018244430D01*
G01*
X-09292893Y018092893D01*
G01*
X-09444430Y017968530D01*
G01*
X-09617317Y017876120D01*
G01*
X-09804910Y017819215D01*
G01*
X-10000000Y017800000D01*
G01*
X-10195090Y017819215D01*
G01*
X-10382683Y017876120D01*
G01*
X-10555570Y017968530D01*
G01*
X-10707107Y018092893D01*
G01*
X-10831470Y018244430D01*
G01*
X-10923880Y018417317D01*
G01*
X-10980785Y018604910D01*
G01*
X-11000000Y018800000D01*
G01*
X-10980785Y018995090D01*
G01*
X-10923880Y019182683D01*
G01*
X-10831470Y019355570D01*
G01*
X-10707107Y019507107D01*
G01*
X-10555570Y019631470D01*
G01*
X-10382683Y019723880D01*
G01*
X-10195090Y019780785D01*
G01*
X-10000000Y019800000D01*
G01*
X-09945603Y019794642D01*
G01*
X-09941353Y019837791D01*
G01*
X-09915746Y019922208D01*
G01*
X-09874161Y020000007D01*
G01*
X-09818198Y020068198D01*
G01*
X-09318198Y020568198D01*
G01*
X-09250007Y020624161D01*
G01*
X-09172208Y020665746D01*
G01*
X-09087791Y020691353D01*
G01*
X-09000000Y020700000D01*
G01*
X-05000000Y020700000D01*
G01*
X-04912209Y020691353D01*
G01*
X-04827792Y020665746D01*
G01*
X-04749993Y020624161D01*
G01*
X-04681802Y020568198D01*
G01*
X-04181802Y020068198D01*
G01*
X-04125839Y020000007D01*
G01*
X-04084254Y019922208D01*
G01*
X-04058647Y019837791D01*
G01*
X-04050000Y019750000D01*
G01*
X-04050000Y019535318D01*
G01*
X-03767553Y019229333D01*
G01*
X-03446124Y018881119D01*
G01*
X-03124696Y018532905D01*
G01*
X-02803267Y018184690D01*
G01*
X-02610334Y017975680D01*
G01*
X-00020015Y017901971D01*
G01*
X-00507235Y017949958D01*
G01*
X-00994977Y018097913D01*
G01*
X-01444483Y018338179D01*
G01*
X-01838478Y018661522D01*
G01*
X-02161821Y019055517D01*
G01*
X-02402087Y019505023D01*
G01*
X-02550042Y019992765D01*
G01*
X-02600000Y020500000D01*
G01*
X-02550042Y021007235D01*
G01*
X-02402087Y021494977D01*
G01*
X-02161821Y021944483D01*
G01*
X-01838478Y022338478D01*
G01*
X-01477321Y022634872D01*
G01*
X-01978852Y022612859D01*
G01*
X-03941863Y022355270D01*
G01*
X-05875250Y021925957D01*
G01*
X-07763305Y021330820D01*
G01*
X-09593120Y020572839D01*
G01*
X-11349841Y019658949D01*
G01*
X-13019737Y018594045D01*
G01*
X-14590965Y017388976D01*
G01*
X-16050668Y016050668D01*
G01*
X-17388976Y014590965D01*
G01*
X-18594045Y013019737D01*
G01*
X-19658949Y011349841D01*
G01*
X-20572839Y009593120D01*
G01*
X-21330820Y007763305D01*
G01*
X-21925957Y005875250D01*
G01*
X-22120308Y005000000D01*
G01*
X-18000000Y005000000D01*
G01*
X-18000000Y-05000000D01*
G01*
X-22120308Y-05000000D01*
G01*
X-21925957Y-05875250D01*
G01*
X-21330820Y-07763305D01*
G01*
X-20572839Y-09593120D01*
G01*
X-19658949Y-11349841D01*
G01*
X-18594045Y-13019737D01*
G01*
X-17388976Y-14590965D01*
G01*
X-16050668Y-16050668D01*
G01*
X-15800822Y-16279736D01*
G01*
X-15911821Y-16144483D01*
G01*
X-16152087Y-15694977D01*
G01*
X-16300042Y-15207235D01*
G01*
X-16350000Y-14700000D01*
G01*
X-16300042Y-14192765D01*
G01*
X-16152087Y-13705023D01*
G01*
X-15911821Y-13255517D01*
G01*
X-15588478Y-12861522D01*
G01*
X-15194483Y-12538179D01*
G01*
X-14744977Y-12297913D01*
G01*
X-14257235Y-12149958D01*
G01*
X-13750000Y-12100000D01*
G01*
X-13242765Y-12149958D01*
G01*
X-12755023Y-12297913D01*
G01*
X-12305517Y-12538179D01*
G01*
X-11911522Y-12861522D01*
G01*
X-11588179Y-13255517D01*
G01*
X-11347913Y-13705023D01*
G01*
X-11199958Y-14192765D01*
G01*
X-11150000Y-14700000D01*
G01*
X-11199958Y-15207235D01*
G01*
X-11347913Y-15694977D01*
G01*
X-11588179Y-16144483D01*
G01*
X-11911522Y-16538478D01*
G01*
X-12305517Y-16861821D01*
G01*
X-12755023Y-17102087D01*
G01*
X-13242765Y-17250042D01*
G01*
X-13750000Y-17300000D01*
G01*
X-14257235Y-17250042D01*
G01*
X-14744977Y-17102087D01*
G01*
X-15126028Y-16898411D01*
G01*
X-14590965Y-17388976D01*
G01*
X-13019737Y-18594045D01*
G01*
X-11349841Y-19658949D01*
G01*
X-09593120Y-20572839D01*
G01*
X-07763305Y-21330820D01*
G01*
X-05875250Y-21925957D01*
G01*
X-03941863Y-22355270D01*
G01*
X-01978852Y-22612859D01*
G01*
X000000000Y-22699712D01*
G01*
X001978852Y-22612859D01*
G37*
%LPC*%
D38*
G36*
X010742000Y012673000D02*
G01*
X010810282Y012679725D01*
G01*
X010875939Y012699642D01*
G01*
X010936450Y012731986D01*
G01*
X010989487Y012775513D01*
G01*
X011033014Y012828550D01*
G01*
X011065358Y012889061D01*
G01*
X011085275Y012954718D01*
G01*
X011092000Y013023000D01*
G01*
X011085275Y013091282D01*
G01*
X011065358Y013156939D01*
G01*
X011033014Y013217450D01*
G01*
X010989487Y013270487D01*
G01*
X010936450Y013314014D01*
G01*
X010875939Y013346358D01*
G01*
X010810282Y013366275D01*
G01*
X010746816Y013372526D01*
G01*
X010744550Y013373213D01*
G01*
X010696451Y013377950D01*
G01*
X007800000Y016274401D01*
G01*
X007800000Y017851039D01*
G01*
X007882683Y017876120D01*
G01*
X008055570Y017968530D01*
G01*
X008207107Y018092893D01*
G01*
X008331470Y018244430D01*
G01*
X008423880Y018417317D01*
G01*
X008480785Y018604910D01*
G01*
X008500000Y018800000D01*
G01*
X008480785Y018995090D01*
G01*
X008423880Y019182683D01*
G01*
X008331470Y019355570D01*
G01*
X008207107Y019507107D01*
G01*
X008055570Y019631470D01*
G01*
X007882683Y019723880D01*
G01*
X007695090Y019780785D01*
G01*
X007500000Y019800000D01*
G01*
X007304910Y019780785D01*
G01*
X007117317Y019723880D01*
G01*
X006944430Y019631470D01*
G01*
X006792893Y019507107D01*
G01*
X006668530Y019355570D01*
G01*
X006576120Y019182683D01*
G01*
X006519215Y018995090D01*
G01*
X006500000Y018800000D01*
G01*
X006519215Y018604910D01*
G01*
X006576120Y018417317D01*
G01*
X006668530Y018244430D01*
G01*
X006792893Y018092893D01*
G01*
X006944430Y017968530D01*
G01*
X007117317Y017876120D01*
G01*
X007200000Y017851039D01*
G01*
X007200000Y016150137D01*
G01*
X007205764Y016091610D01*
G01*
X007222836Y016035332D01*
G01*
X007250559Y015983466D01*
G01*
X007287868Y015938005D01*
G01*
X010359028Y012866845D01*
G01*
X010404489Y012829536D01*
G01*
X010456355Y012801813D01*
G01*
X010478423Y012795119D01*
G01*
X010494513Y012775513D01*
G01*
X010547550Y012731986D01*
G01*
X010608061Y012699642D01*
G01*
X010673718Y012679725D01*
G01*
X010742000Y012673000D01*
G37*
D38*
G36*
X-08985226Y018950000D02*
G01*
X-08785226Y018950000D01*
G01*
X-08784628Y018956072D01*
G01*
X-08739104Y019106147D01*
G01*
X-08665176Y019244456D01*
G01*
X-08565685Y019365685D01*
G01*
X-08444456Y019465176D01*
G01*
X-08306147Y019539104D01*
G01*
X-08156072Y019584628D01*
G01*
X-08150000Y019585226D01*
G01*
X-08150000Y019785226D01*
G01*
X-08195090Y019780785D01*
G01*
X-08382683Y019723880D01*
G01*
X-08555570Y019631470D01*
G01*
X-08707107Y019507107D01*
G01*
X-08831470Y019355570D01*
G01*
X-08923880Y019182683D01*
G01*
X-08980785Y018995090D01*
G01*
X-08985226Y018950000D01*
G37*
D38*
G36*
X-07214774Y018950000D02*
G01*
X-07014774Y018950000D01*
G01*
X-07019215Y018995090D01*
G01*
X-07076120Y019182683D01*
G01*
X-07168530Y019355570D01*
G01*
X-07292893Y019507107D01*
G01*
X-07444430Y019631470D01*
G01*
X-07617317Y019723880D01*
G01*
X-07804910Y019780785D01*
G01*
X-07850000Y019785226D01*
G01*
X-07850000Y019585226D01*
G01*
X-07843928Y019584628D01*
G01*
X-07693853Y019539104D01*
G01*
X-07555544Y019465176D01*
G01*
X-07434315Y019365685D01*
G01*
X-07334824Y019244456D01*
G01*
X-07260896Y019106147D01*
G01*
X-07215372Y018956072D01*
G01*
X-07214774Y018950000D01*
G37*
D38*
G36*
X004514774Y018950000D02*
G01*
X004714774Y018950000D01*
G01*
X004715372Y018956072D01*
G01*
X004760896Y019106147D01*
G01*
X004834824Y019244456D01*
G01*
X004934315Y019365685D01*
G01*
X005055544Y019465176D01*
G01*
X005193853Y019539104D01*
G01*
X005343928Y019584628D01*
G01*
X005350000Y019585226D01*
G01*
X005350000Y019785226D01*
G01*
X005304910Y019780785D01*
G01*
X005117317Y019723880D01*
G01*
X004944430Y019631470D01*
G01*
X004792893Y019507107D01*
G01*
X004668530Y019355570D01*
G01*
X004576120Y019182683D01*
G01*
X004519215Y018995090D01*
G01*
X004514774Y018950000D01*
G37*
D38*
G36*
X006285226Y018950000D02*
G01*
X006485226Y018950000D01*
G01*
X006480785Y018995090D01*
G01*
X006423880Y019182683D01*
G01*
X006331470Y019355570D01*
G01*
X006207107Y019507107D01*
G01*
X006055570Y019631470D01*
G01*
X005882683Y019723880D01*
G01*
X005695090Y019780785D01*
G01*
X005650000Y019785226D01*
G01*
X005650000Y019585226D01*
G01*
X005656072Y019584628D01*
G01*
X005806147Y019539104D01*
G01*
X005944456Y019465176D01*
G01*
X006065685Y019365685D01*
G01*
X006165176Y019244456D01*
G01*
X006239104Y019106147D01*
G01*
X006284628Y018956072D01*
G01*
X006285226Y018950000D01*
G37*
D38*
G36*
X-08150000Y017814774D02*
G01*
X-08150000Y018014774D01*
G01*
X-08156072Y018015372D01*
G01*
X-08306147Y018060896D01*
G01*
X-08444456Y018134824D01*
G01*
X-08565685Y018234315D01*
G01*
X-08665176Y018355544D01*
G01*
X-08739104Y018493853D01*
G01*
X-08784628Y018643928D01*
G01*
X-08785226Y018650000D01*
G01*
X-08985226Y018650000D01*
G01*
X-08980785Y018604910D01*
G01*
X-08923880Y018417317D01*
G01*
X-08831470Y018244430D01*
G01*
X-08707107Y018092893D01*
G01*
X-08555570Y017968530D01*
G01*
X-08382683Y017876120D01*
G01*
X-08195090Y017819215D01*
G01*
X-08150000Y017814774D01*
G37*
D38*
G36*
X-07850000Y017814774D02*
G01*
X-07804910Y017819215D01*
G01*
X-07617317Y017876120D01*
G01*
X-07444430Y017968530D01*
G01*
X-07292893Y018092893D01*
G01*
X-07168530Y018244430D01*
G01*
X-07076120Y018417317D01*
G01*
X-07019215Y018604910D01*
G01*
X-07014774Y018650000D01*
G01*
X-07214774Y018650000D01*
G01*
X-07215372Y018643928D01*
G01*
X-07260896Y018493853D01*
G01*
X-07334824Y018355544D01*
G01*
X-07434315Y018234315D01*
G01*
X-07555544Y018134824D01*
G01*
X-07693853Y018060896D01*
G01*
X-07843928Y018015372D01*
G01*
X-07850000Y018014774D01*
G01*
X-07850000Y017814774D01*
G37*
D38*
G36*
X005350000Y017814774D02*
G01*
X005350000Y018014774D01*
G01*
X005343928Y018015372D01*
G01*
X005193853Y018060896D01*
G01*
X005055544Y018134824D01*
G01*
X004934315Y018234315D01*
G01*
X004834824Y018355544D01*
G01*
X004760896Y018493853D01*
G01*
X004715372Y018643928D01*
G01*
X004714774Y018650000D01*
G01*
X004514774Y018650000D01*
G01*
X004519215Y018604910D01*
G01*
X004576120Y018417317D01*
G01*
X004668530Y018244430D01*
G01*
X004792893Y018092893D01*
G01*
X004944430Y017968530D01*
G01*
X005117317Y017876120D01*
G01*
X005304910Y017819215D01*
G01*
X005350000Y017814774D01*
G37*
D38*
G36*
X005650000Y017814774D02*
G01*
X005695090Y017819215D01*
G01*
X005882683Y017876120D01*
G01*
X006055570Y017968530D01*
G01*
X006207107Y018092893D01*
G01*
X006331470Y018244430D01*
G01*
X006423880Y018417317D01*
G01*
X006480785Y018604910D01*
G01*
X006485226Y018650000D01*
G01*
X006285226Y018650000D01*
G01*
X006284628Y018643928D01*
G01*
X006239104Y018493853D01*
G01*
X006165176Y018355544D01*
G01*
X006065685Y018234315D01*
G01*
X005944456Y018134824D01*
G01*
X005806147Y018060896D01*
G01*
X005656072Y018015372D01*
G01*
X005650000Y018014774D01*
G01*
X005650000Y017814774D01*
G37*
D38*
G36*
X003810000Y-19780000D02*
G01*
X004024599Y-19758864D01*
G01*
X004230952Y-19696267D01*
G01*
X004421127Y-19594617D01*
G01*
X004587817Y-19457817D01*
G01*
X004724617Y-19291127D01*
G01*
X004826267Y-19100952D01*
G01*
X004888864Y-18894599D01*
G01*
X004910000Y-18680000D01*
G01*
X004888864Y-18465401D01*
G01*
X004826267Y-18259048D01*
G01*
X004724617Y-18068873D01*
G01*
X004587817Y-17902183D01*
G01*
X004421127Y-17765383D01*
G01*
X004230952Y-17663733D01*
G01*
X004097500Y-17623250D01*
G01*
X004097500Y-15376218D01*
G01*
X004091976Y-15320129D01*
G01*
X004075615Y-15266196D01*
G01*
X004049048Y-15216491D01*
G01*
X004013293Y-15172925D01*
G01*
X000233482Y-11393113D01*
G01*
X000233482Y-10675567D01*
G01*
X000527451Y-10381597D01*
G01*
X000563206Y-10338031D01*
G01*
X000589774Y-10288326D01*
G01*
X000606134Y-10234393D01*
G01*
X000611658Y-10178304D01*
G01*
X000606134Y-10122216D01*
G01*
X000598184Y-10096009D01*
G01*
X000592284Y-10036103D01*
G01*
X000625721Y-10036103D01*
G01*
X001782138Y-11192520D01*
G01*
X001823811Y-11226720D01*
G01*
X001835493Y-11232964D01*
G01*
X001840642Y-11249939D01*
G01*
X001872986Y-11310450D01*
G01*
X001916513Y-11363487D01*
G01*
X001969550Y-11407014D01*
G01*
X002030061Y-11439358D01*
G01*
X002095718Y-11459275D01*
G01*
X002164000Y-11466000D01*
G01*
X002232282Y-11459275D01*
G01*
X002287201Y-11442615D01*
G01*
X002078510Y-12168692D01*
G01*
X002080546Y-12169277D01*
G01*
X002069647Y-12205209D01*
G01*
X002061000Y-12293000D01*
G01*
X002069647Y-12380791D01*
G01*
X002095254Y-12465208D01*
G01*
X002136839Y-12543007D01*
G01*
X002192802Y-12611198D01*
G01*
X002260993Y-12667161D01*
G01*
X002338792Y-12708746D01*
G01*
X002423209Y-12734353D01*
G01*
X002511000Y-12743000D01*
G01*
X002598791Y-12734353D01*
G01*
X002683208Y-12708746D01*
G01*
X002761007Y-12667161D01*
G01*
X002829198Y-12611198D01*
G01*
X002885161Y-12543007D01*
G01*
X002926746Y-12465208D01*
G01*
X002941454Y-12416723D01*
G01*
X002943490Y-12417308D01*
G01*
X003285488Y-11227432D01*
G01*
X003285642Y-11227939D01*
G01*
X003317986Y-11288450D01*
G01*
X003361513Y-11341487D01*
G01*
X003414550Y-11385014D01*
G01*
X003475061Y-11417358D01*
G01*
X003540718Y-11437275D01*
G01*
X003609000Y-11444000D01*
G01*
X003677282Y-11437275D01*
G01*
X003742939Y-11417358D01*
G01*
X003803450Y-11385014D01*
G01*
X003856487Y-11341487D01*
G01*
X003900014Y-11288450D01*
G01*
X003932358Y-11227939D01*
G01*
X003952275Y-11162282D01*
G01*
X003959000Y-11094000D01*
G01*
X003952275Y-11025718D01*
G01*
X003935731Y-10971179D01*
G01*
X004450138Y-09331061D01*
G01*
X004499829Y-09290281D01*
G01*
X004543356Y-09237243D01*
G01*
X004575699Y-09176733D01*
G01*
X004595616Y-09111075D01*
G01*
X004602342Y-09042793D01*
G01*
X004595616Y-08974512D01*
G01*
X004575699Y-08908854D01*
G01*
X004543356Y-08848344D01*
G01*
X004499829Y-08795306D01*
G01*
X004446791Y-08751779D01*
G01*
X004386281Y-08719435D01*
G01*
X004320623Y-08699518D01*
G01*
X004252342Y-08692793D01*
G01*
X004184060Y-08699518D01*
G01*
X004118402Y-08719435D01*
G01*
X004057892Y-08751779D01*
G01*
X004004854Y-08795306D01*
G01*
X003961327Y-08848344D01*
G01*
X003928984Y-08908854D01*
G01*
X003909067Y-08974512D01*
G01*
X003902342Y-09042793D01*
G01*
X003909067Y-09111075D01*
G01*
X003925611Y-09165614D01*
G01*
X003411203Y-10805733D01*
G01*
X003405302Y-10810576D01*
G01*
X003832490Y-09324308D01*
G01*
X003830454Y-09323723D01*
G01*
X003841353Y-09287791D01*
G01*
X003850000Y-09200000D01*
G01*
X003850000Y-08193988D01*
G01*
X003841353Y-08106197D01*
G01*
X003815746Y-08021780D01*
G01*
X003774161Y-07943981D01*
G01*
X003718198Y-07875790D01*
G01*
X003538198Y-07695790D01*
G01*
X003470007Y-07639827D01*
G01*
X003392208Y-07598242D01*
G01*
X003362228Y-07589148D01*
G01*
X005184232Y-05945031D01*
G01*
X005183547Y-05944272D01*
G01*
X005194454Y-05935320D01*
G01*
X005228654Y-05893647D01*
G01*
X005254067Y-05846103D01*
G01*
X005269716Y-05794515D01*
G01*
X005275000Y-05740865D01*
G01*
X005275000Y-04613963D01*
G01*
X005291014Y-04594450D01*
G01*
X005323358Y-04533939D01*
G01*
X005343275Y-04468282D01*
G01*
X005350000Y-04400000D01*
G01*
X005343275Y-04331718D01*
G01*
X005323358Y-04266061D01*
G01*
X005291014Y-04205550D01*
G01*
X005247487Y-04152513D01*
G01*
X005194450Y-04108986D01*
G01*
X005133939Y-04076642D01*
G01*
X005068282Y-04056725D01*
G01*
X005000000Y-04050000D01*
G01*
X004931718Y-04056725D01*
G01*
X004888560Y-04069817D01*
G01*
X014188019Y005372579D01*
G01*
X014187865Y005372731D01*
G01*
X014223716Y005416416D01*
G01*
X014251439Y005468282D01*
G01*
X014268511Y005524560D01*
G01*
X014274275Y005583087D01*
G01*
X014272191Y005604244D01*
G01*
X014273521Y005604338D01*
G01*
X014269097Y005666635D01*
G01*
X014269097Y012027903D01*
G01*
X014263333Y012086430D01*
G01*
X014246261Y012142708D01*
G01*
X014218538Y012194574D01*
G01*
X014181229Y012240035D01*
G01*
X014040742Y012380522D01*
G01*
X014026358Y012427939D01*
G01*
X013994014Y012488450D01*
G01*
X013950487Y012541487D01*
G01*
X013897450Y012585014D01*
G01*
X013836939Y012617358D01*
G01*
X013771282Y012637275D01*
G01*
X013703000Y012644000D01*
G01*
X013634718Y012637275D01*
G01*
X013569061Y012617358D01*
G01*
X013508550Y012585014D01*
G01*
X013455513Y012541487D01*
G01*
X013411986Y012488450D01*
G01*
X013400083Y012466181D01*
G01*
X012900742Y012965522D01*
G01*
X012886358Y013012939D01*
G01*
X012854014Y013073450D01*
G01*
X012810487Y013126487D01*
G01*
X012757450Y013170014D01*
G01*
X012696939Y013202358D01*
G01*
X012631282Y013222275D01*
G01*
X012563000Y013229000D01*
G01*
X012494718Y013222275D01*
G01*
X012429061Y013202358D01*
G01*
X012368550Y013170014D01*
G01*
X012315513Y013126487D01*
G01*
X012271986Y013073450D01*
G01*
X012239642Y013012939D01*
G01*
X012219725Y012947282D01*
G01*
X012213000Y012879000D01*
G01*
X012219725Y012810718D01*
G01*
X012239642Y012745061D01*
G01*
X012271986Y012684550D01*
G01*
X012315513Y012631513D01*
G01*
X012368550Y012587986D01*
G01*
X012429061Y012555642D01*
G01*
X012476478Y012541258D01*
G01*
X013362618Y011655118D01*
G01*
X013362618Y011485196D01*
G01*
X013339282Y011492275D01*
G01*
X013271000Y011499000D01*
G01*
X013202718Y011492275D01*
G01*
X013137061Y011472358D01*
G01*
X013076550Y011440014D01*
G01*
X013023513Y011396487D01*
G01*
X012979986Y011343450D01*
G01*
X012947642Y011282939D01*
G01*
X012932860Y011234209D01*
G01*
X012899737Y011193849D01*
G01*
X012872014Y011141983D01*
G01*
X012869888Y011134974D01*
G01*
X012549856Y010814942D01*
G01*
X012533014Y010846450D01*
G01*
X012489487Y010899487D01*
G01*
X012436450Y010943014D01*
G01*
X012375939Y010975358D01*
G01*
X012310282Y010995275D01*
G01*
X012242000Y011002000D01*
G01*
X012173718Y010995275D01*
G01*
X012108061Y010975358D01*
G01*
X012047550Y010943014D01*
G01*
X011994513Y010899487D01*
G01*
X011950986Y010846450D01*
G01*
X011918642Y010785939D01*
G01*
X011898725Y010720282D01*
G01*
X011896251Y010695159D01*
G01*
X009552789Y008351698D01*
G01*
X009553471Y008353946D01*
G01*
X009565000Y008471000D01*
G01*
X009553471Y008588054D01*
G01*
X009519328Y008700610D01*
G01*
X009463882Y008804342D01*
G01*
X009389264Y008895264D01*
G01*
X009298342Y008969882D01*
G01*
X009194610Y009025328D01*
G01*
X009082054Y009059471D01*
G01*
X008965000Y009071000D01*
G01*
X008361912Y009071000D01*
G01*
X008007353Y009071000D01*
G01*
X007975941Y009102412D01*
G01*
X007885019Y009177029D01*
G01*
X007830195Y009206333D01*
G01*
X007808264Y009228264D01*
G01*
X007717342Y009302882D01*
G01*
X007613610Y009358328D01*
G01*
X007501054Y009392471D01*
G01*
X007384000Y009404000D01*
G01*
X007266946Y009392471D01*
G01*
X007154390Y009358328D01*
G01*
X007050658Y009302882D01*
G01*
X006959736Y009228264D01*
G01*
X006885118Y009137342D01*
G01*
X006829672Y009033610D01*
G01*
X006795529Y008921054D01*
G01*
X006784000Y008804000D01*
G01*
X006795529Y008686946D01*
G01*
X006829672Y008574390D01*
G01*
X006885118Y008470658D01*
G01*
X006959736Y008379736D01*
G01*
X007085588Y008253884D01*
G01*
X007176510Y008179266D01*
G01*
X007231336Y008149961D01*
G01*
X007334561Y008046736D01*
G01*
X007425483Y007972118D01*
G01*
X007529215Y007916672D01*
G01*
X007641771Y007882529D01*
G01*
X007758825Y007871000D01*
G01*
X008361912Y007871000D01*
G01*
X008965000Y007871000D01*
G01*
X009082054Y007882529D01*
G01*
X009084302Y007883211D01*
G01*
X007959493Y006758402D01*
G01*
X001221972Y006758402D01*
G01*
X001205402Y006758402D01*
G01*
X001151753Y006753118D01*
G01*
X001100164Y006737469D01*
G01*
X001052621Y006712057D01*
G01*
X001050759Y006710529D01*
G01*
X001017718Y006707275D01*
G01*
X000952061Y006687358D01*
G01*
X000891550Y006655014D01*
G01*
X000838513Y006611487D01*
G01*
X000794986Y006558450D01*
G01*
X000762642Y006497939D01*
G01*
X000742725Y006432282D01*
G01*
X000736000Y006364000D01*
G01*
X000742725Y006295718D01*
G01*
X000761566Y006233607D01*
G01*
X-00366841Y007303266D01*
G01*
X-00282946Y007311529D01*
G01*
X-00170390Y007345672D01*
G01*
X-00066658Y007401118D01*
G01*
X000024264Y007475736D01*
G01*
X001122528Y008574000D01*
G01*
X005459000Y008574000D01*
G01*
X005576054Y008585529D01*
G01*
X005688610Y008619672D01*
G01*
X005792342Y008675118D01*
G01*
X005883264Y008749736D01*
G01*
X005957882Y008840658D01*
G01*
X006013328Y008944390D01*
G01*
X006047471Y009056946D01*
G01*
X006059000Y009174000D01*
G01*
X006047471Y009291054D01*
G01*
X006013328Y009403610D01*
G01*
X005957882Y009507342D01*
G01*
X005883264Y009598264D01*
G01*
X005792342Y009672882D01*
G01*
X005688610Y009728328D01*
G01*
X005576054Y009762471D01*
G01*
X005459000Y009774000D01*
G01*
X000874000Y009774000D01*
G01*
X000756946Y009762471D01*
G01*
X000644390Y009728328D01*
G01*
X000540658Y009672882D01*
G01*
X000449736Y009598264D01*
G01*
X-00824264Y008324264D01*
G01*
X-00898882Y008233342D01*
G01*
X-00954328Y008129610D01*
G01*
X-00988471Y008017054D01*
G01*
X-00999688Y007903166D01*
G01*
X-02548041Y009370907D01*
G01*
X-02560126Y010690040D01*
G01*
X-02560373Y010690038D01*
G01*
X-02565638Y010743495D01*
G01*
X-02581998Y010797428D01*
G01*
X-02608566Y010847133D01*
G01*
X-02629660Y010872835D01*
G01*
X-02628639Y010873703D01*
G01*
X-03042181Y011359783D01*
G01*
X-03043201Y011358915D01*
G01*
X-03057862Y011376779D01*
G01*
X-03063722Y011381588D01*
G01*
X-03063279Y011382055D01*
G01*
X-04388500Y012639333D01*
G01*
X-04388500Y017480268D01*
G01*
X-04384986Y017484550D01*
G01*
X-04352642Y017545061D01*
G01*
X-04332725Y017610718D01*
G01*
X-04326000Y017679000D01*
G01*
X-04332725Y017747282D01*
G01*
X-04352642Y017812939D01*
G01*
X-04384986Y017873450D01*
G01*
X-04428513Y017926487D01*
G01*
X-04481550Y017970014D01*
G01*
X-04542061Y018002358D01*
G01*
X-04607718Y018022275D01*
G01*
X-04676000Y018029000D01*
G01*
X-04744282Y018022275D01*
G01*
X-04809939Y018002358D01*
G01*
X-04870450Y017970014D01*
G01*
X-04923487Y017926487D01*
G01*
X-04967014Y017873450D01*
G01*
X-04999358Y017812939D01*
G01*
X-05019275Y017747282D01*
G01*
X-05026000Y017679000D01*
G01*
X-05019275Y017610718D01*
G01*
X-04999358Y017545061D01*
G01*
X-04967014Y017484550D01*
G01*
X-04963500Y017480268D01*
G01*
X-04963500Y012515792D01*
G01*
X-04957976Y012459704D01*
G01*
X-04941615Y012405771D01*
G01*
X-04915048Y012356066D01*
G01*
X-04879293Y012312499D01*
G01*
X-04873433Y012307690D01*
G01*
X-04873876Y012307223D01*
G01*
X-03761582Y011251954D01*
G01*
X-03797487Y011222487D01*
G01*
X-03841014Y011169450D01*
G01*
X-03873358Y011108939D01*
G01*
X-03893275Y011043282D01*
G01*
X-03900000Y010975000D01*
G01*
X-03893275Y010906718D01*
G01*
X-03873358Y010841061D01*
G01*
X-03857830Y010812010D01*
G01*
X-03916696Y010780546D01*
G01*
X-03969734Y010737019D01*
G01*
X-04013261Y010683981D01*
G01*
X-04045605Y010623471D01*
G01*
X-04065522Y010557813D01*
G01*
X-04072247Y010489532D01*
G01*
X-04065522Y010421250D01*
G01*
X-04058931Y010399522D01*
G01*
X-04058931Y008356931D01*
G01*
X-04053167Y008298404D01*
G01*
X-04036095Y008242126D01*
G01*
X-04008372Y008190260D01*
G01*
X-03971063Y008144799D01*
G01*
X-03484742Y007658478D01*
G01*
X-03470358Y007611061D01*
G01*
X-03438014Y007550550D01*
G01*
X-03394487Y007497513D01*
G01*
X-03341450Y007453986D01*
G01*
X-03280939Y007421642D01*
G01*
X-03215282Y007401725D01*
G01*
X-03147000Y007395000D01*
G01*
X-03078718Y007401725D01*
G01*
X-03013061Y007421642D01*
G01*
X-02952550Y007453986D01*
G01*
X-02899513Y007497513D01*
G01*
X-02855986Y007550550D01*
G01*
X-02823642Y007611061D01*
G01*
X-02803725Y007676718D01*
G01*
X-02797000Y007745000D01*
G01*
X-02803725Y007813282D01*
G01*
X-02823642Y007878939D01*
G01*
X-02855986Y007939450D01*
G01*
X-02899513Y007992487D01*
G01*
X-02952550Y008036014D01*
G01*
X-03013061Y008068358D01*
G01*
X-03060478Y008082742D01*
G01*
X-03458931Y008481195D01*
G01*
X-03458931Y009526655D01*
G01*
X-03457209Y009524557D01*
G01*
X-03402277Y009479475D01*
G01*
X-03339605Y009445976D01*
G01*
X-03271603Y009425348D01*
G01*
X-03200883Y009418383D01*
G01*
X-03130162Y009425348D01*
G01*
X-03123582Y009427344D01*
G01*
X-03121899Y009243590D01*
G01*
X-03121652Y009243592D01*
G01*
X-03116387Y009190135D01*
G01*
X-03100026Y009136202D01*
G01*
X-03073458Y009086497D01*
G01*
X-03037704Y009042930D01*
G01*
X-03031751Y009038045D01*
G01*
X-03032200Y009037571D01*
G01*
X-00020676Y006182836D01*
G01*
X-00055154Y006201265D01*
G01*
X-00120811Y006221182D01*
G01*
X-00189093Y006227907D01*
G01*
X-00257375Y006221182D01*
G01*
X-00323032Y006201265D01*
G01*
X-00383543Y006168921D01*
G01*
X-00392734Y006161378D01*
G01*
X-03069884Y006269775D01*
G01*
X-03069919Y006268908D01*
G01*
X-03081009Y006270000D01*
G01*
X-03134659Y006264716D01*
G01*
X-03186247Y006249067D01*
G01*
X-03233791Y006223654D01*
G01*
X-03275464Y006189454D01*
G01*
X-09907768Y-00442850D01*
G01*
X-09931046Y-00471214D01*
G01*
X-09948939Y-00476642D01*
G01*
X-10009450Y-00508986D01*
G01*
X-10062487Y-00552513D01*
G01*
X-10106014Y-00605550D01*
G01*
X-10138358Y-00666061D01*
G01*
X-10158275Y-00731718D01*
G01*
X-10165000Y-00800000D01*
G01*
X-10158275Y-00868282D01*
G01*
X-10138358Y-00933939D01*
G01*
X-10106014Y-00994450D01*
G01*
X-10062487Y-01047487D01*
G01*
X-10009450Y-01091014D01*
G01*
X-09948939Y-01123358D01*
G01*
X-09883282Y-01143275D01*
G01*
X-09815000Y-01150000D01*
G01*
X-09746718Y-01143275D01*
G01*
X-09681061Y-01123358D01*
G01*
X-09620550Y-01091014D01*
G01*
X-09567513Y-01047487D01*
G01*
X-09523986Y-00994450D01*
G01*
X-09491642Y-00933939D01*
G01*
X-09471725Y-00868282D01*
G01*
X-09466728Y-00817548D01*
G01*
X-09459247Y-00803551D01*
G01*
X-09445571Y-00758470D01*
G01*
X-02971750Y005715351D01*
G01*
X-00413871Y005611783D01*
G01*
X-00383543Y005586893D01*
G01*
X-00323032Y005554549D01*
G01*
X-00257375Y005534632D01*
G01*
X-00189093Y005527907D01*
G01*
X-00120811Y005534632D01*
G01*
X-00055154Y005554549D01*
G01*
X000005357Y005586893D01*
G01*
X000058394Y005630420D01*
G01*
X000101921Y005683457D01*
G01*
X000134265Y005743968D01*
G01*
X000154182Y005809625D01*
G01*
X000160907Y005877907D01*
G01*
X000154182Y005946189D01*
G01*
X000134265Y006011846D01*
G01*
X000108135Y006060731D01*
G01*
X000295873Y005882768D01*
G01*
X000283100Y005856166D01*
G01*
X000284106Y005855683D01*
G01*
X000276658Y005841748D01*
G01*
X000260298Y005787815D01*
G01*
X000254774Y005731726D01*
G01*
X000260298Y005675638D01*
G01*
X000276658Y005621705D01*
G01*
X000303226Y005572000D01*
G01*
X000338981Y005528433D01*
G01*
X000445182Y005422232D01*
G01*
X000445725Y005416718D01*
G01*
X000465642Y005351061D01*
G01*
X000497986Y005290550D01*
G01*
X000541513Y005237513D01*
G01*
X000594550Y005193986D01*
G01*
X000655061Y005161642D01*
G01*
X000720718Y005141725D01*
G01*
X000789000Y005135000D01*
G01*
X000857282Y005141725D01*
G01*
X000922939Y005161642D01*
G01*
X000983450Y005193986D01*
G01*
X001036487Y005237513D01*
G01*
X001080014Y005290550D01*
G01*
X001112358Y005351061D01*
G01*
X001132275Y005416718D01*
G01*
X001139000Y005485000D01*
G01*
X001132275Y005553282D01*
G01*
X001112358Y005618939D01*
G01*
X001080014Y005679450D01*
G01*
X001036487Y005732487D01*
G01*
X000983450Y005776014D01*
G01*
X000922939Y005808358D01*
G01*
X000901162Y005814964D01*
G01*
X000904927Y005822806D01*
G01*
X000903920Y005823289D01*
G01*
X000911369Y005837225D01*
G01*
X000927730Y005891158D01*
G01*
X000933254Y005947246D01*
G01*
X000927730Y006003335D01*
G01*
X000911369Y006057268D01*
G01*
X000907534Y006064442D01*
G01*
X000952061Y006040642D01*
G01*
X001017718Y006020725D01*
G01*
X001086000Y006014000D01*
G01*
X001154282Y006020725D01*
G01*
X001219939Y006040642D01*
G01*
X001280450Y006072986D01*
G01*
X001333487Y006116513D01*
G01*
X001377014Y006169550D01*
G01*
X001397781Y006208402D01*
G01*
X007943316Y006208402D01*
G01*
X003882439Y002147525D01*
G01*
X003831000Y002142458D01*
G01*
X003774722Y002125386D01*
G01*
X003722856Y002097664D01*
G01*
X003677395Y002060355D01*
G01*
X003640086Y002014894D01*
G01*
X003612363Y001963028D01*
G01*
X003595291Y001906750D01*
G01*
X003593199Y001885509D01*
G01*
X003591874Y001885676D01*
G01*
X003391078Y000289893D01*
G01*
X003392404Y000289726D01*
G01*
X003388731Y000252440D01*
G01*
X003393738Y000201609D01*
G01*
X003393088Y000201497D01*
G01*
X003495678Y-00393877D01*
G01*
X003056082Y-00848663D01*
G01*
X003055348Y-00841214D01*
G01*
X003029741Y-00756798D01*
G01*
X002988156Y-00678998D01*
G01*
X002932193Y-00610807D01*
G01*
X002864002Y-00554844D01*
G01*
X002786202Y-00513259D01*
G01*
X002701786Y-00487652D01*
G01*
X002613995Y-00479005D01*
G01*
X002526204Y-00487652D01*
G01*
X002441787Y-00513259D01*
G01*
X002363988Y-00554844D01*
G01*
X002295797Y-00610807D01*
G01*
X000554604Y-02352000D01*
G01*
X000074000Y-02352000D01*
G01*
X-00013791Y-02360647D01*
G01*
X-00098208Y-02386254D01*
G01*
X-00176007Y-02427839D01*
G01*
X-00244198Y-02483802D01*
G01*
X-00300161Y-02551993D01*
G01*
X-00341746Y-02629792D01*
G01*
X-00367353Y-02714209D01*
G01*
X-00376000Y-02802000D01*
G01*
X-00367353Y-02889791D01*
G01*
X-00341746Y-02974208D01*
G01*
X-00300161Y-03052007D01*
G01*
X-00244198Y-03120198D01*
G01*
X-00176007Y-03176161D01*
G01*
X-00098208Y-03217746D01*
G01*
X-00013791Y-03243353D01*
G01*
X000074000Y-03252000D01*
G01*
X000733014Y-03252000D01*
G01*
X000370457Y-03627085D01*
G01*
X000329061Y-03639642D01*
G01*
X000268550Y-03671986D01*
G01*
X000215513Y-03715513D01*
G01*
X000171986Y-03768550D01*
G01*
X000139642Y-03829061D01*
G01*
X000119725Y-03894718D01*
G01*
X000113000Y-03963000D01*
G01*
X000119725Y-04031282D01*
G01*
X000139642Y-04096939D01*
G01*
X000171986Y-04157450D01*
G01*
X000215513Y-04210487D01*
G01*
X000249940Y-04238741D01*
G01*
X000012259Y-04238741D01*
G01*
X-00075531Y-04247387D01*
G01*
X-00159948Y-04272995D01*
G01*
X-00237747Y-04314579D01*
G01*
X-00305939Y-04370543D01*
G01*
X-00321198Y-04385802D01*
G01*
X-00377161Y-04453993D01*
G01*
X-00418746Y-04531792D01*
G01*
X-00444353Y-04616209D01*
G01*
X-00453000Y-04704000D01*
G01*
X-00444353Y-04791791D01*
G01*
X-00418746Y-04876208D01*
G01*
X-00377161Y-04954007D01*
G01*
X-00321198Y-05022198D01*
G01*
X-00253007Y-05078161D01*
G01*
X-00175208Y-05119746D01*
G01*
X-00090791Y-05145353D01*
G01*
X-00003000Y-05154000D01*
G01*
X000084791Y-05145353D01*
G01*
X000106588Y-05138741D01*
G01*
X000469259Y-05138741D01*
G01*
X000926259Y-05138741D01*
G01*
X001383259Y-05138741D01*
G01*
X001840259Y-05138741D01*
G01*
X001928050Y-05130094D01*
G01*
X002012467Y-05104487D01*
G01*
X002090266Y-05062902D01*
G01*
X002158457Y-05006939D01*
G01*
X002499613Y-04665783D01*
G01*
X002840769Y-04324627D01*
G01*
X003181925Y-03983471D01*
G01*
X003523081Y-03642315D01*
G01*
X003864237Y-03301159D01*
G01*
X004205393Y-02960004D01*
G01*
X004546548Y-02618848D01*
G01*
X004887704Y-02277692D01*
G01*
X005228860Y-01936536D01*
G01*
X005570016Y-01595380D01*
G01*
X005911172Y-01254224D01*
G01*
X006252328Y-00913068D01*
G01*
X006593484Y-00571913D01*
G01*
X006934639Y-00230757D01*
G01*
X007275795Y000110399D01*
G01*
X007616951Y000451555D01*
G01*
X007958107Y000792711D01*
G01*
X008299263Y001133867D01*
G01*
X008640419Y001475023D01*
G01*
X008981575Y001816178D01*
G01*
X009322730Y002157334D01*
G01*
X009663886Y002498490D01*
G01*
X010005042Y002839646D01*
G01*
X010346198Y003180802D01*
G01*
X010402161Y003248993D01*
G01*
X010443746Y003326792D01*
G01*
X010469353Y003411209D01*
G01*
X010478000Y003499000D01*
G01*
X010469353Y003586791D01*
G01*
X010443746Y003671208D01*
G01*
X010402161Y003749007D01*
G01*
X010346198Y003817198D01*
G01*
X010278007Y003873161D01*
G01*
X010200208Y003914746D01*
G01*
X010115791Y003940353D01*
G01*
X010028000Y003949000D01*
G01*
X009940209Y003940353D01*
G01*
X009855792Y003914746D01*
G01*
X009777993Y003873161D01*
G01*
X009709802Y003817198D01*
G01*
X009368646Y003476042D01*
G01*
X009027490Y003134886D01*
G01*
X008686334Y002793730D01*
G01*
X008345178Y002452575D01*
G01*
X008004023Y002111419D01*
G01*
X007662867Y001770263D01*
G01*
X007321711Y001429107D01*
G01*
X006980555Y001087951D01*
G01*
X006639399Y000746795D01*
G01*
X006298243Y000405639D01*
G01*
X006219947Y000327343D01*
G01*
X006191768Y000380062D01*
G01*
X006137359Y000446359D01*
G01*
X006071062Y000500768D01*
G01*
X005995424Y000541197D01*
G01*
X005986241Y000543983D01*
G01*
X005731233Y000798991D01*
G01*
X005663042Y000854954D01*
G01*
X005585243Y000896539D01*
G01*
X005500826Y000922146D01*
G01*
X005413035Y000930793D01*
G01*
X004232277Y000930793D01*
G01*
X004144487Y000922146D01*
G01*
X004072622Y000900347D01*
G01*
X004159519Y001590938D01*
G01*
X004173933Y001598643D01*
G01*
X004219394Y001635952D01*
G01*
X013361310Y010777868D01*
G01*
X013362618Y010779462D01*
G01*
X013362618Y010617528D01*
G01*
X013362618Y008951882D01*
G01*
X007726460Y003315724D01*
G01*
X007689151Y003270263D01*
G01*
X007661428Y003218397D01*
G01*
X007644356Y003162119D01*
G01*
X007638592Y003103592D01*
G01*
X007644356Y003045065D01*
G01*
X007661428Y002988787D01*
G01*
X007689151Y002936921D01*
G01*
X007726460Y002891460D01*
G01*
X007771921Y002854151D01*
G01*
X007823787Y002826428D01*
G01*
X007880065Y002809356D01*
G01*
X007883596Y002809008D01*
G01*
X007905556Y002790986D01*
G01*
X007966067Y002758642D01*
G01*
X008031724Y002738725D01*
G01*
X008100006Y002732000D01*
G01*
X008168288Y002738725D01*
G01*
X008233945Y002758642D01*
G01*
X008294456Y002790986D01*
G01*
X008347493Y002834513D01*
G01*
X008391020Y002887550D01*
G01*
X008423364Y002948061D01*
G01*
X008443281Y003013718D01*
G01*
X008450006Y003082000D01*
G01*
X008443281Y003150282D01*
G01*
X008435429Y003176165D01*
G01*
X013669097Y008409833D01*
G01*
X013669097Y005700756D01*
G01*
X000718505Y-07448893D01*
G01*
X000718505Y-05936473D01*
G01*
X000712741Y-05877946D01*
G01*
X000695669Y-05821668D01*
G01*
X000667946Y-05769802D01*
G01*
X000630637Y-05724341D01*
G01*
X000518403Y-05612107D01*
G01*
X000472942Y-05574798D01*
G01*
X000421076Y-05547075D01*
G01*
X000364798Y-05530003D01*
G01*
X000306271Y-05524239D01*
G01*
X-02218351Y-05524239D01*
G01*
X-02480657Y-05524239D01*
G01*
X-02539184Y-05530003D01*
G01*
X-02595462Y-05547075D01*
G01*
X-02647328Y-05574798D01*
G01*
X-02692789Y-05612107D01*
G01*
X-02886630Y-05805948D01*
G01*
X-02945282Y-05811725D01*
G01*
X-03010939Y-05831642D01*
G01*
X-03071450Y-05863986D01*
G01*
X-03124487Y-05907513D01*
G01*
X-03168014Y-05960550D01*
G01*
X-03200358Y-06021061D01*
G01*
X-03214766Y-06068557D01*
G01*
X-03251824Y-06113712D01*
G01*
X-03262540Y-06133759D01*
G01*
X-03450132Y-06321351D01*
G01*
X-03487441Y-06366812D01*
G01*
X-03515164Y-06418678D01*
G01*
X-03532236Y-06474956D01*
G01*
X-03538000Y-06533483D01*
G01*
X-03538000Y-07521362D01*
G01*
X-03561358Y-07565061D01*
G01*
X-03581275Y-07630718D01*
G01*
X-03588000Y-07699000D01*
G01*
X-03581275Y-07767282D01*
G01*
X-03561358Y-07832939D01*
G01*
X-03529014Y-07893450D01*
G01*
X-03485487Y-07946487D01*
G01*
X-03432450Y-07990014D01*
G01*
X-03429173Y-07991766D01*
G01*
X-04000491Y-08553794D01*
G01*
X-04000718Y-08553725D01*
G01*
X-04069000Y-08547000D01*
G01*
X-04137282Y-08553725D01*
G01*
X-04202939Y-08573642D01*
G01*
X-04263450Y-08605986D01*
G01*
X-04316487Y-08649513D01*
G01*
X-04360014Y-08702550D01*
G01*
X-04392358Y-08763061D01*
G01*
X-04412275Y-08828718D01*
G01*
X-04419000Y-08897000D01*
G01*
X-04412275Y-08965282D01*
G01*
X-04392358Y-09030939D01*
G01*
X-04360014Y-09091450D01*
G01*
X-04316487Y-09144487D01*
G01*
X-04263450Y-09188014D01*
G01*
X-04202939Y-09220358D01*
G01*
X-04137282Y-09240275D01*
G01*
X-04069000Y-09247000D01*
G01*
X-04000718Y-09240275D01*
G01*
X-03935061Y-09220358D01*
G01*
X-03874550Y-09188014D01*
G01*
X-03851937Y-09169456D01*
G01*
X-03829387Y-09162615D01*
G01*
X-03779682Y-09136048D01*
G01*
X-03737945Y-09101794D01*
G01*
X-03737789Y-09101953D01*
G01*
X-01988916Y-07381517D01*
G01*
X-01966198Y-07409198D01*
G01*
X-01952376Y-07423021D01*
G01*
X-01884184Y-07478984D01*
G01*
X-01806385Y-07520568D01*
G01*
X-01721968Y-07546176D01*
G01*
X-01720409Y-07546330D01*
G01*
X-01598540Y-07668198D01*
G01*
X-01530349Y-07724161D01*
G01*
X-01452550Y-07765746D01*
G01*
X-01368133Y-07791353D01*
G01*
X-01280342Y-07800000D01*
G01*
X-00879000Y-07800000D01*
G01*
X-00791209Y-07791353D01*
G01*
X-00706792Y-07765746D01*
G01*
X-00628993Y-07724161D01*
G01*
X-00560802Y-07668198D01*
G01*
X-00504839Y-07600007D01*
G01*
X-00463254Y-07522208D01*
G01*
X-00437647Y-07437791D01*
G01*
X-00429000Y-07350000D01*
G01*
X-00437647Y-07262209D01*
G01*
X-00463254Y-07177792D01*
G01*
X-00504839Y-07099993D01*
G01*
X-00560802Y-07031802D01*
G01*
X-00628993Y-06975839D01*
G01*
X-00706792Y-06934254D01*
G01*
X-00791209Y-06908647D01*
G01*
X-00879000Y-06900000D01*
G01*
X-01093946Y-06900000D01*
G01*
X-01207322Y-06786624D01*
G01*
X-01275513Y-06730661D01*
G01*
X-01353312Y-06689077D01*
G01*
X-01375971Y-06682203D01*
G01*
X-01292489Y-06625713D01*
G01*
X-00324004Y-06625713D01*
G01*
X-00267916Y-06620189D01*
G01*
X-00213983Y-06603829D01*
G01*
X-00164278Y-06577261D01*
G01*
X-00120711Y-06541506D01*
G01*
X-00101941Y-06522736D01*
G01*
X-00083939Y-06532358D01*
G01*
X-00018282Y-06552275D01*
G01*
X000050000Y-06559000D01*
G01*
X000118282Y-06552275D01*
G01*
X000118505Y-06552207D01*
G01*
X000118505Y-07162255D01*
G01*
X000090051Y-07165058D01*
G01*
X000024393Y-07184975D01*
G01*
X-00036117Y-07217318D01*
G01*
X-00089155Y-07260845D01*
G01*
X-00132682Y-07313883D01*
G01*
X-00165025Y-07374393D01*
G01*
X-00184942Y-07440051D01*
G01*
X-00191668Y-07508332D01*
G01*
X-00184942Y-07576614D01*
G01*
X-00165025Y-07642272D01*
G01*
X-00132682Y-07702782D01*
G01*
X-00089155Y-07755820D01*
G01*
X-00036117Y-07799347D01*
G01*
X000024393Y-07831690D01*
G01*
X000090051Y-07851607D01*
G01*
X000158332Y-07858332D01*
G01*
X000226614Y-07851607D01*
G01*
X000292272Y-07831690D01*
G01*
X000352782Y-07799347D01*
G01*
X000364108Y-07790052D01*
G01*
X000384420Y-07788113D01*
G01*
X-00151359Y-08332127D01*
G01*
X-00192060Y-08344771D01*
G01*
X-00191633Y-08346144D01*
G01*
X-00217866Y-08354102D01*
G01*
X-00269732Y-08381825D01*
G01*
X-00315193Y-08419134D01*
G01*
X-00352502Y-08464595D01*
G01*
X-00380224Y-08516461D01*
G01*
X-00397296Y-08572738D01*
G01*
X-00403061Y-08631266D01*
G01*
X-00397296Y-08689793D01*
G01*
X-00380224Y-08746071D01*
G01*
X-00352502Y-08797937D01*
G01*
X-00315193Y-08843398D01*
G01*
X000005303Y-09163893D01*
G01*
X000011564Y-09184533D01*
G01*
X000039287Y-09236399D01*
G01*
X000050804Y-09250433D01*
G01*
X000067642Y-09305939D01*
G01*
X000099986Y-09366450D01*
G01*
X000143513Y-09419487D01*
G01*
X000196550Y-09463014D01*
G01*
X000239746Y-09486103D01*
G01*
X-02268493Y-09486103D01*
G01*
X-02479358Y-09275238D01*
G01*
X-02481832Y-09250116D01*
G01*
X-02501749Y-09184458D01*
G01*
X-02534093Y-09123948D01*
G01*
X-02577620Y-09070910D01*
G01*
X-02630657Y-09027383D01*
G01*
X-02691168Y-08995039D01*
G01*
X-02756825Y-08975122D01*
G01*
X-02825107Y-08968397D01*
G01*
X-02893389Y-08975122D01*
G01*
X-02959046Y-08995039D01*
G01*
X-03019557Y-09027383D01*
G01*
X-03072594Y-09070910D01*
G01*
X-03116121Y-09123948D01*
G01*
X-03148465Y-09184458D01*
G01*
X-03162849Y-09231875D01*
G01*
X-03604974Y-09674000D01*
G01*
X-04570362Y-09674000D01*
G01*
X-04614061Y-09650642D01*
G01*
X-04679718Y-09630725D01*
G01*
X-04748000Y-09624000D01*
G01*
X-04816282Y-09630725D01*
G01*
X-04881939Y-09650642D01*
G01*
X-04942450Y-09682986D01*
G01*
X-04995487Y-09726513D01*
G01*
X-05039014Y-09779550D01*
G01*
X-05071358Y-09840061D01*
G01*
X-05091275Y-09905718D01*
G01*
X-05098000Y-09974000D01*
G01*
X-05091275Y-10042282D01*
G01*
X-05081979Y-10072926D01*
G01*
X-07287926Y-10072926D01*
G01*
X-07346453Y-10078691D01*
G01*
X-07402731Y-10095762D01*
G01*
X-07454597Y-10123485D01*
G01*
X-07500058Y-10160794D01*
G01*
X-07729476Y-10390212D01*
G01*
X-07552752Y-08799694D01*
G01*
X-07554871Y-08799459D01*
G01*
X-07550000Y-08750000D01*
G01*
X-07554223Y-08707123D01*
G01*
X-07552067Y-08706916D01*
G01*
X-07714893Y-07014056D01*
G01*
X-07714893Y-06563898D01*
G01*
X-07714893Y-06092147D01*
G01*
X-07714893Y-05620396D01*
G01*
X-07714893Y-05148644D01*
G01*
X-07714893Y-04863289D01*
G01*
X-07504451Y-04652848D01*
G01*
X-07448488Y-04584656D01*
G01*
X-07406904Y-04506857D01*
G01*
X-07381813Y-04424143D01*
G01*
X-07215241Y-04257571D01*
G01*
X-07168605Y-04200745D01*
G01*
X-07149858Y-04165672D01*
G01*
X-06886256Y-03902070D01*
G01*
X-06544013Y-03559826D01*
G01*
X-06201770Y-03217583D01*
G01*
X-05859526Y-02875340D01*
G01*
X-05517283Y-02533096D01*
G01*
X-05175040Y-02190853D01*
G01*
X-04832796Y-01848610D01*
G01*
X-04490553Y-01506367D01*
G01*
X-04148310Y-01164123D01*
G01*
X-03806066Y-00821880D01*
G01*
X-03463823Y-00479637D01*
G01*
X-03121580Y-00137393D01*
G01*
X-02779337Y000204850D01*
G01*
X-02437093Y000547093D01*
G01*
X-02392789Y000601078D01*
G01*
X-02359868Y000662669D01*
G01*
X-02339595Y000729499D01*
G01*
X-02332750Y000799000D01*
G01*
X-02339595Y000868501D01*
G01*
X-02359868Y000935331D01*
G01*
X-02392789Y000996922D01*
G01*
X-02437093Y001050907D01*
G01*
X-02478995Y001085295D01*
G01*
X-00447838Y001085295D01*
G01*
X-00389311Y001091060D01*
G01*
X-00333033Y001108131D01*
G01*
X-00281167Y001135854D01*
G01*
X-00235706Y001173163D01*
G01*
X000512132Y001921001D01*
G01*
X000518408Y001928648D01*
G01*
X000547487Y001952513D01*
G01*
X000591014Y002005550D01*
G01*
X000623358Y002066061D01*
G01*
X000643275Y002131718D01*
G01*
X000650000Y002200000D01*
G01*
X000643275Y002268282D01*
G01*
X000623358Y002333939D01*
G01*
X000591014Y002394450D01*
G01*
X000547487Y002447487D01*
G01*
X000494450Y002491014D01*
G01*
X000433939Y002523358D01*
G01*
X000368282Y002543275D01*
G01*
X000300000Y002550000D01*
G01*
X000231718Y002543275D01*
G01*
X000166061Y002523358D01*
G01*
X000105550Y002491014D01*
G01*
X000052513Y002447487D01*
G01*
X000008986Y002394450D01*
G01*
X-00023358Y002333939D01*
G01*
X-00043275Y002268282D01*
G01*
X-00049192Y002208205D01*
G01*
X-00572102Y001685295D01*
G01*
X-02613995Y001685295D01*
G01*
X-02672522Y001679531D01*
G01*
X-02728800Y001662459D01*
G01*
X-02780666Y001634736D01*
G01*
X-02826127Y001597427D01*
G01*
X-07447635Y-03024080D01*
G01*
X-12479890Y-03138711D01*
G01*
X-12479876Y-03139305D01*
G01*
X-12531585Y-03144398D01*
G01*
X-12587863Y-03161469D01*
G01*
X-12639729Y-03189192D01*
G01*
X-12682289Y-03224121D01*
G01*
X-12682530Y-03223874D01*
G01*
X-15211458Y-05690549D01*
G01*
X-15211217Y-05690796D01*
G01*
X-15214117Y-05693176D01*
G01*
X-15251426Y-05738637D01*
G01*
X-15279149Y-05790503D01*
G01*
X-15296221Y-05846781D01*
G01*
X-15301985Y-05905308D01*
G01*
X-15301966Y-05905500D01*
G01*
X-15301985Y-05905500D01*
G01*
X-15300609Y-08051223D01*
G01*
X-15382683Y-08076120D01*
G01*
X-15555570Y-08168530D01*
G01*
X-15707107Y-08292893D01*
G01*
X-15831470Y-08444430D01*
G01*
X-15923880Y-08617317D01*
G01*
X-15980785Y-08804910D01*
G01*
X-16000000Y-09000000D01*
G01*
X-15980785Y-09195090D01*
G01*
X-15923880Y-09382683D01*
G01*
X-15831470Y-09555570D01*
G01*
X-15707107Y-09707107D01*
G01*
X-15593916Y-09800000D01*
G01*
X-16406084Y-09800000D01*
G01*
X-16292893Y-09707107D01*
G01*
X-16168530Y-09555570D01*
G01*
X-16076120Y-09382683D01*
G01*
X-16019215Y-09195090D01*
G01*
X-16014774Y-09150000D01*
G01*
X-16214774Y-09150000D01*
G01*
X-16215372Y-09156072D01*
G01*
X-16260896Y-09306147D01*
G01*
X-16334824Y-09444456D01*
G01*
X-16434315Y-09565685D01*
G01*
X-16555544Y-09665176D01*
G01*
X-16693853Y-09739104D01*
G01*
X-16843928Y-09784628D01*
G01*
X-16850000Y-09785226D01*
G01*
X-16850000Y-09800000D01*
G01*
X-17150000Y-09800000D01*
G01*
X-17150000Y-09785226D01*
G01*
X-17156072Y-09784628D01*
G01*
X-17306147Y-09739104D01*
G01*
X-17444456Y-09665176D01*
G01*
X-17565685Y-09565685D01*
G01*
X-17665176Y-09444456D01*
G01*
X-17739104Y-09306147D01*
G01*
X-17784628Y-09156072D01*
G01*
X-17785226Y-09150000D01*
G01*
X-17985226Y-09150000D01*
G01*
X-17980785Y-09195090D01*
G01*
X-17923880Y-09382683D01*
G01*
X-17831470Y-09555570D01*
G01*
X-17707107Y-09707107D01*
G01*
X-17593916Y-09800000D01*
G01*
X-18406084Y-09800000D01*
G01*
X-18292893Y-09707107D01*
G01*
X-18168530Y-09555570D01*
G01*
X-18076120Y-09382683D01*
G01*
X-18019215Y-09195090D01*
G01*
X-18000000Y-09000000D01*
G01*
X-18019215Y-08804910D01*
G01*
X-18076120Y-08617317D01*
G01*
X-18168530Y-08444430D01*
G01*
X-18292893Y-08292893D01*
G01*
X-18444430Y-08168530D01*
G01*
X-18617317Y-08076120D01*
G01*
X-18804910Y-08019215D01*
G01*
X-19000000Y-08000000D01*
G01*
X-19195090Y-08019215D01*
G01*
X-19382683Y-08076120D01*
G01*
X-19555570Y-08168530D01*
G01*
X-19707107Y-08292893D01*
G01*
X-19831470Y-08444430D01*
G01*
X-19923880Y-08617317D01*
G01*
X-19980785Y-08804910D01*
G01*
X-20000000Y-09000000D01*
G01*
X-19980785Y-09195090D01*
G01*
X-19923880Y-09382683D01*
G01*
X-19831470Y-09555570D01*
G01*
X-19707107Y-09707107D01*
G01*
X-19555570Y-09831470D01*
G01*
X-19450000Y-09887898D01*
G01*
X-19450000Y-10250000D01*
G01*
X-19441353Y-10337791D01*
G01*
X-19415746Y-10422208D01*
G01*
X-19374161Y-10500007D01*
G01*
X-19318198Y-10568198D01*
G01*
X-19250007Y-10624161D01*
G01*
X-19172208Y-10665746D01*
G01*
X-19087791Y-10691353D01*
G01*
X-19000000Y-10700000D01*
G01*
X-09771625Y-10700000D01*
G01*
X-09683834Y-10691353D01*
G01*
X-09599417Y-10665746D01*
G01*
X-09521618Y-10624161D01*
G01*
X-09453427Y-10568198D01*
G01*
X-09344429Y-10459200D01*
G01*
X-09017006Y-10131778D01*
G01*
X-08961043Y-10063587D01*
G01*
X-08954785Y-10051879D01*
G01*
X-08698423Y-09795517D01*
G01*
X-08659626Y-09748244D01*
G01*
X-08614625Y-09722628D01*
G01*
X-08615508Y-09721077D01*
G01*
X-08590272Y-09707588D01*
G01*
X-08556047Y-09679501D01*
G01*
X-08697248Y-10950306D01*
G01*
X-08695129Y-10950541D01*
G01*
X-08700000Y-11000000D01*
G01*
X-08700000Y-13766347D01*
G01*
X-08731718Y-13756725D01*
G01*
X-08740000Y-13755909D01*
G01*
X-08740000Y-10953638D01*
G01*
X-08716642Y-10909939D01*
G01*
X-08696725Y-10844282D01*
G01*
X-08690000Y-10776000D01*
G01*
X-08696725Y-10707718D01*
G01*
X-08716642Y-10642061D01*
G01*
X-08748986Y-10581550D01*
G01*
X-08792513Y-10528513D01*
G01*
X-08845550Y-10484986D01*
G01*
X-08906061Y-10452642D01*
G01*
X-08971718Y-10432725D01*
G01*
X-09040000Y-10426000D01*
G01*
X-09108282Y-10432725D01*
G01*
X-09173939Y-10452642D01*
G01*
X-09234450Y-10484986D01*
G01*
X-09287487Y-10528513D01*
G01*
X-09331014Y-10581550D01*
G01*
X-09363358Y-10642061D01*
G01*
X-09383275Y-10707718D01*
G01*
X-09390000Y-10776000D01*
G01*
X-09383275Y-10844282D01*
G01*
X-09363358Y-10909939D01*
G01*
X-09340000Y-10953638D01*
G01*
X-09340000Y-13949460D01*
G01*
X-09334236Y-14007988D01*
G01*
X-09317164Y-14064265D01*
G01*
X-09289441Y-14116131D01*
G01*
X-09252132Y-14161592D01*
G01*
X-09056862Y-14356862D01*
G01*
X-09011401Y-14394171D01*
G01*
X-08959535Y-14421894D01*
G01*
X-08903257Y-14438966D01*
G01*
X-08872502Y-14441995D01*
G01*
X-08868282Y-14443275D01*
G01*
X-08800000Y-14450000D01*
G01*
X-08731718Y-14443275D01*
G01*
X-08700000Y-14433653D01*
G01*
X-08700000Y-15125000D01*
G01*
X-08691353Y-15212791D01*
G01*
X-08665746Y-15297208D01*
G01*
X-08624161Y-15375007D01*
G01*
X-08568198Y-15443198D01*
G01*
X-07849896Y-16161500D01*
G01*
X-07955198Y-16266802D01*
G01*
X-08011161Y-16334993D01*
G01*
X-08052746Y-16412792D01*
G01*
X-08078353Y-16497209D01*
G01*
X-08087000Y-16585000D01*
G01*
X-08078353Y-16672791D01*
G01*
X-08052746Y-16757208D01*
G01*
X-08011161Y-16835007D01*
G01*
X-07955198Y-16903198D01*
G01*
X-07887007Y-16959161D01*
G01*
X-07809208Y-17000746D01*
G01*
X-07724791Y-17026353D01*
G01*
X-07637000Y-17035000D01*
G01*
X-07549209Y-17026353D01*
G01*
X-07464792Y-17000746D01*
G01*
X-07386993Y-16959161D01*
G01*
X-07318802Y-16903198D01*
G01*
X-07056802Y-16641198D01*
G01*
X-07000839Y-16573007D01*
G01*
X-06959254Y-16495208D01*
G01*
X-06933647Y-16410791D01*
G01*
X-06925000Y-16323000D01*
G01*
X-06925000Y-16000000D01*
G01*
X-06933647Y-15912209D01*
G01*
X-06959254Y-15827792D01*
G01*
X-07000839Y-15749993D01*
G01*
X-07056802Y-15681802D01*
G01*
X-07800000Y-14938604D01*
G01*
X-07800000Y-11100406D01*
G01*
X-07754282Y-11114275D01*
G01*
X-07686000Y-11121000D01*
G01*
X-07617718Y-11114275D01*
G01*
X-07552061Y-11094358D01*
G01*
X-07491550Y-11062014D01*
G01*
X-07438513Y-11018487D01*
G01*
X-07394986Y-10965450D01*
G01*
X-07362642Y-10904939D01*
G01*
X-07348258Y-10857522D01*
G01*
X-07163662Y-10672926D01*
G01*
X-05416608Y-10672926D01*
G01*
X-05419275Y-10681718D01*
G01*
X-05426000Y-10750000D01*
G01*
X-05419275Y-10818282D01*
G01*
X-05399358Y-10883939D01*
G01*
X-05367014Y-10944450D01*
G01*
X-05323487Y-10997487D01*
G01*
X-05270450Y-11041014D01*
G01*
X-05209939Y-11073358D01*
G01*
X-05144282Y-11093275D01*
G01*
X-05099317Y-11097703D01*
G01*
X-03206000Y-12991020D01*
G01*
X-03206000Y-13510362D01*
G01*
X-03229358Y-13554061D01*
G01*
X-03249275Y-13619718D01*
G01*
X-03256000Y-13688000D01*
G01*
X-03249275Y-13756282D01*
G01*
X-03229358Y-13821939D01*
G01*
X-03197014Y-13882450D01*
G01*
X-03153487Y-13935487D01*
G01*
X-03100450Y-13979014D01*
G01*
X-03039939Y-14011358D01*
G01*
X-02974282Y-14031275D01*
G01*
X-02906000Y-14038000D01*
G01*
X-02837718Y-14031275D01*
G01*
X-02772061Y-14011358D01*
G01*
X-02711550Y-13979014D01*
G01*
X-02658513Y-13935487D01*
G01*
X-02614986Y-13882450D01*
G01*
X-02582642Y-13821939D01*
G01*
X-02562725Y-13756282D01*
G01*
X-02556000Y-13688000D01*
G01*
X-02562725Y-13619718D01*
G01*
X-02582642Y-13554061D01*
G01*
X-02606000Y-13510362D01*
G01*
X-02606000Y-12866756D01*
G01*
X-02611764Y-12808229D01*
G01*
X-02628836Y-12751951D01*
G01*
X-02656559Y-12700085D01*
G01*
X-02693868Y-12654624D01*
G01*
X-04675566Y-10672926D01*
G01*
X-03502295Y-10672926D01*
G01*
X-03509000Y-10741000D01*
G01*
X-03502275Y-10809282D01*
G01*
X-03482358Y-10874939D01*
G01*
X-03450014Y-10935450D01*
G01*
X-03407761Y-10986935D01*
G01*
X-03398048Y-11005107D01*
G01*
X-03362293Y-11048674D01*
G01*
X-00317675Y-14093292D01*
G01*
X-00317324Y-14096857D01*
G01*
X-00300964Y-14150790D01*
G01*
X-00274396Y-14200495D01*
G01*
X-00238642Y-14244061D01*
G01*
X-00195075Y-14279816D01*
G01*
X-00191150Y-14281914D01*
G01*
X-00164841Y-14331135D01*
G01*
X-00121314Y-14384172D01*
G01*
X-00068277Y-14427699D01*
G01*
X-00007766Y-14460043D01*
G01*
X000057891Y-14479960D01*
G01*
X000126173Y-14486685D01*
G01*
X000194455Y-14479960D01*
G01*
X000260112Y-14460043D01*
G01*
X000320623Y-14427699D01*
G01*
X000373660Y-14384172D01*
G01*
X000417187Y-14331135D01*
G01*
X000449531Y-14270624D01*
G01*
X000469448Y-14204967D01*
G01*
X000476173Y-14136685D01*
G01*
X000469448Y-14068403D01*
G01*
X000449531Y-14002746D01*
G01*
X000417187Y-13942235D01*
G01*
X000373660Y-13889198D01*
G01*
X000320623Y-13845671D01*
G01*
X000260112Y-13813327D01*
G01*
X000194455Y-13793410D01*
G01*
X000190319Y-13793003D01*
G01*
X000167945Y-13765739D01*
G01*
X-02813285Y-10784509D01*
G01*
X-02809000Y-10741000D01*
G01*
X-02815705Y-10672926D01*
G01*
X-00341518Y-10672926D01*
G01*
X-00341518Y-11512200D01*
G01*
X-00335994Y-11568288D01*
G01*
X-00319634Y-11622221D01*
G01*
X-00293066Y-11671926D01*
G01*
X-00257311Y-11715493D01*
G01*
X003522500Y-15495304D01*
G01*
X003522500Y-17623250D01*
G01*
X003389048Y-17663733D01*
G01*
X003198873Y-17765383D01*
G01*
X003032183Y-17902183D01*
G01*
X002895383Y-18068873D01*
G01*
X002793733Y-18259048D01*
G01*
X002731136Y-18465401D01*
G01*
X002710000Y-18680000D01*
G01*
X002731136Y-18894599D01*
G01*
X002793733Y-19100952D01*
G01*
X002895383Y-19291127D01*
G01*
X003032183Y-19457817D01*
G01*
X003198873Y-19594617D01*
G01*
X003389048Y-19696267D01*
G01*
X003595401Y-19758864D01*
G01*
X003810000Y-19780000D01*
G37*
D38*
G36*
X-18000000Y010000000D02*
G01*
X-17804910Y010019215D01*
G01*
X-17617317Y010076120D01*
G01*
X-17444430Y010168530D01*
G01*
X-17292893Y010292893D01*
G01*
X-17168530Y010444430D01*
G01*
X-17076120Y010617317D01*
G01*
X-17019215Y010804910D01*
G01*
X-17000000Y011000000D01*
G01*
X-17019215Y011195090D01*
G01*
X-17076120Y011382683D01*
G01*
X-17168530Y011555570D01*
G01*
X-17292893Y011707107D01*
G01*
X-17444430Y011831470D01*
G01*
X-17617317Y011923880D01*
G01*
X-17804910Y011980785D01*
G01*
X-18000000Y012000000D01*
G01*
X-18195090Y011980785D01*
G01*
X-18382683Y011923880D01*
G01*
X-18555570Y011831470D01*
G01*
X-18707107Y011707107D01*
G01*
X-18831470Y011555570D01*
G01*
X-18923880Y011382683D01*
G01*
X-18980785Y011195090D01*
G01*
X-19000000Y011000000D01*
G01*
X-18980785Y010804910D01*
G01*
X-18923880Y010617317D01*
G01*
X-18831470Y010444430D01*
G01*
X-18707107Y010292893D01*
G01*
X-18555570Y010168530D01*
G01*
X-18382683Y010076120D01*
G01*
X-18195090Y010019215D01*
G01*
X-18000000Y010000000D01*
G37*
D38*
G36*
X-16985226Y011150000D02*
G01*
X-16785226Y011150000D01*
G01*
X-16784628Y011156072D01*
G01*
X-16739104Y011306147D01*
G01*
X-16665176Y011444456D01*
G01*
X-16565685Y011565685D01*
G01*
X-16444456Y011665176D01*
G01*
X-16306147Y011739104D01*
G01*
X-16156072Y011784628D01*
G01*
X-16150000Y011785226D01*
G01*
X-16150000Y011985226D01*
G01*
X-16195090Y011980785D01*
G01*
X-16382683Y011923880D01*
G01*
X-16555570Y011831470D01*
G01*
X-16707107Y011707107D01*
G01*
X-16831470Y011555570D01*
G01*
X-16923880Y011382683D01*
G01*
X-16980785Y011195090D01*
G01*
X-16985226Y011150000D01*
G37*
D38*
G36*
X-15214774Y011150000D02*
G01*
X-15014774Y011150000D01*
G01*
X-15019215Y011195090D01*
G01*
X-15076120Y011382683D01*
G01*
X-15168530Y011555570D01*
G01*
X-15292893Y011707107D01*
G01*
X-15444430Y011831470D01*
G01*
X-15617317Y011923880D01*
G01*
X-15804910Y011980785D01*
G01*
X-15850000Y011985226D01*
G01*
X-15850000Y011785226D01*
G01*
X-15843928Y011784628D01*
G01*
X-15693853Y011739104D01*
G01*
X-15555544Y011665176D01*
G01*
X-15434315Y011565685D01*
G01*
X-15334824Y011444456D01*
G01*
X-15260896Y011306147D01*
G01*
X-15215372Y011156072D01*
G01*
X-15214774Y011150000D01*
G37*
D38*
G36*
X-16150000Y010014774D02*
G01*
X-16150000Y010214774D01*
G01*
X-16156072Y010215372D01*
G01*
X-16306147Y010260896D01*
G01*
X-16444456Y010334824D01*
G01*
X-16565685Y010434315D01*
G01*
X-16665176Y010555544D01*
G01*
X-16739104Y010693853D01*
G01*
X-16784628Y010843928D01*
G01*
X-16785226Y010850000D01*
G01*
X-16985226Y010850000D01*
G01*
X-16980785Y010804910D01*
G01*
X-16923880Y010617317D01*
G01*
X-16831470Y010444430D01*
G01*
X-16707107Y010292893D01*
G01*
X-16555570Y010168530D01*
G01*
X-16382683Y010076120D01*
G01*
X-16195090Y010019215D01*
G01*
X-16150000Y010014774D01*
G37*
D38*
G36*
X-15850000Y010014774D02*
G01*
X-15804910Y010019215D01*
G01*
X-15617317Y010076120D01*
G01*
X-15444430Y010168530D01*
G01*
X-15292893Y010292893D01*
G01*
X-15168530Y010444430D01*
G01*
X-15076120Y010617317D01*
G01*
X-15019215Y010804910D01*
G01*
X-15014774Y010850000D01*
G01*
X-15214774Y010850000D01*
G01*
X-15215372Y010843928D01*
G01*
X-15260896Y010693853D01*
G01*
X-15334824Y010555544D01*
G01*
X-15434315Y010434315D01*
G01*
X-15555544Y010334824D01*
G01*
X-15693853Y010260896D01*
G01*
X-15843928Y010215372D01*
G01*
X-15850000Y010214774D01*
G01*
X-15850000Y010014774D01*
G37*
D38*
G36*
X-08356000Y004468000D02*
G01*
X-08287718Y004474725D01*
G01*
X-08222061Y004494642D01*
G01*
X-08161550Y004526986D01*
G01*
X-08108513Y004570513D01*
G01*
X-08064986Y004623550D01*
G01*
X-08032642Y004684061D01*
G01*
X-08012725Y004749718D01*
G01*
X-08006000Y004818000D01*
G01*
X-08012725Y004886282D01*
G01*
X-08032642Y004951939D01*
G01*
X-08056000Y004995638D01*
G01*
X-08056000Y007128930D01*
G01*
X-08061764Y007187457D01*
G01*
X-08078836Y007243735D01*
G01*
X-08106559Y007295601D01*
G01*
X-08143868Y007341062D01*
G01*
X-08844072Y008041266D01*
G01*
X-08844000Y008042000D01*
G01*
X-08850725Y008110282D01*
G01*
X-08870642Y008175939D01*
G01*
X-08902986Y008236450D01*
G01*
X-08946513Y008289487D01*
G01*
X-08999550Y008333014D01*
G01*
X-09060061Y008365358D01*
G01*
X-09125718Y008385275D01*
G01*
X-09194000Y008392000D01*
G01*
X-09262282Y008385275D01*
G01*
X-09327939Y008365358D01*
G01*
X-09388450Y008333014D01*
G01*
X-09441487Y008289487D01*
G01*
X-09485014Y008236450D01*
G01*
X-09517358Y008175939D01*
G01*
X-09537275Y008110282D01*
G01*
X-09544000Y008042000D01*
G01*
X-09537275Y007973718D01*
G01*
X-09517358Y007908061D01*
G01*
X-09485014Y007847550D01*
G01*
X-09441487Y007794513D01*
G01*
X-09434139Y007788483D01*
G01*
X-09408155Y007756821D01*
G01*
X-08656000Y007004666D01*
G01*
X-08656000Y004995638D01*
G01*
X-08679358Y004951939D01*
G01*
X-08699275Y004886282D01*
G01*
X-08706000Y004818000D01*
G01*
X-08699275Y004749718D01*
G01*
X-08679358Y004684061D01*
G01*
X-08647014Y004623550D01*
G01*
X-08603487Y004570513D01*
G01*
X-08550450Y004526986D01*
G01*
X-08489939Y004494642D01*
G01*
X-08424282Y004474725D01*
G01*
X-08356000Y004468000D01*
G37*
D38*
G36*
X001868000Y003951000D02*
G01*
X002269000Y003951000D01*
G01*
X002356791Y003959647D01*
G01*
X002441208Y003985254D01*
G01*
X002519007Y004026839D01*
G01*
X002587198Y004082802D01*
G01*
X002797631Y004293235D01*
G01*
X003008063Y004503667D01*
G01*
X003028198Y004523802D01*
G01*
X003084161Y004591993D01*
G01*
X003125746Y004669792D01*
G01*
X003151353Y004754209D01*
G01*
X003160000Y004842000D01*
G01*
X003151353Y004929791D01*
G01*
X003125746Y005014208D01*
G01*
X003084161Y005092007D01*
G01*
X003028198Y005160198D01*
G01*
X002960007Y005216161D01*
G01*
X002882208Y005257746D01*
G01*
X002797791Y005283353D01*
G01*
X002710000Y005292000D01*
G01*
X002622209Y005283353D01*
G01*
X002537792Y005257746D01*
G01*
X002459993Y005216161D01*
G01*
X002391802Y005160198D01*
G01*
X002371667Y005140063D01*
G01*
X002161235Y004929631D01*
G01*
X002082604Y004851000D01*
G01*
X001868000Y004851000D01*
G01*
X001780209Y004842353D01*
G01*
X001695792Y004816746D01*
G01*
X001617993Y004775161D01*
G01*
X001549802Y004719198D01*
G01*
X001493839Y004651007D01*
G01*
X001452254Y004573208D01*
G01*
X001426647Y004488791D01*
G01*
X001418000Y004401000D01*
G01*
X001426647Y004313209D01*
G01*
X001452254Y004228792D01*
G01*
X001493839Y004150993D01*
G01*
X001549802Y004082802D01*
G01*
X001617993Y004026839D01*
G01*
X001695792Y003985254D01*
G01*
X001780209Y003959647D01*
G01*
X001868000Y003951000D01*
G37*
D38*
G36*
X016000000Y003000000D02*
G01*
X016195090Y003019215D01*
G01*
X016382683Y003076120D01*
G01*
X016555570Y003168530D01*
G01*
X016707107Y003292893D01*
G01*
X016831470Y003444430D01*
G01*
X016923880Y003617317D01*
G01*
X016980785Y003804910D01*
G01*
X017000000Y004000000D01*
G01*
X016980785Y004195090D01*
G01*
X016923880Y004382683D01*
G01*
X016831470Y004555570D01*
G01*
X016707107Y004707107D01*
G01*
X016555570Y004831470D01*
G01*
X016382683Y004923880D01*
G01*
X016195090Y004980785D01*
G01*
X016000000Y005000000D01*
G01*
X015804910Y004980785D01*
G01*
X015617317Y004923880D01*
G01*
X015444430Y004831470D01*
G01*
X015292893Y004707107D01*
G01*
X015168530Y004555570D01*
G01*
X015076120Y004382683D01*
G01*
X015019215Y004195090D01*
G01*
X015000000Y004000000D01*
G01*
X015019215Y003804910D01*
G01*
X015076120Y003617317D01*
G01*
X015168530Y003444430D01*
G01*
X015292893Y003292893D01*
G01*
X015444430Y003168530D01*
G01*
X015617317Y003076120D01*
G01*
X015804910Y003019215D01*
G01*
X016000000Y003000000D01*
G37*
D38*
G36*
X020000000Y003000000D02*
G01*
X020195090Y003019215D01*
G01*
X020382683Y003076120D01*
G01*
X020555570Y003168530D01*
G01*
X020707107Y003292893D01*
G01*
X020831470Y003444430D01*
G01*
X020923880Y003617317D01*
G01*
X020980785Y003804910D01*
G01*
X021000000Y004000000D01*
G01*
X020980785Y004195090D01*
G01*
X020923880Y004382683D01*
G01*
X020831470Y004555570D01*
G01*
X020707107Y004707107D01*
G01*
X020555570Y004831470D01*
G01*
X020382683Y004923880D01*
G01*
X020195090Y004980785D01*
G01*
X020000000Y005000000D01*
G01*
X019804910Y004980785D01*
G01*
X019617317Y004923880D01*
G01*
X019444430Y004831470D01*
G01*
X019292893Y004707107D01*
G01*
X019168530Y004555570D01*
G01*
X019076120Y004382683D01*
G01*
X019019215Y004195090D01*
G01*
X019000000Y004000000D01*
G01*
X019019215Y003804910D01*
G01*
X019076120Y003617317D01*
G01*
X019168530Y003444430D01*
G01*
X019292893Y003292893D01*
G01*
X019444430Y003168530D01*
G01*
X019617317Y003076120D01*
G01*
X019804910Y003019215D01*
G01*
X020000000Y003000000D01*
G37*
D38*
G36*
X017014774Y004150000D02*
G01*
X017214774Y004150000D01*
G01*
X017215372Y004156072D01*
G01*
X017260896Y004306147D01*
G01*
X017334824Y004444456D01*
G01*
X017434315Y004565685D01*
G01*
X017555544Y004665176D01*
G01*
X017693853Y004739104D01*
G01*
X017843928Y004784628D01*
G01*
X017850000Y004785226D01*
G01*
X017850000Y004985226D01*
G01*
X017804910Y004980785D01*
G01*
X017617317Y004923880D01*
G01*
X017444430Y004831470D01*
G01*
X017292893Y004707107D01*
G01*
X017168530Y004555570D01*
G01*
X017076120Y004382683D01*
G01*
X017019215Y004195090D01*
G01*
X017014774Y004150000D01*
G37*
D38*
G36*
X018785226Y004150000D02*
G01*
X018985226Y004150000D01*
G01*
X018980785Y004195090D01*
G01*
X018923880Y004382683D01*
G01*
X018831470Y004555570D01*
G01*
X018707107Y004707107D01*
G01*
X018555570Y004831470D01*
G01*
X018382683Y004923880D01*
G01*
X018195090Y004980785D01*
G01*
X018150000Y004985226D01*
G01*
X018150000Y004785226D01*
G01*
X018156072Y004784628D01*
G01*
X018306147Y004739104D01*
G01*
X018444456Y004665176D01*
G01*
X018565685Y004565685D01*
G01*
X018665176Y004444456D01*
G01*
X018739104Y004306147D01*
G01*
X018784628Y004156072D01*
G01*
X018785226Y004150000D01*
G37*
D38*
G36*
X017850000Y003014774D02*
G01*
X017850000Y003214774D01*
G01*
X017843928Y003215372D01*
G01*
X017693853Y003260896D01*
G01*
X017555544Y003334824D01*
G01*
X017434315Y003434315D01*
G01*
X017334824Y003555544D01*
G01*
X017260896Y003693853D01*
G01*
X017215372Y003843928D01*
G01*
X017214774Y003850000D01*
G01*
X017014774Y003850000D01*
G01*
X017019215Y003804910D01*
G01*
X017076120Y003617317D01*
G01*
X017168530Y003444430D01*
G01*
X017292893Y003292893D01*
G01*
X017444430Y003168530D01*
G01*
X017617317Y003076120D01*
G01*
X017804910Y003019215D01*
G01*
X017850000Y003014774D01*
G37*
D38*
G36*
X018150000Y003014774D02*
G01*
X018195090Y003019215D01*
G01*
X018382683Y003076120D01*
G01*
X018555570Y003168530D01*
G01*
X018707107Y003292893D01*
G01*
X018831470Y003444430D01*
G01*
X018923880Y003617317D01*
G01*
X018980785Y003804910D01*
G01*
X018985226Y003850000D01*
G01*
X018785226Y003850000D01*
G01*
X018784628Y003843928D01*
G01*
X018739104Y003693853D01*
G01*
X018665176Y003555544D01*
G01*
X018565685Y003434315D01*
G01*
X018444456Y003334824D01*
G01*
X018306147Y003260896D01*
G01*
X018156072Y003215372D01*
G01*
X018150000Y003214774D01*
G01*
X018150000Y003014774D01*
G37*
D38*
G36*
X000182000Y-00845000D02*
G01*
X000250282Y-00838275D01*
G01*
X000315939Y-00818358D01*
G01*
X000376450Y-00786014D01*
G01*
X000429487Y-00742487D01*
G01*
X000473014Y-00689450D01*
G01*
X000505358Y-00628939D01*
G01*
X000525275Y-00563282D01*
G01*
X000532000Y-00495000D01*
G01*
X000525275Y-00426718D01*
G01*
X000505358Y-00361061D01*
G01*
X000473014Y-00300550D01*
G01*
X000457000Y-00281037D01*
G01*
X000457000Y-00186149D01*
G01*
X000855913Y000212764D01*
G01*
X000906282Y000217725D01*
G01*
X000971939Y000237642D01*
G01*
X001032450Y000269986D01*
G01*
X001085487Y000313513D01*
G01*
X001129014Y000366550D01*
G01*
X001161358Y000427061D01*
G01*
X001181275Y000492718D01*
G01*
X001188000Y000561000D01*
G01*
X001181275Y000629282D01*
G01*
X001161358Y000694939D01*
G01*
X001129014Y000755450D01*
G01*
X001085487Y000808487D01*
G01*
X001032450Y000852014D01*
G01*
X000971939Y000884358D01*
G01*
X000906282Y000904275D01*
G01*
X000838000Y000911000D01*
G01*
X000769718Y000904275D01*
G01*
X000704061Y000884358D01*
G01*
X000643550Y000852014D01*
G01*
X000590513Y000808487D01*
G01*
X000546986Y000755450D01*
G01*
X000514642Y000694939D01*
G01*
X000494773Y000629441D01*
G01*
X-00012454Y000122214D01*
G01*
X-00046654Y000080541D01*
G01*
X-00072067Y000032997D01*
G01*
X-00087716Y-00018591D01*
G01*
X-00093000Y-00072241D01*
G01*
X-00093000Y-00281037D01*
G01*
X-00109014Y-00300550D01*
G01*
X-00141358Y-00361061D01*
G01*
X-00161275Y-00426718D01*
G01*
X-00168000Y-00495000D01*
G01*
X-00161275Y-00563282D01*
G01*
X-00141358Y-00628939D01*
G01*
X-00109014Y-00689450D01*
G01*
X-00065487Y-00742487D01*
G01*
X-00012450Y-00786014D01*
G01*
X000048061Y-00818358D01*
G01*
X000113718Y-00838275D01*
G01*
X000182000Y-00845000D01*
G37*
D38*
G36*
X011055000Y-01447000D02*
G01*
X011123282Y-01440275D01*
G01*
X011188939Y-01420358D01*
G01*
X011249450Y-01388014D01*
G01*
X011302487Y-01344487D01*
G01*
X011346014Y-01291450D01*
G01*
X011378358Y-01230939D01*
G01*
X011398275Y-01165282D01*
G01*
X011405000Y-01097000D01*
G01*
X011401681Y-01063299D01*
G01*
X011406000Y-01019445D01*
G01*
X011406000Y-00096963D01*
G01*
X011422014Y-00077450D01*
G01*
X011454358Y-00016939D01*
G01*
X011474275Y000048718D01*
G01*
X011481000Y000117000D01*
G01*
X011474275Y000185282D01*
G01*
X011454358Y000250939D01*
G01*
X011422014Y000311450D01*
G01*
X011378487Y000364487D01*
G01*
X011325450Y000408014D01*
G01*
X011264939Y000440358D01*
G01*
X011199282Y000460275D01*
G01*
X011131000Y000467000D01*
G01*
X011062718Y000460275D01*
G01*
X010997061Y000440358D01*
G01*
X010936550Y000408014D01*
G01*
X010883513Y000364487D01*
G01*
X010839986Y000311450D01*
G01*
X010807642Y000250939D01*
G01*
X010787725Y000185282D01*
G01*
X010781000Y000117000D01*
G01*
X010787725Y000048718D01*
G01*
X010807642Y-00016939D01*
G01*
X010839986Y-00077450D01*
G01*
X010856000Y-00096963D01*
G01*
X010856000Y-00809720D01*
G01*
X010807513Y-00849513D01*
G01*
X010763986Y-00902550D01*
G01*
X010731642Y-00963061D01*
G01*
X010711725Y-01028718D01*
G01*
X010705000Y-01097000D01*
G01*
X010711725Y-01165282D01*
G01*
X010731642Y-01230939D01*
G01*
X010763986Y-01291450D01*
G01*
X010807513Y-01344487D01*
G01*
X010860550Y-01388014D01*
G01*
X010921061Y-01420358D01*
G01*
X010986718Y-01440275D01*
G01*
X011055000Y-01447000D01*
G37*
D38*
G36*
X005600000Y-07450000D02*
G01*
X005668282Y-07443275D01*
G01*
X005733939Y-07423358D01*
G01*
X005794450Y-07391014D01*
G01*
X005847487Y-07347487D01*
G01*
X005863027Y-07328552D01*
G01*
X008093806Y-06584959D01*
G01*
X012092726Y-05285310D01*
G01*
X012092298Y-05283992D01*
G01*
X012114805Y-05277164D01*
G01*
X012166393Y-05249590D01*
G01*
X012166410Y-05249615D01*
G01*
X018018577Y-01348170D01*
G01*
X018068282Y-01343275D01*
G01*
X018133939Y-01323358D01*
G01*
X018194450Y-01291014D01*
G01*
X018247487Y-01247487D01*
G01*
X018291014Y-01194450D01*
G01*
X018323358Y-01133939D01*
G01*
X018343275Y-01068282D01*
G01*
X018350000Y-01000000D01*
G01*
X018343275Y-00931718D01*
G01*
X018323358Y-00866061D01*
G01*
X018291014Y-00805550D01*
G01*
X018247487Y-00752513D01*
G01*
X018194450Y-00708986D01*
G01*
X018133939Y-00676642D01*
G01*
X018068282Y-00656725D01*
G01*
X018000000Y-00650000D01*
G01*
X017931718Y-00656725D01*
G01*
X017866061Y-00676642D01*
G01*
X017805550Y-00708986D01*
G01*
X017752513Y-00752513D01*
G01*
X017708986Y-00805550D01*
G01*
X017685813Y-00848903D01*
G01*
X011867974Y-04727463D01*
G01*
X007907274Y-06014690D01*
G01*
X007907702Y-06016008D01*
G01*
X007905554Y-06016660D01*
G01*
X007905132Y-06015395D01*
G01*
X005675015Y-06758767D01*
G01*
X005668282Y-06756725D01*
G01*
X005600000Y-06750000D01*
G01*
X005531718Y-06756725D01*
G01*
X005466061Y-06776642D01*
G01*
X005405550Y-06808986D01*
G01*
X005352513Y-06852513D01*
G01*
X005308986Y-06905550D01*
G01*
X005276642Y-06966061D01*
G01*
X005256725Y-07031718D01*
G01*
X005250000Y-07100000D01*
G01*
X005256725Y-07168282D01*
G01*
X005276642Y-07233939D01*
G01*
X005308986Y-07294450D01*
G01*
X005352513Y-07347487D01*
G01*
X005405550Y-07391014D01*
G01*
X005466061Y-07423358D01*
G01*
X005531718Y-07443275D01*
G01*
X005600000Y-07450000D01*
G37*
D38*
G36*
X014599000Y-02626000D02*
G01*
X014667282Y-02619275D01*
G01*
X014732939Y-02599358D01*
G01*
X014793450Y-02567014D01*
G01*
X014846487Y-02523487D01*
G01*
X014890014Y-02470450D01*
G01*
X014922358Y-02409939D01*
G01*
X014942275Y-02344282D01*
G01*
X014949000Y-02276000D01*
G01*
X014948285Y-02268742D01*
G01*
X015440098Y-01776929D01*
G01*
X015461975Y-01758975D01*
G01*
X015499284Y-01713514D01*
G01*
X015527007Y-01661648D01*
G01*
X015544078Y-01605370D01*
G01*
X015549843Y-01546843D01*
G01*
X015544078Y-01488316D01*
G01*
X015542857Y-01484289D01*
G01*
X015549135Y-01420541D01*
G01*
X015542410Y-01352259D01*
G01*
X015522493Y-01286602D01*
G01*
X015490150Y-01226091D01*
G01*
X015446623Y-01173054D01*
G01*
X015393585Y-01129527D01*
G01*
X015333075Y-01097183D01*
G01*
X015267417Y-01077266D01*
G01*
X015199135Y-01070541D01*
G01*
X015130854Y-01077266D01*
G01*
X015065196Y-01097183D01*
G01*
X015004686Y-01129527D01*
G01*
X014951648Y-01173054D01*
G01*
X014908121Y-01226091D01*
G01*
X014875778Y-01286602D01*
G01*
X014855861Y-01352259D01*
G01*
X014849135Y-01420541D01*
G01*
X014855861Y-01488823D01*
G01*
X014861404Y-01507095D01*
G01*
X014386868Y-01981631D01*
G01*
X014349559Y-02027091D01*
G01*
X014343730Y-02037996D01*
G01*
X014307986Y-02081550D01*
G01*
X014275642Y-02142061D01*
G01*
X014255725Y-02207718D01*
G01*
X014249000Y-02276000D01*
G01*
X014255725Y-02344282D01*
G01*
X014275642Y-02409939D01*
G01*
X014307986Y-02470450D01*
G01*
X014351513Y-02523487D01*
G01*
X014404550Y-02567014D01*
G01*
X014465061Y-02599358D01*
G01*
X014530718Y-02619275D01*
G01*
X014599000Y-02626000D01*
G37*
D38*
G36*
X018033000Y-07850000D02*
G01*
X018101282Y-07843275D01*
G01*
X018166939Y-07823358D01*
G01*
X018227450Y-07791014D01*
G01*
X018280487Y-07747487D01*
G01*
X018324014Y-07694450D01*
G01*
X018356358Y-07633939D01*
G01*
X018376275Y-07568282D01*
G01*
X018383000Y-07500000D01*
G01*
X018376275Y-07431718D01*
G01*
X018356358Y-07366061D01*
G01*
X018324014Y-07305550D01*
G01*
X018280487Y-07252513D01*
G01*
X018227450Y-07208986D01*
G01*
X018166939Y-07176642D01*
G01*
X018101282Y-07156725D01*
G01*
X018033000Y-07150000D01*
G01*
X018013061Y-07151964D01*
G01*
X016914649Y-06053552D01*
G01*
X016911416Y-06020726D01*
G01*
X016891499Y-05955068D01*
G01*
X016859156Y-05894558D01*
G01*
X016815629Y-05841520D01*
G01*
X016762591Y-05797993D01*
G01*
X016702081Y-05765650D01*
G01*
X016636423Y-05745733D01*
G01*
X016568142Y-05739007D01*
G01*
X016499860Y-05745733D01*
G01*
X016434202Y-05765650D01*
G01*
X016373692Y-05797993D01*
G01*
X016320654Y-05841520D01*
G01*
X016277127Y-05894558D01*
G01*
X016244784Y-05955068D01*
G01*
X016224867Y-06020726D01*
G01*
X016218142Y-06089007D01*
G01*
X016224867Y-06157289D01*
G01*
X016244784Y-06222947D01*
G01*
X016277127Y-06283457D01*
G01*
X016320654Y-06336495D01*
G01*
X016373692Y-06380022D01*
G01*
X016414294Y-06401724D01*
G01*
X017724701Y-07712132D01*
G01*
X017770162Y-07749441D01*
G01*
X017821013Y-07776621D01*
G01*
X017838550Y-07791014D01*
G01*
X017899061Y-07823358D01*
G01*
X017964718Y-07843275D01*
G01*
X018033000Y-07850000D01*
G37*
D38*
G36*
X006837307Y-09244371D02*
G01*
X006905589Y-09237646D01*
G01*
X006971246Y-09217729D01*
G01*
X007031757Y-09185385D01*
G01*
X007051270Y-09169371D01*
G01*
X007692426Y-09169371D01*
G01*
X007746076Y-09164087D01*
G01*
X007797664Y-09148438D01*
G01*
X007845208Y-09123025D01*
G01*
X007886880Y-09088825D01*
G01*
X009049249Y-07926457D01*
G01*
X009083449Y-07884784D01*
G01*
X009094466Y-07864173D01*
G01*
X009109696Y-07859553D01*
G01*
X009170206Y-07827210D01*
G01*
X009223244Y-07783683D01*
G01*
X009266771Y-07730645D01*
G01*
X009299115Y-07670134D01*
G01*
X009319032Y-07604477D01*
G01*
X009325757Y-07536195D01*
G01*
X009319032Y-07467914D01*
G01*
X009299115Y-07402256D01*
G01*
X009266771Y-07341746D01*
G01*
X009223244Y-07288708D01*
G01*
X009170206Y-07245181D01*
G01*
X009109696Y-07212837D01*
G01*
X009044038Y-07192920D01*
G01*
X008975757Y-07186195D01*
G01*
X008907475Y-07192920D01*
G01*
X008841818Y-07212837D01*
G01*
X008781307Y-07245181D01*
G01*
X008728269Y-07288708D01*
G01*
X008684742Y-07341746D01*
G01*
X008652399Y-07402256D01*
G01*
X008632482Y-07467914D01*
G01*
X008629266Y-07500567D01*
G01*
X008626140Y-07504376D01*
G01*
X008600728Y-07551920D01*
G01*
X008585079Y-07603508D01*
G01*
X008584063Y-07613825D01*
G01*
X007578518Y-08619371D01*
G01*
X007051270Y-08619371D01*
G01*
X007031757Y-08603357D01*
G01*
X006971246Y-08571013D01*
G01*
X006905589Y-08551096D01*
G01*
X006837307Y-08544371D01*
G01*
X006769025Y-08551096D01*
G01*
X006703368Y-08571013D01*
G01*
X006642857Y-08603357D01*
G01*
X006589820Y-08646884D01*
G01*
X006546293Y-08699921D01*
G01*
X006513949Y-08760432D01*
G01*
X006494032Y-08826089D01*
G01*
X006487307Y-08894371D01*
G01*
X006494032Y-08962653D01*
G01*
X006513949Y-09028310D01*
G01*
X006546293Y-09088821D01*
G01*
X006589820Y-09141858D01*
G01*
X006642857Y-09185385D01*
G01*
X006703368Y-09217729D01*
G01*
X006769025Y-09237646D01*
G01*
X006837307Y-09244371D01*
G37*
D38*
G36*
X-17985226Y-08850000D02*
G01*
X-17785226Y-08850000D01*
G01*
X-17784628Y-08843928D01*
G01*
X-17739104Y-08693853D01*
G01*
X-17665176Y-08555544D01*
G01*
X-17565685Y-08434315D01*
G01*
X-17444456Y-08334824D01*
G01*
X-17306147Y-08260896D01*
G01*
X-17156072Y-08215372D01*
G01*
X-17150000Y-08214774D01*
G01*
X-17150000Y-08014774D01*
G01*
X-17195090Y-08019215D01*
G01*
X-17382683Y-08076120D01*
G01*
X-17555570Y-08168530D01*
G01*
X-17707107Y-08292893D01*
G01*
X-17831470Y-08444430D01*
G01*
X-17923880Y-08617317D01*
G01*
X-17980785Y-08804910D01*
G01*
X-17985226Y-08850000D01*
G37*
D38*
G36*
X-16214774Y-08850000D02*
G01*
X-16014774Y-08850000D01*
G01*
X-16019215Y-08804910D01*
G01*
X-16076120Y-08617317D01*
G01*
X-16168530Y-08444430D01*
G01*
X-16292893Y-08292893D01*
G01*
X-16444430Y-08168530D01*
G01*
X-16617317Y-08076120D01*
G01*
X-16804910Y-08019215D01*
G01*
X-16850000Y-08014774D01*
G01*
X-16850000Y-08214774D01*
G01*
X-16843928Y-08215372D01*
G01*
X-16693853Y-08260896D01*
G01*
X-16555544Y-08334824D01*
G01*
X-16434315Y-08434315D01*
G01*
X-16334824Y-08555544D01*
G01*
X-16260896Y-08693853D01*
G01*
X-16215372Y-08843928D01*
G01*
X-16214774Y-08850000D01*
G37*
D38*
G36*
X-05080984Y-15391371D02*
G01*
X-05012703Y-15384646D01*
G01*
X-04947045Y-15364729D01*
G01*
X-04886535Y-15332385D01*
G01*
X-04833497Y-15288858D01*
G01*
X-04789970Y-15235821D01*
G01*
X-04757627Y-15175310D01*
G01*
X-04737710Y-15109653D01*
G01*
X-04730984Y-15041371D01*
G01*
X-04737710Y-14973089D01*
G01*
X-04757627Y-14907432D01*
G01*
X-04789970Y-14846921D01*
G01*
X-04833497Y-14793884D01*
G01*
X-04886535Y-14750357D01*
G01*
X-04947045Y-14718013D01*
G01*
X-05012703Y-14698096D01*
G01*
X-05033049Y-14696092D01*
G01*
X-05033049Y-13794963D01*
G01*
X-05017035Y-13775450D01*
G01*
X-04984692Y-13714939D01*
G01*
X-04964775Y-13649282D01*
G01*
X-04958049Y-13581000D01*
G01*
X-04964775Y-13512718D01*
G01*
X-04984692Y-13447061D01*
G01*
X-05017035Y-13386550D01*
G01*
X-05060562Y-13333513D01*
G01*
X-05113600Y-13289986D01*
G01*
X-05174110Y-13257642D01*
G01*
X-05239768Y-13237725D01*
G01*
X-05308049Y-13231000D01*
G01*
X-05376331Y-13237725D01*
G01*
X-05441989Y-13257642D01*
G01*
X-05502499Y-13289986D01*
G01*
X-05555537Y-13333513D01*
G01*
X-05599064Y-13386550D01*
G01*
X-05631407Y-13447061D01*
G01*
X-05651324Y-13512718D01*
G01*
X-05658049Y-13581000D01*
G01*
X-05651324Y-13649282D01*
G01*
X-05631407Y-13714939D01*
G01*
X-05599064Y-13775450D01*
G01*
X-05583049Y-13794964D01*
G01*
X-05583049Y-14814402D01*
G01*
X-05577765Y-14868052D01*
G01*
X-05562116Y-14919640D01*
G01*
X-05536704Y-14967184D01*
G01*
X-05502504Y-15008857D01*
G01*
X-05426723Y-15084638D01*
G01*
X-05424259Y-15109653D01*
G01*
X-05404342Y-15175310D01*
G01*
X-05371999Y-15235821D01*
G01*
X-05328472Y-15288858D01*
G01*
X-05275434Y-15332385D01*
G01*
X-05214924Y-15364729D01*
G01*
X-05149266Y-15384646D01*
G01*
X-05080984Y-15391371D01*
G37*
D38*
G36*
X-03810000Y-19780000D02*
G01*
X-03595401Y-19758864D01*
G01*
X-03389048Y-19696267D01*
G01*
X-03198873Y-19594617D01*
G01*
X-03032183Y-19457817D01*
G01*
X-02895383Y-19291127D01*
G01*
X-02793733Y-19100952D01*
G01*
X-02731136Y-18894599D01*
G01*
X-02710000Y-18680000D01*
G01*
X-02731136Y-18465401D01*
G01*
X-02793733Y-18259048D01*
G01*
X-02895383Y-18068873D01*
G01*
X-03032183Y-17902183D01*
G01*
X-03197000Y-17766920D01*
G01*
X-03197000Y-14303000D01*
G01*
X-03205647Y-14215209D01*
G01*
X-03231254Y-14130792D01*
G01*
X-03272839Y-14052993D01*
G01*
X-03328802Y-13984802D01*
G01*
X-03396993Y-13928839D01*
G01*
X-03474792Y-13887254D01*
G01*
X-03559209Y-13861647D01*
G01*
X-03647000Y-13853000D01*
G01*
X-03734791Y-13861647D01*
G01*
X-03819208Y-13887254D01*
G01*
X-03897007Y-13928839D01*
G01*
X-03965198Y-13984802D01*
G01*
X-04021161Y-14052993D01*
G01*
X-04062746Y-14130792D01*
G01*
X-04088353Y-14215209D01*
G01*
X-04097000Y-14303000D01*
G01*
X-04097000Y-17623099D01*
G01*
X-04230952Y-17663733D01*
G01*
X-04421127Y-17765383D01*
G01*
X-04587817Y-17902183D01*
G01*
X-04724617Y-18068873D01*
G01*
X-04826267Y-18259048D01*
G01*
X-04888864Y-18465401D01*
G01*
X-04910000Y-18680000D01*
G01*
X-04888864Y-18894599D01*
G01*
X-04826267Y-19100952D01*
G01*
X-04724617Y-19291127D01*
G01*
X-04587817Y-19457817D01*
G01*
X-04421127Y-19594617D01*
G01*
X-04230952Y-19696267D01*
G01*
X-04024599Y-19758864D01*
G01*
X-03810000Y-19780000D01*
G37*
D38*
G36*
X-09990000Y-19780000D02*
G01*
X-07790000Y-19780000D01*
G01*
X-07790000Y-17580000D01*
G01*
X-09990000Y-17580000D01*
G01*
X-09990000Y-19780000D01*
G37*
D38*
G36*
X-01270000Y-19780000D02*
G01*
X-01055401Y-19758864D01*
G01*
X-00849048Y-19696267D01*
G01*
X-00658873Y-19594617D01*
G01*
X-00492183Y-19457817D01*
G01*
X-00355383Y-19291127D01*
G01*
X-00253733Y-19100952D01*
G01*
X-00191136Y-18894599D01*
G01*
X-00170000Y-18680000D01*
G01*
X-00191136Y-18465401D01*
G01*
X-00253733Y-18259048D01*
G01*
X-00355383Y-18068873D01*
G01*
X-00492183Y-17902183D01*
G01*
X-00658873Y-17765383D01*
G01*
X-00849048Y-17663733D01*
G01*
X-01055401Y-17601136D01*
G01*
X-01270000Y-17580000D01*
G01*
X-01484599Y-17601136D01*
G01*
X-01690952Y-17663733D01*
G01*
X-01881127Y-17765383D01*
G01*
X-02047817Y-17902183D01*
G01*
X-02184617Y-18068873D01*
G01*
X-02286267Y-18259048D01*
G01*
X-02348864Y-18465401D01*
G01*
X-02370000Y-18680000D01*
G01*
X-02348864Y-18894599D01*
G01*
X-02286267Y-19100952D01*
G01*
X-02184617Y-19291127D01*
G01*
X-02047817Y-19457817D01*
G01*
X-01881127Y-19594617D01*
G01*
X-01690952Y-19696267D01*
G01*
X-01484599Y-19758864D01*
G01*
X-01270000Y-19780000D01*
G37*
D38*
G36*
X001270000Y-19780000D02*
G01*
X001484599Y-19758864D01*
G01*
X001690952Y-19696267D01*
G01*
X001881127Y-19594617D01*
G01*
X002047817Y-19457817D01*
G01*
X002184617Y-19291127D01*
G01*
X002286267Y-19100952D01*
G01*
X002348864Y-18894599D01*
G01*
X002370000Y-18680000D01*
G01*
X002348864Y-18465401D01*
G01*
X002286267Y-18259048D01*
G01*
X002184617Y-18068873D01*
G01*
X002047817Y-17902183D01*
G01*
X001881127Y-17765383D01*
G01*
X001690952Y-17663733D01*
G01*
X001484599Y-17601136D01*
G01*
X001270000Y-17580000D01*
G01*
X001055401Y-17601136D01*
G01*
X000849048Y-17663733D01*
G01*
X000658873Y-17765383D01*
G01*
X000492183Y-17902183D01*
G01*
X000355383Y-18068873D01*
G01*
X000253733Y-18259048D01*
G01*
X000191136Y-18465401D01*
G01*
X000170000Y-18680000D01*
G01*
X000191136Y-18894599D01*
G01*
X000253733Y-19100952D01*
G01*
X000355383Y-19291127D01*
G01*
X000492183Y-19457817D01*
G01*
X000658873Y-19594617D01*
G01*
X000849048Y-19696267D01*
G01*
X001055401Y-19758864D01*
G01*
X001270000Y-19780000D01*
G37*
D38*
G36*
X006350000Y-19780000D02*
G01*
X006564599Y-19758864D01*
G01*
X006770952Y-19696267D01*
G01*
X006961127Y-19594617D01*
G01*
X007127817Y-19457817D01*
G01*
X007264617Y-19291127D01*
G01*
X007366267Y-19100952D01*
G01*
X007428864Y-18894599D01*
G01*
X007450000Y-18680000D01*
G01*
X007428864Y-18465401D01*
G01*
X007366267Y-18259048D01*
G01*
X007264617Y-18068873D01*
G01*
X007127817Y-17902183D01*
G01*
X006961127Y-17765383D01*
G01*
X006770952Y-17663733D01*
G01*
X006564599Y-17601136D01*
G01*
X006350000Y-17580000D01*
G01*
X006135401Y-17601136D01*
G01*
X005929048Y-17663733D01*
G01*
X005738873Y-17765383D01*
G01*
X005572183Y-17902183D01*
G01*
X005435383Y-18068873D01*
G01*
X005333733Y-18259048D01*
G01*
X005271136Y-18465401D01*
G01*
X005250000Y-18680000D01*
G01*
X005271136Y-18894599D01*
G01*
X005333733Y-19100952D01*
G01*
X005435383Y-19291127D01*
G01*
X005572183Y-19457817D01*
G01*
X005738873Y-19594617D01*
G01*
X005929048Y-19696267D01*
G01*
X006135401Y-19758864D01*
G01*
X006350000Y-19780000D01*
G37*
D38*
G36*
X008890000Y-19780000D02*
G01*
X009104599Y-19758864D01*
G01*
X009310952Y-19696267D01*
G01*
X009501127Y-19594617D01*
G01*
X009667817Y-19457817D01*
G01*
X009804617Y-19291127D01*
G01*
X009906267Y-19100952D01*
G01*
X009968864Y-18894599D01*
G01*
X009990000Y-18680000D01*
G01*
X009968864Y-18465401D01*
G01*
X009906267Y-18259048D01*
G01*
X009804617Y-18068873D01*
G01*
X009667817Y-17902183D01*
G01*
X009501127Y-17765383D01*
G01*
X009310952Y-17663733D01*
G01*
X009104599Y-17601136D01*
G01*
X008890000Y-17580000D01*
G01*
X008675401Y-17601136D01*
G01*
X008469048Y-17663733D01*
G01*
X008278873Y-17765383D01*
G01*
X008112183Y-17902183D01*
G01*
X007975383Y-18068873D01*
G01*
X007873733Y-18259048D01*
G01*
X007811136Y-18465401D01*
G01*
X007790000Y-18680000D01*
G01*
X007811136Y-18894599D01*
G01*
X007873733Y-19100952D01*
G01*
X007975383Y-19291127D01*
G01*
X008112183Y-19457817D01*
G01*
X008278873Y-19594617D01*
G01*
X008469048Y-19696267D01*
G01*
X008675401Y-19758864D01*
G01*
X008890000Y-19780000D01*
G37*
D38*
G36*
X-07435226Y-18530000D02*
G01*
X-07235226Y-18530000D01*
G01*
X-07232707Y-18504419D01*
G01*
X-07181492Y-18335585D01*
G01*
X-07098323Y-18179987D01*
G01*
X-06986396Y-18043604D01*
G01*
X-06850013Y-17931677D01*
G01*
X-06694415Y-17848508D01*
G01*
X-06525581Y-17797293D01*
G01*
X-06500000Y-17794774D01*
G01*
X-06500000Y-17594774D01*
G01*
X-06564599Y-17601136D01*
G01*
X-06770952Y-17663733D01*
G01*
X-06961127Y-17765383D01*
G01*
X-07127817Y-17902183D01*
G01*
X-07264617Y-18068873D01*
G01*
X-07366267Y-18259048D01*
G01*
X-07428864Y-18465401D01*
G01*
X-07435226Y-18530000D01*
G37*
D38*
G36*
X-05464774Y-18530000D02*
G01*
X-05264774Y-18530000D01*
G01*
X-05271136Y-18465401D01*
G01*
X-05333733Y-18259048D01*
G01*
X-05435383Y-18068873D01*
G01*
X-05572183Y-17902183D01*
G01*
X-05738873Y-17765383D01*
G01*
X-05929048Y-17663733D01*
G01*
X-06135401Y-17601136D01*
G01*
X-06200000Y-17594774D01*
G01*
X-06200000Y-17794774D01*
G01*
X-06174419Y-17797293D01*
G01*
X-06005585Y-17848508D01*
G01*
X-05849987Y-17931677D01*
G01*
X-05713604Y-18043604D01*
G01*
X-05601677Y-18179987D01*
G01*
X-05518508Y-18335585D01*
G01*
X-05467293Y-18504419D01*
G01*
X-05464774Y-18530000D01*
G37*
D38*
G36*
X-06500000Y-19765226D02*
G01*
X-06500000Y-19565226D01*
G01*
X-06525581Y-19562707D01*
G01*
X-06694415Y-19511492D01*
G01*
X-06850013Y-19428323D01*
G01*
X-06986396Y-19316396D01*
G01*
X-07098323Y-19180013D01*
G01*
X-07181492Y-19024415D01*
G01*
X-07232707Y-18855581D01*
G01*
X-07235226Y-18830000D01*
G01*
X-07435226Y-18830000D01*
G01*
X-07428864Y-18894599D01*
G01*
X-07366267Y-19100952D01*
G01*
X-07264617Y-19291127D01*
G01*
X-07127817Y-19457817D01*
G01*
X-06961127Y-19594617D01*
G01*
X-06770952Y-19696267D01*
G01*
X-06564599Y-19758864D01*
G01*
X-06500000Y-19765226D01*
G37*
D38*
G36*
X-06200000Y-19765226D02*
G01*
X-06135401Y-19758864D01*
G01*
X-05929048Y-19696267D01*
G01*
X-05738873Y-19594617D01*
G01*
X-05572183Y-19457817D01*
G01*
X-05435383Y-19291127D01*
G01*
X-05333733Y-19100952D01*
G01*
X-05271136Y-18894599D01*
G01*
X-05264774Y-18830000D01*
G01*
X-05464774Y-18830000D01*
G01*
X-05467293Y-18855581D01*
G01*
X-05518508Y-19024415D01*
G01*
X-05601677Y-19180013D01*
G01*
X-05713604Y-19316396D01*
G01*
X-05849987Y-19428323D01*
G01*
X-06005585Y-19511492D01*
G01*
X-06174419Y-19562707D01*
G01*
X-06200000Y-19565226D01*
G01*
X-06200000Y-19765226D01*
G37*
%LPD*%
D38*
G36*
X-00190735Y-10036103D02*
G01*
X-02382401Y-10036103D01*
G01*
X-02436051Y-10030819D01*
G01*
X-02487639Y-10015170D01*
G01*
X-02535183Y-09989757D01*
G01*
X-02576855Y-09955558D01*
G01*
X-02807429Y-09724983D01*
G01*
X-03155372Y-10072926D01*
G01*
X-00227559Y-10072926D01*
G01*
X-00190735Y-10036103D01*
G37*
D38*
G36*
X002950000Y-08380384D02*
G01*
X002901802Y-08332186D01*
G01*
X002865138Y-08287511D01*
G01*
X002865138Y-08846229D01*
G01*
X002885160Y-08866251D01*
G01*
X002910282Y-08868725D01*
G01*
X002950000Y-08880773D01*
G01*
X002950000Y-08380384D01*
G37*
D38*
G36*
X002828127Y-09560634D02*
G01*
X002773718Y-09555275D01*
G01*
X002708061Y-09535358D01*
G01*
X002647550Y-09503014D01*
G01*
X002594513Y-09459487D01*
G01*
X002550986Y-09406450D01*
G01*
X002530396Y-09367929D01*
G01*
X002530396Y-09593427D01*
G01*
X002551014Y-09618550D01*
G01*
X002583358Y-09679061D01*
G01*
X002603275Y-09744718D01*
G01*
X002610000Y-09813000D01*
G01*
X002603275Y-09881282D01*
G01*
X002583358Y-09946939D01*
G01*
X002551014Y-10007450D01*
G01*
X002507487Y-10060487D01*
G01*
X002454450Y-10104014D01*
G01*
X002393939Y-10136358D01*
G01*
X002328282Y-10156275D01*
G01*
X002260000Y-10163000D01*
G01*
X002191718Y-10156275D01*
G01*
X002126061Y-10136358D01*
G01*
X002065550Y-10104014D01*
G01*
X002012513Y-10060487D01*
G01*
X001968986Y-10007450D01*
G01*
X001936642Y-09946939D01*
G01*
X001916725Y-09881282D01*
G01*
X001910000Y-09813000D01*
G01*
X001916725Y-09744718D01*
G01*
X001936642Y-09679061D01*
G01*
X001968986Y-09618550D01*
G01*
X001980396Y-09604647D01*
G01*
X001980396Y-07022681D01*
G01*
X000358968Y-08669030D01*
G01*
X000500860Y-08810922D01*
G01*
X000537190Y-08855191D01*
G01*
X000585450Y-08880986D01*
G01*
X000638487Y-08924513D01*
G01*
X000682014Y-08977550D01*
G01*
X000714358Y-09038061D01*
G01*
X000734275Y-09103718D01*
G01*
X000741000Y-09172000D01*
G01*
X000734275Y-09240282D01*
G01*
X000714358Y-09305939D01*
G01*
X000682014Y-09366450D01*
G01*
X000638487Y-09419487D01*
G01*
X000585450Y-09463014D01*
G01*
X000542254Y-09486103D01*
G01*
X000739630Y-09486103D01*
G01*
X000793280Y-09491387D01*
G01*
X000844868Y-09507036D01*
G01*
X000892412Y-09532449D01*
G01*
X000934085Y-09566649D01*
G01*
X002095356Y-10727920D01*
G01*
X002099715Y-10728349D01*
G01*
X002151303Y-10743999D01*
G01*
X002198847Y-10769411D01*
G01*
X002198876Y-10769435D01*
G01*
X002232282Y-10772725D01*
G01*
X002297939Y-10792642D01*
G01*
X002358450Y-10824986D01*
G01*
X002411487Y-10868513D01*
G01*
X002441648Y-10905264D01*
G01*
X002828127Y-09560634D01*
G37*
D38*
G36*
X-02387500Y-06967031D02*
G01*
X-02387500Y-06825000D01*
G01*
X-02381976Y-06768912D01*
G01*
X-02365615Y-06714979D01*
G01*
X-02339048Y-06665274D01*
G01*
X-02303293Y-06621707D01*
G01*
X-02261033Y-06587024D01*
G01*
X-02261123Y-06586891D01*
G01*
X-01577411Y-06124239D01*
G01*
X-02218351Y-06124239D01*
G01*
X-02356393Y-06124239D01*
G01*
X-02606042Y-06373888D01*
G01*
X-02629513Y-06402487D01*
G01*
X-02682550Y-06446014D01*
G01*
X-02743061Y-06478358D01*
G01*
X-02771319Y-06486930D01*
G01*
X-02790251Y-06509999D01*
G01*
X-02938000Y-06657747D01*
G01*
X-02938000Y-07508579D01*
G01*
X-02387500Y-06967031D01*
G37*
D38*
G36*
X002536112Y-07594274D02*
G01*
X002547019Y-07585322D01*
G01*
X002546334Y-07584563D01*
G01*
X004725000Y-05618606D01*
G01*
X004725000Y-04613963D01*
G01*
X004708986Y-04594450D01*
G01*
X004676642Y-04533939D01*
G01*
X004656725Y-04468282D01*
G01*
X004650000Y-04400000D01*
G01*
X004656725Y-04331718D01*
G01*
X004668343Y-04293418D01*
G01*
X002591668Y-06402013D01*
G01*
X002632487Y-06435513D01*
G01*
X002676014Y-06488550D01*
G01*
X002708358Y-06549061D01*
G01*
X002728275Y-06614718D01*
G01*
X002735000Y-06683000D01*
G01*
X002728275Y-06751282D01*
G01*
X002708358Y-06816939D01*
G01*
X002676014Y-06877450D01*
G01*
X002632487Y-06930487D01*
G01*
X002579450Y-06974014D01*
G01*
X002530396Y-07000234D01*
G01*
X002530396Y-07601239D01*
G01*
X002536112Y-07594274D01*
G37*
D38*
G36*
X-09653403Y-09495382D02*
G01*
X-09585211Y-09439419D01*
G01*
X-09573505Y-09433162D01*
G01*
X-09343744Y-09203401D01*
G01*
X-09356014Y-09188450D01*
G01*
X-09388358Y-09127939D01*
G01*
X-09402742Y-09080522D01*
G01*
X-12645797Y-05837467D01*
G01*
X-12683106Y-05792006D01*
G01*
X-12710829Y-05740140D01*
G01*
X-12727901Y-05683862D01*
G01*
X-12733665Y-05625335D01*
G01*
X-12733665Y-04238605D01*
G01*
X-12765210Y-04200167D01*
G01*
X-12785412Y-04162373D01*
G01*
X-14701904Y-06031688D01*
G01*
X-14700609Y-08050854D01*
G01*
X-14617317Y-08076120D01*
G01*
X-14444430Y-08168530D01*
G01*
X-14292893Y-08292893D01*
G01*
X-14168530Y-08444430D01*
G01*
X-14076120Y-08617317D01*
G01*
X-14019215Y-08804910D01*
G01*
X-14000000Y-09000000D01*
G01*
X-14019215Y-09195090D01*
G01*
X-14076120Y-09382683D01*
G01*
X-14168530Y-09555570D01*
G01*
X-14292893Y-09707107D01*
G01*
X-14406084Y-09800000D01*
G01*
X-09958021Y-09800000D01*
G01*
X-09653403Y-09495382D01*
G37*
D38*
G36*
X-09109454Y-08503900D02*
G01*
X-09117860Y-08418548D01*
G01*
X-09117860Y-08216536D01*
G01*
X-09126198Y-08208198D01*
G01*
X-09182161Y-08140007D01*
G01*
X-09223746Y-08062208D01*
G01*
X-09249353Y-07977791D01*
G01*
X-09258000Y-07890000D01*
G01*
X-09249353Y-07802209D01*
G01*
X-09223746Y-07717792D01*
G01*
X-09182161Y-07639993D01*
G01*
X-09126198Y-07571802D01*
G01*
X-09058007Y-07515839D01*
G01*
X-08980208Y-07474254D01*
G01*
X-08895791Y-07448647D01*
G01*
X-08808000Y-07440000D01*
G01*
X-08720209Y-07448647D01*
G01*
X-08635792Y-07474254D01*
G01*
X-08571477Y-07508632D01*
G01*
X-08612826Y-07078734D01*
G01*
X-08610670Y-07078527D01*
G01*
X-08614893Y-07035650D01*
G01*
X-08614893Y-06563898D01*
G01*
X-08614893Y-06092147D01*
G01*
X-08614893Y-05620396D01*
G01*
X-08614893Y-05148644D01*
G01*
X-08614893Y-04676893D01*
G01*
X-08606246Y-04589102D01*
G01*
X-08580639Y-04504685D01*
G01*
X-08539054Y-04426886D01*
G01*
X-08483091Y-04358695D01*
G01*
X-08140848Y-04016451D01*
G01*
X-08072656Y-03960488D01*
G01*
X-07994857Y-03918904D01*
G01*
X-07912143Y-03893813D01*
G01*
X-07745571Y-03727241D01*
G01*
X-07688745Y-03680605D01*
G01*
X-07653672Y-03661858D01*
G01*
X-07619976Y-03628162D01*
G01*
X-12174472Y-03731909D01*
G01*
X-12156501Y-03765530D01*
G01*
X-12139430Y-03821808D01*
G01*
X-12133665Y-03880335D01*
G01*
X-12133665Y-03891109D01*
G01*
X-12133665Y-03928390D01*
G01*
X-12130921Y-03937436D01*
G01*
X-12124196Y-04005718D01*
G01*
X-12130921Y-04073999D01*
G01*
X-12133665Y-04083045D01*
G01*
X-12133665Y-05501071D01*
G01*
X-09100144Y-08534592D01*
G01*
X-09109454Y-08503900D01*
G37*
D38*
G36*
X001863217Y-04029387D02*
G01*
X002204373Y-03688231D01*
G01*
X002545529Y-03347075D01*
G01*
X002886685Y-03005919D01*
G01*
X003227841Y-02664763D01*
G01*
X003568996Y-02323607D01*
G01*
X003910152Y-01982452D01*
G01*
X004251308Y-01641296D01*
G01*
X004592464Y-01300140D01*
G01*
X004933620Y-00958984D01*
G01*
X005274776Y-00617828D01*
G01*
X005592771Y-00299833D01*
G01*
X005516216Y-00258913D01*
G01*
X005448024Y-00202950D01*
G01*
X005421445Y-00176371D01*
G01*
X005365482Y-00108179D01*
G01*
X005365334Y-00107902D01*
G01*
X005226639Y000030793D01*
G01*
X004232277Y000030793D01*
G01*
X004144487Y000039439D01*
G01*
X004060070Y000065047D01*
G01*
X004021929Y000085433D01*
G01*
X004112811Y-00441992D01*
G01*
X004112162Y-00442104D01*
G01*
X004117168Y-00492935D01*
G01*
X004111404Y-00551462D01*
G01*
X004094332Y-00607740D01*
G01*
X004066609Y-00659606D01*
G01*
X004032543Y-00701116D01*
G01*
X004032872Y-00701434D01*
G01*
X000802633Y-04043288D01*
G01*
X000786358Y-04096939D01*
G01*
X000754014Y-04157450D01*
G01*
X000710487Y-04210487D01*
G01*
X000676060Y-04238741D01*
G01*
X000926259Y-04238741D01*
G01*
X001383259Y-04238741D01*
G01*
X001653863Y-04238741D01*
G01*
X001863217Y-04029387D01*
G37*
D23*
X-18000000Y011000000D03*
D23*
X-16000000Y011000000D03*
D23*
X-19000000Y-09000000D03*
D23*
X-17000000Y-09000000D03*
D23*
X-15000000Y-09000000D03*
D23*
X-10000000Y018800000D03*
D23*
X-08000000Y018800000D03*
D23*
X-06000000Y018800000D03*
D23*
X003500000Y018800000D03*
D23*
X005500000Y018800000D03*
D23*
X007500000Y018800000D03*
D23*
X020000000Y004000000D03*
D23*
X018000000Y004000000D03*
D23*
X016000000Y004000000D03*
D32*
X-08890000Y-18680000D03*
D33*
X-06350000Y-18680000D03*
D33*
X-03810000Y-18680000D03*
D33*
X-01270000Y-18680000D03*
D33*
X001270000Y-18680000D03*
D33*
X003810000Y-18680000D03*
D33*
X006350000Y-18680000D03*
D33*
X008890000Y-18680000D03*
D35*
X-02600000Y011900000D03*
D35*
X-01400000Y011900000D03*
D35*
X-02600000Y013100000D03*
D35*
X-01400000Y013100000D03*
D16*
X-12000000Y002000000D03*
D16*
X-09000000Y-01000000D03*
D16*
X012000000Y002500000D03*
D16*
X015000000Y-08000000D03*
D16*
X001500000Y-12000000D03*
D16*
X009300000Y017600000D03*
D10*
X005600000Y-07100000D02*
X005600000Y-07100000D01*
D10*
X005600000Y-07100000D02*
X008000000Y-06300000D01*
D10*
X008000000Y-06300000D02*
X012000000Y-05000000D01*
D10*
X012000000Y-05000000D02*
X018000000Y-01000000D01*
D10*
X018000000Y-01000000D02*
X018000000Y-01000000D01*
D37*
X005600000Y-07100000D03*
D37*
X018000000Y-01000000D03*
D11*
X-03159000Y-10741000D02*
X-03159000Y-10741000D01*
D11*
X-03159000Y-10741000D02*
X-03159000Y-10845380D01*
D11*
X-03159000Y-10845380D02*
X-00035348Y-13969032D01*
D11*
X-00035348Y-13969032D02*
X-00035348Y-14040768D01*
D11*
X-00035348Y-14040768D02*
X000126173Y-14136685D01*
D11*
X000126173Y-14136685D02*
X000126173Y-14136685D01*
D10*
X-03238000Y-07699000D02*
X-03238000Y-07699000D01*
D10*
X-03238000Y-07699000D02*
X-03238000Y-06533483D01*
D10*
X-03238000Y-06533483D02*
X-03002383Y-06297867D01*
D10*
X-03002383Y-06297867D02*
X-03002383Y-06280383D01*
D10*
X-03002383Y-06280383D02*
X-02877000Y-06155000D01*
D10*
X-02877000Y-06155000D02*
X-02877000Y-06155000D01*
D10*
X-02877000Y-06155000D02*
X-02877000Y-06155000D01*
D10*
X-02877000Y-06155000D02*
X-02864238Y-06167762D01*
D10*
X-02864238Y-06167762D02*
X-02824180Y-06167762D01*
D10*
X-02824180Y-06167762D02*
X-02480657Y-05824239D01*
D10*
X-02480657Y-05824239D02*
X-02218351Y-05824239D01*
D10*
X-02218351Y-05824239D02*
X000306271Y-05824239D01*
D10*
X000306271Y-05824239D02*
X000418505Y-05936473D01*
D10*
X000418505Y-05936473D02*
X000418505Y-07483495D01*
D10*
X000418505Y-07483495D02*
X000158332Y-07508332D01*
D10*
X000158332Y-07508332D02*
X000158332Y-07508332D01*
D10*
X-04748000Y-09974000D02*
X-04748000Y-09974000D01*
D10*
X-04748000Y-09974000D02*
X-03480710Y-09974000D01*
D10*
X-03480710Y-09974000D02*
X-02892136Y-09385426D01*
D10*
X-02892136Y-09385426D02*
X-02825107Y-09318397D01*
D10*
X-02825107Y-09318397D02*
X-02825107Y-09318397D01*
D10*
X-05076000Y-10750000D02*
X-05076000Y-10750000D01*
D10*
X-05076000Y-10750000D02*
X-05022551Y-10803449D01*
D10*
X-05022551Y-10803449D02*
X-04969308Y-10803449D01*
D10*
X-04969308Y-10803449D02*
X-02906000Y-12866756D01*
D10*
X-02906000Y-12866756D02*
X-02906000Y-13688000D01*
D10*
X-02906000Y-13688000D02*
X-02906000Y-13688000D01*
D12*
X-02825107Y-09318397D02*
X-02825107Y-09318397D01*
D12*
X-02825107Y-09318397D02*
X-02382401Y-09761103D01*
D12*
X-02382401Y-09761103D02*
X000739630Y-09761103D01*
D12*
X000739630Y-09761103D02*
X001976593Y-10998065D01*
D12*
X001976593Y-10998065D02*
X002046065Y-10998065D01*
D12*
X002046065Y-10998065D02*
X002164000Y-11116000D01*
D12*
X002164000Y-11116000D02*
X002164000Y-11116000D01*
D12*
X003609000Y-11094000D02*
X003609000Y-11094000D01*
D12*
X003609000Y-11094000D02*
X004252342Y-09042793D01*
D12*
X004252342Y-09042793D02*
X004252342Y-09042793D01*
D11*
X000050000Y-06209000D02*
X000050000Y-06209000D01*
D11*
X000050000Y-06209000D02*
X000043059Y-06202059D01*
D11*
X000043059Y-06202059D02*
X-00187850Y-06202059D01*
D11*
X-00187850Y-06202059D02*
X-00324004Y-06338213D01*
D11*
X-00324004Y-06338213D02*
X-01380622Y-06338213D01*
D11*
X-01380622Y-06338213D02*
X-02100000Y-06825000D01*
D11*
X-02100000Y-06825000D02*
X-02100000Y-07087500D01*
D11*
X-02100000Y-07087500D02*
X-03939409Y-08897000D01*
D11*
X-03939409Y-08897000D02*
X-04069000Y-08897000D01*
D11*
X-04069000Y-08897000D02*
X-04069000Y-08897000D01*
D10*
X-09065000Y-08994000D02*
X-09065000Y-08994000D01*
D10*
X-09065000Y-08994000D02*
X-12433665Y-05625335D01*
D10*
X-12433665Y-05625335D02*
X-12433665Y-03891109D01*
D10*
X-12433665Y-03891109D02*
X-12433665Y-03880335D01*
D10*
X-12433665Y-03880335D02*
X-12474196Y-04005718D01*
D10*
X-12474196Y-04005718D02*
X-12474196Y-04005718D01*
D12*
X-05080984Y-15041371D02*
X-05080984Y-15041371D01*
D12*
X-05080984Y-15041371D02*
X-05089095Y-15033260D01*
D12*
X-05089095Y-15033260D02*
X-05089192Y-15033260D01*
D12*
X-05089192Y-15033260D02*
X-05308049Y-14814402D01*
D12*
X-05308049Y-14814402D02*
X-05308049Y-13581000D01*
D12*
X-05308049Y-13581000D02*
X-05308049Y-13581000D01*
D10*
X000463000Y-03963000D02*
X000463000Y-03963000D01*
D10*
X000463000Y-03963000D02*
X003817168Y-00492935D01*
D10*
X003817168Y-00492935D02*
X003688731Y000252440D01*
D10*
X003688731Y000252440D02*
X003889527Y001848223D01*
D10*
X003889527Y001848223D02*
X004007262Y001848084D01*
D10*
X004007262Y001848084D02*
X013149178Y010990000D01*
D10*
X013149178Y010990000D02*
X013149178Y011027178D01*
D10*
X013149178Y011027178D02*
X013271000Y011149000D01*
D10*
X013271000Y011149000D02*
X013271000Y011149000D01*
D10*
X-09040000Y-10776000D02*
X-09040000Y-10776000D01*
D10*
X-09040000Y-10776000D02*
X-09040000Y-13949460D01*
D10*
X-09040000Y-13949460D02*
X-08844730Y-14144730D01*
D10*
X-08844730Y-14144730D02*
X-08800000Y-14100000D01*
D10*
X-08800000Y-14100000D02*
X-08800000Y-14100000D01*
D10*
X-07686000Y-10771000D02*
X-07686000Y-10771000D01*
D10*
X-07686000Y-10771000D02*
X-07287926Y-10372926D01*
D10*
X-07287926Y-10372926D02*
X-00103295Y-10372926D01*
D10*
X-00103295Y-10372926D02*
X000073057Y-10196575D01*
D10*
X000073057Y-10196575D02*
X000155321Y-10196575D01*
D10*
X000155321Y-10196575D02*
X000248875Y-10103021D01*
D10*
X000248875Y-10103021D02*
X000248875Y-10103021D01*
D11*
X003810000Y-18680000D02*
X003810000Y-15376218D01*
D11*
X003810000Y-15376218D02*
X-00054018Y-11512200D01*
D11*
X-00054018Y-11512200D02*
X-00054018Y-10556480D01*
D11*
X-00054018Y-10556480D02*
X000324158Y-10178304D01*
D11*
X000324158Y-10178304D02*
X000248875Y-10103021D01*
D11*
X000248875Y-10103021D02*
X000248875Y-10103021D01*
D10*
X000391000Y-09172000D02*
X000391000Y-09172000D01*
D10*
X000391000Y-09172000D02*
X000288728Y-09069728D01*
D10*
X000288728Y-09069728D02*
X000288728Y-09023054D01*
D10*
X000288728Y-09023054D02*
X-00103061Y-08631266D01*
D10*
X-00103061Y-08631266D02*
X000009549Y-08596284D01*
D10*
X000009549Y-08596284D02*
X013974275Y005583087D01*
D10*
X013974275Y005583087D02*
X013969097Y005656001D01*
D10*
X013969097Y005656001D02*
X013969097Y012027903D01*
D10*
X013969097Y012027903D02*
X013703000Y012294000D01*
D10*
X013703000Y012294000D02*
X013703000Y012294000D01*
D13*
X-03810000Y-18680000D02*
X-03647000Y-18517000D01*
D13*
X-03647000Y-18517000D02*
X-03647000Y-14303000D01*
D13*
X-03647000Y-14303000D02*
X-03647000Y-14303000D01*
D13*
X010028000Y003499000D02*
X010028000Y003499000D01*
D13*
X010028000Y003499000D02*
X009686844Y003157844D01*
D13*
X009686844Y003157844D02*
X009345688Y002816688D01*
D13*
X009345688Y002816688D02*
X009004532Y002475532D01*
D13*
X009004532Y002475532D02*
X008663377Y002134377D01*
D13*
X008663377Y002134377D02*
X008322221Y001793221D01*
D13*
X008322221Y001793221D02*
X007981065Y001452065D01*
D13*
X007981065Y001452065D02*
X007639909Y001110909D01*
D13*
X007639909Y001110909D02*
X007298753Y000769753D01*
D13*
X007298753Y000769753D02*
X006957597Y000428597D01*
D13*
X006957597Y000428597D02*
X006616441Y000087441D01*
D13*
X006616441Y000087441D02*
X006275285Y-00253715D01*
D13*
X006275285Y-00253715D02*
X005934130Y-00594870D01*
D13*
X005934130Y-00594870D02*
X005592974Y-00936026D01*
D13*
X005592974Y-00936026D02*
X005251818Y-01277182D01*
D13*
X005251818Y-01277182D02*
X004910662Y-01618338D01*
D13*
X004910662Y-01618338D02*
X004569506Y-01959494D01*
D13*
X004569506Y-01959494D02*
X004228350Y-02300650D01*
D13*
X004228350Y-02300650D02*
X003887194Y-02641806D01*
D13*
X003887194Y-02641806D02*
X003546039Y-02982961D01*
D13*
X003546039Y-02982961D02*
X003204883Y-03324117D01*
D13*
X003204883Y-03324117D02*
X002863727Y-03665273D01*
D13*
X002863727Y-03665273D02*
X002522571Y-04006429D01*
D13*
X002522571Y-04006429D02*
X002181415Y-04347585D01*
D13*
X002181415Y-04347585D02*
X001840259Y-04688741D01*
D13*
X001840259Y-04688741D02*
X001383259Y-04688741D01*
D13*
X001383259Y-04688741D02*
X000926259Y-04688741D01*
D13*
X000926259Y-04688741D02*
X000469259Y-04688741D01*
D13*
X000469259Y-04688741D02*
X000012259Y-04688741D01*
D13*
X000012259Y-04688741D02*
X-00003000Y-04704000D01*
D13*
X-00003000Y-04704000D02*
X-00003000Y-04704000D01*
D13*
X001868000Y004401000D02*
X001868000Y004401000D01*
D13*
X001868000Y004401000D02*
X002269000Y004401000D01*
D13*
X002269000Y004401000D02*
X002479433Y004611433D01*
D13*
X002479433Y004611433D02*
X002689865Y004821865D01*
D13*
X002689865Y004821865D02*
X002710000Y004842000D01*
D13*
X002710000Y004842000D02*
X002710000Y004842000D01*
D14*
X-02689000Y000799000D02*
X-02689000Y000799000D01*
D14*
X-02689000Y000799000D02*
X-03031243Y000456757D01*
D14*
X-03031243Y000456757D02*
X-03373487Y000114513D01*
D14*
X-03373487Y000114513D02*
X-03715730Y-00227730D01*
D14*
X-03715730Y-00227730D02*
X-04057973Y-00569973D01*
D14*
X-04057973Y-00569973D02*
X-04400216Y-00912216D01*
D14*
X-04400216Y-00912216D02*
X-04742460Y-01254460D01*
D14*
X-04742460Y-01254460D02*
X-05084703Y-01596703D01*
D14*
X-05084703Y-01596703D02*
X-05426946Y-01938946D01*
D14*
X-05426946Y-01938946D02*
X-05769190Y-02281190D01*
D14*
X-05769190Y-02281190D02*
X-06111433Y-02623433D01*
D14*
X-06111433Y-02623433D02*
X-06453676Y-02965676D01*
D14*
X-06453676Y-02965676D02*
X-06795920Y-03307920D01*
D14*
X-06795920Y-03307920D02*
X-07138163Y-03650163D01*
D14*
X-07138163Y-03650163D02*
X-07480406Y-03992406D01*
D15*
X-07480406Y-03992406D02*
X-07822649Y-04334649D01*
D13*
X-07822649Y-04334649D02*
X-08164893Y-04676893D01*
D13*
X-08164893Y-04676893D02*
X-08164893Y-05148644D01*
D13*
X-08164893Y-05148644D02*
X-08164893Y-05620396D01*
D13*
X-08164893Y-05620396D02*
X-08164893Y-06092147D01*
D13*
X-08164893Y-06092147D02*
X-08164893Y-06563898D01*
D13*
X-08164893Y-06563898D02*
X-08164893Y-07035650D01*
D13*
X-08164893Y-07035650D02*
X-08000000Y-08750000D01*
D13*
X-08000000Y-08750000D02*
X-08250000Y-11000000D01*
D13*
X-08250000Y-11000000D02*
X-08250000Y-15125000D01*
D13*
X-08250000Y-15125000D02*
X-07375000Y-16000000D01*
D13*
X-07375000Y-16000000D02*
X-07375000Y-16323000D01*
D13*
X-07375000Y-16323000D02*
X-07637000Y-16585000D01*
D13*
X-07637000Y-16585000D02*
X-07637000Y-16585000D01*
D16*
X007384000Y008804000D02*
X007384000Y008804000D01*
D16*
X007384000Y008804000D02*
X007509852Y008678148D01*
D16*
X007509852Y008678148D02*
X007551677Y008678148D01*
D16*
X007551677Y008678148D02*
X007758825Y008471000D01*
D16*
X007758825Y008471000D02*
X008361912Y008471000D01*
D16*
X008361912Y008471000D02*
X008965000Y008471000D01*
D16*
X008965000Y008471000D02*
X008965000Y008471000D01*
D16*
X-00400000Y007900000D02*
X-00400000Y007900000D01*
D16*
X-00400000Y007900000D02*
X000874000Y009174000D01*
D16*
X000874000Y009174000D02*
X005459000Y009174000D01*
D16*
X005459000Y009174000D02*
X005459000Y009174000D01*
D17*
X-03550000Y010975000D02*
X-03550000Y010975000D01*
D17*
X-03550000Y010975000D02*
X-03304780Y010606495D01*
D18*
X-03304780Y010606495D02*
X-03304780Y010523750D01*
D18*
X-03304780Y010523750D02*
X-03227000Y010445970D01*
D18*
X-03227000Y010445970D02*
X-03200883Y009780883D01*
D17*
X-03200883Y009780883D02*
X-03200883Y009780883D01*
D12*
X-09815000Y-00800000D02*
X-09815000Y-00800000D01*
D12*
X-09815000Y-00800000D02*
X-09713313Y-00698313D01*
D12*
X-09713313Y-00698313D02*
X-09713313Y-00637304D01*
D12*
X-09713313Y-00637304D02*
X-03081009Y005995000D01*
D12*
X-03081009Y005995000D02*
X-00189093Y005877907D01*
D12*
X-00189093Y005877907D02*
X-00189093Y005877907D01*
D12*
X001086000Y006364000D02*
X001086000Y006364000D01*
D12*
X001086000Y006364000D02*
X001205402Y006483402D01*
D12*
X001205402Y006483402D02*
X001221972Y006483402D01*
D12*
X001221972Y006483402D02*
X008073402Y006483402D01*
D12*
X008073402Y006483402D02*
X012242000Y010652000D01*
D12*
X012242000Y010652000D02*
X012242000Y010652000D01*
D10*
X018033000Y-07500000D02*
X018033000Y-07500000D01*
D10*
X018033000Y-07500000D02*
X017936833Y-07500000D01*
D10*
X017936833Y-07500000D02*
X016568142Y-06131308D01*
D10*
X016568142Y-06131308D02*
X016568142Y-06089007D01*
D10*
X016568142Y-06089007D02*
X016568142Y-06089007D01*
D10*
X015199135Y-01420541D02*
X015199135Y-01420541D01*
D10*
X015199135Y-01420541D02*
X015249843Y-01546843D01*
D10*
X015249843Y-01546843D02*
X015245920Y-01546843D01*
D10*
X015245920Y-01546843D02*
X014599000Y-02193763D01*
D10*
X014599000Y-02193763D02*
X014599000Y-02276000D01*
D10*
X014599000Y-02276000D02*
X014599000Y-02276000D01*
D10*
X008100006Y003082000D02*
X008100006Y003082000D01*
D10*
X008100006Y003082000D02*
X007938592Y003103592D01*
D10*
X007938592Y003103592D02*
X013662618Y008827618D01*
D10*
X013662618Y008827618D02*
X013662618Y010617528D01*
D10*
X013662618Y010617528D02*
X013662618Y011779382D01*
D10*
X013662618Y011779382D02*
X012563000Y012879000D01*
D10*
X012563000Y012879000D02*
X012563000Y012879000D01*
D10*
X010742000Y013023000D02*
X010742000Y013023000D01*
D10*
X010742000Y013023000D02*
X010686023Y013078977D01*
D10*
X010686023Y013078977D02*
X010571160Y013078977D01*
D10*
X010571160Y013078977D02*
X007500000Y016150137D01*
D10*
X007500000Y016150137D02*
X007500000Y018800000D01*
D11*
X000789000Y005485000D02*
X000789000Y005485000D01*
D11*
X000789000Y005485000D02*
X000542274Y005731726D01*
D11*
X000542274Y005731726D02*
X000645754Y005947246D01*
D11*
X000645754Y005947246D02*
X-02834411Y009246223D01*
D11*
X-02834411Y009246223D02*
X-02847614Y010687406D01*
D11*
X-02847614Y010687406D02*
X-03261156Y011173486D01*
D11*
X-03261156Y011173486D02*
X-04676000Y012515792D01*
D11*
X-04676000Y012515792D02*
X-04676000Y017679000D01*
D11*
X-04676000Y017679000D02*
X-04676000Y017679000D01*
D10*
X000300000Y002200000D02*
X000300000Y002200000D01*
D10*
X000300000Y002200000D02*
X000300000Y002133133D01*
D10*
X000300000Y002133133D02*
X-00447838Y001385295D01*
D10*
X-00447838Y001385295D02*
X-02613995Y001385295D01*
D10*
X-02613995Y001385295D02*
X-07320554Y-03321263D01*
D10*
X-07320554Y-03321263D02*
X-12473058Y-03438633D01*
D10*
X-12473058Y-03438633D02*
X-15001985Y-05905308D01*
D10*
X-15001985Y-05905308D02*
X-15000000Y-09000000D01*
D13*
X004232277Y000480793D02*
X004232277Y000480793D01*
D13*
X004232277Y000480793D02*
X005413035Y000480793D01*
D13*
X005413035Y000480793D02*
X005739643Y000154185D01*
D13*
X005739643Y000154185D02*
X005739643Y000141827D01*
D13*
X005739643Y000141827D02*
X005766222Y000115248D01*
D19*
X005766222Y000115248D02*
X005806248Y000115248D01*
D19*
X005806248Y000115248D02*
X005828000Y000137000D01*
D19*
X005828000Y000137000D02*
X005828000Y000137000D01*
D13*
X000074000Y-02802000D02*
X000074000Y-02802000D01*
D13*
X000074000Y-02802000D02*
X000741000Y-02802000D01*
D13*
X000741000Y-02802000D02*
X002613995Y-00929005D01*
D13*
X002613995Y-00929005D02*
X002613995Y-00929005D01*
D13*
X002511000Y-12293000D02*
X002511000Y-12293000D01*
D13*
X002511000Y-12293000D02*
X003400000Y-09200000D01*
D13*
X003400000Y-09200000D02*
X003400000Y-08193988D01*
D13*
X003400000Y-08193988D02*
X003220000Y-08013988D01*
D13*
X003220000Y-08013988D02*
X003220000Y-08013988D01*
D13*
X-01648000Y-07091000D02*
X-01648000Y-07091000D01*
D13*
X-01648000Y-07091000D02*
X-01634178Y-07104822D01*
D13*
X-01634178Y-07104822D02*
X-01525520Y-07104822D01*
D13*
X-01525520Y-07104822D02*
X-01280342Y-07350000D01*
D13*
X-01280342Y-07350000D02*
X-00879000Y-07350000D01*
D13*
X-00879000Y-07350000D02*
X-00879000Y-07350000D01*
D13*
X010649000Y011350000D02*
X010649000Y011350000D01*
D13*
X010649000Y011350000D02*
X010577979Y011421021D01*
D13*
X010577979Y011421021D02*
X010431018Y011421021D01*
D13*
X010431018Y011421021D02*
X003500000Y018352039D01*
D13*
X003500000Y018352039D02*
X003500000Y018800000D01*
D13*
X-10000000Y018800000D02*
X-10000000Y019000000D01*
D13*
X-10000000Y019000000D02*
X-09500000Y019500000D01*
D13*
X-09500000Y019500000D02*
X-09500000Y019750000D01*
D13*
X-09500000Y019750000D02*
X-09000000Y020250000D01*
D13*
X-09000000Y020250000D02*
X-05000000Y020250000D01*
D13*
X-05000000Y020250000D02*
X-04500000Y019750000D01*
D13*
X-04500000Y019750000D02*
X-04500000Y019250000D01*
D13*
X-04500000Y019250000D02*
X-04441964Y019250000D01*
D13*
X-04441964Y019250000D02*
X-04419643Y019272321D01*
D13*
X-04419643Y019272321D02*
X-04098214Y018924107D01*
D13*
X-04098214Y018924107D02*
X-03776786Y018575893D01*
D13*
X-03776786Y018575893D02*
X-03455357Y018227679D01*
D13*
X-03455357Y018227679D02*
X-03133929Y017879464D01*
D13*
X-03133929Y017879464D02*
X-02812500Y017531250D01*
D13*
X-02812500Y017531250D02*
X001800000Y017400000D01*
D13*
X001800000Y017400000D02*
X002200000Y017400000D01*
D13*
X002200000Y017400000D02*
X002600000Y017400000D01*
D13*
X002600000Y017400000D02*
X003200000Y018000000D01*
D13*
X003200000Y018000000D02*
X003500000Y018800000D01*
D13*
X-08808000Y-07890000D02*
X-08808000Y-07890000D01*
D13*
X-08808000Y-07890000D02*
X-08680360Y-08017640D01*
D13*
X-08680360Y-08017640D02*
X-08680360Y-08048455D01*
D19*
X-08680360Y-08048455D02*
X-08680360Y-08418548D01*
D20*
X-08680360Y-08418548D02*
X-08625000Y-08437500D01*
D21*
X-08625000Y-08437500D02*
X-08625000Y-08812500D01*
D21*
X-08625000Y-08812500D02*
X-08625000Y-09187500D01*
D21*
X-08625000Y-09187500D02*
X-08812500Y-09375000D01*
D22*
X-08812500Y-09375000D02*
X-09007782Y-09486158D01*
D19*
X-09007782Y-09486158D02*
X-09335205Y-09813580D01*
D13*
X-09335205Y-09813580D02*
X-09662627Y-10141002D01*
D13*
X-09662627Y-10141002D02*
X-09771625Y-10250000D01*
D13*
X-09771625Y-10250000D02*
X-19000000Y-10250000D01*
D13*
X-19000000Y-10250000D02*
X-19000000Y-09000000D01*
D10*
X016200000Y012900000D02*
X016200000Y012900000D01*
D10*
X016200000Y012900000D02*
X016139547Y012782547D01*
D10*
X016139547Y012782547D02*
X016139547Y012641822D01*
D10*
X016139547Y012641822D02*
X016188000Y012593369D01*
D10*
X016188000Y012593369D02*
X016188000Y011913000D01*
D10*
X016188000Y011913000D02*
X016188000Y011913000D01*
D10*
X007817000Y-02322000D02*
X007817000Y-02322000D01*
D10*
X007817000Y-02322000D02*
X007853577Y-02358577D01*
D10*
X007853577Y-02358577D02*
X008023257Y-02358577D01*
D10*
X008023257Y-02358577D02*
X008074681Y-02410000D01*
D10*
X008074681Y-02410000D02*
X009001000Y-02410000D01*
D10*
X009001000Y-02410000D02*
X009001000Y-02410000D01*
D10*
X011879000Y013030000D02*
X011879000Y013030000D01*
D10*
X011879000Y013030000D02*
X011772748Y012923748D01*
D10*
X011772748Y012923748D02*
X011772748Y012839131D01*
D10*
X011772748Y012839131D02*
X011271000Y012337383D01*
D10*
X011271000Y012337383D02*
X011271000Y010798000D01*
D10*
X011271000Y010798000D02*
X011271000Y010798000D01*
D10*
X-16000000Y011000000D02*
X-14323159Y011000000D01*
D10*
X-14323159Y011000000D02*
X-13210854Y012112305D01*
D10*
X-13210854Y012112305D02*
X-13071695Y012112305D01*
D10*
X-13071695Y012112305D02*
X-13019000Y012165000D01*
D10*
X-13019000Y012165000D02*
X-13019000Y012165000D01*
D10*
X008622451Y009199393D02*
X008622451Y009199393D01*
D10*
X008622451Y009199393D02*
X009607761Y009199393D01*
D10*
X009607761Y009199393D02*
X009792590Y009384222D01*
D10*
X009792590Y009384222D02*
X009814778Y009384222D01*
D10*
X009814778Y009384222D02*
X009864000Y009335000D01*
D10*
X009864000Y009335000D02*
X009864000Y009335000D01*
D10*
X000698000Y004227000D02*
X000698000Y004227000D01*
D10*
X000698000Y004227000D02*
X000740252Y004269252D01*
D10*
X000740252Y004269252D02*
X001287000Y004816000D01*
D10*
X001287000Y004816000D02*
X001287000Y005790000D01*
D10*
X001287000Y005790000D02*
X001287000Y005790000D01*
D10*
X-10818000Y-03978000D02*
X-10818000Y-03978000D01*
D10*
X-10818000Y-03978000D02*
X-10818000Y-04162098D01*
D10*
X-10818000Y-04162098D02*
X-10818000Y-04346195D01*
D10*
X-10818000Y-04346195D02*
X-10818000Y-04530293D01*
D10*
X-10818000Y-04530293D02*
X-10818000Y-04714391D01*
D10*
X-10818000Y-04714391D02*
X-10818000Y-04898488D01*
D10*
X-10818000Y-04898488D02*
X-10818000Y-05082586D01*
D10*
X-10818000Y-05082586D02*
X-10818000Y-05266684D01*
D10*
X-10818000Y-05266684D02*
X-10818000Y-05450782D01*
D10*
X-10818000Y-05450782D02*
X-10818000Y-05634879D01*
D10*
X-10818000Y-05634879D02*
X-10818000Y-05818977D01*
D10*
X-10818000Y-05818977D02*
X-10914176Y-05915153D01*
D10*
X-10914176Y-05915153D02*
X-11010353Y-06011329D01*
D10*
X-11010353Y-06011329D02*
X-11106529Y-06107506D01*
D10*
X-11106529Y-06107506D02*
X-11106529Y-06109529D01*
D10*
X-11106529Y-06109529D02*
X-11178000Y-06181000D01*
D10*
X-11178000Y-06181000D02*
X-11178000Y-06181000D01*
D10*
X-06350000Y-18680000D02*
X-08117000Y-16913000D01*
D10*
X-08117000Y-16913000D02*
X-08117000Y-16115000D01*
D10*
X-08117000Y-16115000D02*
X-08117000Y-16115000D01*
D10*
X-03722247Y010489532D02*
X-03722247Y010489532D01*
D10*
X-03722247Y010489532D02*
X-03758931Y010452847D01*
D10*
X-03758931Y010452847D02*
X-03758931Y008356931D01*
D10*
X-03758931Y008356931D02*
X-03147000Y007745000D01*
D10*
X-03147000Y007745000D02*
X-03147000Y007745000D01*
D10*
X-08356000Y004818000D02*
X-08356000Y004818000D01*
D10*
X-08356000Y004818000D02*
X-08356000Y007128930D01*
D10*
X-08356000Y007128930D02*
X-09196023Y007968953D01*
D10*
X-09196023Y007968953D02*
X-09196023Y008039977D01*
D10*
X-09196023Y008039977D02*
X-09194000Y008042000D01*
D10*
X-09194000Y008042000D02*
X-09194000Y008042000D01*
D12*
X008975757Y-07536195D02*
X008975757Y-07536195D01*
D12*
X008975757Y-07536195D02*
X008854794Y-07657158D01*
D12*
X008854794Y-07657158D02*
X008854794Y-07732003D01*
D12*
X008854794Y-07732003D02*
X007692426Y-08894371D01*
D12*
X007692426Y-08894371D02*
X006837307Y-08894371D01*
D12*
X006837307Y-08894371D02*
X006837307Y-08894371D01*
D12*
X011131000Y000117000D02*
X011131000Y000117000D01*
D12*
X011131000Y000117000D02*
X011131000Y-01019445D01*
D12*
X011131000Y-01019445D02*
X011054223Y-01096223D01*
D12*
X011054223Y-01096223D02*
X011055000Y-01097000D01*
D12*
X011055000Y-01097000D02*
X011055000Y-01097000D01*
D12*
X005000000Y-04400000D02*
X005000000Y-04400000D01*
D12*
X005000000Y-04400000D02*
X005000000Y-05740865D01*
D12*
X005000000Y-05740865D02*
X002730566Y-07788729D01*
D12*
X002730566Y-07788729D02*
X002590138Y-08150728D01*
D12*
X002590138Y-08150728D02*
X002590138Y-08960138D01*
D12*
X002590138Y-08960138D02*
X002834074Y-09204074D01*
D12*
X002834074Y-09204074D02*
X002842000Y-09212000D01*
D12*
X002842000Y-09212000D02*
X002842000Y-09212000D01*
D12*
X000838000Y000561000D02*
X000838000Y000561000D01*
D12*
X000838000Y000561000D02*
X000788930Y000511930D01*
D12*
X000788930Y000511930D02*
X000766171Y000511930D01*
D12*
X000766171Y000511930D02*
X000182000Y-00072241D01*
D12*
X000182000Y-00072241D02*
X000182000Y-00495000D01*
D12*
X000182000Y-00495000D02*
X000182000Y-00495000D01*
D12*
X002385000Y-06683000D02*
X002385000Y-06683000D01*
D12*
X002385000Y-06683000D02*
X002255396Y-06812604D01*
D12*
X002255396Y-06812604D02*
X002255396Y-09808396D01*
D12*
X002255396Y-09808396D02*
X002260000Y-09813000D01*
D12*
X002260000Y-09813000D02*
X002260000Y-09813000D01*
D37*
X-03159000Y-10741000D03*
D37*
X000126173Y-14136685D03*
D37*
X-03238000Y-07699000D03*
D37*
X-02877000Y-06155000D03*
D37*
X-02877000Y-06155000D03*
D37*
X000158332Y-07508332D03*
D37*
X-04748000Y-09974000D03*
D37*
X-02825107Y-09318397D03*
D37*
X-05076000Y-10750000D03*
D37*
X-02906000Y-13688000D03*
D37*
X-02825107Y-09318397D03*
D37*
X002164000Y-11116000D03*
D37*
X003609000Y-11094000D03*
D37*
X004252342Y-09042793D03*
D37*
X000050000Y-06209000D03*
D37*
X-04069000Y-08897000D03*
D37*
X-09065000Y-08994000D03*
D37*
X-12474196Y-04005718D03*
D37*
X-05080984Y-15041371D03*
D37*
X-05308049Y-13581000D03*
D37*
X000463000Y-03963000D03*
D37*
X013271000Y011149000D03*
D37*
X-09040000Y-10776000D03*
D37*
X-08800000Y-14100000D03*
D37*
X-07686000Y-10771000D03*
D37*
X000248875Y-10103021D03*
D37*
X000248875Y-10103021D03*
D37*
X000391000Y-09172000D03*
D37*
X013703000Y012294000D03*
D37*
X-03647000Y-14303000D03*
D37*
X010028000Y003499000D03*
D37*
X-00003000Y-04704000D03*
D37*
X001868000Y004401000D03*
D37*
X002710000Y004842000D03*
D37*
X-02689000Y000799000D03*
D37*
X-07637000Y-16585000D03*
D37*
X007384000Y008804000D03*
D37*
X008965000Y008471000D03*
D37*
X-00400000Y007900000D03*
D37*
X005459000Y009174000D03*
D37*
X-03550000Y010975000D03*
D37*
X-03200883Y009780883D03*
D37*
X-09815000Y-00800000D03*
D37*
X-00189093Y005877907D03*
D37*
X001086000Y006364000D03*
D37*
X012242000Y010652000D03*
D37*
X018033000Y-07500000D03*
D37*
X016568142Y-06089007D03*
D37*
X015199135Y-01420541D03*
D37*
X014599000Y-02276000D03*
D37*
X008100006Y003082000D03*
D37*
X012563000Y012879000D03*
D37*
X010742000Y013023000D03*
D37*
X000789000Y005485000D03*
D37*
X-04676000Y017679000D03*
D37*
X000300000Y002200000D03*
D37*
X004232277Y000480793D03*
D37*
X005828000Y000137000D03*
D37*
X000074000Y-02802000D03*
D37*
X002613995Y-00929005D03*
D37*
X002511000Y-12293000D03*
D37*
X003220000Y-08013988D03*
D37*
X-01648000Y-07091000D03*
D37*
X-00879000Y-07350000D03*
D37*
X010649000Y011350000D03*
D37*
X-08808000Y-07890000D03*
D37*
X016200000Y012900000D03*
D37*
X016188000Y011913000D03*
D37*
X007817000Y-02322000D03*
D37*
X009001000Y-02410000D03*
D37*
X011879000Y013030000D03*
D37*
X011271000Y010798000D03*
D37*
X-13019000Y012165000D03*
D37*
X008622451Y009199393D03*
D37*
X009864000Y009335000D03*
D37*
X000698000Y004227000D03*
D37*
X001287000Y005790000D03*
D37*
X-10818000Y-03978000D03*
D37*
X-11178000Y-06181000D03*
D37*
X-08117000Y-16115000D03*
D37*
X-03722247Y010489532D03*
D37*
X-03147000Y007745000D03*
D37*
X-08356000Y004818000D03*
D37*
X-09194000Y008042000D03*
D37*
X008975757Y-07536195D03*
D37*
X006837307Y-08894371D03*
D37*
X011131000Y000117000D03*
D37*
X011055000Y-01097000D03*
D37*
X005000000Y-04400000D03*
D37*
X002842000Y-09212000D03*
D37*
X000838000Y000561000D03*
D37*
X000182000Y-00495000D03*
D37*
X002385000Y-06683000D03*
D37*
X002260000Y-09813000D03*
%LPC*%
D34*
X000000000Y020500000D03*
%LPD*%
%LPC*%
D34*
X-13750000Y-14700000D03*
%LPD*%
%LPC*%
D34*
X013750000Y-14700000D03*
%LPD*%
M02*