%TF.GenerationSoftware,tscircuit,circuit-json-to-gerber,0.0.96*%
%TF.CreationDate,2026-08-31T02:33:00.495Z*%
%TF.SameCoordinates,Original*%
%TF.FileFunction,Legend,Bot*%
%TF.FilePolarity,Positive*%
%FSLAX46Y46*%
%MOMM*%
G04 Gerber Fmt 4.6, Leading zero omitted, Abs format (unit mm)*
G04 Created by tscircuit (builder) date 2026-08-31T02:33:00.495Z*
G01*
%LPD*%
G75*
G04 APERTURE MACROS START*
%AMHORZPILL*
0 Horizontal pill (stadium) shape macro*
0 Parameters:*
0 $1 = Total width*
0 $2 = Total height*
0 $3 = Circle diameter (equal to height)*
0 $4 = Circle center offset
0 21 = Center Line(Exposure, Width, Height, Center X, Center Y, Rotation)*
0 1 = Circle(Exposure, Diameter, Center X, Center Y, Rotation)*
21,1,$1-$3,$2,0.0,0.0,0.0*
1,1,$3,0.0-$4,0.0*
1,1,$3,$4,0.0*%
%AMVERTPILL*
0 Vertical pill (stadium) shape macro*
0 Parameters:*
0 $1 = Total width*
0 $2 = Total height*
0 $3 = Circle diameter (equal to width)*
0 $4 = Circle center offset
0 21 = Center Line(Exposure, Width, Height, Center X, Center Y, Rotation)*
21,1,$1,$2-$3,0.0,0.0,0.0*
1,1,$3,0.0,0.0-$4*
1,1,$3,0.0,$4*%
%AMROUNDRECT*
0 Rectangle with rounded corners*
0 $1 Corner radius*
0 $2 $3 $4 $5 $6 $7 $8 $9 X,Y Position of each corner*
0 Polygon box body*
4,1,4,$2,$3,$4,$5,$6,$7,$8,$9,$2,$3,0*
0 Circles for rounded corners*
1,1,$1+$1,$2,$3*
1,1,$1+$1,$4,$5*
1,1,$1+$1,$6,$7*
1,1,$1+$1,$8,$9*
0 Rectangles between the rounded corners*
20,1,$1+$1,$2,$3,$4,$5,0*
20,1,$1+$1,$4,$5,$6,$7,0*
20,1,$1+$1,$6,$7,$8,$9,0*
20,1,$1+$1,$8,$9,$2,$3,0*%
G04 APERTURE MACROS END*
G04 aperture START LIST*
%ADD10C,0.200000*%
%ADD11C,0.175000*%
%ADD12C,0.150000*%
%ADD13C,0.500000*%
%ADD14C,0.312500*%
%ADD15C,0.350000*%
%ADD16C,0.800000*%
%ADD17C,0.275000*%
%ADD18C,0.325000*%
%ADD19C,0.475000*%
%ADD20C,0.450000*%
%ADD21C,0.375000*%
%ADD22C,0.400000*%
%ADD23C,1.600000*%
%ADD24C,0.046800*%
%ADD25C,0.063000*%
%ADD26C,0.054000*%
%ADD27C,0.120000*%
%ADD28C,0.036000*%
%ADD29C,0.100000*%
%ADD30C,0.045000*%
%ADD31C,0.090000*%
%ADD32R,1.800000X1.800000*%
%ADD33C,1.800000*%
%ADD34C,0.650000*%
%ADD35C,0.800000*%
%ADD36C,0.300000*%
%TD*%
G04 aperture END LIST*
D24*
X-17308259Y009621861D02*
X-17308259Y009361855D01*
X-17308259Y009584871D02*
X-17335589Y009609651D01*
X-17335589Y009609651D02*
X-17362510Y009621861D01*
X-17362510Y009621861D02*
X-17403300Y009621861D01*
X-17403300Y009621861D02*
X-17430630Y009609651D01*
X-17430630Y009609651D02*
X-17457958Y009584871D01*
X-17457958Y009584871D02*
X-17471420Y009547522D01*
X-17471420Y009547522D02*
X-17471420Y009522742D01*
X-17471420Y009522742D02*
X-17457958Y009485753D01*
X-17457958Y009485753D02*
X-17430630Y009460973D01*
X-17430630Y009460973D02*
X-17403300Y009448405D01*
X-17403300Y009448405D02*
X-17362510Y009448405D01*
X-17362510Y009448405D02*
X-17335589Y009460973D01*
X-17335589Y009460973D02*
X-17308259Y009485753D01*
X-17735146Y009694555D02*
X-17764266Y009694555D01*
X-17749689Y009608704D02*
X-17749689Y009437359D01*
X-18033503Y009621861D02*
X-18033503Y009432270D01*
X-18033503Y009567692D02*
X-18074961Y009608515D01*
X-18074961Y009608515D02*
X-18102727Y009621861D01*
X-18102727Y009621861D02*
X-18144185Y009621861D01*
X-18144185Y009621861D02*
X-18171761Y009608515D01*
X-18171761Y009608515D02*
X-18185644Y009567692D01*
X-18185644Y009567692D02*
X-18185644Y009432270D01*
X-18440102Y009633324D02*
X-18498779Y009683357D01*
X-18498779Y009683357D02*
X-18498779Y009436576D01*
D24*
X-15308259Y009621861D02*
X-15308259Y009361855D01*
X-15308259Y009584871D02*
X-15335589Y009609651D01*
X-15335589Y009609651D02*
X-15362510Y009621861D01*
X-15362510Y009621861D02*
X-15403300Y009621861D01*
X-15403300Y009621861D02*
X-15430630Y009609651D01*
X-15430630Y009609651D02*
X-15457958Y009584871D01*
X-15457958Y009584871D02*
X-15471420Y009547522D01*
X-15471420Y009547522D02*
X-15471420Y009522742D01*
X-15471420Y009522742D02*
X-15457958Y009485753D01*
X-15457958Y009485753D02*
X-15430630Y009460973D01*
X-15430630Y009460973D02*
X-15403300Y009448405D01*
X-15403300Y009448405D02*
X-15362510Y009448405D01*
X-15362510Y009448405D02*
X-15335589Y009460973D01*
X-15335589Y009460973D02*
X-15308259Y009485753D01*
X-15735146Y009694555D02*
X-15764266Y009694555D01*
X-15749689Y009608704D02*
X-15749689Y009437359D01*
X-16033503Y009621861D02*
X-16033503Y009432270D01*
X-16033503Y009567692D02*
X-16074961Y009608515D01*
X-16074961Y009608515D02*
X-16102727Y009621861D01*
X-16102727Y009621861D02*
X-16144185Y009621861D01*
X-16144185Y009621861D02*
X-16171761Y009608515D01*
X-16171761Y009608515D02*
X-16185644Y009567692D01*
X-16185644Y009567692D02*
X-16185644Y009432270D01*
X-16400056Y009639268D02*
X-16405593Y009657405D01*
X-16405593Y009657405D02*
X-16421955Y009674320D01*
X-16421955Y009674320D02*
X-16448769Y009685791D01*
X-16448769Y009685791D02*
X-16465980Y009688156D01*
X-16465980Y009688156D02*
X-16495755Y009685977D01*
X-16495755Y009685977D02*
X-16518092Y009676183D01*
X-16518092Y009676183D02*
X-16530306Y009661164D01*
X-16530306Y009661164D02*
X-16534693Y009643712D01*
X-16534693Y009643712D02*
X-16534402Y009632103D01*
X-16534402Y009632103D02*
X-16529159Y009612670D01*
X-16529159Y009612670D02*
X-16506403Y009574888D01*
X-16506403Y009574888D02*
X-16449096Y009503017D01*
X-16449096Y009503017D02*
X-16388838Y009436912D01*
X-16388838Y009436912D02*
X-16550043Y009436912D01*
D25*
X-16763915Y009112212D02*
X-16764392Y008861725D01*
X-16764392Y008861725D02*
X-16759813Y008830378D01*
X-16759813Y008830378D02*
X-16751123Y008813413D01*
X-16751123Y008813413D02*
X-16738937Y008799923D01*
X-16738937Y008799923D02*
X-16724350Y008789590D01*
X-16724350Y008789590D02*
X-16692329Y008777142D01*
X-16692329Y008777142D02*
X-16663793Y008773552D01*
X-16663793Y008773552D02*
X-16625114Y008777717D01*
X-16625114Y008777717D02*
X-16596600Y008789147D01*
X-16596600Y008789147D02*
X-16582729Y008800220D01*
X-16582729Y008800220D02*
X-16572613Y008813647D01*
X-16572613Y008813647D02*
X-16565946Y008829079D01*
X-16565946Y008829079D02*
X-16562424Y008846166D01*
X-16562424Y008846166D02*
X-16561741Y008864558D01*
X-17108009Y009044860D02*
X-17186997Y009112212D01*
X-17186997Y009112212D02*
X-17186997Y008780007D01*
D24*
X-18308259Y-10378139D02*
X-18308259Y-10638145D01*
X-18308259Y-10415129D02*
X-18335589Y-10390349D01*
X-18335589Y-10390349D02*
X-18362510Y-10378139D01*
X-18362510Y-10378139D02*
X-18403300Y-10378139D01*
X-18403300Y-10378139D02*
X-18430630Y-10390349D01*
X-18430630Y-10390349D02*
X-18457958Y-10415129D01*
X-18457958Y-10415129D02*
X-18471420Y-10452478D01*
X-18471420Y-10452478D02*
X-18471420Y-10477258D01*
X-18471420Y-10477258D02*
X-18457958Y-10514247D01*
X-18457958Y-10514247D02*
X-18430630Y-10539027D01*
X-18430630Y-10539027D02*
X-18403300Y-10551595D01*
X-18403300Y-10551595D02*
X-18362510Y-10551595D01*
X-18362510Y-10551595D02*
X-18335589Y-10539027D01*
X-18335589Y-10539027D02*
X-18308259Y-10514247D01*
X-18735146Y-10305445D02*
X-18764266Y-10305445D01*
X-18749689Y-10391296D02*
X-18749689Y-10562641D01*
X-19033503Y-10378139D02*
X-19033503Y-10567730D01*
X-19033503Y-10432308D02*
X-19074961Y-10391485D01*
X-19074961Y-10391485D02*
X-19102727Y-10378139D01*
X-19102727Y-10378139D02*
X-19144185Y-10378139D01*
X-19144185Y-10378139D02*
X-19171761Y-10391485D01*
X-19171761Y-10391485D02*
X-19185644Y-10432308D01*
X-19185644Y-10432308D02*
X-19185644Y-10567730D01*
X-19440102Y-10366676D02*
X-19498779Y-10316643D01*
X-19498779Y-10316643D02*
X-19498779Y-10563424D01*
D24*
X-16308259Y-10378139D02*
X-16308259Y-10638145D01*
X-16308259Y-10415129D02*
X-16335589Y-10390349D01*
X-16335589Y-10390349D02*
X-16362510Y-10378139D01*
X-16362510Y-10378139D02*
X-16403300Y-10378139D01*
X-16403300Y-10378139D02*
X-16430630Y-10390349D01*
X-16430630Y-10390349D02*
X-16457958Y-10415129D01*
X-16457958Y-10415129D02*
X-16471420Y-10452478D01*
X-16471420Y-10452478D02*
X-16471420Y-10477258D01*
X-16471420Y-10477258D02*
X-16457958Y-10514247D01*
X-16457958Y-10514247D02*
X-16430630Y-10539027D01*
X-16430630Y-10539027D02*
X-16403300Y-10551595D01*
X-16403300Y-10551595D02*
X-16362510Y-10551595D01*
X-16362510Y-10551595D02*
X-16335589Y-10539027D01*
X-16335589Y-10539027D02*
X-16308259Y-10514247D01*
X-16735146Y-10305445D02*
X-16764266Y-10305445D01*
X-16749689Y-10391296D02*
X-16749689Y-10562641D01*
X-17033503Y-10378139D02*
X-17033503Y-10567730D01*
X-17033503Y-10432308D02*
X-17074961Y-10391485D01*
X-17074961Y-10391485D02*
X-17102727Y-10378139D01*
X-17102727Y-10378139D02*
X-17144185Y-10378139D01*
X-17144185Y-10378139D02*
X-17171761Y-10391485D01*
X-17171761Y-10391485D02*
X-17185644Y-10432308D01*
X-17185644Y-10432308D02*
X-17185644Y-10567730D01*
X-17400056Y-10360732D02*
X-17405593Y-10342595D01*
X-17405593Y-10342595D02*
X-17421955Y-10325680D01*
X-17421955Y-10325680D02*
X-17448769Y-10314209D01*
X-17448769Y-10314209D02*
X-17465980Y-10311844D01*
X-17465980Y-10311844D02*
X-17495755Y-10314023D01*
X-17495755Y-10314023D02*
X-17518092Y-10323817D01*
X-17518092Y-10323817D02*
X-17530306Y-10338836D01*
X-17530306Y-10338836D02*
X-17534693Y-10356288D01*
X-17534693Y-10356288D02*
X-17534402Y-10367897D01*
X-17534402Y-10367897D02*
X-17529159Y-10387330D01*
X-17529159Y-10387330D02*
X-17506403Y-10425112D01*
X-17506403Y-10425112D02*
X-17449096Y-10496983D01*
X-17449096Y-10496983D02*
X-17388838Y-10563088D01*
X-17388838Y-10563088D02*
X-17550043Y-10563088D01*
D24*
X-14308259Y-10378139D02*
X-14308259Y-10638145D01*
X-14308259Y-10415129D02*
X-14335589Y-10390349D01*
X-14335589Y-10390349D02*
X-14362510Y-10378139D01*
X-14362510Y-10378139D02*
X-14403300Y-10378139D01*
X-14403300Y-10378139D02*
X-14430630Y-10390349D01*
X-14430630Y-10390349D02*
X-14457958Y-10415129D01*
X-14457958Y-10415129D02*
X-14471420Y-10452478D01*
X-14471420Y-10452478D02*
X-14471420Y-10477258D01*
X-14471420Y-10477258D02*
X-14457958Y-10514247D01*
X-14457958Y-10514247D02*
X-14430630Y-10539027D01*
X-14430630Y-10539027D02*
X-14403300Y-10551595D01*
X-14403300Y-10551595D02*
X-14362510Y-10551595D01*
X-14362510Y-10551595D02*
X-14335589Y-10539027D01*
X-14335589Y-10539027D02*
X-14308259Y-10514247D01*
X-14735146Y-10305445D02*
X-14764266Y-10305445D01*
X-14749689Y-10391296D02*
X-14749689Y-10562641D01*
X-15033503Y-10378139D02*
X-15033503Y-10567730D01*
X-15033503Y-10432308D02*
X-15074961Y-10391485D01*
X-15074961Y-10391485D02*
X-15102727Y-10378139D01*
X-15102727Y-10378139D02*
X-15144185Y-10378139D01*
X-15144185Y-10378139D02*
X-15171761Y-10391485D01*
X-15171761Y-10391485D02*
X-15185644Y-10432308D01*
X-15185644Y-10432308D02*
X-15185644Y-10567730D01*
X-15389572Y-10343607D02*
X-15403239Y-10332890D01*
X-15403239Y-10332890D02*
X-15425022Y-10321409D01*
X-15425022Y-10321409D02*
X-15452783Y-10311844D01*
X-15452783Y-10311844D02*
X-15486951Y-10313755D01*
X-15486951Y-10313755D02*
X-15516849Y-10323323D01*
X-15516849Y-10323323D02*
X-15538205Y-10340545D01*
X-15538205Y-10340545D02*
X-15551018Y-10361595D01*
X-15551018Y-10361595D02*
X-15546747Y-10384558D01*
X-15546747Y-10384558D02*
X-15529663Y-10401781D01*
X-15529663Y-10401781D02*
X-15499765Y-10415176D01*
X-15499765Y-10415176D02*
X-15465596Y-10422830D01*
X-15465596Y-10422830D02*
X-15435699Y-10426658D01*
X-15435699Y-10426658D02*
X-15465596Y-10430485D01*
X-15465596Y-10430485D02*
X-15499765Y-10440053D01*
X-15499765Y-10440053D02*
X-15529663Y-10455361D01*
X-15529663Y-10455361D02*
X-15548883Y-10476412D01*
X-15548883Y-10476412D02*
X-15553154Y-10499375D01*
X-15553154Y-10499375D02*
X-15544612Y-10524252D01*
X-15544612Y-10524252D02*
X-15525392Y-10545301D01*
X-15525392Y-10545301D02*
X-15495493Y-10562524D01*
X-15495493Y-10562524D02*
X-15472857Y-10567882D01*
X-15472857Y-10567882D02*
X-15436126Y-10567116D01*
X-15436126Y-10567116D02*
X-15406229Y-10562524D01*
X-15406229Y-10562524D02*
X-15385728Y-10556400D01*
D25*
X-16763915Y-10887788D02*
X-16764392Y-11138275D01*
X-16764392Y-11138275D02*
X-16759813Y-11169622D01*
X-16759813Y-11169622D02*
X-16751123Y-11186587D01*
X-16751123Y-11186587D02*
X-16738937Y-11200077D01*
X-16738937Y-11200077D02*
X-16724350Y-11210410D01*
X-16724350Y-11210410D02*
X-16692329Y-11222858D01*
X-16692329Y-11222858D02*
X-16663793Y-11226448D01*
X-16663793Y-11226448D02*
X-16625114Y-11222283D01*
X-16625114Y-11222283D02*
X-16596600Y-11210853D01*
X-16596600Y-11210853D02*
X-16582729Y-11199780D01*
X-16582729Y-11199780D02*
X-16572613Y-11186353D01*
X-16572613Y-11186353D02*
X-16565946Y-11170921D01*
X-16565946Y-11170921D02*
X-16562424Y-11153834D01*
X-16562424Y-11153834D02*
X-16561741Y-11135442D01*
X-17054100Y-10947139D02*
X-17061554Y-10922724D01*
X-17061554Y-10922724D02*
X-17083580Y-10899953D01*
X-17083580Y-10899953D02*
X-17119676Y-10884512D01*
X-17119676Y-10884512D02*
X-17142844Y-10881328D01*
X-17142844Y-10881328D02*
X-17182926Y-10884262D01*
X-17182926Y-10884262D02*
X-17212995Y-10897445D01*
X-17212995Y-10897445D02*
X-17229437Y-10917663D01*
X-17229437Y-10917663D02*
X-17235343Y-10941157D01*
X-17235343Y-10941157D02*
X-17234951Y-10956785D01*
X-17234951Y-10956785D02*
X-17227893Y-10982944D01*
X-17227893Y-10982944D02*
X-17197260Y-11033804D01*
X-17197260Y-11033804D02*
X-17120116Y-11130555D01*
X-17120116Y-11130555D02*
X-17038999Y-11219542D01*
X-17038999Y-11219542D02*
X-17256006Y-11219542D01*
D24*
X-09308259Y017421861D02*
X-09308259Y017161855D01*
X-09308259Y017384871D02*
X-09335589Y017409651D01*
X-09335589Y017409651D02*
X-09362510Y017421861D01*
X-09362510Y017421861D02*
X-09403300Y017421861D01*
X-09403300Y017421861D02*
X-09430630Y017409651D01*
X-09430630Y017409651D02*
X-09457958Y017384871D01*
X-09457958Y017384871D02*
X-09471420Y017347522D01*
X-09471420Y017347522D02*
X-09471420Y017322742D01*
X-09471420Y017322742D02*
X-09457958Y017285753D01*
X-09457958Y017285753D02*
X-09430630Y017260973D01*
X-09430630Y017260973D02*
X-09403300Y017248405D01*
X-09403300Y017248405D02*
X-09362510Y017248405D01*
X-09362510Y017248405D02*
X-09335589Y017260973D01*
X-09335589Y017260973D02*
X-09308259Y017285753D01*
X-09735146Y017494555D02*
X-09764266Y017494555D01*
X-09749689Y017408704D02*
X-09749689Y017237359D01*
X-10033503Y017421861D02*
X-10033503Y017232270D01*
X-10033503Y017367692D02*
X-10074961Y017408515D01*
X-10074961Y017408515D02*
X-10102727Y017421861D01*
X-10102727Y017421861D02*
X-10144185Y017421861D01*
X-10144185Y017421861D02*
X-10171761Y017408515D01*
X-10171761Y017408515D02*
X-10185644Y017367692D01*
X-10185644Y017367692D02*
X-10185644Y017232270D01*
X-10440102Y017433324D02*
X-10498779Y017483357D01*
X-10498779Y017483357D02*
X-10498779Y017236576D01*
D24*
X-07308259Y017421861D02*
X-07308259Y017161855D01*
X-07308259Y017384871D02*
X-07335589Y017409651D01*
X-07335589Y017409651D02*
X-07362510Y017421861D01*
X-07362510Y017421861D02*
X-07403300Y017421861D01*
X-07403300Y017421861D02*
X-07430630Y017409651D01*
X-07430630Y017409651D02*
X-07457958Y017384871D01*
X-07457958Y017384871D02*
X-07471420Y017347522D01*
X-07471420Y017347522D02*
X-07471420Y017322742D01*
X-07471420Y017322742D02*
X-07457958Y017285753D01*
X-07457958Y017285753D02*
X-07430630Y017260973D01*
X-07430630Y017260973D02*
X-07403300Y017248405D01*
X-07403300Y017248405D02*
X-07362510Y017248405D01*
X-07362510Y017248405D02*
X-07335589Y017260973D01*
X-07335589Y017260973D02*
X-07308259Y017285753D01*
X-07735146Y017494555D02*
X-07764266Y017494555D01*
X-07749689Y017408704D02*
X-07749689Y017237359D01*
X-08033503Y017421861D02*
X-08033503Y017232270D01*
X-08033503Y017367692D02*
X-08074961Y017408515D01*
X-08074961Y017408515D02*
X-08102727Y017421861D01*
X-08102727Y017421861D02*
X-08144185Y017421861D01*
X-08144185Y017421861D02*
X-08171761Y017408515D01*
X-08171761Y017408515D02*
X-08185644Y017367692D01*
X-08185644Y017367692D02*
X-08185644Y017232270D01*
X-08400056Y017439268D02*
X-08405593Y017457405D01*
X-08405593Y017457405D02*
X-08421955Y017474320D01*
X-08421955Y017474320D02*
X-08448769Y017485791D01*
X-08448769Y017485791D02*
X-08465980Y017488156D01*
X-08465980Y017488156D02*
X-08495755Y017485977D01*
X-08495755Y017485977D02*
X-08518092Y017476183D01*
X-08518092Y017476183D02*
X-08530306Y017461164D01*
X-08530306Y017461164D02*
X-08534693Y017443712D01*
X-08534693Y017443712D02*
X-08534402Y017432103D01*
X-08534402Y017432103D02*
X-08529159Y017412670D01*
X-08529159Y017412670D02*
X-08506403Y017374888D01*
X-08506403Y017374888D02*
X-08449096Y017303017D01*
X-08449096Y017303017D02*
X-08388838Y017236912D01*
X-08388838Y017236912D02*
X-08550043Y017236912D01*
D24*
X-05308259Y017421861D02*
X-05308259Y017161855D01*
X-05308259Y017384871D02*
X-05335589Y017409651D01*
X-05335589Y017409651D02*
X-05362510Y017421861D01*
X-05362510Y017421861D02*
X-05403300Y017421861D01*
X-05403300Y017421861D02*
X-05430630Y017409651D01*
X-05430630Y017409651D02*
X-05457958Y017384871D01*
X-05457958Y017384871D02*
X-05471420Y017347522D01*
X-05471420Y017347522D02*
X-05471420Y017322742D01*
X-05471420Y017322742D02*
X-05457958Y017285753D01*
X-05457958Y017285753D02*
X-05430630Y017260973D01*
X-05430630Y017260973D02*
X-05403300Y017248405D01*
X-05403300Y017248405D02*
X-05362510Y017248405D01*
X-05362510Y017248405D02*
X-05335589Y017260973D01*
X-05335589Y017260973D02*
X-05308259Y017285753D01*
X-05735146Y017494555D02*
X-05764266Y017494555D01*
X-05749689Y017408704D02*
X-05749689Y017237359D01*
X-06033503Y017421861D02*
X-06033503Y017232270D01*
X-06033503Y017367692D02*
X-06074961Y017408515D01*
X-06074961Y017408515D02*
X-06102727Y017421861D01*
X-06102727Y017421861D02*
X-06144185Y017421861D01*
X-06144185Y017421861D02*
X-06171761Y017408515D01*
X-06171761Y017408515D02*
X-06185644Y017367692D01*
X-06185644Y017367692D02*
X-06185644Y017232270D01*
X-06389572Y017456393D02*
X-06403239Y017467110D01*
X-06403239Y017467110D02*
X-06425022Y017478591D01*
X-06425022Y017478591D02*
X-06452784Y017488156D01*
X-06452784Y017488156D02*
X-06486951Y017486245D01*
X-06486951Y017486245D02*
X-06516849Y017476677D01*
X-06516849Y017476677D02*
X-06538205Y017459455D01*
X-06538205Y017459455D02*
X-06551018Y017438405D01*
X-06551018Y017438405D02*
X-06546747Y017415442D01*
X-06546747Y017415442D02*
X-06529663Y017398219D01*
X-06529663Y017398219D02*
X-06499765Y017384824D01*
X-06499765Y017384824D02*
X-06465596Y017377170D01*
X-06465596Y017377170D02*
X-06435699Y017373342D01*
X-06435699Y017373342D02*
X-06465596Y017369515D01*
X-06465596Y017369515D02*
X-06499765Y017359947D01*
X-06499765Y017359947D02*
X-06529663Y017344639D01*
X-06529663Y017344639D02*
X-06548883Y017323588D01*
X-06548883Y017323588D02*
X-06553154Y017300625D01*
X-06553154Y017300625D02*
X-06544612Y017275748D01*
X-06544612Y017275748D02*
X-06525392Y017254699D01*
X-06525392Y017254699D02*
X-06495493Y017237476D01*
X-06495493Y017237476D02*
X-06472857Y017232118D01*
X-06472857Y017232118D02*
X-06436126Y017232884D01*
X-06436126Y017232884D02*
X-06406229Y017237476D01*
X-06406229Y017237476D02*
X-06385728Y017243600D01*
D25*
X-07763915Y016912212D02*
X-07764392Y016661725D01*
X-07764392Y016661725D02*
X-07759813Y016630378D01*
X-07759813Y016630378D02*
X-07751123Y016613413D01*
X-07751123Y016613413D02*
X-07738937Y016599923D01*
X-07738937Y016599923D02*
X-07724350Y016589590D01*
X-07724350Y016589590D02*
X-07692329Y016577142D01*
X-07692329Y016577142D02*
X-07663793Y016573552D01*
X-07663793Y016573552D02*
X-07625114Y016577717D01*
X-07625114Y016577717D02*
X-07596600Y016589147D01*
X-07596600Y016589147D02*
X-07582729Y016600220D01*
X-07582729Y016600220D02*
X-07572613Y016613647D01*
X-07572613Y016613647D02*
X-07565946Y016629079D01*
X-07565946Y016629079D02*
X-07562424Y016646166D01*
X-07562424Y016646166D02*
X-07561741Y016664558D01*
X-08039987Y016875914D02*
X-08058385Y016890340D01*
X-08058385Y016890340D02*
X-08087708Y016905795D01*
X-08087708Y016905795D02*
X-08125080Y016918672D01*
X-08125080Y016918672D02*
X-08171075Y016916100D01*
X-08171075Y016916100D02*
X-08211322Y016903219D01*
X-08211322Y016903219D02*
X-08240071Y016880036D01*
X-08240071Y016880036D02*
X-08257319Y016851699D01*
X-08257319Y016851699D02*
X-08251569Y016820787D01*
X-08251569Y016820787D02*
X-08228571Y016797603D01*
X-08228571Y016797603D02*
X-08188324Y016779571D01*
X-08188324Y016779571D02*
X-08142327Y016769267D01*
X-08142327Y016769267D02*
X-08102082Y016764115D01*
X-08102082Y016764115D02*
X-08142327Y016758963D01*
X-08142327Y016758963D02*
X-08188324Y016746083D01*
X-08188324Y016746083D02*
X-08228571Y016725475D01*
X-08228571Y016725475D02*
X-08254444Y016697138D01*
X-08254444Y016697138D02*
X-08260193Y016666227D01*
X-08260193Y016666227D02*
X-08248695Y016632738D01*
X-08248695Y016632738D02*
X-08222822Y016604402D01*
X-08222822Y016604402D02*
X-08182574Y016581218D01*
X-08182574Y016581218D02*
X-08152102Y016574005D01*
X-08152102Y016574005D02*
X-08102656Y016575036D01*
X-08102656Y016575036D02*
X-08062410Y016581218D01*
X-08062410Y016581218D02*
X-08034813Y016589461D01*
D24*
X004191741Y017421861D02*
X004191741Y017161855D01*
X004191741Y017384871D02*
X004164411Y017409651D01*
X004164411Y017409651D02*
X004137490Y017421861D01*
X004137490Y017421861D02*
X004096700Y017421861D01*
X004096700Y017421861D02*
X004069370Y017409651D01*
X004069370Y017409651D02*
X004042042Y017384871D01*
X004042042Y017384871D02*
X004028580Y017347522D01*
X004028580Y017347522D02*
X004028580Y017322742D01*
X004028580Y017322742D02*
X004042042Y017285753D01*
X004042042Y017285753D02*
X004069370Y017260973D01*
X004069370Y017260973D02*
X004096700Y017248405D01*
X004096700Y017248405D02*
X004137490Y017248405D01*
X004137490Y017248405D02*
X004164411Y017260973D01*
X004164411Y017260973D02*
X004191741Y017285753D01*
X003764854Y017494555D02*
X003735734Y017494555D01*
X003750311Y017408704D02*
X003750311Y017237359D01*
X003466497Y017421861D02*
X003466497Y017232270D01*
X003466497Y017367692D02*
X003425039Y017408515D01*
X003425039Y017408515D02*
X003397273Y017421861D01*
X003397273Y017421861D02*
X003355815Y017421861D01*
X003355815Y017421861D02*
X003328239Y017408515D01*
X003328239Y017408515D02*
X003314356Y017367692D01*
X003314356Y017367692D02*
X003314356Y017232270D01*
X003059898Y017433324D02*
X003001221Y017483357D01*
X003001221Y017483357D02*
X003001221Y017236576D01*
D24*
X006191741Y017421861D02*
X006191741Y017161855D01*
X006191741Y017384871D02*
X006164411Y017409651D01*
X006164411Y017409651D02*
X006137490Y017421861D01*
X006137490Y017421861D02*
X006096700Y017421861D01*
X006096700Y017421861D02*
X006069370Y017409651D01*
X006069370Y017409651D02*
X006042042Y017384871D01*
X006042042Y017384871D02*
X006028580Y017347522D01*
X006028580Y017347522D02*
X006028580Y017322742D01*
X006028580Y017322742D02*
X006042042Y017285753D01*
X006042042Y017285753D02*
X006069370Y017260973D01*
X006069370Y017260973D02*
X006096700Y017248405D01*
X006096700Y017248405D02*
X006137490Y017248405D01*
X006137490Y017248405D02*
X006164411Y017260973D01*
X006164411Y017260973D02*
X006191741Y017285753D01*
X005764854Y017494555D02*
X005735734Y017494555D01*
X005750311Y017408704D02*
X005750311Y017237359D01*
X005466497Y017421861D02*
X005466497Y017232270D01*
X005466497Y017367692D02*
X005425039Y017408515D01*
X005425039Y017408515D02*
X005397273Y017421861D01*
X005397273Y017421861D02*
X005355815Y017421861D01*
X005355815Y017421861D02*
X005328239Y017408515D01*
X005328239Y017408515D02*
X005314356Y017367692D01*
X005314356Y017367692D02*
X005314356Y017232270D01*
X005099944Y017439268D02*
X005094407Y017457405D01*
X005094407Y017457405D02*
X005078045Y017474320D01*
X005078045Y017474320D02*
X005051231Y017485791D01*
X005051231Y017485791D02*
X005034020Y017488156D01*
X005034020Y017488156D02*
X005004245Y017485977D01*
X005004245Y017485977D02*
X004981908Y017476183D01*
X004981908Y017476183D02*
X004969694Y017461164D01*
X004969694Y017461164D02*
X004965307Y017443712D01*
X004965307Y017443712D02*
X004965598Y017432103D01*
X004965598Y017432103D02*
X004970841Y017412670D01*
X004970841Y017412670D02*
X004993597Y017374888D01*
X004993597Y017374888D02*
X005050904Y017303017D01*
X005050904Y017303017D02*
X005111162Y017236912D01*
X005111162Y017236912D02*
X004949957Y017236912D01*
D24*
X008191741Y017421861D02*
X008191741Y017161855D01*
X008191741Y017384871D02*
X008164411Y017409651D01*
X008164411Y017409651D02*
X008137490Y017421861D01*
X008137490Y017421861D02*
X008096700Y017421861D01*
X008096700Y017421861D02*
X008069370Y017409651D01*
X008069370Y017409651D02*
X008042042Y017384871D01*
X008042042Y017384871D02*
X008028580Y017347522D01*
X008028580Y017347522D02*
X008028580Y017322742D01*
X008028580Y017322742D02*
X008042042Y017285753D01*
X008042042Y017285753D02*
X008069370Y017260973D01*
X008069370Y017260973D02*
X008096700Y017248405D01*
X008096700Y017248405D02*
X008137490Y017248405D01*
X008137490Y017248405D02*
X008164411Y017260973D01*
X008164411Y017260973D02*
X008191741Y017285753D01*
X007764854Y017494555D02*
X007735734Y017494555D01*
X007750311Y017408704D02*
X007750311Y017237359D01*
X007466497Y017421861D02*
X007466497Y017232270D01*
X007466497Y017367692D02*
X007425039Y017408515D01*
X007425039Y017408515D02*
X007397273Y017421861D01*
X007397273Y017421861D02*
X007355815Y017421861D01*
X007355815Y017421861D02*
X007328239Y017408515D01*
X007328239Y017408515D02*
X007314356Y017367692D01*
X007314356Y017367692D02*
X007314356Y017232270D01*
X007110428Y017456393D02*
X007096761Y017467110D01*
X007096761Y017467110D02*
X007074978Y017478591D01*
X007074978Y017478591D02*
X007047217Y017488156D01*
X007047217Y017488156D02*
X007013049Y017486245D01*
X007013049Y017486245D02*
X006983151Y017476677D01*
X006983151Y017476677D02*
X006961795Y017459455D01*
X006961795Y017459455D02*
X006948982Y017438405D01*
X006948982Y017438405D02*
X006953253Y017415442D01*
X006953253Y017415442D02*
X006970337Y017398219D01*
X006970337Y017398219D02*
X007000235Y017384824D01*
X007000235Y017384824D02*
X007034404Y017377170D01*
X007034404Y017377170D02*
X007064301Y017373342D01*
X007064301Y017373342D02*
X007034404Y017369515D01*
X007034404Y017369515D02*
X007000235Y017359947D01*
X007000235Y017359947D02*
X006970337Y017344639D01*
X006970337Y017344639D02*
X006951117Y017323588D01*
X006951117Y017323588D02*
X006946846Y017300625D01*
X006946846Y017300625D02*
X006955388Y017275748D01*
X006955388Y017275748D02*
X006974608Y017254699D01*
X006974608Y017254699D02*
X007004507Y017237476D01*
X007004507Y017237476D02*
X007027143Y017232118D01*
X007027143Y017232118D02*
X007063874Y017232884D01*
X007063874Y017232884D02*
X007093771Y017237476D01*
X007093771Y017237476D02*
X007114272Y017243600D01*
D25*
X005736085Y016912212D02*
X005735608Y016661725D01*
X005735608Y016661725D02*
X005740187Y016630378D01*
X005740187Y016630378D02*
X005748877Y016613413D01*
X005748877Y016613413D02*
X005761063Y016599923D01*
X005761063Y016599923D02*
X005775650Y016589590D01*
X005775650Y016589590D02*
X005807671Y016577142D01*
X005807671Y016577142D02*
X005836207Y016573552D01*
X005836207Y016573552D02*
X005874886Y016577717D01*
X005874886Y016577717D02*
X005903400Y016589147D01*
X005903400Y016589147D02*
X005917271Y016600220D01*
X005917271Y016600220D02*
X005927387Y016613647D01*
X005927387Y016613647D02*
X005934054Y016629079D01*
X005934054Y016629079D02*
X005937576Y016646166D01*
X005937576Y016646166D02*
X005938259Y016664558D01*
X005294938Y016912212D02*
X005476074Y016690142D01*
X005476074Y016690142D02*
X005228920Y016690142D01*
X005297051Y016761698D02*
X005297051Y016580005D01*
D24*
X019308259Y005378139D02*
X019308259Y005638145D01*
X019308259Y005415129D02*
X019335589Y005390349D01*
X019335589Y005390349D02*
X019362510Y005378139D01*
X019362510Y005378139D02*
X019403300Y005378139D01*
X019403300Y005378139D02*
X019430630Y005390349D01*
X019430630Y005390349D02*
X019457958Y005415129D01*
X019457958Y005415129D02*
X019471420Y005452478D01*
X019471420Y005452478D02*
X019471420Y005477258D01*
X019471420Y005477258D02*
X019457958Y005514247D01*
X019457958Y005514247D02*
X019430630Y005539027D01*
X019430630Y005539027D02*
X019403300Y005551595D01*
X019403300Y005551595D02*
X019362510Y005551595D01*
X019362510Y005551595D02*
X019335589Y005539027D01*
X019335589Y005539027D02*
X019308259Y005514247D01*
X019735146Y005305445D02*
X019764266Y005305445D01*
X019749689Y005391296D02*
X019749689Y005562641D01*
X020033503Y005378139D02*
X020033503Y005567730D01*
X020033503Y005432308D02*
X020074961Y005391485D01*
X020074961Y005391485D02*
X020102727Y005378139D01*
X020102727Y005378139D02*
X020144185Y005378139D01*
X020144185Y005378139D02*
X020171761Y005391485D01*
X020171761Y005391485D02*
X020185644Y005432308D01*
X020185644Y005432308D02*
X020185644Y005567730D01*
X020440102Y005366676D02*
X020498779Y005316643D01*
X020498779Y005316643D02*
X020498779Y005563424D01*
D24*
X017308259Y005378139D02*
X017308259Y005638145D01*
X017308259Y005415129D02*
X017335589Y005390349D01*
X017335589Y005390349D02*
X017362510Y005378139D01*
X017362510Y005378139D02*
X017403300Y005378139D01*
X017403300Y005378139D02*
X017430630Y005390349D01*
X017430630Y005390349D02*
X017457958Y005415129D01*
X017457958Y005415129D02*
X017471420Y005452478D01*
X017471420Y005452478D02*
X017471420Y005477258D01*
X017471420Y005477258D02*
X017457958Y005514247D01*
X017457958Y005514247D02*
X017430630Y005539027D01*
X017430630Y005539027D02*
X017403300Y005551595D01*
X017403300Y005551595D02*
X017362510Y005551595D01*
X017362510Y005551595D02*
X017335589Y005539027D01*
X017335589Y005539027D02*
X017308259Y005514247D01*
X017735146Y005305445D02*
X017764266Y005305445D01*
X017749689Y005391296D02*
X017749689Y005562641D01*
X018033503Y005378139D02*
X018033503Y005567730D01*
X018033503Y005432308D02*
X018074961Y005391485D01*
X018074961Y005391485D02*
X018102727Y005378139D01*
X018102727Y005378139D02*
X018144185Y005378139D01*
X018144185Y005378139D02*
X018171761Y005391485D01*
X018171761Y005391485D02*
X018185644Y005432308D01*
X018185644Y005432308D02*
X018185644Y005567730D01*
X018400056Y005360732D02*
X018405593Y005342595D01*
X018405593Y005342595D02*
X018421955Y005325680D01*
X018421955Y005325680D02*
X018448769Y005314209D01*
X018448769Y005314209D02*
X018465980Y005311844D01*
X018465980Y005311844D02*
X018495755Y005314023D01*
X018495755Y005314023D02*
X018518092Y005323817D01*
X018518092Y005323817D02*
X018530306Y005338836D01*
X018530306Y005338836D02*
X018534693Y005356288D01*
X018534693Y005356288D02*
X018534402Y005367897D01*
X018534402Y005367897D02*
X018529159Y005387330D01*
X018529159Y005387330D02*
X018506403Y005425112D01*
X018506403Y005425112D02*
X018449096Y005496983D01*
X018449096Y005496983D02*
X018388838Y005563088D01*
X018388838Y005563088D02*
X018550043Y005563088D01*
D24*
X015308259Y005378139D02*
X015308259Y005638145D01*
X015308259Y005415129D02*
X015335589Y005390349D01*
X015335589Y005390349D02*
X015362510Y005378139D01*
X015362510Y005378139D02*
X015403300Y005378139D01*
X015403300Y005378139D02*
X015430630Y005390349D01*
X015430630Y005390349D02*
X015457958Y005415129D01*
X015457958Y005415129D02*
X015471420Y005452478D01*
X015471420Y005452478D02*
X015471420Y005477258D01*
X015471420Y005477258D02*
X015457958Y005514247D01*
X015457958Y005514247D02*
X015430630Y005539027D01*
X015430630Y005539027D02*
X015403300Y005551595D01*
X015403300Y005551595D02*
X015362510Y005551595D01*
X015362510Y005551595D02*
X015335589Y005539027D01*
X015335589Y005539027D02*
X015308259Y005514247D01*
X015735146Y005305445D02*
X015764266Y005305445D01*
X015749689Y005391296D02*
X015749689Y005562641D01*
X016033503Y005378139D02*
X016033503Y005567730D01*
X016033503Y005432308D02*
X016074961Y005391485D01*
X016074961Y005391485D02*
X016102727Y005378139D01*
X016102727Y005378139D02*
X016144185Y005378139D01*
X016144185Y005378139D02*
X016171761Y005391485D01*
X016171761Y005391485D02*
X016185644Y005432308D01*
X016185644Y005432308D02*
X016185644Y005567730D01*
X016389572Y005343607D02*
X016403239Y005332890D01*
X016403239Y005332890D02*
X016425022Y005321409D01*
X016425022Y005321409D02*
X016452783Y005311844D01*
X016452783Y005311844D02*
X016486951Y005313755D01*
X016486951Y005313755D02*
X016516849Y005323323D01*
X016516849Y005323323D02*
X016538205Y005340545D01*
X016538205Y005340545D02*
X016551018Y005361595D01*
X016551018Y005361595D02*
X016546747Y005384558D01*
X016546747Y005384558D02*
X016529663Y005401781D01*
X016529663Y005401781D02*
X016499765Y005415176D01*
X016499765Y005415176D02*
X016465596Y005422830D01*
X016465596Y005422830D02*
X016435699Y005426658D01*
X016435699Y005426658D02*
X016465596Y005430485D01*
X016465596Y005430485D02*
X016499765Y005440053D01*
X016499765Y005440053D02*
X016529663Y005455361D01*
X016529663Y005455361D02*
X016548883Y005476412D01*
X016548883Y005476412D02*
X016553154Y005499375D01*
X016553154Y005499375D02*
X016544612Y005524252D01*
X016544612Y005524252D02*
X016525392Y005545301D01*
X016525392Y005545301D02*
X016495493Y005562524D01*
X016495493Y005562524D02*
X016472857Y005567882D01*
X016472857Y005567882D02*
X016436126Y005567116D01*
X016436126Y005567116D02*
X016406229Y005562524D01*
X016406229Y005562524D02*
X016385728Y005556400D01*
D25*
X017763915Y005887788D02*
X017764392Y006138275D01*
X017764392Y006138275D02*
X017759813Y006169622D01*
X017759813Y006169622D02*
X017751123Y006186587D01*
X017751123Y006186587D02*
X017738937Y006200077D01*
X017738937Y006200077D02*
X017724350Y006210410D01*
X017724350Y006210410D02*
X017692329Y006222858D01*
X017692329Y006222858D02*
X017663793Y006226448D01*
X017663793Y006226448D02*
X017625114Y006222283D01*
X017625114Y006222283D02*
X017596600Y006210853D01*
X017596600Y006210853D02*
X017582729Y006199780D01*
X017582729Y006199780D02*
X017572613Y006186353D01*
X017572613Y006186353D02*
X017565946Y006170921D01*
X017565946Y006170921D02*
X017562424Y006153834D01*
X017562424Y006153834D02*
X017561741Y006135442D01*
X018036726Y005887788D02*
X018036726Y006056203D01*
X018036726Y006056203D02*
X018131151Y006034055D01*
X018131151Y006034055D02*
X018198571Y006042386D01*
X018198571Y006042386D02*
X018225401Y006057423D01*
X018225401Y006057423D02*
X018244034Y006078758D01*
X018244034Y006078758D02*
X018258279Y006136906D01*
X018258279Y006136906D02*
X018251542Y006167114D01*
X018251542Y006167114D02*
X018233864Y006190888D01*
X018233864Y006190888D02*
X018199125Y006212969D01*
X018199125Y006212969D02*
X018158978Y006224585D01*
X018158978Y006224585D02*
X018121226Y006226448D01*
X018121226Y006226448D02*
X018089433Y006220386D01*
X018089433Y006220386D02*
X018063733Y006208499D01*
X018063733Y006208499D02*
X018036726Y006184047D01*
X018036726Y005887788D02*
X018258279Y005887788D01*
M02*