M48
; DRILL file {tscircuit} date 2026-08-30T04:23:36.721Z
; FORMAT={-:-/ absolute / metric / decimal}
; #@! TF.CreationDate,2026-08-30T04:23:36.721Z
; #@! TF.GenerationSoftware,tscircuit
; #@! TF.FileFunction,Plated,1,2,PTH
FMAT,2
METRIC
; #@! TA.AperFunction,Plated,PTH,ComponentDrill
T10C0.900000
; #@! TA.AperFunction,Plated,PTH,ComponentDrill
T11C1.000000
; #@! TA.AperFunction,Plated,PTH,ComponentDrill
T12C0.200000
%
G90
G05
T10
X-18.0000Y5.5000
X-20.0000Y5.5000
T11
X-16.6000Y1.0000
X-18.6000Y1.0000
X-20.6000Y1.0000
X-17.0000Y-2.5000
X-19.0000Y-2.5000
X-21.0000Y-2.5000
X-18.6000Y-7.0000
X-18.6000Y-9.0000
X-18.6000Y-11.0000
X21.0000Y3.0000
X19.0000Y3.0000
X17.0000Y3.0000
X-8.8900Y-18.6800
X-6.3500Y-18.6800
X-3.8100Y-18.6800
X-1.2700Y-18.6800
X1.2700Y-18.6800
X3.8100Y-18.6800
X6.3500Y-18.6800
X8.8900Y-18.6800
T12
X-3.7000Y-6.4940
X-4.9830Y-7.0110
X-5.1740Y-8.8080
X3.5640Y-8.5980
X1.4040Y-9.6010
X3.5640Y-8.5980
X-3.0670Y-8.8290
X3.5650Y-7.3030
X-0.1750Y-6.0672
X-4.4240Y-7.5760
X-1.9190Y-14.0600
X0.1014Y-5.0107
X1.2870Y-4.0840
X3.3700Y-3.2860
X14.8730Y10.8640
X-0.1000Y-9.8000
X-7.0850Y-10.8160
X-10.6170Y-12.6170
X-11.5860Y-3.9240
X0.0620Y-6.8140
X7.0260Y5.1610
X-0.7500Y-10.8230
X-1.0320Y-12.2400
X-9.9840Y-6.1570
X-9.6450Y-5.3910
X-3.2050Y-7.7880
X-6.9580Y-7.1130
X-0.6490Y-5.1740
X7.1450Y6.5730
X-0.2170Y-13.9580
X0.2880Y-14.7120
X12.4112Y10.8159
X12.5220Y9.4770
X1.9280Y-1.1650
X2.7130Y-1.5000
X3.9060Y-5.0680
X3.8810Y-3.0400
X-4.9690Y-5.0050
X-10.8860Y-5.7310
X4.0000Y9.0000
X8.4000Y10.4000
X1.3500Y7.4620
X-6.4780Y-6.0960
X-5.2310Y-11.7380
X-5.4200Y18.4780
X4.2770Y18.9710
X4.4816Y16.2598
X5.8984Y16.5777
X-7.2660Y2.7280
X-6.2020Y2.6090
X-12.0000Y10.0230
X-7.6000Y13.8000
X-10.0000Y8.0000
X-10.0100Y6.4000
X-7.4310Y9.4700
X-6.6080Y9.6810
X-11.0300Y11.2240
X-11.1920Y12.1020
X0.0100Y-11.1450
X0.7920Y-10.8840
X1.2160Y-7.1150
X2.3850Y-6.8860
X16.9620Y7.0050
X19.5820Y1.3670
X-8.2380Y11.2430
X-6.2180Y12.4300
X6.2760Y3.7980
X6.5450Y2.8800
X5.6910Y-0.9980
X5.9490Y-1.7620
X-14.7660Y-4.0200
X-1.9020Y-10.8020
X-8.9000Y11.2000
X-8.2000Y8.2000
X-11.0110Y-1.1380
X-6.3950Y1.8530
X5.9220Y-9.1160
X11.9245Y-6.4391
X9.2120Y2.5770
X9.2120Y3.8200
X5.0260Y4.3070
X-0.0990Y-0.1260
X-1.8980Y-0.2170
X6.5370Y-7.4510
X7.4000Y-6.8000
X11.2000Y-1.2000
X9.6540Y-4.3450
X-6.6210Y0.3960
X-7.8200Y-0.3360
X-18.3930Y-0.9270
X7.0940Y0.0890
X7.6200Y-4.3400
X-6.0110Y-0.0030
X-7.4260Y1.4380
X-18.4250Y2.6000
X3.5700Y-10.7500
X1.8760Y-10.6750
X-5.0000Y13.8000
X-3.5000Y5.8000
X-4.3068Y15.7738
X0.3670Y13.9530
X-0.8630Y10.7010
X-8.7110Y14.8933
M30