M48
; DRILL file {tscircuit} date 2026-08-31T02:33:00.654Z
; FORMAT={-:-/ absolute / metric / decimal}
; #@! TF.CreationDate,2026-08-31T02:33:00.654Z
; #@! TF.GenerationSoftware,tscircuit
; #@! TF.FileFunction,Plated,1,2,PTH
FMAT,2
METRIC
; #@! TA.AperFunction,Plated,PTH,ComponentDrill
T10C0.900000
; #@! TA.AperFunction,Plated,PTH,ComponentDrill
T11C1.000000
; #@! TA.AperFunction,Plated,PTH,ComponentDrill
T12C0.300000
; #@! TA.AperFunction,Plated,PTH,ComponentDrill
T13C0.400000
; #@! TA.AperFunction,Plated,PTH,ComponentDrill
T14C0.200000
%
G90
G05
T10
X-18.0000Y11.0000
X-16.0000Y11.0000
T11
X-19.0000Y-9.0000
X-17.0000Y-9.0000
X-15.0000Y-9.0000
X-10.0000Y18.8000
X-8.0000Y18.8000
X-6.0000Y18.8000
X3.5000Y18.8000
X5.5000Y18.8000
X7.5000Y18.8000
X20.0000Y4.0000
X18.0000Y4.0000
X16.0000Y4.0000
X-8.8900Y-18.6800
X-6.3500Y-18.6800
X-3.8100Y-18.6800
X-1.2700Y-18.6800
X1.2700Y-18.6800
X3.8100Y-18.6800
X6.3500Y-18.6800
X8.8900Y-18.6800
T12
X-2.6000Y11.9000
X-1.4000Y11.9000
X-2.6000Y13.1000
X-1.4000Y13.1000
T13
X-12.0000Y2.0000
X-9.0000Y-1.0000
X12.0000Y2.5000
X15.0000Y-8.0000
X1.5000Y-12.0000
X9.3000Y17.6000
T14
X5.6000Y-7.1000
X18.0000Y-1.0000
X-3.1590Y-10.7410
X0.1262Y-14.1367
X-3.2380Y-7.6990
X-2.8770Y-6.1550
X-2.8770Y-6.1550
X0.1583Y-7.5083
X-4.7480Y-9.9740
X-2.8251Y-9.3184
X-5.0760Y-10.7500
X-2.9060Y-13.6880
X-2.8251Y-9.3184
X2.1640Y-11.1160
X3.6090Y-11.0940
X4.2523Y-9.0428
X0.0500Y-6.2090
X-4.0690Y-8.8970
X-9.0650Y-8.9940
X-12.4742Y-4.0057
X-5.0810Y-15.0414
X-5.3080Y-13.5810
X0.4630Y-3.9630
X13.2710Y11.1490
X-9.0400Y-10.7760
X-8.8000Y-14.1000
X-7.6860Y-10.7710
X0.2489Y-10.1030
X0.2489Y-10.1030
X0.3910Y-9.1720
X13.7030Y12.2940
X-3.6470Y-14.3030
X10.0280Y3.4990
X-0.0030Y-4.7040
X1.8680Y4.4010
X2.7100Y4.8420
X-2.6890Y0.7990
X-7.6370Y-16.5850
X7.3840Y8.8040
X8.9650Y8.4710
X-0.4000Y7.9000
X5.4590Y9.1740
X-3.5500Y10.9750
X-3.2009Y9.7809
X-9.8150Y-0.8000
X-0.1891Y5.8779
X1.0860Y6.3640
X12.2420Y10.6520
X18.0330Y-7.5000
X16.5681Y-6.0890
X15.1991Y-1.4205
X14.5990Y-2.2760
X8.1000Y3.0820
X12.5630Y12.8790
X10.7420Y13.0230
X0.7890Y5.4850
X-4.6760Y17.6790
X0.3000Y2.2000
X4.2323Y0.4808
X5.8280Y0.1370
X0.0740Y-2.8020
X2.6140Y-0.9290
X2.5110Y-12.2930
X3.2200Y-8.0140
X-1.6480Y-7.0910
X-0.8790Y-7.3500
X10.6490Y11.3500
X-8.8080Y-7.8900
X16.2000Y12.9000
X16.1880Y11.9130
X7.8170Y-2.3220
X9.0010Y-2.4100
X11.8790Y13.0300
X11.2710Y10.7980
X-13.0190Y12.1650
X8.6225Y9.1994
X9.8640Y9.3350
X0.6980Y4.2270
X1.2870Y5.7900
X-10.8180Y-3.9780
X-11.1780Y-6.1810
X-8.1170Y-16.1150
X-3.7222Y10.4895
X-3.1470Y7.7450
X-8.3560Y4.8180
X-9.1940Y8.0420
X8.9758Y-7.5362
X6.8373Y-8.8944
X11.1310Y0.1170
X11.0550Y-1.0970
X5.0000Y-4.4000
X2.8420Y-9.2120
X0.8380Y0.5610
X0.1820Y-0.4950
X2.3850Y-6.6830
X2.2600Y-9.8130
M30