%TF.GenerationSoftware,tscircuit,circuit-json-to-gerber,0.0.96*%
%TF.CreationDate,2026-08-30T04:23:36.667Z*%
%TF.SameCoordinates,Original*%
%TF.FileFunction,Copper,L1,Top*%
%TF.FilePolarity,Positive*%
%FSLAX46Y46*%
%MOMM*%
G04 Gerber Fmt 4.6, Leading zero omitted, Abs format (unit mm)*
G04 Created by tscircuit (builder) date 2026-08-30T04:23:36.668Z*
G01*
%LPD*%
G75*
G04 APERTURE MACROS START*
%AMHORZPILL*
0 Horizontal pill (stadium) shape macro*
0 Parameters:*
0 $1 = Total width*
0 $2 = Total height*
0 $3 = Circle diameter (equal to height)*
0 $4 = Circle center offset
0 21 = Center Line(Exposure, Width, Height, Center X, Center Y, Rotation)*
0 1 = Circle(Exposure, Diameter, Center X, Center Y, Rotation)*
21,1,$1-$3,$2,0.0,0.0,0.0*
1,1,$3,0.0-$4,0.0*
1,1,$3,$4,0.0*%
%AMVERTPILL*
0 Vertical pill (stadium) shape macro*
0 Parameters:*
0 $1 = Total width*
0 $2 = Total height*
0 $3 = Circle diameter (equal to width)*
0 $4 = Circle center offset
0 21 = Center Line(Exposure, Width, Height, Center X, Center Y, Rotation)*
21,1,$1,$2-$3,0.0,0.0,0.0*
1,1,$3,0.0,0.0-$4*
1,1,$3,0.0,$4*%
%AMROUNDRECT*
0 Rectangle with rounded corners*
0 $1 Corner radius*
0 $2 $3 $4 $5 $6 $7 $8 $9 X,Y Position of each corner*
0 Polygon box body*
4,1,4,$2,$3,$4,$5,$6,$7,$8,$9,$2,$3,0*
0 Circles for rounded corners*
1,1,$1+$1,$2,$3*
1,1,$1+$1,$4,$5*
1,1,$1+$1,$6,$7*
1,1,$1+$1,$8,$9*
0 Rectangles between the rounded corners*
20,1,$1+$1,$2,$3,$4,$5,0*
20,1,$1+$1,$4,$5,$6,$7,0*
20,1,$1+$1,$6,$7,$8,$9,0*
20,1,$1+$1,$8,$9,$2,$3,0*%
G04 APERTURE MACROS END*
G04 aperture START LIST*
%ADD10C,0.150000*%
%ADD11C,1.600000*%
%ADD12C,0.046800*%
%ADD13C,0.063000*%
%ADD14R,1.190100X1.728000*%
%ADD15R,0.833070X1.209600*%
%ADD16C,0.054000*%
%ADD17R,2.047500X2.192400*%
%ADD18R,1.433250X1.534680*%
%ADD19C,0.100000*%
%ADD20C,0.036000*%
%ADD21ROUNDRECT,0.100000X-0.400000X0.300000X0.400000X0.300000X0.400000X-0.300000X-0.400000X-0.300000*%
%ADD22R,0.700000X0.560000*%
%ADD23C,0.045000*%
%ADD24R,0.800000X0.950000*%
%ADD25R,0.560000X0.665000*%
%ADD26C,0.120000*%
%ADD27ROUNDRECT,0.075000X-0.460000X0.225000X0.460000X0.225000X0.460000X-0.225000X-0.460000X-0.225000*%
%ADD28R,0.749000X0.420000*%
%ADD29C,0.600000*%
%ADD30R,2.500000X3.200000*%
%ADD31R,1.750000X2.240000*%
%ADD32C,0.055837*%
%ADD33R,1.900000X2.500000*%
%ADD34R,1.330000X1.750000*%
%ADD35R,2.062500X1.539000*%
%ADD36R,1.443750X1.077300*%
%ADD37R,1.025000X1.400000*%
%ADD38R,0.717500X0.980000*%
%ADD39R,1.125000X2.650000*%
%ADD40R,0.787500X1.855000*%
%ADD41C,0.400000*%
%ADD42C,0.038063*%
%ADD43C,0.280000*%
%ADD44C,0.036975*%
%ADD45ROUNDRECT,0.081250X-0.418750X0.243750X0.418750X0.243750X0.418750X-0.243750X-0.418750X-0.243750*%
%ADD46R,0.700000X0.455000*%
%ADD47R,0.600000X0.400000*%
%ADD48R,0.420000X0.280000*%
%ADD49C,0.590000*%
%ADD50C,0.055762*%
%ADD51R,4.600000X2.800000*%
%ADD52R,3.220000X1.960000*%
%ADD53R,1.500000X1.500000*%
%ADD54C,1.500000*%
%ADD55C,0.300000*%
%ADD56C,0.001000*%
%TD*%
G04 aperture END LIST*
D11*
X-18000000Y005500000D03*
D11*
X-20000000Y005500000D03*
D14*
X-19645000Y009500000D03*
D14*
X-16755000Y009500000D03*
D17*
X-14360700Y009500000D03*
D17*
X-09639300Y009500000D03*
D21*
%LR180*%
X-07350000Y011050000D03*
%LR0*%
D21*
%LR180*%
X-07350000Y012950000D03*
%LR0*%
D21*
%LR180*%
X-09650000Y012000000D03*
%LR0*%
D24*
X-11825000Y005500000D03*
D24*
X-10175000Y005500000D03*
D27*
%LR180*%
X-04770000Y005550000D03*
%LR0*%
D27*
%LR180*%
X-04770000Y007450000D03*
%LR0*%
D27*
%LR180*%
X-07230000Y006500000D03*
%LR0*%
D29*
X-04905000Y009000000D03*
X-04905000Y009000000D02*
X-04905000Y010000000D01*
X-04905000Y010000000D03*
D29*
X-03635000Y009000000D03*
X-03635000Y009000000D02*
X-03635000Y010000000D01*
X-03635000Y010000000D03*
D29*
X-02365000Y009000000D03*
X-02365000Y009000000D02*
X-02365000Y010000000D01*
X-02365000Y010000000D03*
D29*
X-01095000Y009000000D03*
X-01095000Y009000000D02*
X-01095000Y010000000D01*
X-01095000Y010000000D03*
D29*
X-01095000Y015000000D03*
X-01095000Y015000000D02*
X-01095000Y016000000D01*
X-01095000Y016000000D03*
D29*
X-02365000Y015000000D03*
X-02365000Y015000000D02*
X-02365000Y016000000D01*
X-02365000Y016000000D03*
D29*
X-03635000Y015000000D03*
X-03635000Y015000000D02*
X-03635000Y016000000D01*
X-03635000Y016000000D03*
D29*
X-04905000Y015000000D03*
X-04905000Y015000000D02*
X-04905000Y016000000D01*
X-04905000Y016000000D03*
D56*
G36*
X-04600000Y011250000D02*
X-04600000Y013750000D01*
X-01400000Y013750000D01*
X-01400000Y011250000D01*
X-04600000Y011250000D01*
G37*
D33*
X001949950Y012500000D03*
D33*
X006050050Y012500000D03*
D56*
G36*
X007534950Y008230500D02*
X005472450Y008230500D01*
X005472450Y009769500D01*
X007534950Y009769500D01*
X007534950Y008230500D01*
G37*
D56*
G36*
X002527550Y008230500D02*
X000465050Y008230500D01*
X000465050Y009769500D01*
X002527550Y009769500D01*
X002527550Y008230500D01*
G37*
D24*
X-12625000Y017200000D03*
D24*
X-10975000Y017200000D03*
D24*
X-09025000Y018600000D03*
D24*
X-07375000Y018600000D03*
D24*
X-05825000Y019200000D03*
D24*
X-04175000Y019200000D03*
D37*
X001287500Y017600000D03*
D37*
X003112500Y017600000D03*
D37*
X004687500Y018000000D03*
D37*
X006512500Y018000000D03*
D24*
X008175000Y016500000D03*
D24*
X009825000Y016500000D03*
D24*
X011675000Y016000000D03*
D24*
X013325000Y016000000D03*
D24*
X-02325000Y018500000D03*
D24*
X-00675000Y018500000D03*
D24*
X-02825000Y006500000D03*
D24*
X-01175000Y006500000D03*
D39*
X-15262500Y013800000D03*
D39*
X-12337500Y013800000D03*
D39*
X000537500Y005500000D03*
D39*
X003462500Y005500000D03*
D24*
X-08325000Y003500000D03*
D24*
X-06675000Y003500000D03*
D14*
X009555000Y012000000D03*
D14*
X012445000Y012000000D03*
D24*
X013675000Y008660000D03*
D24*
X015325000Y008660000D03*
D41*
X-02475000Y-10225000D03*
X-02475000Y-10225000D02*
X-02475000Y-09425000D01*
X-02475000Y-09425000D03*
D41*
X-01825000Y-10225000D03*
X-01825000Y-10225000D02*
X-01825000Y-09425000D01*
X-01825000Y-09425000D03*
D41*
X-01175000Y-10225000D03*
X-01175000Y-10225000D02*
X-01175000Y-09425000D01*
X-01175000Y-09425000D03*
D41*
X-00525000Y-10225000D03*
X-00525000Y-10225000D02*
X-00525000Y-09425000D01*
X-00525000Y-09425000D03*
D41*
X-00525000Y-06575000D03*
X-00525000Y-06575000D02*
X-00525000Y-05775000D01*
X-00525000Y-05775000D03*
D41*
X-01175000Y-06575000D03*
X-01175000Y-06575000D02*
X-01175000Y-05775000D01*
X-01175000Y-05775000D03*
D41*
X-01825000Y-06575000D03*
X-01825000Y-06575000D02*
X-01825000Y-05775000D01*
X-01825000Y-05775000D03*
D41*
X-02475000Y-06575000D03*
X-02475000Y-06575000D02*
X-02475000Y-05775000D01*
X-02475000Y-05775000D03*
D24*
X-08425000Y-13000000D03*
D24*
X-06775000Y-13000000D03*
D24*
X-05225000Y-13000000D03*
D24*
X-03575000Y-13000000D03*
D24*
X-02025000Y-13000000D03*
D24*
X-00375000Y-13000000D03*
D24*
X000975000Y-14000000D03*
D24*
X002625000Y-14000000D03*
D43*
X004100000Y-12780000D03*
X004100000Y-12780000D02*
X004100000Y-11440000D01*
X004100000Y-11440000D03*
D43*
X004600000Y-12780000D03*
X004600000Y-12780000D02*
X004600000Y-11440000D01*
X004600000Y-11440000D03*
D43*
X005100000Y-12780000D03*
X005100000Y-12780000D02*
X005100000Y-11440000D01*
X005100000Y-11440000D03*
D43*
X005600000Y-12780000D03*
X005600000Y-12780000D02*
X005600000Y-11440000D01*
X005600000Y-11440000D03*
D43*
X006100000Y-12780000D03*
X006100000Y-12780000D02*
X006100000Y-11440000D01*
X006100000Y-11440000D03*
D43*
X006100000Y-08560000D03*
X006100000Y-08560000D02*
X006100000Y-07220000D01*
X006100000Y-07220000D03*
D43*
X005600000Y-08560000D03*
X005600000Y-08560000D02*
X005600000Y-07220000D01*
X005600000Y-07220000D03*
D43*
X005100000Y-08560000D03*
X005100000Y-08560000D02*
X005100000Y-07220000D01*
X005100000Y-07220000D03*
D43*
X004600000Y-08560000D03*
X004600000Y-08560000D02*
X004600000Y-07220000D01*
X004600000Y-07220000D03*
D43*
X004100000Y-08560000D03*
X004100000Y-08560000D02*
X004100000Y-07220000D01*
X004100000Y-07220000D03*
D24*
X003975000Y-14500000D03*
D24*
X005625000Y-14500000D03*
D24*
X007375000Y-14500000D03*
D24*
X009025000Y-14500000D03*
D45*
%LR180*%
X003000000Y-02350000D03*
%LR0*%
D45*
%LR180*%
X003000000Y-00450000D03*
%LR0*%
D45*
%LR180*%
X001000000Y-01400000D03*
%LR0*%
D45*
%LR180*%
X006600000Y-02350000D03*
%LR0*%
D45*
%LR180*%
X006600000Y-00450000D03*
%LR0*%
D45*
%LR180*%
X004600000Y-01400000D03*
%LR0*%
D45*
%LR180*%
X010300000Y-02350000D03*
%LR0*%
D45*
%LR180*%
X010300000Y-00450000D03*
%LR0*%
D45*
%LR180*%
X008300000Y-01400000D03*
%LR0*%
D45*
%LR180*%
X017800000Y-03950000D03*
%LR0*%
D45*
%LR180*%
X017800000Y-02050000D03*
%LR0*%
D45*
%LR180*%
X015800000Y-03000000D03*
%LR0*%
D24*
X001375000Y001500000D03*
D24*
X003025000Y001500000D03*
D24*
X004775000Y001500000D03*
D24*
X006425000Y001500000D03*
D24*
X008475000Y001500000D03*
D24*
X010125000Y001500000D03*
D24*
X015975000Y000500000D03*
D24*
X017625000Y000500000D03*
D24*
X001075000Y-05900000D03*
D24*
X002725000Y-05900000D03*
D24*
X004775000Y-05200000D03*
D24*
X006425000Y-05200000D03*
D24*
X008475000Y-05900000D03*
D24*
X010125000Y-05900000D03*
D24*
X015675000Y-06000000D03*
D24*
X017325000Y-06000000D03*
D47*
X014775000Y013475000D03*
D47*
X014775000Y012825000D03*
D47*
X014775000Y012175000D03*
D47*
X014775000Y011525000D03*
D47*
X016225000Y011525000D03*
D47*
X016225000Y012175000D03*
D47*
X016225000Y012825000D03*
D47*
X016225000Y013475000D03*
D24*
X010675000Y014000000D03*
D24*
X012325000Y014000000D03*
D49*
X-13405000Y-08205000D03*
X-13405000Y-08205000D02*
X-13405000Y-06995000D01*
X-13405000Y-06995000D03*
D49*
X-12135000Y-08205000D03*
X-12135000Y-08205000D02*
X-12135000Y-06995000D01*
X-12135000Y-06995000D03*
D49*
X-10865000Y-08205000D03*
X-10865000Y-08205000D02*
X-10865000Y-06995000D01*
X-10865000Y-06995000D03*
D49*
X-09595000Y-08205000D03*
X-09595000Y-08205000D02*
X-09595000Y-06995000D01*
X-09595000Y-06995000D03*
D49*
X-09595000Y-03005000D03*
X-09595000Y-03005000D02*
X-09595000Y-01795000D01*
X-09595000Y-01795000D03*
D49*
X-10865000Y-03005000D03*
X-10865000Y-03005000D02*
X-10865000Y-01795000D01*
X-10865000Y-01795000D03*
D49*
X-12135000Y-03005000D03*
X-12135000Y-03005000D02*
X-12135000Y-01795000D01*
X-12135000Y-01795000D03*
D49*
X-13405000Y-03005000D03*
X-13405000Y-03005000D02*
X-13405000Y-01795000D01*
X-13405000Y-01795000D03*
D56*
G36*
X014600000Y007599950D02*
X014600000Y002999950D01*
X011800000Y002999950D01*
X011800000Y007599950D01*
X014600000Y007599950D01*
G37*
D56*
G36*
X014600000Y-08999950D02*
X014600000Y-13599950D01*
X011800000Y-13599950D01*
X011800000Y-08999950D01*
X014600000Y-08999950D01*
G37*
D24*
X-07825000Y-05000000D03*
D24*
X-06175000Y-05000000D03*
D11*
X-16600000Y001000000D03*
D11*
X-18600000Y001000000D03*
D11*
X-20600000Y001000000D03*
D11*
X-17000000Y-02500000D03*
D11*
X-19000000Y-02500000D03*
D11*
X-21000000Y-02500000D03*
D11*
X-18600000Y-07000000D03*
D11*
X-18600000Y-09000000D03*
D11*
X-18600000Y-11000000D03*
D11*
X021000000Y003000000D03*
D11*
X019000000Y003000000D03*
D11*
X017000000Y003000000D03*
D53*
X-08890000Y-18680000D03*
D54*
X-06350000Y-18680000D03*
D54*
X-03810000Y-18680000D03*
D54*
X-01270000Y-18680000D03*
D54*
X001270000Y-18680000D03*
D54*
X003810000Y-18680000D03*
D54*
X006350000Y-18680000D03*
D54*
X008890000Y-18680000D03*
D10*
X-02475000Y-06175000D02*
X-03359732Y-06175000D01*
D10*
X-03359732Y-06175000D02*
X-03617893Y-06433161D01*
D10*
X-03617893Y-06433161D02*
X-03639161Y-06433161D01*
D10*
X-03639161Y-06433161D02*
X-03700000Y-06494000D01*
D10*
X-03700000Y-06494000D02*
X-03700000Y-06494000D01*
D10*
X-04983000Y-07011000D02*
X-04983000Y-07011000D01*
D10*
X-04983000Y-07011000D02*
X-04983000Y-08484765D01*
D10*
X-04983000Y-08484765D02*
X-05176949Y-08678714D01*
D10*
X-05176949Y-08678714D02*
X-05176949Y-08805051D01*
D10*
X-05176949Y-08805051D02*
X-05174000Y-08808000D01*
D10*
X-05174000Y-08808000D02*
X-05174000Y-08808000D01*
D10*
X003564000Y-08598000D02*
X003564000Y-08598000D01*
D10*
X003564000Y-08598000D02*
X003564000Y-08426000D01*
D10*
X003564000Y-08426000D02*
X004100000Y-07890000D01*
D10*
X000975000Y-14000000D02*
X001371164Y-13603836D01*
D10*
X001371164Y-13603836D02*
X001371164Y-09664292D01*
D10*
X001371164Y-09664292D02*
X001371164Y-09633836D01*
D10*
X001371164Y-09633836D02*
X001404000Y-09601000D01*
D10*
X001404000Y-09601000D02*
X001404000Y-09601000D01*
D10*
X003564000Y-08598000D02*
X003564000Y-08598000D01*
D10*
X003564000Y-08598000D02*
X003564000Y-08426000D01*
D10*
X003564000Y-08426000D02*
X004100000Y-07890000D01*
D10*
X-02475000Y-09825000D02*
X-02475000Y-12550000D01*
D10*
X-02475000Y-12550000D02*
X-02025000Y-13000000D01*
D10*
X-02475000Y-09825000D02*
X-02475000Y-09425539D01*
D10*
X-02475000Y-09425539D02*
X-03063263Y-08837277D01*
D10*
X-03063263Y-08837277D02*
X-03063263Y-08832737D01*
D10*
X-03063263Y-08832737D02*
X-03067000Y-08829000D01*
D10*
X-03067000Y-08829000D02*
X-03067000Y-08829000D01*
D10*
X003565000Y-07303000D02*
X003565000Y-07303000D01*
D10*
X003565000Y-07303000D02*
X003565000Y-07127173D01*
D10*
X003565000Y-07127173D02*
X003946624Y-06745549D01*
D10*
X003946624Y-06745549D02*
X004217078Y-06740158D01*
D10*
X004217078Y-06740158D02*
X004600533Y-07183432D01*
D10*
X004600533Y-07183432D02*
X004589084Y-07170198D01*
D10*
X004589084Y-07170198D02*
X004448552Y-07738552D01*
D10*
X004448552Y-07738552D02*
X004600000Y-07890000D01*
D10*
X-00525000Y-06175000D02*
X-00323618Y-06175000D01*
D10*
X-00323618Y-06175000D02*
X-00289256Y-06140638D01*
D10*
X-00289256Y-06140638D02*
X-00248411Y-06140638D01*
D10*
X-00248411Y-06140638D02*
X-00174999Y-06067227D01*
D10*
X-00174999Y-06067227D02*
X-00174999Y-06067227D01*
D10*
X-04424000Y-07576000D02*
X-04424000Y-07576000D01*
D10*
X-04424000Y-07576000D02*
X-04424000Y-12199000D01*
D10*
X-04424000Y-12199000D02*
X-05225000Y-13000000D01*
D10*
X-01919000Y-14060000D02*
X-01919000Y-14060000D01*
D10*
X-01919000Y-14060000D02*
X-02061644Y-14060000D01*
D10*
X-02061644Y-14060000D02*
X-02246307Y-13947781D01*
D10*
X-02246307Y-13947781D02*
X-04347201Y-13886142D01*
D10*
X-04347201Y-13886142D02*
X-05225000Y-13000000D01*
D10*
X-05225000Y-13000000D02*
X-05556789Y-12668211D01*
D10*
X-05556789Y-12668211D02*
X-05556789Y-12638373D01*
D10*
X-05556789Y-12638373D02*
X-05556789Y-09904706D01*
D10*
X-05556789Y-09904706D02*
X-09668462Y-05793033D01*
D10*
X-09668462Y-05793033D02*
X-10195358Y-05793033D01*
D10*
X-10195358Y-05793033D02*
X-10352785Y-05635606D01*
D10*
X-10352785Y-05635606D02*
X-13405000Y-02583391D01*
D10*
X-13405000Y-02583391D02*
X-13405000Y-02400000D01*
D10*
X-00525000Y-06175000D02*
X000101447Y-05548553D01*
D10*
X000101447Y-05548553D02*
X000101447Y-05010661D01*
D10*
X000101447Y-05010661D02*
X000101447Y-05010661D01*
D10*
X001287000Y-04084000D02*
X001287000Y-04084000D01*
D10*
X001287000Y-04084000D02*
X001330164Y-04040836D01*
D10*
X001330164Y-04040836D02*
X001435100Y-04040836D01*
D10*
X001435100Y-04040836D02*
X002189936Y-03286000D01*
D10*
X002189936Y-03286000D02*
X003370000Y-03286000D01*
D10*
X003370000Y-03286000D02*
X003370000Y-03286000D01*
D10*
X014873000Y010864000D02*
X014873000Y010864000D01*
D10*
X014873000Y010864000D02*
X014849597Y010887403D01*
D10*
X014849597Y010887403D02*
X014849597Y011055997D01*
D10*
X014849597Y011055997D02*
X014775000Y011130594D01*
D10*
X014775000Y011130594D02*
X014775000Y011525000D01*
D10*
X-00525000Y-09825000D02*
X-00310458Y-09825000D01*
D10*
X-00310458Y-09825000D02*
X-00285458Y-09800000D01*
D10*
X-00285458Y-09800000D02*
X-00100000Y-09800000D01*
D10*
X-00100000Y-09800000D02*
X-00100000Y-09800000D01*
D10*
X-07085000Y-10816000D02*
X-07085000Y-10816000D01*
D10*
X-07085000Y-10816000D02*
X-07085000Y-11660000D01*
D10*
X-07085000Y-11660000D02*
X-08425000Y-13000000D01*
D10*
X003810000Y-18680000D02*
X003667846Y-18537846D01*
D10*
X003667846Y-18537846D02*
X003620053Y-18537846D01*
D10*
X003620053Y-18537846D02*
X-00093050Y-14824743D01*
D10*
X-00093050Y-14824743D02*
X-00093050Y-14526618D01*
D10*
X-00093050Y-14526618D02*
X000352210Y-14081358D01*
D10*
X000352210Y-14081358D02*
X000352210Y-13961355D01*
D10*
X000352210Y-13961355D02*
X000352210Y-10702210D01*
D10*
X000352210Y-10702210D02*
X-00525000Y-09825000D01*
D10*
X-08425000Y-13000000D02*
X-08808000Y-12617000D01*
D10*
X-08808000Y-12617000D02*
X-10617000Y-12617000D01*
D10*
X-10617000Y-12617000D02*
X-10617000Y-12617000D01*
D10*
X-11586000Y-03924000D02*
X-11586000Y-03924000D01*
D10*
X-11586000Y-03924000D02*
X-11592325Y-03917675D01*
D10*
X-11592325Y-03917675D02*
X-12135000Y-03375000D01*
D10*
X-12135000Y-03375000D02*
X-12135000Y-02400000D01*
D10*
X-00525000Y-09825000D02*
X-00525000Y-07401000D01*
D10*
X-00525000Y-07401000D02*
X000058079Y-06817921D01*
D10*
X000058079Y-06817921D02*
X000062000Y-06814000D01*
D10*
X000062000Y-06814000D02*
X000062000Y-06814000D01*
D10*
X007026000Y005161000D02*
X007026000Y005161000D01*
D10*
X007026000Y005161000D02*
X007520846Y005161000D01*
D10*
X007520846Y005161000D02*
X014531067Y012171220D01*
D10*
X014531067Y012171220D02*
X014771220Y012171220D01*
D10*
X014771220Y012171220D02*
X014775000Y012175000D01*
D10*
X016225000Y013475000D02*
X016124774Y013374774D01*
D10*
X016124774Y013374774D02*
X016017124Y013374774D01*
D10*
X016017124Y013374774D02*
X015656210Y013013861D01*
D10*
X015656210Y013013861D02*
X015656210Y012612272D01*
D10*
X015656210Y012612272D02*
X016093482Y012175000D01*
D10*
X016093482Y012175000D02*
X016225000Y012175000D01*
D10*
X016225000Y012175000D02*
X016209548Y012190452D01*
D10*
X016209548Y012190452D02*
X015981895Y012190452D01*
D10*
X015981895Y012190452D02*
X015347347Y012825000D01*
D10*
X015347347Y012825000D02*
X014775000Y012825000D01*
D10*
X-06775000Y-13000000D02*
X-05283161Y-14491839D01*
D10*
X-05283161Y-14491839D02*
X-01327000Y-14491839D01*
D10*
X-01327000Y-14491839D02*
X-01328322Y-14173178D01*
D10*
X-01328322Y-14173178D02*
X-01780799Y-13720701D01*
D10*
X-01780799Y-13720701D02*
X-02031322Y-13702740D01*
D10*
X-02031322Y-13702740D02*
X-02235322Y-13683740D01*
D10*
X-02235322Y-13683740D02*
X-02440322Y-13679740D01*
D10*
X-02440322Y-13679740D02*
X-02719722Y-13678740D01*
D10*
X-02719722Y-13678740D02*
X-02725675Y-13611000D01*
D10*
X-02725675Y-13611000D02*
X-02964000Y-13611000D01*
D10*
X-02964000Y-13611000D02*
X-03575000Y-13000000D01*
D10*
X-01175000Y-09825000D02*
X-01175000Y-06175000D01*
D10*
X-01175000Y-09825000D02*
X-01175000Y-10441476D01*
D10*
X-01175000Y-10441476D02*
X-00903866Y-10712610D01*
D10*
X-00903866Y-10712610D02*
X-00860390Y-10712610D01*
D10*
X-00860390Y-10712610D02*
X-00750000Y-10823000D01*
D10*
X-00750000Y-10823000D02*
X-00750000Y-10823000D01*
D10*
X-01032000Y-12240000D02*
X-01032000Y-12240000D01*
D10*
X-01032000Y-12240000D02*
X-01025391Y-13261473D01*
D10*
X-01025391Y-13261473D02*
X-01434664Y-13670746D01*
D10*
X-01434664Y-13670746D02*
X-01625391Y-13680275D01*
D10*
X-01625391Y-13680275D02*
X-01826391Y-13681275D01*
D10*
X-01826391Y-13681275D02*
X-02129391Y-13681275D01*
D10*
X-02129391Y-13681275D02*
X-02331391Y-13681275D01*
D10*
X-02331391Y-13681275D02*
X-02583140Y-13668401D01*
D10*
X-02583140Y-13668401D02*
X-02675302Y-13660452D01*
D10*
X-02675302Y-13660452D02*
X-03026000Y-13549000D01*
D10*
X-03026000Y-13549000D02*
X-03575000Y-13000000D01*
D10*
X014775000Y012825000D02*
X014535889Y013064111D01*
D10*
X014535889Y013064111D02*
X012037262Y013064111D01*
D10*
X012037262Y013064111D02*
X011101373Y014000000D01*
D10*
X011101373Y014000000D02*
X010675000Y014000000D01*
D10*
X-12135000Y-07600000D02*
X-12135000Y-07337527D01*
D10*
X-12135000Y-07337527D02*
X-11083335Y-06285862D01*
D10*
X-11083335Y-06285862D02*
X-10188012Y-06285862D01*
D10*
X-10188012Y-06285862D02*
X-10078915Y-06176765D01*
D10*
X-10078915Y-06176765D02*
X-10003765Y-06176765D01*
D10*
X-10003765Y-06176765D02*
X-09984000Y-06157000D01*
D10*
X-09984000Y-06157000D02*
X-09984000Y-06157000D01*
D10*
X-09645000Y-05391000D02*
X-09645000Y-05391000D01*
D10*
X-09645000Y-05391000D02*
X-08216000Y-05391000D01*
D10*
X-08216000Y-05391000D02*
X-07825000Y-05000000D01*
D10*
X-03810000Y-18680000D02*
X-01438819Y-16308819D01*
D10*
X-01438819Y-16308819D02*
X-01438819Y-16299483D01*
D10*
X-01438819Y-16299483D02*
X-01438819Y-13960613D01*
D10*
X-01438819Y-13960613D02*
X-01702787Y-13696645D01*
D10*
X-01702787Y-13696645D02*
X-01688991Y-13789312D01*
D10*
X-01688991Y-13789312D02*
X-01852991Y-13743312D01*
D10*
X-01852991Y-13743312D02*
X-02145335Y-13700896D01*
D10*
X-02145335Y-13700896D02*
X-02352545Y-13660317D01*
D10*
X-02352545Y-13660317D02*
X-02683935Y-13634544D01*
D10*
X-02683935Y-13634544D02*
X-03218176Y-13000000D01*
D10*
X-03218176Y-13000000D02*
X-03575000Y-13000000D01*
D10*
X-01175000Y-06175000D02*
X-01422820Y-06422820D01*
D10*
X-01422820Y-06422820D02*
X-01352410Y-06818234D01*
D10*
X-01352410Y-06818234D02*
X-01429590Y-06960720D01*
D10*
X-01429590Y-06960720D02*
X-01536590Y-06960720D01*
D10*
X-01536590Y-06960720D02*
X-01832444Y-07072885D01*
D10*
X-01832444Y-07072885D02*
X-02035444Y-07096885D01*
D10*
X-02035444Y-07096885D02*
X-02198149Y-07198213D01*
D10*
X-02198149Y-07198213D02*
X-03104376Y-07788000D01*
D10*
X-03104376Y-07788000D02*
X-03205000Y-07788000D01*
D10*
X-03205000Y-07788000D02*
X-03205000Y-07788000D01*
D10*
X-06958000Y-07113000D02*
X-06958000Y-07113000D01*
D10*
X-06958000Y-07113000D02*
X-07039409Y-07031591D01*
D10*
X-07039409Y-07031591D02*
X-07039409Y-06908366D01*
D10*
X-07039409Y-06908366D02*
X-07825000Y-06122775D01*
D10*
X-07825000Y-06122775D02*
X-07825000Y-05000000D01*
D10*
X-01175000Y-06175000D02*
X-01175000Y-05700000D01*
D10*
X-01175000Y-05700000D02*
X-00649000Y-05174000D01*
D10*
X-00649000Y-05174000D02*
X-00649000Y-05174000D01*
D10*
X007145000Y006573000D02*
X007145000Y006573000D01*
D10*
X007145000Y006573000D02*
X007243695Y006671695D01*
D10*
X007243695Y006671695D02*
X010675000Y010103000D01*
D10*
X010675000Y010103000D02*
X010675000Y014000000D01*
D10*
X002625000Y-14000000D02*
X003125000Y-14500000D01*
D10*
X003125000Y-14500000D02*
X003975000Y-14500000D01*
D10*
X-00375000Y-13000000D02*
X-00375000Y-13788855D01*
D10*
X-00375000Y-13788855D02*
X-00225765Y-13938090D01*
D10*
X-00225765Y-13938090D02*
X-00225765Y-13949235D01*
D10*
X-00225765Y-13949235D02*
X-00217000Y-13958000D01*
D10*
X-00217000Y-13958000D02*
X-00217000Y-13958000D01*
D10*
X000288000Y-14712000D02*
X000288000Y-14712000D01*
D10*
X000288000Y-14712000D02*
X001913000Y-14712000D01*
D10*
X001913000Y-14712000D02*
X002625000Y-14000000D01*
D10*
X003975000Y-14500000D02*
X005240259Y-15765259D01*
D10*
X005240259Y-15765259D02*
X006808524Y-15765259D01*
D10*
X006808524Y-15765259D02*
X007375000Y-15198783D01*
D10*
X007375000Y-15198783D02*
X007375000Y-14500000D01*
D10*
X012445000Y012000000D02*
X012445000Y010882171D01*
D10*
X012445000Y010882171D02*
X012461246Y010865925D01*
D10*
X012461246Y010865925D02*
X012411230Y010815909D01*
D10*
X012411230Y010815909D02*
X012411230Y010815909D01*
D10*
X012522000Y009477000D02*
X012522000Y009477000D01*
D10*
X012522000Y009477000D02*
X012858000Y009477000D01*
D10*
X012858000Y009477000D02*
X013675000Y008660000D01*
D10*
X001000000Y-01400000D02*
X001693000Y-01400000D01*
D10*
X001693000Y-01400000D02*
X001909687Y-01183313D01*
D10*
X001909687Y-01183313D02*
X001928000Y-01165000D01*
D10*
X001928000Y-01165000D02*
X001928000Y-01165000D01*
D10*
X002713000Y-01500000D02*
X002713000Y-01500000D01*
D10*
X002713000Y-01500000D02*
X004500000Y-01500000D01*
D10*
X004500000Y-01500000D02*
X004600000Y-01400000D01*
D10*
X004600000Y-01400000D02*
X008300000Y-01400000D01*
D10*
X-17000000Y-02500000D02*
X-17000000Y-05400000D01*
D10*
X-17000000Y-05400000D02*
X-18600000Y-07000000D01*
D10*
X-01825000Y-06175000D02*
X-01660505Y-06010505D01*
D10*
X-01660505Y-06010505D02*
X-01660505Y-05243466D01*
D10*
X-01660505Y-05243466D02*
X-01660505Y-04060505D01*
D10*
X-01660505Y-04060505D02*
X001000000Y-01400000D01*
D10*
X005100000Y-07890000D02*
X004954451Y-07744451D01*
D10*
X004954451Y-07744451D02*
X004954451Y-07418422D01*
D10*
X004954451Y-07418422D02*
X005068237Y-07420925D01*
D10*
X005068237Y-07420925D02*
X004944739Y-07020788D01*
D10*
X004944739Y-07020788D02*
X004894739Y-06940788D01*
D10*
X004894739Y-06940788D02*
X004709072Y-06712586D01*
D10*
X004709072Y-06712586D02*
X003906000Y-06063465D01*
D10*
X003906000Y-06063465D02*
X003906000Y-05068000D01*
D10*
X003906000Y-05068000D02*
X003906000Y-05068000D01*
D10*
X003881000Y-03040000D02*
X003881000Y-03040000D01*
D10*
X003881000Y-03040000D02*
X003763398Y-02922398D01*
D10*
X003763398Y-02922398D02*
X003584711Y-02922398D01*
D10*
X003584711Y-02922398D02*
X002451052Y-02922398D01*
D10*
X002451052Y-02922398D02*
X002369425Y-02840771D01*
D10*
X002369425Y-02840771D02*
X002305842Y-02777188D01*
D10*
X002305842Y-02777188D02*
X002305842Y-01896720D01*
D10*
X002305842Y-01896720D02*
X002802562Y-01400000D01*
D10*
X002802562Y-01400000D02*
X004600000Y-01400000D01*
D10*
X002625000Y-14000000D02*
X002625000Y-10775000D01*
D10*
X002625000Y-10775000D02*
X004567800Y-09045569D01*
D10*
X004567800Y-09045569D02*
X004660963Y-08952407D01*
D10*
X004660963Y-08952407D02*
X004910963Y-08852407D01*
D10*
X004910963Y-08852407D02*
X005013592Y-08519887D01*
D10*
X005013592Y-08519887D02*
X004952630Y-08037370D01*
D10*
X004952630Y-08037370D02*
X005100000Y-07890000D01*
D10*
X008300000Y-01400000D02*
X008722792Y-01822792D01*
D10*
X008722792Y-01822792D02*
X014622792Y-01822792D01*
D10*
X014622792Y-01822792D02*
X015800000Y-03000000D01*
D10*
X015800000Y-03000000D02*
X016683584Y-02116416D01*
D10*
X016683584Y-02116416D02*
X016683584Y000736853D01*
D10*
X016683584Y000736853D02*
X017747168Y001800438D01*
D10*
X017747168Y001800438D02*
X019800438Y001800438D01*
D10*
X019800438Y001800438D02*
X021000000Y003000000D01*
D10*
X013675000Y008660000D02*
X014100601Y008660000D01*
D10*
X014100601Y008660000D02*
X016097684Y006662917D01*
D10*
X016097684Y006662917D02*
X017337083Y006662917D01*
D10*
X017337083Y006662917D02*
X021000000Y003000000D01*
D10*
X-01825000Y-06175000D02*
X-02126823Y-05412920D01*
D10*
X-02126823Y-05412920D02*
X-02386823Y-05310920D01*
D10*
X-02386823Y-05310920D02*
X-02606000Y-05333000D01*
D10*
X-02606000Y-05333000D02*
X-02876833Y-05276344D01*
D10*
X-02876833Y-05276344D02*
X-03251177Y-05005000D01*
D10*
X-03251177Y-05005000D02*
X-04969000Y-05005000D01*
D10*
X-04969000Y-05005000D02*
X-04969000Y-05005000D01*
D10*
X-10886000Y-05731000D02*
X-10886000Y-05731000D01*
D10*
X-10886000Y-05731000D02*
X-11001755Y-05615245D01*
D10*
X-11001755Y-05615245D02*
X-11040959Y-05615245D01*
D10*
X-11040959Y-05615245D02*
X-13884755Y-05615245D01*
D10*
X-13884755Y-05615245D02*
X-17000000Y-02500000D01*
D10*
X001496300Y009000000D02*
X001496000Y009000000D01*
D10*
X001496000Y009000000D02*
X004000000Y009000000D01*
D10*
X004000000Y009000000D02*
X004000000Y009000000D01*
D10*
X008400000Y010400000D02*
X008400000Y010400000D01*
D10*
X008400000Y010400000D02*
X008451377Y010451377D01*
D10*
X008451377Y010451377D02*
X008451377Y010457232D01*
D10*
X008451377Y010457232D02*
X009555000Y011560855D01*
D10*
X009555000Y011560855D02*
X009555000Y012000000D01*
D10*
X001496300Y009000000D02*
X001350000Y008854000D01*
D10*
X001350000Y008854000D02*
X001350000Y007462000D01*
D10*
X001350000Y007462000D02*
X001350000Y007462000D01*
D10*
X-06478000Y-06096000D02*
X-06478000Y-06096000D01*
D10*
X-06478000Y-06096000D02*
X-06481133Y-06099133D01*
D10*
X-06481133Y-06099133D02*
X-06588460Y-06206460D01*
D10*
X-06588460Y-06206460D02*
X-06588460Y-08051386D01*
D10*
X-06588460Y-08051386D02*
X-05231000Y-09408846D01*
D10*
X-05231000Y-09408846D02*
X-05231000Y-11738000D01*
D10*
X-05231000Y-11738000D02*
X-05231000Y-11738000D01*
D10*
X006050050Y012500000D02*
X006050050Y009453950D01*
D10*
X006050050Y009453950D02*
X006503700Y009000000D01*
D10*
X-10975000Y017200000D02*
X-08775000Y017200000D01*
D10*
X-08775000Y017200000D02*
X-07375000Y018600000D01*
D10*
X006050050Y012500000D02*
X004864579Y013685471D01*
D10*
X004864579Y013685471D02*
X004864579Y017823421D01*
D10*
X004864579Y017823421D02*
X004687500Y018000000D01*
D10*
X006050050Y012500000D02*
X007925996Y012500000D01*
D10*
X007925996Y012500000D02*
X011425645Y015999649D01*
D10*
X011425645Y015999649D02*
X011674649Y015999649D01*
D10*
X011674649Y015999649D02*
X011675000Y016000000D01*
D10*
X-07375000Y018600000D02*
X-07250799Y018475799D01*
D10*
X-07250799Y018475799D02*
X-05426697Y018475799D01*
D10*
X-05426697Y018475799D02*
X-05422201Y018475799D01*
D10*
X-05422201Y018475799D02*
X-05420000Y018478000D01*
D10*
X-05420000Y018478000D02*
X-05420000Y018478000D01*
D10*
X004277000Y018971000D02*
X004277000Y018971000D01*
D10*
X004277000Y018971000D02*
X004277000Y018411000D01*
D10*
X004277000Y018411000D02*
X004687500Y018000000D01*
D10*
X-03635000Y009500000D02*
X-02365000Y009500000D01*
D10*
X-16755000Y009500000D02*
X-14361000Y009500000D01*
D10*
X-14361000Y009500000D02*
X-14360700Y009500000D01*
D10*
X000537500Y005500000D02*
X000430567Y005607433D01*
D10*
X000430567Y005607433D02*
X-01502670Y005607433D01*
D10*
X-01502670Y005607433D02*
X-01777710Y005882474D01*
D10*
X-01777710Y005882474D02*
X-01777710Y005993360D01*
D10*
X-01777710Y005993360D02*
X-01777710Y008912710D01*
D10*
X-01777710Y008912710D02*
X-02365000Y009500000D01*
D10*
X-07350000Y012950000D02*
X-05701865Y011301865D01*
D10*
X-05701865Y011301865D02*
X-05320220Y011301865D01*
D10*
X-05320220Y011301865D02*
X-03635000Y009616645D01*
D10*
X-03635000Y009616645D02*
X-03635000Y009500000D01*
D10*
X001287500Y017600000D02*
X002628229Y016259771D01*
D10*
X002628229Y016259771D02*
X004481599Y016259771D01*
D10*
X004481599Y016259771D02*
X004481599Y016259771D01*
D10*
X005898362Y016577663D02*
X005898362Y016577663D01*
D10*
X005898362Y016577663D02*
X005953946Y016522079D01*
D10*
X005953946Y016522079D02*
X005976025Y016500000D01*
D10*
X005976025Y016500000D02*
X008175000Y016500000D01*
D10*
X-08325000Y003500000D02*
X-07553000Y002728000D01*
D10*
X-07553000Y002728000D02*
X-07266000Y002728000D01*
D10*
X-07266000Y002728000D02*
X-07266000Y002728000D01*
D10*
X-06202000Y002609000D02*
X-06202000Y002609000D01*
D10*
X-06202000Y002609000D02*
X-06197793Y002604793D01*
D10*
X-06197793Y002604793D02*
X-06131542Y002604793D01*
D10*
X-06131542Y002604793D02*
X-04028498Y004707837D01*
D10*
X-04028498Y004707837D02*
X-04028498Y005163175D01*
D10*
X-04028498Y005163175D02*
X-04028498Y009106502D01*
D10*
X-04028498Y009106502D02*
X-03635000Y009500000D01*
D10*
X-14360700Y009500000D02*
X-13838000Y010023000D01*
D10*
X-13838000Y010023000D02*
X-12000000Y010023000D01*
D10*
X-12000000Y010023000D02*
X-12000000Y010023000D01*
D10*
X-07600000Y013800000D02*
X-07600000Y013800000D01*
D10*
X-07600000Y013800000D02*
X-07603421Y013796579D01*
D10*
X-07603421Y013796579D02*
X-07603421Y013594933D01*
D10*
X-07603421Y013594933D02*
X-07350000Y013341512D01*
D10*
X-07350000Y013341512D02*
X-07350000Y012950000D01*
D10*
X-02365000Y009500000D02*
X-02365000Y009998337D01*
D10*
X-02365000Y009998337D02*
X-00596126Y011767210D01*
D10*
X-00596126Y011767210D02*
X-00596126Y015715874D01*
D10*
X-00596126Y015715874D02*
X001287500Y017600000D01*
D10*
X005100000Y-12110000D02*
X004963055Y-12246945D01*
D10*
X004963055Y-12246945D02*
X004963055Y-12661876D01*
D10*
X004963055Y-12661876D02*
X005017570Y-12842890D01*
D10*
X005017570Y-12842890D02*
X004904515Y-13080656D01*
D10*
X004904515Y-13080656D02*
X004228091Y-13310184D01*
D10*
X004228091Y-13310184D02*
X004100000Y-13075952D01*
D10*
X004100000Y-13075952D02*
X004100000Y-12110000D01*
D10*
X016225000Y012825000D02*
X016397519Y012652481D01*
D10*
X016397519Y012652481D02*
X016629716Y012652481D01*
D10*
X016629716Y012652481D02*
X016719000Y012647000D01*
D10*
X016719000Y012647000D02*
X016730000Y012400000D01*
D10*
X016730000Y012400000D02*
X016730000Y012150000D01*
D10*
X016730000Y012150000D02*
X016730000Y011950000D01*
D10*
X016730000Y011950000D02*
X016716600Y011713985D01*
D10*
X016716600Y011713985D02*
X016440614Y011525000D01*
D10*
X016440614Y011525000D02*
X016225000Y011525000D01*
D10*
X016225000Y012825000D02*
X016309439Y012909439D01*
D10*
X016309439Y012909439D02*
X016439405Y012909439D01*
D10*
X016439405Y012909439D02*
X016862661Y013332696D01*
D10*
X016862661Y013332696D02*
X016862661Y013866699D01*
D10*
X016862661Y013866699D02*
X015166699Y013866699D01*
D10*
X015166699Y013866699D02*
X014775000Y013475000D01*
D10*
X017325000Y-06000000D02*
X017325000Y-04425000D01*
D10*
X017325000Y-04425000D02*
X017800000Y-03950000D01*
D10*
X013325000Y016000000D02*
X012325000Y015000000D01*
D10*
X012325000Y015000000D02*
X012325000Y014000000D01*
D10*
X005100000Y-12110000D02*
X005100000Y-13975000D01*
D10*
X005100000Y-13975000D02*
X005625000Y-14500000D01*
D10*
X014775000Y013475000D02*
X014250000Y014000000D01*
D10*
X014250000Y014000000D02*
X012325000Y014000000D01*
D10*
X006425000Y-05200000D02*
X006425000Y-02525000D01*
D10*
X006425000Y-02525000D02*
X006600000Y-02350000D01*
D10*
X015325000Y008660000D02*
X015325000Y010625000D01*
D10*
X015325000Y010625000D02*
X016225000Y011525000D01*
D10*
X005625000Y-14500000D02*
X006275001Y-13849999D01*
D10*
X006275001Y-13849999D02*
X006675098Y-13849999D01*
D10*
X006675098Y-13849999D02*
X008374999Y-13849999D01*
D10*
X008374999Y-13849999D02*
X009025000Y-14500000D01*
D10*
X003112500Y017600000D02*
X003112500Y018297177D01*
D10*
X003112500Y018297177D02*
X004033674Y019218351D01*
D10*
X004033674Y019218351D02*
X004122732Y019307408D01*
D10*
X004122732Y019307408D02*
X005204592Y019307408D01*
D10*
X005204592Y019307408D02*
X006512500Y018000000D01*
D10*
X-18600000Y001000000D02*
X-19000000Y000600000D01*
D10*
X-19000000Y000600000D02*
X-19000000Y-02500000D01*
D10*
X009825000Y016500000D02*
X009988260Y016663260D01*
D10*
X009988260Y016663260D02*
X012507097Y016663260D01*
D10*
X012507097Y016663260D02*
X012661740Y016663260D01*
D10*
X012661740Y016663260D02*
X013325000Y016000000D01*
D10*
X010125000Y-05900000D02*
X010125000Y-02525000D01*
D10*
X010125000Y-02525000D02*
X010300000Y-02350000D01*
D10*
X003000000Y-02350000D02*
X006600000Y-02350000D01*
D10*
X006512500Y018000000D02*
X008325000Y018000000D01*
D10*
X008325000Y018000000D02*
X009825000Y016500000D01*
D10*
X006600000Y-02350000D02*
X010300000Y-02350000D01*
D10*
X002725000Y-05900000D02*
X002725000Y-05595244D01*
D10*
X002725000Y-05595244D02*
X004598738Y-03721506D01*
D10*
X004598738Y-03721506D02*
X004946506Y-03721506D01*
D10*
X004946506Y-03721506D02*
X006425000Y-05200000D01*
D10*
X-10175000Y005500000D02*
X-08748389Y005500000D01*
D10*
X-08748389Y005500000D02*
X-06872946Y003624558D01*
D10*
X-06872946Y003624558D02*
X-06799558Y003624558D01*
D10*
X-06799558Y003624558D02*
X-06675000Y003500000D01*
D10*
X-09639300Y009500000D02*
X-10000000Y009139000D01*
D10*
X-10000000Y009139000D02*
X-10000000Y008000000D01*
D10*
X-10000000Y008000000D02*
X-10000000Y008000000D01*
D10*
X-10010000Y006400000D02*
X-10010000Y006400000D01*
D10*
X-10010000Y006400000D02*
X-10007284Y006397284D01*
D10*
X-10007284Y006397284D02*
X-10175000Y006229568D01*
D10*
X-10175000Y006229568D02*
X-10175000Y005500000D01*
D10*
X-09595000Y-02400000D02*
X-08775000Y-02400000D01*
D10*
X-08775000Y-02400000D02*
X-06175000Y-05000000D01*
D10*
X-20000000Y005500000D02*
X-20000000Y002400000D01*
D10*
X-20000000Y002400000D02*
X-18600000Y001000000D01*
D10*
X-09639300Y009500000D02*
X-09609000Y009470000D01*
D10*
X-09609000Y009470000D02*
X-07431000Y009470000D01*
D10*
X-07431000Y009470000D02*
X-07431000Y009470000D01*
D10*
X-06608000Y009681000D02*
X-06608000Y009681000D01*
D10*
X-06608000Y009681000D02*
X-06593101Y009695899D01*
D10*
X-06593101Y009695899D02*
X-06573602Y009695899D01*
D10*
X-06573602Y009695899D02*
X-06377702Y009500000D01*
D10*
X-06377702Y009500000D02*
X-04905000Y009500000D01*
D10*
X-09639300Y009500000D02*
X-09639300Y009833300D01*
D10*
X-09639300Y009833300D02*
X-10994255Y011188255D01*
D10*
X-10994255Y011188255D02*
X-11030000Y011224000D01*
D10*
X-11030000Y011224000D02*
X-11030000Y011224000D01*
D10*
X-11192000Y012102000D02*
X-11192000Y012102000D01*
D10*
X-11192000Y012102000D02*
X-11192000Y012655000D01*
D10*
X-11192000Y012655000D02*
X-12337500Y013800000D01*
D10*
X009025000Y-14500000D02*
X010000000Y-14500000D01*
D10*
X010000000Y-14500000D02*
X013200000Y-11299950D01*
D10*
X-01825000Y-09825000D02*
X-01825000Y-10322136D01*
D10*
X-01825000Y-10322136D02*
X-00968825Y-11178311D01*
D10*
X-00968825Y-11178311D02*
X-00023311Y-11178311D01*
D10*
X-00023311Y-11178311D02*
X000010000Y-11145000D01*
D10*
X000010000Y-11145000D02*
X000010000Y-11145000D01*
D10*
X000792000Y-10884000D02*
X000792000Y-10884000D01*
D10*
X000792000Y-10884000D02*
X000833198Y-10842802D01*
D10*
X000833198Y-10842802D02*
X000833198Y-10704364D01*
D10*
X000833198Y-10704364D02*
X000833198Y-07497802D01*
D10*
X000833198Y-07497802D02*
X001216000Y-07115000D01*
D10*
X001216000Y-07115000D02*
X001216000Y-07115000D01*
D10*
X002385000Y-06886000D02*
X002385000Y-06886000D01*
D10*
X002385000Y-06886000D02*
X002450789Y-06820211D01*
D10*
X002450789Y-06820211D02*
X002450789Y-06786331D01*
D10*
X002450789Y-06786331D02*
X002725000Y-06512120D01*
D10*
X002725000Y-06512120D02*
X002725000Y-05900000D01*
D10*
X010125000Y-05900000D02*
X013200000Y-08975000D01*
D10*
X013200000Y-08975000D02*
X013200000Y-11299950D01*
D10*
X-01825000Y-09825000D02*
X-01825000Y-09623496D01*
D10*
X-01825000Y-09623496D02*
X-01995645Y-09398100D01*
D10*
X-01995645Y-09398100D02*
X-02100640Y-09103610D01*
D10*
X-02100640Y-09103610D02*
X-02249017Y-08955233D01*
D10*
X-02249017Y-08955233D02*
X-02270004Y-08988996D01*
D10*
X-02270004Y-08988996D02*
X-03135963Y-08123037D01*
D10*
X-03135963Y-08123037D02*
X-03410173Y-08123037D01*
D10*
X-03410173Y-08123037D02*
X-06175000Y-05358210D01*
D10*
X-06175000Y-05358210D02*
X-06175000Y-05000000D01*
D10*
X-19000000Y-02500000D02*
X-19635096Y-03135096D01*
D10*
X-19635096Y-03135096D02*
X-19635096Y-03236624D01*
D10*
X-19635096Y-03236624D02*
X-19635096Y-07964904D01*
D10*
X-19635096Y-07964904D02*
X-18600000Y-09000000D01*
D10*
X-06675000Y003500000D02*
X-06906539Y003268461D01*
D10*
X-06906539Y003268461D02*
X-06906539Y000596221D01*
D10*
X-06906539Y000596221D02*
X-07367029Y000135731D01*
D10*
X-07367029Y000135731D02*
X-07367029Y-00540292D01*
D10*
X-07367029Y-00540292D02*
X-09226737Y-02400000D01*
D10*
X-09226737Y-02400000D02*
X-09595000Y-02400000D01*
D10*
X017325000Y-06000000D02*
X017325000Y-07175000D01*
D10*
X017325000Y-07175000D02*
X013200000Y-11299950D01*
D10*
X015325000Y008660000D02*
X015325000Y008642000D01*
D10*
X015325000Y008642000D02*
X016882525Y007084475D01*
D10*
X016882525Y007084475D02*
X016962000Y007005000D01*
D10*
X016962000Y007005000D02*
X016962000Y007005000D01*
D10*
X017800000Y-03950000D02*
X019658040Y-02091960D01*
D10*
X019658040Y-02091960D02*
X019658040Y001270182D01*
D10*
X019658040Y001270182D02*
X019658040Y001290960D01*
D10*
X019658040Y001290960D02*
X019582000Y001367000D01*
D10*
X019582000Y001367000D02*
X019582000Y001367000D01*
D10*
X-00675000Y018500000D02*
X003213861Y018500000D01*
D10*
X003213861Y018500000D02*
X004176265Y019462404D01*
D10*
X004176265Y019462404D02*
X005049596Y019462404D01*
D10*
X005049596Y019462404D02*
X006512500Y018000000D01*
D10*
X-09639300Y009500000D02*
X-08238000Y010901000D01*
D10*
X-08238000Y010901000D02*
X-08238000Y011243000D01*
D10*
X-08238000Y011243000D02*
X-08238000Y011243000D01*
D10*
X-06218000Y012430000D02*
X-06218000Y012430000D01*
D10*
X-06218000Y012430000D02*
X-06148000Y012500000D01*
D10*
X-06148000Y012500000D02*
X-06000000Y012500000D01*
D10*
X-06000000Y012500000D02*
X-03000000Y012500000D01*
D10*
X003462500Y005500000D02*
X003736485Y005226515D01*
D10*
X003736485Y005226515D02*
X003736485Y005118008D01*
D10*
X003736485Y005118008D02*
X005056493Y003798000D01*
D10*
X005056493Y003798000D02*
X006276000Y003798000D01*
D10*
X006276000Y003798000D02*
X006276000Y003798000D01*
D10*
X006545000Y002880000D02*
X006545000Y002880000D01*
D10*
X006545000Y002880000D02*
X006381827Y002716827D01*
D10*
X006381827Y002716827D02*
X006374726Y002716827D01*
D10*
X006374726Y002716827D02*
X005691000Y002033101D01*
D10*
X005691000Y002033101D02*
X005691000Y-00998000D01*
D10*
X005691000Y-00998000D02*
X005691000Y-00998000D01*
D10*
X005949000Y-01762000D02*
X005949000Y-01762000D01*
D10*
X005949000Y-01762000D02*
X005979708Y-01792708D01*
D10*
X005979708Y-01792708D02*
X006137557Y-01792708D01*
D10*
X006137557Y-01792708D02*
X006600000Y-02255150D01*
D10*
X006600000Y-02255150D02*
X006600000Y-02350000D01*
D10*
X-09595000Y-02400000D02*
X-09595000Y-01917601D01*
D10*
X-09595000Y-01917601D02*
X-10716007Y-00796595D01*
D10*
X-10716007Y-00796595D02*
X-13434477Y-00796595D01*
D10*
X-13434477Y-00796595D02*
X-13455463Y-00817581D01*
D10*
X-13455463Y-00817581D02*
X-14766000Y-02128118D01*
D10*
X-14766000Y-02128118D02*
X-14766000Y-04020000D01*
D10*
X-14766000Y-04020000D02*
X-14766000Y-04020000D01*
D10*
X-12337500Y013800000D02*
X-09270667Y013800000D01*
D10*
X-09270667Y013800000D02*
X-08386000Y014684667D01*
D10*
X-08386000Y014684667D02*
X-08386000Y014989000D01*
D10*
X-08386000Y014989000D02*
X-04175000Y019200000D01*
D10*
X-01902000Y-10802000D02*
X-01902000Y-10802000D01*
D10*
X-01902000Y-10802000D02*
X-01895383Y-10795383D01*
D10*
X-01895383Y-10795383D02*
X-01825000Y-10725000D01*
D10*
X-01825000Y-10725000D02*
X-01825000Y-09825000D01*
D10*
X-18000000Y005500000D02*
X-18000000Y007855000D01*
D10*
X-18000000Y007855000D02*
X-19645000Y009500000D01*
D10*
X-09650000Y012000000D02*
X-09903080Y011746920D01*
D10*
X-09903080Y011746920D02*
X-13044916Y011746920D01*
D10*
X-13044916Y011746920D02*
X-13209920Y011746920D01*
D10*
X-13209920Y011746920D02*
X-15262500Y013800000D01*
D10*
X-09650000Y012000000D02*
X-09650000Y011866122D01*
D10*
X-09650000Y011866122D02*
X-09029344Y011245466D01*
D10*
X-09029344Y011245466D02*
X-08945466Y011245466D01*
D10*
X-08945466Y011245466D02*
X-08900000Y011200000D01*
D10*
X-08900000Y011200000D02*
X-08900000Y011200000D01*
D10*
X-08200000Y008200000D02*
X-08200000Y008200000D01*
D10*
X-08200000Y008200000D02*
X-08200000Y007470000D01*
D10*
X-08200000Y007470000D02*
X-07230000Y006500000D01*
D10*
X-19645000Y009500000D02*
X-19563000Y009500000D01*
D10*
X-19563000Y009500000D02*
X-15262500Y013800000D01*
D10*
X-10865000Y-02400000D02*
X-10865000Y-01284000D01*
D10*
X-10865000Y-01284000D02*
X-10959493Y-01189507D01*
D10*
X-10959493Y-01189507D02*
X-11011000Y-01138000D01*
D10*
X-11011000Y-01138000D02*
X-11011000Y-01138000D01*
D10*
X-06395000Y001853000D02*
X-06395000Y001853000D01*
D10*
X-06395000Y001853000D02*
X-04802498Y003445502D01*
D10*
X-04802498Y003445502D02*
X011189594Y003445502D01*
D10*
X011189594Y003445502D02*
X011345502Y003445502D01*
D10*
X011345502Y003445502D02*
X013200000Y005299950D01*
D10*
X015975000Y000500000D02*
X015975000Y001975000D01*
D10*
X015975000Y001975000D02*
X017000000Y003000000D01*
D10*
X017625000Y000500000D02*
X017800000Y000325000D01*
D10*
X017800000Y000325000D02*
X017800000Y-02050000D01*
D10*
X017800000Y-02050000D02*
X017666055Y-02183945D01*
D10*
X017666055Y-02183945D02*
X017666055Y-02243610D01*
D10*
X017666055Y-02243610D02*
X015675000Y-04234665D01*
D10*
X015675000Y-04234665D02*
X015675000Y-06000000D01*
D10*
X005600000Y-07890000D02*
X005600000Y-08794000D01*
D10*
X005600000Y-08794000D02*
X005922000Y-09116000D01*
D10*
X005922000Y-09116000D02*
X005922000Y-09116000D01*
D10*
X011924463Y-06439111D02*
X011924463Y-06439111D01*
D10*
X011924463Y-06439111D02*
X012053505Y-06310069D01*
D10*
X012053505Y-06310069D02*
X012363574Y-06000000D01*
D10*
X012363574Y-06000000D02*
X015675000Y-06000000D01*
D10*
X008475000Y001500000D02*
X009212000Y002237000D01*
D10*
X009212000Y002237000D02*
X009212000Y002577000D01*
D10*
X009212000Y002577000D02*
X009212000Y002577000D01*
D10*
X009212000Y003820000D02*
X009212000Y003820000D01*
D10*
X009212000Y003820000D02*
X009165306Y003866694D01*
D10*
X009165306Y003866694D02*
X009146376Y003866694D01*
D10*
X009146376Y003866694D02*
X008706070Y004307000D01*
D10*
X008706070Y004307000D02*
X005026000Y004307000D01*
D10*
X005026000Y004307000D02*
X005026000Y004307000D01*
D10*
X-00099000Y-00126000D02*
X-00099000Y-00126000D01*
D10*
X-00099000Y-00126000D02*
X-00122047Y-00149047D01*
D10*
X-00122047Y-00149047D02*
X-00178091Y-00149047D01*
D10*
X-00178091Y-00149047D02*
X-00246044Y-00217000D01*
D10*
X-00246044Y-00217000D02*
X-01898000Y-00217000D01*
D10*
X-01898000Y-00217000D02*
X-01898000Y-00217000D01*
D10*
X010125000Y001500000D02*
X010300000Y001325000D01*
D10*
X010300000Y001325000D02*
X010300000Y-00450000D01*
D10*
X006100000Y-07890000D02*
X006100000Y-07830373D01*
D10*
X006100000Y-07830373D02*
X006404249Y-07526124D01*
D10*
X006404249Y-07526124D02*
X006461876Y-07526124D01*
D10*
X006461876Y-07526124D02*
X006537000Y-07451000D01*
D10*
X006537000Y-07451000D02*
X006537000Y-07451000D01*
D10*
X007400000Y-06800000D02*
X007400000Y-06800000D01*
D10*
X007400000Y-06800000D02*
X007575000Y-06800000D01*
D10*
X007575000Y-06800000D02*
X008475000Y-05900000D01*
D10*
X010300000Y-00450000D02*
X011050000Y-01200000D01*
D10*
X011050000Y-01200000D02*
X011200000Y-01200000D01*
D10*
X011200000Y-01200000D02*
X011200000Y-01200000D01*
D10*
X009654000Y-04345000D02*
X009654000Y-04345000D01*
D10*
X009654000Y-04345000D02*
X009623085Y-04375915D01*
D10*
X009623085Y-04375915D02*
X008475000Y-05524000D01*
D10*
X008475000Y-05524000D02*
X008475000Y-05900000D01*
D10*
X004775000Y001500000D02*
X004105419Y002169581D01*
D10*
X004105419Y002169581D02*
X004073867Y002169581D01*
D10*
X004073867Y002169581D02*
X000889874Y002169581D01*
D10*
X000889874Y002169581D02*
X000865944Y002145650D01*
D10*
X000865944Y002145650D02*
X000900000Y002200000D01*
D10*
X000900000Y002200000D02*
X000733923Y001934961D01*
D10*
X000733923Y001934961D02*
X-05082039Y001934961D01*
D10*
X-05082039Y001934961D02*
X-06621000Y000396000D01*
D10*
X-06621000Y000396000D02*
X-06621000Y000396000D01*
D10*
X-07820000Y-00336000D02*
X-07820000Y-00336000D01*
D10*
X-07820000Y-00336000D02*
X-07899538Y-00256462D01*
D10*
X-07899538Y-00256462D02*
X-07928971Y-00256462D01*
D10*
X-07928971Y-00256462D02*
X-17722462Y-00256462D01*
D10*
X-17722462Y-00256462D02*
X-18393000Y-00927000D01*
D10*
X-18393000Y-00927000D02*
X-18393000Y-00927000D01*
D10*
X006425000Y001500000D02*
X006425000Y-00275000D01*
D10*
X006425000Y-00275000D02*
X006600000Y-00450000D01*
D10*
X006600000Y-00450000D02*
X007094000Y000044000D01*
D10*
X007094000Y000044000D02*
X007094000Y000089000D01*
D10*
X007094000Y000089000D02*
X007094000Y000089000D01*
D10*
X007620000Y-04340000D02*
X007620000Y-04340000D01*
D10*
X007620000Y-04340000D02*
X007600259Y-04359741D01*
D10*
X007600259Y-04359741D02*
X007482177Y-04477823D01*
D10*
X007482177Y-04477823D02*
X007482177Y-05309836D01*
D10*
X007482177Y-05309836D02*
X006882178Y-05909835D01*
D10*
X006882178Y-05909835D02*
X006730888Y-05909835D01*
D10*
X006730888Y-05909835D02*
X005484835Y-05909835D01*
D10*
X005484835Y-05909835D02*
X004775000Y-05200000D01*
D10*
X006100000Y-12110000D02*
X006902513Y-11307487D01*
D10*
X006902513Y-11307487D02*
X006902513Y-07442507D01*
D10*
X006902513Y-07442507D02*
X006902513Y-07327513D01*
D10*
X006902513Y-07327513D02*
X004775000Y-05200000D01*
D10*
X001375000Y001500000D02*
X-04508000Y001500000D01*
D10*
X-04508000Y001500000D02*
X-06011000Y-00003000D01*
D10*
X-06011000Y-00003000D02*
X-06011000Y-00003000D01*
D10*
X-07426000Y001438000D02*
X-07426000Y001438000D01*
D10*
X-07426000Y001438000D02*
X-07497405Y001509405D01*
D10*
X-07497405Y001509405D02*
X-07627824Y001509405D01*
D10*
X-07627824Y001509405D02*
X-08718419Y002600000D01*
D10*
X-08718419Y002600000D02*
X-18425000Y002600000D01*
D10*
X-18425000Y002600000D02*
X-18425000Y002600000D01*
D10*
X003025000Y001500000D02*
X003000000Y001475000D01*
D10*
X003000000Y001475000D02*
X003000000Y-00450000D01*
D10*
X003000000Y-00450000D02*
X003000000Y-00699726D01*
D10*
X003000000Y-00699726D02*
X000900000Y-02799726D01*
D10*
X000900000Y-02799726D02*
X000900000Y-02972582D01*
D10*
X000900000Y-02972582D02*
X000900000Y-05725000D01*
D10*
X000900000Y-05725000D02*
X001075000Y-05900000D01*
D10*
X005600000Y-12110000D02*
X005431881Y-11941881D01*
D10*
X005431881Y-11941881D02*
X005511749Y-11445494D01*
D10*
X005511749Y-11445494D02*
X005429867Y-11180199D01*
D10*
X005429867Y-11180199D02*
X005279867Y-11080199D01*
D10*
X005279867Y-11080199D02*
X005017513Y-10963983D01*
D10*
X005017513Y-10963983D02*
X004603861Y-10750000D01*
D10*
X004603861Y-10750000D02*
X003570000Y-10750000D01*
D10*
X003570000Y-10750000D02*
X003570000Y-10750000D01*
D10*
X001876000Y-10675000D02*
X001876000Y-10675000D01*
D10*
X001876000Y-10675000D02*
X001860598Y-10659598D01*
D10*
X001860598Y-10659598D02*
X001860598Y-10544622D01*
D10*
X001860598Y-10544622D02*
X001860598Y-06685598D01*
D10*
X001860598Y-06685598D02*
X001075000Y-05900000D01*
D10*
X-05825000Y019200000D02*
X-05877854Y019252854D01*
D10*
X-05877854Y019252854D02*
X-08302818Y019252854D01*
D10*
X-08302818Y019252854D02*
X-08372146Y019252854D01*
D10*
X-08372146Y019252854D02*
X-09025000Y018600000D01*
D10*
X-01095000Y015500000D02*
X-01640174Y016045174D01*
D10*
X-01640174Y016045174D02*
X-01640174Y019014761D01*
D10*
X-01640174Y019014761D02*
X-02291054Y019812409D01*
D10*
X-02291054Y019812409D02*
X-03560660Y019812409D01*
D10*
X-03560660Y019812409D02*
X-03784344Y019898112D01*
D10*
X-03784344Y019898112D02*
X-04034344Y019899112D01*
D10*
X-04034344Y019899112D02*
X-04284344Y019899112D01*
D10*
X-04284344Y019899112D02*
X-04534344Y019899112D01*
D10*
X-04534344Y019899112D02*
X-04731344Y019888112D01*
D10*
X-04731344Y019888112D02*
X-04785789Y019776255D01*
D10*
X-04785789Y019776255D02*
X-05248745Y019776255D01*
D10*
X-05248745Y019776255D02*
X-05825000Y019200000D01*
D10*
X-03635000Y015500000D02*
X-03635000Y015165000D01*
D10*
X-03635000Y015165000D02*
X-04988700Y013811300D01*
D10*
X-04988700Y013811300D02*
X-05000000Y013800000D01*
D10*
X-05000000Y013800000D02*
X-05000000Y013800000D01*
D10*
X-03500000Y005800000D02*
X-03500000Y005800000D01*
D10*
X-03500000Y005800000D02*
X-03500000Y005825000D01*
D10*
X-03500000Y005825000D02*
X-02825000Y006500000D01*
D10*
X001949950Y012500000D02*
X000211579Y010761579D01*
D10*
X000211579Y010761579D02*
X000211579Y010720383D01*
D10*
X000211579Y010720383D02*
X000211579Y007886579D01*
D10*
X000211579Y007886579D02*
X-01175000Y006500000D01*
D10*
X-04905000Y015500000D02*
X-04459445Y015500000D01*
D10*
X-04459445Y015500000D02*
X-04244235Y015715210D01*
D10*
X-04244235Y015715210D02*
X-04182890Y015715210D01*
D10*
X-04182890Y015715210D02*
X-04306825Y015773754D01*
D10*
X-04306825Y015773754D02*
X-04306825Y015773754D01*
D10*
X000367000Y013953000D02*
X000367000Y013953000D01*
D10*
X000367000Y013953000D02*
X000497000Y013953000D01*
D10*
X000497000Y013953000D02*
X001949950Y012500000D01*
D10*
X-02365000Y015500000D02*
X-02325000Y015540000D01*
D10*
X-02325000Y015540000D02*
X-02325000Y018500000D01*
D10*
X-01095000Y009500000D02*
X-01095000Y010459612D01*
D10*
X-01095000Y010459612D02*
X-00889729Y010664883D01*
D10*
X-00889729Y010664883D02*
X-00889729Y010674271D01*
D10*
X-00889729Y010674271D02*
X-00863000Y010701000D01*
D10*
X-00863000Y010701000D02*
X-00863000Y010701000D01*
D10*
X-08711001Y014893280D02*
X-08711001Y014893280D01*
D10*
X-08711001Y014893280D02*
X-10318280Y014893280D01*
D10*
X-10318280Y014893280D02*
X-12625000Y017200000D01*
D10*
X-04770000Y005550000D02*
X-07071731Y007851731D01*
D10*
X-07071731Y007851731D02*
X-07071731Y010665582D01*
D10*
X-07071731Y010665582D02*
X-07071731Y010771731D01*
D10*
X-07071731Y010771731D02*
X-07350000Y011050000D01*
D10*
X-04770000Y005550000D02*
X-08415697Y005550000D01*
D10*
X-08415697Y005550000D02*
X-09726821Y006861124D01*
D10*
X-09726821Y006861124D02*
X-10463876Y006861124D01*
D10*
X-10463876Y006861124D02*
X-11825000Y005500000D01*
D55*
X-03700000Y-06494000D03*
D55*
X-04983000Y-07011000D03*
D55*
X-05174000Y-08808000D03*
D55*
X003564000Y-08598000D03*
D55*
X001404000Y-09601000D03*
D55*
X003564000Y-08598000D03*
D55*
X-03067000Y-08829000D03*
D55*
X003565000Y-07303000D03*
D55*
X-00174999Y-06067227D03*
D55*
X-04424000Y-07576000D03*
D55*
X-01919000Y-14060000D03*
D55*
X000101447Y-05010661D03*
D55*
X001287000Y-04084000D03*
D55*
X003370000Y-03286000D03*
D55*
X014873000Y010864000D03*
D55*
X-00100000Y-09800000D03*
D55*
X-07085000Y-10816000D03*
D55*
X-10617000Y-12617000D03*
D55*
X-11586000Y-03924000D03*
D55*
X000062000Y-06814000D03*
D55*
X007026000Y005161000D03*
D55*
X-00750000Y-10823000D03*
D55*
X-01032000Y-12240000D03*
D55*
X-09984000Y-06157000D03*
D55*
X-09645000Y-05391000D03*
D55*
X-03205000Y-07788000D03*
D55*
X-06958000Y-07113000D03*
D55*
X-00649000Y-05174000D03*
D55*
X007145000Y006573000D03*
D55*
X-00217000Y-13958000D03*
D55*
X000288000Y-14712000D03*
D55*
X012411230Y010815909D03*
D55*
X012522000Y009477000D03*
D55*
X001928000Y-01165000D03*
D55*
X002713000Y-01500000D03*
D55*
X003906000Y-05068000D03*
D55*
X003881000Y-03040000D03*
D55*
X-04969000Y-05005000D03*
D55*
X-10886000Y-05731000D03*
D55*
X004000000Y009000000D03*
D55*
X008400000Y010400000D03*
D55*
X001350000Y007462000D03*
D55*
X-06478000Y-06096000D03*
D55*
X-05231000Y-11738000D03*
D55*
X-05420000Y018478000D03*
D55*
X004277000Y018971000D03*
D55*
X004481599Y016259771D03*
D55*
X005898362Y016577663D03*
D55*
X-07266000Y002728000D03*
D55*
X-06202000Y002609000D03*
D55*
X-12000000Y010023000D03*
D55*
X-07600000Y013800000D03*
D55*
X-10000000Y008000000D03*
D55*
X-10010000Y006400000D03*
D55*
X-07431000Y009470000D03*
D55*
X-06608000Y009681000D03*
D55*
X-11030000Y011224000D03*
D55*
X-11192000Y012102000D03*
D55*
X000010000Y-11145000D03*
D55*
X000792000Y-10884000D03*
D55*
X001216000Y-07115000D03*
D55*
X002385000Y-06886000D03*
D55*
X016962000Y007005000D03*
D55*
X019582000Y001367000D03*
D55*
X-08238000Y011243000D03*
D55*
X-06218000Y012430000D03*
D55*
X006276000Y003798000D03*
D55*
X006545000Y002880000D03*
D55*
X005691000Y-00998000D03*
D55*
X005949000Y-01762000D03*
D55*
X-14766000Y-04020000D03*
D55*
X-01902000Y-10802000D03*
D55*
X-08900000Y011200000D03*
D55*
X-08200000Y008200000D03*
D55*
X-11011000Y-01138000D03*
D55*
X-06395000Y001853000D03*
D55*
X005922000Y-09116000D03*
D55*
X011924463Y-06439111D03*
D55*
X009212000Y002577000D03*
D55*
X009212000Y003820000D03*
D55*
X005026000Y004307000D03*
D55*
X-00099000Y-00126000D03*
D55*
X-01898000Y-00217000D03*
D55*
X006537000Y-07451000D03*
D55*
X007400000Y-06800000D03*
D55*
X011200000Y-01200000D03*
D55*
X009654000Y-04345000D03*
D55*
X-06621000Y000396000D03*
D55*
X-07820000Y-00336000D03*
D55*
X-18393000Y-00927000D03*
D55*
X007094000Y000089000D03*
D55*
X007620000Y-04340000D03*
D55*
X-06011000Y-00003000D03*
D55*
X-07426000Y001438000D03*
D55*
X-18425000Y002600000D03*
D55*
X003570000Y-10750000D03*
D55*
X001876000Y-10675000D03*
D55*
X-05000000Y013800000D03*
D55*
X-03500000Y005800000D03*
D55*
X-04306825Y015773754D03*
D55*
X000367000Y013953000D03*
D55*
X-00863000Y010701000D03*
D55*
X-08711001Y014893280D03*
M02*