%TF.GenerationSoftware,tscircuit,circuit-json-to-gerber,0.0.96*%
%TF.CreationDate,2026-08-31T02:33:00.495Z*%
%TF.SameCoordinates,Original*%
%TF.FileFunction,Soldermask,Top*%
%TF.FilePolarity,Negative*%
%FSLAX46Y46*%
%MOMM*%
G04 Gerber Fmt 4.6, Leading zero omitted, Abs format (unit mm)*
G04 Created by tscircuit (builder) date 2026-08-31T02:33:00.495Z*
G01*
%LPD*%
G75*
G04 APERTURE MACROS START*
%AMHORZPILL*
0 Horizontal pill (stadium) shape macro*
0 Parameters:*
0 $1 = Total width*
0 $2 = Total height*
0 $3 = Circle diameter (equal to height)*
0 $4 = Circle center offset
0 21 = Center Line(Exposure, Width, Height, Center X, Center Y, Rotation)*
0 1 = Circle(Exposure, Diameter, Center X, Center Y, Rotation)*
21,1,$1-$3,$2,0.0,0.0,0.0*
1,1,$3,0.0-$4,0.0*
1,1,$3,$4,0.0*%
%AMVERTPILL*
0 Vertical pill (stadium) shape macro*
0 Parameters:*
0 $1 = Total width*
0 $2 = Total height*
0 $3 = Circle diameter (equal to width)*
0 $4 = Circle center offset
0 21 = Center Line(Exposure, Width, Height, Center X, Center Y, Rotation)*
21,1,$1,$2-$3,0.0,0.0,0.0*
1,1,$3,0.0,0.0-$4*
1,1,$3,0.0,$4*%
%AMROUNDRECT*
0 Rectangle with rounded corners*
0 $1 Corner radius*
0 $2 $3 $4 $5 $6 $7 $8 $9 X,Y Position of each corner*
0 Polygon box body*
4,1,4,$2,$3,$4,$5,$6,$7,$8,$9,$2,$3,0*
0 Circles for rounded corners*
1,1,$1+$1,$2,$3*
1,1,$1+$1,$4,$5*
1,1,$1+$1,$6,$7*
1,1,$1+$1,$8,$9*
0 Rectangles between the rounded corners*
20,1,$1+$1,$2,$3,$4,$5,0*
20,1,$1+$1,$4,$5,$6,$7,0*
20,1,$1+$1,$6,$7,$8,$9,0*
20,1,$1+$1,$8,$9,$2,$3,0*%
G04 APERTURE MACROS END*
G04 aperture START LIST*
%ADD10C,0.800000*%
%ADD11C,0.200000*%
%ADD12C,0.500000*%
%ADD13C,0.175000*%
%ADD14C,0.150000*%
%ADD15C,0.400000*%
%ADD16C,0.450000*%
%ADD17C,0.375000*%
%ADD18C,0.225000*%
%ADD19C,0.350000*%
%ADD20C,0.275000*%
%ADD21C,0.250000*%
%ADD22C,0.475000*%
%ADD23C,0.187500*%
%ADD24C,0.399999*%
%ADD25C,0.525000*%
%ADD26C,0.599999*%
%ADD27C,0.650011*%
%ADD28C,0.550000*%
%ADD29C,0.775000*%
%ADD30C,0.750000*%
%ADD31C,0.725000*%
%ADD32C,0.599999*%
%ADD33C,0.650000*%
%ADD34C,0.300000*%
%ADD35C,0.425000*%
%ADD36C,0.600000*%
%ADD37C,1.190100*%
%ADD38C,2.000000*%
%ADD39C,1.000000*%
%ADD40C,1.500000*%
%ADD41C,1.675000*%
%ADD42C,0.437500*%
%ADD43C,0.325000*%
%ADD44C,0.312500*%
%ADD45C,0.280010*%
%ADD46C,1.600000*%
%ADD47C,0.046800*%
%ADD48C,0.063000*%
%ADD49R,1.190100X1.728000*%
%ADD50R,0.833070X1.209600*%
%ADD51C,0.054000*%
%ADD52R,2.047494X2.240991*%
%ADD53R,1.433246X1.568694*%
%ADD54R,0.999998X0.650011*%
%ADD55R,0.699999X0.455008*%
%ADD56R,0.800000X0.950000*%
%ADD57R,0.560000X0.665000*%
%ADD58C,0.120000*%
%ADD59C,0.036000*%
%ADD60ROUNDRECT,0.075000X-0.460000X0.225000X0.460000X0.225000X0.460000X-0.225000X-0.460000X-0.225000*%
%ADD61R,0.749000X0.420000*%
%ADD62C,0.100000*%
%ADD63C,0.045000*%
%ADD64R,2.499995X3.199994*%
%ADD65R,1.749996X2.239996*%
%ADD66C,0.599999*%
%ADD67R,1.900000X2.500000*%
%ADD68R,1.330000X1.750000*%
%ADD69R,2.062500X1.539000*%
%ADD70R,1.443750X1.077300*%
%ADD71R,0.950000X0.800000*%
%ADD72R,0.665000X0.560000*%
%ADD73R,1.025000X1.400000*%
%ADD74R,0.717500X0.980000*%
%ADD75R,1.750000X1.125000*%
%ADD76R,1.225000X0.787500*%
%ADD77R,1.125000X1.750000*%
%ADD78R,0.787500X1.225000*%
%ADD79R,1.190092X1.727987*%
%ADD80R,0.833064X1.209591*%
%ADD81C,0.399999*%
%ADD82C,0.090000*%
%ADD83C,0.280010*%
%ADD84ROUNDRECT,0.081250X-0.418750X0.243750X0.418750X0.243750X0.418750X-0.243750X-0.418750X-0.243750*%
%ADD85R,0.700000X0.455000*%
%ADD86R,0.600000X0.400000*%
%ADD87R,0.420000X0.280000*%
%ADD88C,0.588010*%
%ADD89R,4.600000X2.800000*%
%ADD90R,3.220000X1.960000*%
%ADD91R,1.800000X1.800000*%
%ADD92C,1.800000*%
%ADD93C,2.200000*%
%ADD94C,1.000000*%
%ADD95C,0.700000*%
%ADD96C,1.200000*%
%ADD97C,0.840000*%
%ADD98C,0.650000*%
%ADD99C,0.800000*%
%ADD100C,0.300000*%
%ADD101C,0.001000*%
%TD*%
G04 aperture END LIST*
D46*
X-18000000Y011000000D03*
D46*
X-16000000Y011000000D03*
D49*
X-15945000Y007000000D03*
D49*
X-13055000Y007000000D03*
D52*
X-10808692Y013700000D03*
D52*
X-15991308Y013700000D03*
D54*
X-09000002Y008650040D03*
D54*
X-09000002Y010549960D03*
D54*
X-10999998Y009600000D03*
D56*
X-11325000Y005500000D03*
D56*
X-09675000Y005500000D03*
D60*
%LR180*%
X-05770000Y005050000D03*
%LR0*%
D60*
%LR180*%
X-05770000Y006950000D03*
%LR0*%
D60*
%LR180*%
X-08230000Y006000000D03*
%LR0*%
D64*
X-02000000Y012500000D03*
D26*
X-05499993Y010595000D03*
X-05499993Y010595000D02*
X-04499995Y010595000D01*
X-04499995Y010595000D03*
D26*
X-05499993Y011865000D03*
X-05499993Y011865000D02*
X-04499995Y011865000D01*
X-04499995Y011865000D03*
D26*
X-05499993Y013135000D03*
X-05499993Y013135000D02*
X-04499995Y013135000D01*
X-04499995Y013135000D03*
D26*
X000499995Y010595000D03*
X000499995Y010595000D02*
X001499993Y010595000D01*
X001499993Y010595000D03*
D26*
X000499995Y011865000D03*
X000499995Y011865000D02*
X001499993Y011865000D01*
X001499993Y011865000D03*
D26*
X000499995Y013135000D03*
X000499995Y013135000D02*
X001499993Y013135000D01*
X001499993Y013135000D03*
D26*
X-05499993Y014405000D03*
X-05499993Y014405000D02*
X-04499995Y014405000D01*
X-04499995Y014405000D03*
D26*
X000499995Y014405000D03*
X000499995Y014405000D02*
X001499993Y014405000D01*
X001499993Y014405000D03*
D67*
X004749950Y014000000D03*
D67*
X008850050Y014000000D03*
D101*
G36*
X010534950Y006730500D02*
X008472450Y006730500D01*
X008472450Y008269500D01*
X010534950Y008269500D01*
X010534950Y006730500D01*
G37*
D101*
G36*
X005527550Y006730500D02*
X003465050Y006730500D01*
X003465050Y008269500D01*
X005527550Y008269500D01*
X005527550Y006730500D01*
G37*
D56*
X-02825000Y007000000D03*
D56*
X-01175000Y007000000D03*
D56*
X003875000Y009800000D03*
D56*
X005525000Y009800000D03*
D56*
X000175000Y007200000D03*
D56*
X001825000Y007200000D03*
D71*
X-06900000Y012275000D03*
D71*
X-06900000Y013925000D03*
D73*
X010887500Y014000000D03*
D73*
X012712500Y014000000D03*
D73*
X008287500Y016500000D03*
D73*
X010112500Y016500000D03*
D56*
X-05675000Y008500000D03*
D56*
X-07325000Y008500000D03*
D56*
X011575000Y017000000D03*
D56*
X013225000Y017000000D03*
D56*
X002775000Y011500000D03*
D56*
X004425000Y011500000D03*
D71*
X002800000Y012945000D03*
D71*
X002800000Y014595000D03*
D75*
X-03600000Y016837500D03*
D75*
X-03600000Y019762500D03*
D77*
X-05637500Y016500000D03*
D77*
X-08562500Y016500000D03*
D79*
X004554994Y005000000D03*
D79*
X007445006Y005000000D03*
D56*
X009175000Y010000000D03*
D56*
X010825000Y010000000D03*
D24*
X-02475106Y-10224989D03*
X-02475106Y-10224989D02*
X-02475106Y-09424991D01*
X-02475106Y-09424991D03*
D24*
X-01825120Y-10224989D03*
X-01825120Y-10224989D02*
X-01825120Y-09424991D01*
X-01825120Y-09424991D03*
D24*
X-01174880Y-10224989D03*
X-01174880Y-10224989D02*
X-01174880Y-09424991D01*
X-01174880Y-09424991D03*
D24*
X-00524894Y-10224989D03*
X-00524894Y-10224989D02*
X-00524894Y-09424991D01*
X-00524894Y-09424991D03*
D24*
X-00524894Y-06575009D03*
X-00524894Y-06575009D02*
X-00524894Y-05775011D01*
X-00524894Y-05775011D03*
D24*
X-01174880Y-06575009D03*
X-01174880Y-06575009D02*
X-01174880Y-05775011D01*
X-01174880Y-05775011D03*
D24*
X-01825120Y-06575009D03*
X-01825120Y-06575009D02*
X-01825120Y-05775011D01*
X-01825120Y-05775011D03*
D24*
X-02475106Y-06575009D03*
X-02475106Y-06575009D02*
X-02475106Y-05775011D01*
X-02475106Y-05775011D03*
D71*
X-09500000Y-14325000D03*
D71*
X-09500000Y-12675000D03*
D56*
X-05225000Y-13000000D03*
D56*
X-03575000Y-13000000D03*
D56*
X-02225000Y-13800000D03*
D56*
X-00575000Y-13800000D03*
D56*
X000975000Y-14000000D03*
D56*
X002625000Y-14000000D03*
D56*
X-01175000Y-12000000D03*
D56*
X000475000Y-12000000D03*
D56*
X-01825000Y-03800000D03*
D56*
X-03475000Y-03800000D03*
D45*
X004100002Y-12779979D03*
X004100002Y-12779979D02*
X004100002Y-11439977D01*
X004100002Y-11439977D03*
D45*
X004600128Y-12779979D03*
X004600128Y-12779979D02*
X004600128Y-11439977D01*
X004600128Y-11439977D03*
D45*
X005100000Y-12779979D03*
X005100000Y-12779979D02*
X005100000Y-11439977D01*
X005100000Y-11439977D03*
D45*
X005600126Y-12779979D03*
X005600126Y-12779979D02*
X005600126Y-11439977D01*
X005600126Y-11439977D03*
D45*
X006099998Y-12779979D03*
X006099998Y-12779979D02*
X006099998Y-11439977D01*
X006099998Y-11439977D03*
D45*
X004100002Y-08560023D03*
X004100002Y-08560023D02*
X004100002Y-07220021D01*
X004100002Y-07220021D03*
D45*
X004600128Y-08560023D03*
X004600128Y-08560023D02*
X004600128Y-07220021D01*
X004600128Y-07220021D03*
D45*
X005100000Y-08560023D03*
X005100000Y-08560023D02*
X005100000Y-07220021D01*
X005100000Y-07220021D03*
D45*
X005600126Y-08560023D03*
X005600126Y-08560023D02*
X005600126Y-07220021D01*
X005600126Y-07220021D03*
D45*
X006099998Y-08560023D03*
X006099998Y-08560023D02*
X006099998Y-07220021D01*
X006099998Y-07220021D03*
D71*
X007700000Y-09175000D03*
D71*
X007700000Y-10825000D03*
D71*
X009700000Y-09175000D03*
D71*
X009700000Y-10825000D03*
D84*
%LR180*%
X003000000Y-02350000D03*
%LR0*%
D84*
%LR180*%
X003000000Y-00450000D03*
%LR0*%
D84*
%LR180*%
X001000000Y-01400000D03*
%LR0*%
D84*
%LR180*%
X006600000Y-01750000D03*
%LR0*%
D84*
%LR180*%
X006600000Y000150000D03*
%LR0*%
D84*
%LR180*%
X004600000Y-00800000D03*
%LR0*%
D84*
%LR180*%
X010300000Y-02350000D03*
%LR0*%
D84*
%LR180*%
X010300000Y-00450000D03*
%LR0*%
D84*
%LR180*%
X008300000Y-01400000D03*
%LR0*%
D84*
%LR180*%
X018000000Y-04450000D03*
%LR0*%
D84*
%LR180*%
X018000000Y-02550000D03*
%LR0*%
D84*
%LR180*%
X016000000Y-03500000D03*
%LR0*%
D56*
X001375000Y001500000D03*
D56*
X003025000Y001500000D03*
D56*
X004775000Y001900000D03*
D56*
X006425000Y001900000D03*
D56*
X008475000Y002100000D03*
D56*
X010125000Y002100000D03*
D56*
X015975000Y000500000D03*
D56*
X017625000Y000500000D03*
D56*
X001675000Y-05900000D03*
D56*
X003325000Y-05900000D03*
D56*
X004775000Y-05200000D03*
D56*
X006425000Y-05200000D03*
D56*
X008475000Y-05900000D03*
D56*
X010125000Y-05900000D03*
D56*
X015675000Y-06000000D03*
D56*
X017325000Y-06000000D03*
D86*
X014275000Y013775000D03*
D86*
X014275000Y013125000D03*
D86*
X014275000Y012475000D03*
D86*
X014275000Y011825000D03*
D86*
X015725000Y011825000D03*
D86*
X015725000Y012475000D03*
D86*
X015725000Y013125000D03*
D86*
X015725000Y013775000D03*
D56*
X015825000Y015500000D03*
D56*
X014175000Y015500000D03*
D88*
X-09595000Y-03006049D03*
X-09595000Y-03006049D02*
X-09595000Y-01794063D01*
X-09595000Y-01794063D03*
D88*
X-10865000Y-03006049D03*
X-10865000Y-03006049D02*
X-10865000Y-01794063D01*
X-10865000Y-01794063D03*
D88*
X-12135000Y-03006049D03*
X-12135000Y-03006049D02*
X-12135000Y-01794063D01*
X-12135000Y-01794063D03*
D88*
X-13405000Y-03006049D03*
X-13405000Y-03006049D02*
X-13405000Y-01794063D01*
X-13405000Y-01794063D03*
D88*
X-09595000Y-08205937D03*
X-09595000Y-08205937D02*
X-09595000Y-06993951D01*
X-09595000Y-06993951D03*
D88*
X-10865000Y-08205937D03*
X-10865000Y-08205937D02*
X-10865000Y-06993951D01*
X-10865000Y-06993951D03*
D88*
X-12135000Y-08205937D03*
X-12135000Y-08205937D02*
X-12135000Y-06993951D01*
X-12135000Y-06993951D03*
D88*
X-13405000Y-08205937D03*
X-13405000Y-08205937D02*
X-13405000Y-06993951D01*
X-13405000Y-06993951D03*
D101*
G36*
X014600000Y010099950D02*
X014600000Y005499950D01*
X011800000Y005499950D01*
X011800000Y010099950D01*
X014600000Y010099950D01*
G37*
D101*
G36*
X014600000Y-06499950D02*
X014600000Y-11099950D01*
X011800000Y-11099950D01*
X011800000Y-06499950D01*
X014600000Y-06499950D01*
G37*
D71*
X-12200000Y-09675000D03*
D71*
X-12200000Y-11325000D03*
D46*
X-19000000Y-09000000D03*
D46*
X-17000000Y-09000000D03*
D46*
X-15000000Y-09000000D03*
D46*
X-10000000Y018800000D03*
D46*
X-08000000Y018800000D03*
D46*
X-06000000Y018800000D03*
D46*
X003500000Y018800000D03*
D46*
X005500000Y018800000D03*
D46*
X007500000Y018800000D03*
D46*
X020000000Y004000000D03*
D46*
X018000000Y004000000D03*
D46*
X016000000Y004000000D03*
D91*
X-08890000Y-18680000D03*
D92*
X-06350000Y-18680000D03*
D92*
X-03810000Y-18680000D03*
D92*
X-01270000Y-18680000D03*
D92*
X001270000Y-18680000D03*
D92*
X003810000Y-18680000D03*
D92*
X006350000Y-18680000D03*
D92*
X008890000Y-18680000D03*
D93*
X000000000Y020500000D03*
D93*
X-13750000Y-14700000D03*
D93*
X013750000Y-14700000D03*
D39*
X-10000000Y003500000D03*
D39*
X-07000000Y003500000D03*
D39*
X-04000000Y005000000D03*
D39*
X-01000000Y005000000D03*
D39*
X009500000Y005500000D03*
D39*
X011000000Y004500000D03*
D96*
X-01000000Y001000000D03*
D39*
X-09000000Y-11500000D03*
D39*
X-07000000Y-11500000D03*
D39*
X-05000000Y-11500000D03*
D39*
X-03000000Y-11500000D03*
D39*
X001800000Y003300000D03*
D39*
X004400000Y003300000D03*
D39*
X009000000Y004200000D03*
D39*
X016500000Y-08000000D03*
D39*
X-01270000Y-15400000D03*
D39*
X001270000Y-15400000D03*
D39*
X008890000Y-15400000D03*
M02*