%TF.GenerationSoftware,tscircuit,circuit-json-to-gerber,0.0.96*%
%TF.CreationDate,2026-08-30T04:23:36.668Z*%
%TF.SameCoordinates,Original*%
%TF.FileFunction,Paste,Top*%
%TF.FilePolarity,Positive*%
%FSLAX46Y46*%
%MOMM*%
G04 Gerber Fmt 4.6, Leading zero omitted, Abs format (unit mm)*
G04 Created by tscircuit (builder) date 2026-08-30T04:23:36.668Z*
G01*
%LPD*%
G75*
G04 APERTURE MACROS START*
%AMHORZPILL*
0 Horizontal pill (stadium) shape macro*
0 Parameters:*
0 $1 = Total width*
0 $2 = Total height*
0 $3 = Circle diameter (equal to height)*
0 $4 = Circle center offset
0 21 = Center Line(Exposure, Width, Height, Center X, Center Y, Rotation)*
0 1 = Circle(Exposure, Diameter, Center X, Center Y, Rotation)*
21,1,$1-$3,$2,0.0,0.0,0.0*
1,1,$3,0.0-$4,0.0*
1,1,$3,$4,0.0*%
%AMVERTPILL*
0 Vertical pill (stadium) shape macro*
0 Parameters:*
0 $1 = Total width*
0 $2 = Total height*
0 $3 = Circle diameter (equal to width)*
0 $4 = Circle center offset
0 21 = Center Line(Exposure, Width, Height, Center X, Center Y, Rotation)*
21,1,$1,$2-$3,0.0,0.0,0.0*
1,1,$3,0.0,0.0-$4*
1,1,$3,0.0,$4*%
%AMROUNDRECT*
0 Rectangle with rounded corners*
0 $1 Corner radius*
0 $2 $3 $4 $5 $6 $7 $8 $9 X,Y Position of each corner*
0 Polygon box body*
4,1,4,$2,$3,$4,$5,$6,$7,$8,$9,$2,$3,0*
0 Circles for rounded corners*
1,1,$1+$1,$2,$3*
1,1,$1+$1,$4,$5*
1,1,$1+$1,$6,$7*
1,1,$1+$1,$8,$9*
0 Rectangles between the rounded corners*
20,1,$1+$1,$2,$3,$4,$5,0*
20,1,$1+$1,$4,$5,$6,$7,0*
20,1,$1+$1,$6,$7,$8,$9,0*
20,1,$1+$1,$8,$9,$2,$3,0*%
G04 APERTURE MACROS END*
G04 aperture START LIST*
%ADD10C,0.150000*%
%ADD11C,1.600000*%
%ADD12C,0.046800*%
%ADD13C,0.063000*%
%ADD14R,1.190100X1.728000*%
%ADD15R,0.833070X1.209600*%
%ADD16C,0.054000*%
%ADD17R,2.047500X2.192400*%
%ADD18R,1.433250X1.534680*%
%ADD19C,0.100000*%
%ADD20C,0.036000*%
%ADD21ROUNDRECT,0.100000X-0.400000X0.300000X0.400000X0.300000X0.400000X-0.300000X-0.400000X-0.300000*%
%ADD22R,0.700000X0.560000*%
%ADD23C,0.045000*%
%ADD24R,0.800000X0.950000*%
%ADD25R,0.560000X0.665000*%
%ADD26C,0.120000*%
%ADD27ROUNDRECT,0.075000X-0.460000X0.225000X0.460000X0.225000X0.460000X-0.225000X-0.460000X-0.225000*%
%ADD28R,0.749000X0.420000*%
%ADD29C,0.600000*%
%ADD30R,2.500000X3.200000*%
%ADD31R,1.750000X2.240000*%
%ADD32C,0.055837*%
%ADD33R,1.900000X2.500000*%
%ADD34R,1.330000X1.750000*%
%ADD35R,2.062500X1.539000*%
%ADD36R,1.443750X1.077300*%
%ADD37R,1.025000X1.400000*%
%ADD38R,0.717500X0.980000*%
%ADD39R,1.125000X2.650000*%
%ADD40R,0.787500X1.855000*%
%ADD41C,0.400000*%
%ADD42C,0.038063*%
%ADD43C,0.280000*%
%ADD44C,0.036975*%
%ADD45ROUNDRECT,0.081250X-0.418750X0.243750X0.418750X0.243750X0.418750X-0.243750X-0.418750X-0.243750*%
%ADD46R,0.700000X0.455000*%
%ADD47R,0.600000X0.400000*%
%ADD48R,0.420000X0.280000*%
%ADD49C,0.590000*%
%ADD50C,0.055762*%
%ADD51R,4.600000X2.800000*%
%ADD52R,3.220000X1.960000*%
%ADD53R,1.500000X1.500000*%
%ADD54C,1.500000*%
%ADD55C,0.300000*%
%TD*%
G04 aperture END LIST*
D11*
X-18000000Y005500000D03*
D11*
X-20000000Y005500000D03*
D15*
X-19645000Y009500000D03*
D15*
X-16755000Y009500000D03*
D18*
X-14360700Y009500000D03*
D18*
X-09639300Y009500000D03*
D22*
%LR180*%
X-07350000Y011050000D03*
%LR0*%
D22*
%LR180*%
X-07350000Y012950000D03*
%LR0*%
D22*
%LR180*%
X-09650000Y012000000D03*
%LR0*%
D25*
X-11825000Y005500000D03*
D25*
X-10175000Y005500000D03*
D28*
%LR180*%
X-04770000Y005550000D03*
%LR0*%
D28*
%LR180*%
X-04770000Y007450000D03*
%LR0*%
D28*
%LR180*%
X-07230000Y006500000D03*
%LR0*%
D31*
%LR90*%
X-03000000Y012500000D03*
%LR0*%
D34*
X001949950Y012500000D03*
D34*
X006050050Y012500000D03*
D36*
%LR180*%
X006503700Y009000000D03*
%LR0*%
D36*
%LR180*%
X001496300Y009000000D03*
%LR0*%
D25*
X-12625000Y017200000D03*
D25*
X-10975000Y017200000D03*
D25*
X-09025000Y018600000D03*
D25*
X-07375000Y018600000D03*
D25*
X-05825000Y019200000D03*
D25*
X-04175000Y019200000D03*
D38*
X001287500Y017600000D03*
D38*
X003112500Y017600000D03*
D38*
X004687500Y018000000D03*
D38*
X006512500Y018000000D03*
D25*
X008175000Y016500000D03*
D25*
X009825000Y016500000D03*
D25*
X011675000Y016000000D03*
D25*
X013325000Y016000000D03*
D25*
X-02325000Y018500000D03*
D25*
X-00675000Y018500000D03*
D25*
X-02825000Y006500000D03*
D25*
X-01175000Y006500000D03*
D40*
X-15262500Y013800000D03*
D40*
X-12337500Y013800000D03*
D40*
X000537500Y005500000D03*
D40*
X003462500Y005500000D03*
D25*
X-08325000Y003500000D03*
D25*
X-06675000Y003500000D03*
D15*
X009555000Y012000000D03*
D15*
X012445000Y012000000D03*
D25*
X013675000Y008660000D03*
D25*
X015325000Y008660000D03*
D25*
X-08425000Y-13000000D03*
D25*
X-06775000Y-13000000D03*
D25*
X-05225000Y-13000000D03*
D25*
X-03575000Y-13000000D03*
D25*
X-02025000Y-13000000D03*
D25*
X-00375000Y-13000000D03*
D25*
X000975000Y-14000000D03*
D25*
X002625000Y-14000000D03*
D25*
X003975000Y-14500000D03*
D25*
X005625000Y-14500000D03*
D25*
X007375000Y-14500000D03*
D25*
X009025000Y-14500000D03*
D46*
%LR180*%
X003000000Y-02350000D03*
%LR0*%
D46*
%LR180*%
X003000000Y-00450000D03*
%LR0*%
D46*
%LR180*%
X001000000Y-01400000D03*
%LR0*%
D46*
%LR180*%
X006600000Y-02350000D03*
%LR0*%
D46*
%LR180*%
X006600000Y-00450000D03*
%LR0*%
D46*
%LR180*%
X004600000Y-01400000D03*
%LR0*%
D46*
%LR180*%
X010300000Y-02350000D03*
%LR0*%
D46*
%LR180*%
X010300000Y-00450000D03*
%LR0*%
D46*
%LR180*%
X008300000Y-01400000D03*
%LR0*%
D46*
%LR180*%
X017800000Y-03950000D03*
%LR0*%
D46*
%LR180*%
X017800000Y-02050000D03*
%LR0*%
D46*
%LR180*%
X015800000Y-03000000D03*
%LR0*%
D25*
X001375000Y001500000D03*
D25*
X003025000Y001500000D03*
D25*
X004775000Y001500000D03*
D25*
X006425000Y001500000D03*
D25*
X008475000Y001500000D03*
D25*
X010125000Y001500000D03*
D25*
X015975000Y000500000D03*
D25*
X017625000Y000500000D03*
D25*
X001075000Y-05900000D03*
D25*
X002725000Y-05900000D03*
D25*
X004775000Y-05200000D03*
D25*
X006425000Y-05200000D03*
D25*
X008475000Y-05900000D03*
D25*
X010125000Y-05900000D03*
D25*
X015675000Y-06000000D03*
D25*
X017325000Y-06000000D03*
D48*
X014775000Y013475000D03*
D48*
X014775000Y012825000D03*
D48*
X014775000Y012175000D03*
D48*
X014775000Y011525000D03*
D48*
X016225000Y011525000D03*
D48*
X016225000Y012175000D03*
D48*
X016225000Y012825000D03*
D48*
X016225000Y013475000D03*
D25*
X010675000Y014000000D03*
D25*
X012325000Y014000000D03*
D52*
%LR270*%
X013200000Y005299950D03*
%LR0*%
D52*
%LR270*%
X013200000Y-11299950D03*
%LR0*%
D25*
X-07825000Y-05000000D03*
D25*
X-06175000Y-05000000D03*
D11*
X-16600000Y001000000D03*
D11*
X-18600000Y001000000D03*
D11*
X-20600000Y001000000D03*
D11*
X-17000000Y-02500000D03*
D11*
X-19000000Y-02500000D03*
D11*
X-21000000Y-02500000D03*
D11*
X-18600000Y-07000000D03*
D11*
X-18600000Y-09000000D03*
D11*
X-18600000Y-11000000D03*
D11*
X021000000Y003000000D03*
D11*
X019000000Y003000000D03*
D11*
X017000000Y003000000D03*
D54*
X-06350000Y-18680000D03*
D54*
X-03810000Y-18680000D03*
D54*
X-01270000Y-18680000D03*
D54*
X001270000Y-18680000D03*
D54*
X003810000Y-18680000D03*
D54*
X006350000Y-18680000D03*
D54*
X008890000Y-18680000D03*
M02*