%TF.GenerationSoftware,tscircuit,circuit-json-to-gerber,0.0.96*%
%TF.CreationDate,2026-08-30T04:23:36.668Z*%
%TF.SameCoordinates,Original*%
%TF.FileFunction,Legend,Top*%
%TF.FilePolarity,Positive*%
%FSLAX46Y46*%
%MOMM*%
G04 Gerber Fmt 4.6, Leading zero omitted, Abs format (unit mm)*
G04 Created by tscircuit (builder) date 2026-08-30T04:23:36.668Z*
G01*
%LPD*%
G75*
G04 APERTURE MACROS START*
%AMHORZPILL*
0 Horizontal pill (stadium) shape macro*
0 Parameters:*
0 $1 = Total width*
0 $2 = Total height*
0 $3 = Circle diameter (equal to height)*
0 $4 = Circle center offset
0 21 = Center Line(Exposure, Width, Height, Center X, Center Y, Rotation)*
0 1 = Circle(Exposure, Diameter, Center X, Center Y, Rotation)*
21,1,$1-$3,$2,0.0,0.0,0.0*
1,1,$3,0.0-$4,0.0*
1,1,$3,$4,0.0*%
%AMVERTPILL*
0 Vertical pill (stadium) shape macro*
0 Parameters:*
0 $1 = Total width*
0 $2 = Total height*
0 $3 = Circle diameter (equal to width)*
0 $4 = Circle center offset
0 21 = Center Line(Exposure, Width, Height, Center X, Center Y, Rotation)*
21,1,$1,$2-$3,0.0,0.0,0.0*
1,1,$3,0.0,0.0-$4*
1,1,$3,0.0,$4*%
%AMROUNDRECT*
0 Rectangle with rounded corners*
0 $1 Corner radius*
0 $2 $3 $4 $5 $6 $7 $8 $9 X,Y Position of each corner*
0 Polygon box body*
4,1,4,$2,$3,$4,$5,$6,$7,$8,$9,$2,$3,0*
0 Circles for rounded corners*
1,1,$1+$1,$2,$3*
1,1,$1+$1,$4,$5*
1,1,$1+$1,$6,$7*
1,1,$1+$1,$8,$9*
0 Rectangles between the rounded corners*
20,1,$1+$1,$2,$3,$4,$5,0*
20,1,$1+$1,$4,$5,$6,$7,0*
20,1,$1+$1,$6,$7,$8,$9,0*
20,1,$1+$1,$8,$9,$2,$3,0*%
G04 APERTURE MACROS END*
G04 aperture START LIST*
%ADD10C,0.150000*%
%ADD11C,1.600000*%
%ADD12C,0.046800*%
%ADD13C,0.063000*%
%ADD14R,1.190100X1.728000*%
%ADD15R,0.833070X1.209600*%
%ADD16C,0.054000*%
%ADD17R,2.047500X2.192400*%
%ADD18R,1.433250X1.534680*%
%ADD19C,0.100000*%
%ADD20C,0.036000*%
%ADD21ROUNDRECT,0.100000X-0.400000X0.300000X0.400000X0.300000X0.400000X-0.300000X-0.400000X-0.300000*%
%ADD22R,0.700000X0.560000*%
%ADD23C,0.045000*%
%ADD24R,0.800000X0.950000*%
%ADD25R,0.560000X0.665000*%
%ADD26C,0.120000*%
%ADD27ROUNDRECT,0.075000X-0.460000X0.225000X0.460000X0.225000X0.460000X-0.225000X-0.460000X-0.225000*%
%ADD28R,0.749000X0.420000*%
%ADD29C,0.600000*%
%ADD30R,2.500000X3.200000*%
%ADD31R,1.750000X2.240000*%
%ADD32C,0.055837*%
%ADD33R,1.900000X2.500000*%
%ADD34R,1.330000X1.750000*%
%ADD35R,2.062500X1.539000*%
%ADD36R,1.443750X1.077300*%
%ADD37R,1.025000X1.400000*%
%ADD38R,0.717500X0.980000*%
%ADD39R,1.125000X2.650000*%
%ADD40R,0.787500X1.855000*%
%ADD41C,0.400000*%
%ADD42C,0.038063*%
%ADD43C,0.280000*%
%ADD44C,0.036975*%
%ADD45ROUNDRECT,0.081250X-0.418750X0.243750X0.418750X0.243750X0.418750X-0.243750X-0.418750X-0.243750*%
%ADD46R,0.700000X0.455000*%
%ADD47R,0.600000X0.400000*%
%ADD48R,0.420000X0.280000*%
%ADD49C,0.590000*%
%ADD50C,0.055762*%
%ADD51R,4.600000X2.800000*%
%ADD52R,3.220000X1.960000*%
%ADD53R,1.500000X1.500000*%
%ADD54C,1.500000*%
%ADD55C,0.300000*%
%TD*%
G04 aperture END LIST*
D12*
X-17308259Y004078139D02*
X-17308259Y004338145D01*
X-17308259Y004115129D02*
X-17335589Y004090349D01*
X-17335589Y004090349D02*
X-17362510Y004078139D01*
X-17362510Y004078139D02*
X-17403300Y004078139D01*
X-17403300Y004078139D02*
X-17430630Y004090349D01*
X-17430630Y004090349D02*
X-17457958Y004115129D01*
X-17457958Y004115129D02*
X-17471420Y004152478D01*
X-17471420Y004152478D02*
X-17471420Y004177258D01*
X-17471420Y004177258D02*
X-17457958Y004214247D01*
X-17457958Y004214247D02*
X-17430630Y004239027D01*
X-17430630Y004239027D02*
X-17403300Y004251595D01*
X-17403300Y004251595D02*
X-17362510Y004251595D01*
X-17362510Y004251595D02*
X-17335589Y004239027D01*
X-17335589Y004239027D02*
X-17308259Y004214247D01*
X-17735146Y004005445D02*
X-17764266Y004005445D01*
X-17749689Y004091296D02*
X-17749689Y004262641D01*
X-18033503Y004078139D02*
X-18033503Y004267730D01*
X-18033503Y004132308D02*
X-18074961Y004091485D01*
X-18074961Y004091485D02*
X-18102727Y004078139D01*
X-18102727Y004078139D02*
X-18144185Y004078139D01*
X-18144185Y004078139D02*
X-18171761Y004091485D01*
X-18171761Y004091485D02*
X-18185644Y004132308D01*
X-18185644Y004132308D02*
X-18185644Y004267730D01*
X-18440102Y004066676D02*
X-18498779Y004016643D01*
X-18498779Y004016643D02*
X-18498779Y004263424D01*
D12*
X-19308259Y004078139D02*
X-19308259Y004338145D01*
X-19308259Y004115129D02*
X-19335589Y004090349D01*
X-19335589Y004090349D02*
X-19362510Y004078139D01*
X-19362510Y004078139D02*
X-19403300Y004078139D01*
X-19403300Y004078139D02*
X-19430630Y004090349D01*
X-19430630Y004090349D02*
X-19457958Y004115129D01*
X-19457958Y004115129D02*
X-19471420Y004152478D01*
X-19471420Y004152478D02*
X-19471420Y004177258D01*
X-19471420Y004177258D02*
X-19457958Y004214247D01*
X-19457958Y004214247D02*
X-19430630Y004239027D01*
X-19430630Y004239027D02*
X-19403300Y004251595D01*
X-19403300Y004251595D02*
X-19362510Y004251595D01*
X-19362510Y004251595D02*
X-19335589Y004239027D01*
X-19335589Y004239027D02*
X-19308259Y004214247D01*
X-19735146Y004005445D02*
X-19764266Y004005445D01*
X-19749689Y004091296D02*
X-19749689Y004262641D01*
X-20033503Y004078139D02*
X-20033503Y004267730D01*
X-20033503Y004132308D02*
X-20074961Y004091485D01*
X-20074961Y004091485D02*
X-20102727Y004078139D01*
X-20102727Y004078139D02*
X-20144185Y004078139D01*
X-20144185Y004078139D02*
X-20171761Y004091485D01*
X-20171761Y004091485D02*
X-20185644Y004132308D01*
X-20185644Y004132308D02*
X-20185644Y004267730D01*
X-20400056Y004060732D02*
X-20405593Y004042595D01*
X-20405593Y004042595D02*
X-20421955Y004025680D01*
X-20421955Y004025680D02*
X-20448769Y004014209D01*
X-20448769Y004014209D02*
X-20465980Y004011844D01*
X-20465980Y004011844D02*
X-20495755Y004014023D01*
X-20495755Y004014023D02*
X-20518092Y004023817D01*
X-20518092Y004023817D02*
X-20530306Y004038836D01*
X-20530306Y004038836D02*
X-20534693Y004056288D01*
X-20534693Y004056288D02*
X-20534402Y004067897D01*
X-20534402Y004067897D02*
X-20529159Y004087330D01*
X-20529159Y004087330D02*
X-20506403Y004125112D01*
X-20506403Y004125112D02*
X-20449096Y004196983D01*
X-20449096Y004196983D02*
X-20388838Y004263088D01*
X-20388838Y004263088D02*
X-20550043Y004263088D01*
D13*
X-18763915Y003387788D02*
X-18764392Y003638275D01*
X-18764392Y003638275D02*
X-18759813Y003669622D01*
X-18759813Y003669622D02*
X-18751123Y003686587D01*
X-18751123Y003686587D02*
X-18738937Y003700077D01*
X-18738937Y003700077D02*
X-18724350Y003710410D01*
X-18724350Y003710410D02*
X-18692329Y003722858D01*
X-18692329Y003722858D02*
X-18663793Y003726448D01*
X-18663793Y003726448D02*
X-18625114Y003722283D01*
X-18625114Y003722283D02*
X-18596600Y003710853D01*
X-18596600Y003710853D02*
X-18582729Y003699780D01*
X-18582729Y003699780D02*
X-18572613Y003686353D01*
X-18572613Y003686353D02*
X-18565946Y003670921D01*
X-18565946Y003670921D02*
X-18562424Y003653834D01*
X-18562424Y003653834D02*
X-18561741Y003635442D01*
X-19108009Y003455140D02*
X-19186997Y003387788D01*
X-19186997Y003387788D02*
X-19186997Y003719993D01*
D16*
X-18578932Y011260182D02*
X-18578932Y010975433D01*
X-18576884Y011258245D02*
X-18398668Y011258245D01*
X-18576884Y011118776D02*
X-18427347Y011118776D01*
X-18107421Y011202451D02*
X-18039717Y011260182D01*
X-18039717Y011260182D02*
X-18039717Y010975434D01*
D19*
X-09639300Y010996200D02*
X-15584450Y010996200D01*
X-15584450Y008003800D01*
X-09639300Y008003800D01*
D20*
X-12258774Y011370488D02*
X-12256706Y011556378D01*
X-12256706Y011556378D02*
X-12228880Y011560321D01*
X-12228880Y011560321D02*
X-12207563Y011559863D01*
X-12207563Y011559863D02*
X-12172938Y011550498D01*
X-12172938Y011550498D02*
X-12147332Y011530275D01*
X-12147332Y011530275D02*
X-12132691Y011503045D01*
X-12132691Y011503045D02*
X-12126855Y011474810D01*
X-12126855Y011474810D02*
X-12126293Y011453552D01*
X-12126293Y011453552D02*
X-12128963Y011435333D01*
X-12128963Y011435333D02*
X-12134423Y011419923D01*
X-12134423Y011419923D02*
X-12151955Y011396605D01*
X-12151955Y011396605D02*
X-12175361Y011381761D01*
X-12175361Y011381761D02*
X-12213764Y011371359D01*
X-12213764Y011371359D02*
X-12258774Y011370488D01*
X-11938281Y011521834D02*
X-11893145Y011560321D01*
X-11893145Y011560321D02*
X-11893145Y011370490D01*
D19*
X-07800000Y010350000D02*
X-09500000Y010350000D01*
X-09500000Y011175000D01*
D19*
X-07800000Y013650000D02*
X-09500000Y013650000D01*
X-09500000Y012825000D01*
D23*
X-08252826Y009692785D02*
X-08222380Y009681876D01*
X-08222380Y009681876D02*
X-08194551Y009648686D01*
X-08194551Y009648686D02*
X-08173969Y009536030D01*
X-08173969Y009536030D02*
X-08193573Y009451712D01*
X-08193573Y009451712D02*
X-08217625Y009427696D01*
X-08217625Y009427696D02*
X-08259269Y009415235D01*
X-08259269Y009415235D02*
X-08298478Y009430194D01*
X-08298478Y009430194D02*
X-08321434Y009457531D01*
X-08321434Y009457531D02*
X-08341093Y009560236D01*
X-08341093Y009560236D02*
X-08331309Y009625078D01*
X-08331309Y009625078D02*
X-08313873Y009662553D01*
X-08313873Y009662553D02*
X-08282904Y009688079D01*
X-08282904Y009688079D02*
X-08252826Y009692785D01*
X-08273403Y009610446D02*
X-08344697Y009699729D01*
X-08577149Y009467957D02*
X-08633569Y009419849D01*
X-08633569Y009419849D02*
X-08633569Y009657138D01*
D26*
X-11237258Y006022500D02*
X-10762742Y006022500D01*
D26*
X-11237258Y004977500D02*
X-10762742Y004977500D01*
D20*
X-11267045Y006750649D02*
X-11267045Y006934204D01*
X-11267045Y006934204D02*
X-11213225Y006939121D01*
X-11213225Y006939121D02*
X-11175450Y006937477D01*
X-11175450Y006937477D02*
X-11152662Y006932426D01*
X-11152662Y006932426D02*
X-11143080Y006928308D01*
X-11143080Y006928308D02*
X-11135194Y006922948D01*
X-11135194Y006922948D02*
X-11129368Y006916211D01*
X-11129368Y006916211D02*
X-11124231Y006897943D01*
X-11124231Y006897943D02*
X-11124713Y006881742D01*
X-11124713Y006881742D02*
X-11129971Y006870011D01*
X-11129971Y006870011D02*
X-11139408Y006861975D01*
X-11139408Y006861975D02*
X-11152427Y006856856D01*
X-11152427Y006856856D02*
X-11177366Y006852953D01*
X-11177366Y006852953D02*
X-11263478Y006849904D01*
X-11191966Y006842154D02*
X-11118022Y006749288D01*
X-10938281Y006900634D02*
X-10893145Y006939121D01*
X-10893145Y006939121D02*
X-10893145Y006749290D01*
D19*
X-05300000Y004850000D02*
X-07000000Y004850000D01*
X-07000000Y005675000D01*
D19*
X-05300000Y008150000D02*
X-07000000Y008150000D01*
X-07000000Y007325000D01*
D23*
X-05676533Y004157139D02*
X-05679117Y003924777D01*
X-05679117Y003924777D02*
X-05713900Y003919849D01*
X-05713900Y003919849D02*
X-05740546Y003920422D01*
X-05740546Y003920422D02*
X-05783828Y003932127D01*
X-05783828Y003932127D02*
X-05815835Y003957406D01*
X-05815835Y003957406D02*
X-05834136Y003991444D01*
X-05834136Y003991444D02*
X-05841431Y004026737D01*
X-05841431Y004026737D02*
X-05842134Y004053310D01*
X-05842134Y004053310D02*
X-05838797Y004076083D01*
X-05838797Y004076083D02*
X-05831971Y004095347D01*
X-05831971Y004095347D02*
X-05810056Y004124493D01*
X-05810056Y004124493D02*
X-05780799Y004143048D01*
X-05780799Y004143048D02*
X-05732795Y004156052D01*
X-05732795Y004156052D02*
X-05676533Y004157139D01*
X-06028562Y003945776D02*
X-06041704Y003935472D01*
X-06041704Y003935472D02*
X-06062649Y003924432D01*
X-06062649Y003924432D02*
X-06089343Y003915235D01*
X-06089343Y003915235D02*
X-06122197Y003917072D01*
X-06122197Y003917072D02*
X-06150945Y003926272D01*
X-06150945Y003926272D02*
X-06171479Y003942832D01*
X-06171479Y003942832D02*
X-06183799Y003963072D01*
X-06183799Y003963072D02*
X-06179692Y003985152D01*
X-06179692Y003985152D02*
X-06163265Y004001712D01*
X-06163265Y004001712D02*
X-06134517Y004014592D01*
X-06134517Y004014592D02*
X-06101662Y004021952D01*
X-06101662Y004021952D02*
X-06072916Y004025632D01*
X-06072916Y004025632D02*
X-06101662Y004029312D01*
X-06101662Y004029312D02*
X-06134517Y004038512D01*
X-06134517Y004038512D02*
X-06163265Y004053232D01*
X-06163265Y004053232D02*
X-06181746Y004073473D01*
X-06181746Y004073473D02*
X-06185852Y004095552D01*
X-06185852Y004095552D02*
X-06177639Y004119473D01*
X-06177639Y004119473D02*
X-06159158Y004139713D01*
X-06159158Y004139713D02*
X-06130410Y004156273D01*
X-06130410Y004156273D02*
X-06108644Y004161425D01*
X-06108644Y004161425D02*
X-06073326Y004160689D01*
X-06073326Y004160689D02*
X-06044578Y004156273D01*
X-06044578Y004156273D02*
X-06024866Y004150385D01*
D19*
X-00477500Y010400000D02*
X-05522500Y010400000D01*
X-05522500Y011800000D01*
X-05254622Y011853284D01*
X-05027525Y012005025D01*
X-04875784Y012232122D01*
X-04822500Y012500000D01*
X-04875784Y012767878D01*
X-05027525Y012994975D01*
X-05254622Y013146716D01*
X-05522500Y013200000D01*
X-05522500Y014600000D01*
X-00477500Y014600000D01*
X-00477500Y010400000D01*
D32*
X-06021955Y012101918D02*
X-05857845Y012102377D01*
X-05857845Y012102377D02*
X-05813202Y012105544D01*
X-05813202Y012105544D02*
X-05780134Y012113645D01*
X-05780134Y012113645D02*
X-05754981Y012129176D01*
X-05754981Y012129176D02*
X-05738350Y012149494D01*
X-05738350Y012149494D02*
X-05726339Y012179848D01*
X-05726339Y012179848D02*
X-05721797Y012218149D01*
X-05721797Y012218149D02*
X-05726344Y012245031D01*
X-05726344Y012245031D02*
X-05738323Y012267078D01*
X-05738323Y012267078D02*
X-05752357Y012280272D01*
X-05752357Y012280272D02*
X-05761582Y012285937D01*
X-05761582Y012285937D02*
X-05785103Y012294603D01*
X-05785103Y012294603D02*
X-05816261Y012298649D01*
X-05816261Y012298649D02*
X-06021511Y012300827D01*
X-05962259Y012595729D02*
X-06021955Y012665737D01*
X-06021955Y012665737D02*
X-05727518Y012665737D01*
D16*
X003616454Y014646182D02*
X003616454Y014361433D01*
X003616454Y014361433D02*
X003805946Y014361433D01*
X004046372Y014595310D02*
X004052761Y014616237D01*
X004052761Y014616237D02*
X004071640Y014635754D01*
X004071640Y014635754D02*
X004102580Y014648990D01*
X004102580Y014648990D02*
X004122438Y014651719D01*
X004122438Y014651719D02*
X004156794Y014649204D01*
X004156794Y014649204D02*
X004182567Y014637904D01*
X004182567Y014637904D02*
X004196660Y014620574D01*
X004196660Y014620574D02*
X004201723Y014600437D01*
X004201723Y014600437D02*
X004201387Y014587041D01*
X004201387Y014587041D02*
X004195337Y014564619D01*
X004195337Y014564619D02*
X004169080Y014521025D01*
X004169080Y014521025D02*
X004102956Y014438096D01*
X004102956Y014438096D02*
X004033428Y014361821D01*
X004033428Y014361821D02*
X004219434Y014361821D01*
D16*
X004388161Y007619067D02*
X004385059Y007340233D01*
X004385059Y007340233D02*
X004343320Y007334318D01*
X004343320Y007334318D02*
X004311345Y007335006D01*
X004311345Y007335006D02*
X004259407Y007349053D01*
X004259407Y007349053D02*
X004220998Y007379388D01*
X004220998Y007379388D02*
X004199037Y007420233D01*
X004199037Y007420233D02*
X004190283Y007462585D01*
X004190283Y007462585D02*
X004189440Y007494471D01*
X004189440Y007494471D02*
X004193444Y007521800D01*
X004193444Y007521800D02*
X004201635Y007544916D01*
X004201635Y007544916D02*
X004227933Y007579892D01*
X004227933Y007579892D02*
X004263042Y007602158D01*
X004263042Y007602158D02*
X004320646Y007617762D01*
X004320646Y007617762D02*
X004388161Y007619067D01*
X003953628Y007385190D02*
X003947239Y007364263D01*
X003947239Y007364263D02*
X003928360Y007344746D01*
X003928360Y007344746D02*
X003897420Y007331510D01*
X003897420Y007331510D02*
X003877562Y007328781D01*
X003877562Y007328781D02*
X003843206Y007331296D01*
X003843206Y007331296D02*
X003817433Y007342596D01*
X003817433Y007342596D02*
X003803340Y007359926D01*
X003803340Y007359926D02*
X003798277Y007380063D01*
X003798277Y007380063D02*
X003798613Y007393459D01*
X003798613Y007393459D02*
X003804663Y007415881D01*
X003804663Y007415881D02*
X003830920Y007459475D01*
X003830920Y007459475D02*
X003897044Y007542404D01*
X003897044Y007542404D02*
X003966572Y007618679D01*
X003966572Y007618679D02*
X003780566Y007618679D01*
D26*
X-12037258Y017722500D02*
X-11562742Y017722500D01*
D26*
X-12037258Y016677500D02*
X-11562742Y016677500D01*
D20*
X-12067045Y018450649D02*
X-12067045Y018634204D01*
X-12067045Y018634204D02*
X-12013225Y018639121D01*
X-12013225Y018639121D02*
X-11975450Y018637477D01*
X-11975450Y018637477D02*
X-11952662Y018632426D01*
X-11952662Y018632426D02*
X-11943080Y018628308D01*
X-11943080Y018628308D02*
X-11935194Y018622948D01*
X-11935194Y018622948D02*
X-11929368Y018616211D01*
X-11929368Y018616211D02*
X-11924231Y018597943D01*
X-11924231Y018597943D02*
X-11924713Y018581742D01*
X-11924713Y018581742D02*
X-11929971Y018570011D01*
X-11929971Y018570011D02*
X-11939408Y018561975D01*
X-11939408Y018561975D02*
X-11952427Y018556856D01*
X-11952427Y018556856D02*
X-11977366Y018552953D01*
X-11977366Y018552953D02*
X-12063478Y018549904D01*
X-11991966Y018542154D02*
X-11918022Y018449288D01*
X-11769085Y018605206D02*
X-11764826Y018619158D01*
X-11764826Y018619158D02*
X-11752240Y018632170D01*
X-11752240Y018632170D02*
X-11731614Y018640993D01*
X-11731614Y018640993D02*
X-11718375Y018642812D01*
X-11718375Y018642812D02*
X-11695471Y018641136D01*
X-11695471Y018641136D02*
X-11678289Y018633603D01*
X-11678289Y018633603D02*
X-11668893Y018622050D01*
X-11668893Y018622050D02*
X-11665518Y018608624D01*
X-11665518Y018608624D02*
X-11665742Y018599694D01*
X-11665742Y018599694D02*
X-11669775Y018584746D01*
X-11669775Y018584746D02*
X-11687280Y018555683D01*
X-11687280Y018555683D02*
X-11731362Y018500397D01*
X-11731362Y018500397D02*
X-11777715Y018449547D01*
X-11777715Y018449547D02*
X-11653711Y018449547D01*
D26*
X-08437258Y019122500D02*
X-07962742Y019122500D01*
D26*
X-08437258Y018077500D02*
X-07962742Y018077500D01*
D20*
X-08467045Y019850649D02*
X-08467045Y020034204D01*
X-08467045Y020034204D02*
X-08413225Y020039121D01*
X-08413225Y020039121D02*
X-08375450Y020037477D01*
X-08375450Y020037477D02*
X-08352662Y020032426D01*
X-08352662Y020032426D02*
X-08343080Y020028308D01*
X-08343080Y020028308D02*
X-08335194Y020022948D01*
X-08335194Y020022948D02*
X-08329368Y020016211D01*
X-08329368Y020016211D02*
X-08324231Y019997943D01*
X-08324231Y019997943D02*
X-08324713Y019981742D01*
X-08324713Y019981742D02*
X-08329971Y019970011D01*
X-08329971Y019970011D02*
X-08339408Y019961975D01*
X-08339408Y019961975D02*
X-08352427Y019956856D01*
X-08352427Y019956856D02*
X-08377366Y019952953D01*
X-08377366Y019952953D02*
X-08463478Y019949904D01*
X-08391966Y019942154D02*
X-08318022Y019849288D01*
X-08177150Y020018380D02*
X-08166637Y020026623D01*
X-08166637Y020026623D02*
X-08149881Y020035455D01*
X-08149881Y020035455D02*
X-08128526Y020042812D01*
X-08128526Y020042812D02*
X-08102243Y020041343D01*
X-08102243Y020041343D02*
X-08079244Y020033983D01*
X-08079244Y020033983D02*
X-08062817Y020020735D01*
X-08062817Y020020735D02*
X-08052961Y020004543D01*
X-08052961Y020004543D02*
X-08056246Y019986878D01*
X-08056246Y019986878D02*
X-08069388Y019973630D01*
X-08069388Y019973630D02*
X-08092386Y019963326D01*
X-08092386Y019963326D02*
X-08118670Y019957438D01*
X-08118670Y019957438D02*
X-08141668Y019954494D01*
X-08141668Y019954494D02*
X-08118670Y019951550D01*
X-08118670Y019951550D02*
X-08092386Y019944190D01*
X-08092386Y019944190D02*
X-08069388Y019932414D01*
X-08069388Y019932414D02*
X-08054603Y019916222D01*
X-08054603Y019916222D02*
X-08051318Y019898558D01*
X-08051318Y019898558D02*
X-08057889Y019879422D01*
X-08057889Y019879422D02*
X-08072673Y019863230D01*
X-08072673Y019863230D02*
X-08095672Y019849982D01*
X-08095672Y019849982D02*
X-08113085Y019845860D01*
X-08113085Y019845860D02*
X-08141339Y019846449D01*
X-08141339Y019846449D02*
X-08164337Y019849982D01*
X-08164337Y019849982D02*
X-08180107Y019854692D01*
D26*
X-05237258Y019722500D02*
X-04762742Y019722500D01*
D26*
X-05237258Y018677500D02*
X-04762742Y018677500D01*
D20*
X-05267045Y020450649D02*
X-05267045Y020634204D01*
X-05267045Y020634204D02*
X-05213225Y020639121D01*
X-05213225Y020639121D02*
X-05175450Y020637477D01*
X-05175450Y020637477D02*
X-05152662Y020632426D01*
X-05152662Y020632426D02*
X-05143080Y020628308D01*
X-05143080Y020628308D02*
X-05135194Y020622948D01*
X-05135194Y020622948D02*
X-05129368Y020616211D01*
X-05129368Y020616211D02*
X-05124231Y020597943D01*
X-05124231Y020597943D02*
X-05124713Y020581742D01*
X-05124713Y020581742D02*
X-05129971Y020570011D01*
X-05129971Y020570011D02*
X-05139408Y020561975D01*
X-05139408Y020561975D02*
X-05152427Y020556856D01*
X-05152427Y020556856D02*
X-05177366Y020552953D01*
X-05177366Y020552953D02*
X-05263478Y020549904D01*
X-05191966Y020542154D02*
X-05118022Y020449288D01*
X-04882822Y020639121D02*
X-04986328Y020512224D01*
X-04986328Y020512224D02*
X-04845097Y020512224D01*
X-04884029Y020553113D02*
X-04884029Y020449288D01*
D19*
X003112500Y018700000D02*
X000575000Y018700000D01*
X000575000Y016500000D01*
X003112500Y016500000D01*
D20*
X002071314Y019222443D02*
X002062738Y019243345D01*
X002062738Y019243345D02*
X002047006Y019258145D01*
X002047006Y019258145D02*
X002017212Y019267812D01*
X002017212Y019267812D02*
X001995195Y019264860D01*
X001995195Y019264860D02*
X001975793Y019254951D01*
X001975793Y019254951D02*
X001956847Y019232079D01*
X001956847Y019232079D02*
X001943619Y019172044D01*
X001943619Y019172044D02*
X001954000Y019111692D01*
X001954000Y019111692D02*
X001969486Y019087389D01*
X001969486Y019087389D02*
X001985586Y019076016D01*
X001985586Y019076016D02*
X002016952Y019070860D01*
X002016952Y019070860D02*
X002044288Y019077450D01*
X002044288Y019077450D02*
X002064528Y019096680D01*
X002064528Y019096680D02*
X002071314Y019123822D01*
X002317178Y019264121D02*
X002213672Y019137224D01*
X002213672Y019137224D02*
X002354903Y019137224D01*
X002315971Y019178113D02*
X002315971Y019074288D01*
D19*
X006512500Y019100000D02*
X003975000Y019100000D01*
X003975000Y016900000D01*
X006512500Y016900000D01*
D20*
X005471314Y019622443D02*
X005462738Y019643345D01*
X005462738Y019643345D02*
X005447006Y019658145D01*
X005447006Y019658145D02*
X005417212Y019667812D01*
X005417212Y019667812D02*
X005395195Y019664860D01*
X005395195Y019664860D02*
X005375793Y019654951D01*
X005375793Y019654951D02*
X005356847Y019632079D01*
X005356847Y019632079D02*
X005343619Y019572044D01*
X005343619Y019572044D02*
X005354000Y019511692D01*
X005354000Y019511692D02*
X005369486Y019487389D01*
X005369486Y019487389D02*
X005385586Y019476016D01*
X005385586Y019476016D02*
X005416952Y019470860D01*
X005416952Y019470860D02*
X005444288Y019477450D01*
X005444288Y019477450D02*
X005464528Y019496680D01*
X005464528Y019496680D02*
X005471314Y019523822D01*
X005620986Y019664121D02*
X005620986Y019567884D01*
X005620986Y019567884D02*
X005674943Y019580540D01*
X005674943Y019580540D02*
X005713469Y019575779D01*
X005713469Y019575779D02*
X005728801Y019567187D01*
X005728801Y019567187D02*
X005739448Y019554995D01*
X005739448Y019554995D02*
X005747588Y019521768D01*
X005747588Y019521768D02*
X005743739Y019504506D01*
X005743739Y019504506D02*
X005733637Y019490921D01*
X005733637Y019490921D02*
X005713786Y019478304D01*
X005713786Y019478304D02*
X005690845Y019471666D01*
X005690845Y019471666D02*
X005669272Y019470601D01*
X005669272Y019470601D02*
X005651104Y019474065D01*
X005651104Y019474065D02*
X005636419Y019480858D01*
X005636419Y019480858D02*
X005620986Y019494830D01*
X005620986Y019664121D02*
X005747588Y019664121D01*
D19*
X009825000Y017375000D02*
X007575000Y017375000D01*
X007575000Y015625000D01*
X009825000Y015625000D01*
D20*
X008871314Y017897443D02*
X008862738Y017918345D01*
X008862738Y017918345D02*
X008847006Y017933145D01*
X008847006Y017933145D02*
X008817212Y017942812D01*
X008817212Y017942812D02*
X008795195Y017939860D01*
X008795195Y017939860D02*
X008775793Y017929951D01*
X008775793Y017929951D02*
X008756847Y017907079D01*
X008756847Y017907079D02*
X008743619Y017847044D01*
X008743619Y017847044D02*
X008754000Y017786692D01*
X008754000Y017786692D02*
X008769486Y017762389D01*
X008769486Y017762389D02*
X008785586Y017751016D01*
X008785586Y017751016D02*
X008816952Y017745860D01*
X008816952Y017745860D02*
X008844288Y017752450D01*
X008844288Y017752450D02*
X008864528Y017771680D01*
X008864528Y017771680D02*
X008871314Y017798822D01*
X009119994Y017942812D02*
X009095601Y017935185D01*
X009095601Y017935185D02*
X009073004Y017927612D01*
X009073004Y017927612D02*
X009053813Y017914149D01*
X009053813Y017914149D02*
X009038893Y017899929D01*
X009038893Y017899929D02*
X009027501Y017874882D01*
X009027501Y017874882D02*
X009019670Y017851405D01*
X009019670Y017851405D02*
X009018834Y017827200D01*
X009018834Y017827200D02*
X009018246Y017803078D01*
X009018246Y017803078D02*
X009024406Y017785128D01*
X009024406Y017785128D02*
X009030287Y017773908D01*
X009030287Y017773908D02*
X009044216Y017759323D01*
X009044216Y017759323D02*
X009059075Y017749506D01*
X009059075Y017749506D02*
X009081981Y017745860D01*
X009081981Y017745860D02*
X009107673Y017747262D01*
X009107673Y017747262D02*
X009127795Y017756238D01*
X009127795Y017756238D02*
X009142033Y017768298D01*
X009142033Y017768298D02*
X009149772Y017784847D01*
X009149772Y017784847D02*
X009150391Y017798871D01*
X009150391Y017798871D02*
X009146058Y017813737D01*
X009146058Y017813737D02*
X009139557Y017826358D01*
X009139557Y017826358D02*
X009129652Y017836736D01*
X009129652Y017836736D02*
X009116031Y017843187D01*
X009116031Y017843187D02*
X009097149Y017847395D01*
X009097149Y017847395D02*
X009079195Y017848236D01*
X009079195Y017848236D02*
X009060313Y017845431D01*
X009060313Y017845431D02*
X009040812Y017835334D01*
X009040812Y017835334D02*
X009030597Y017824956D01*
X009030597Y017824956D02*
X009018184Y017812278D01*
D19*
X013325000Y016875000D02*
X011075000Y016875000D01*
X011075000Y015125000D01*
X013325000Y015125000D01*
D20*
X012371314Y017397443D02*
X012362738Y017418345D01*
X012362738Y017418345D02*
X012347006Y017433145D01*
X012347006Y017433145D02*
X012317212Y017442812D01*
X012317212Y017442812D02*
X012295195Y017439860D01*
X012295195Y017439860D02*
X012275793Y017429951D01*
X012275793Y017429951D02*
X012256847Y017407079D01*
X012256847Y017407079D02*
X012243619Y017347044D01*
X012243619Y017347044D02*
X012254000Y017286692D01*
X012254000Y017286692D02*
X012269486Y017262389D01*
X012269486Y017262389D02*
X012285586Y017251016D01*
X012285586Y017251016D02*
X012316952Y017245860D01*
X012316952Y017245860D02*
X012344288Y017252450D01*
X012344288Y017252450D02*
X012364528Y017271680D01*
X012364528Y017271680D02*
X012371314Y017298822D01*
X012520030Y017439121D02*
X012648545Y017439121D01*
X012648545Y017439121D02*
X012638862Y017433323D01*
X012638862Y017433323D02*
X012633771Y017429486D01*
X012633771Y017429486D02*
X012621852Y017418089D01*
X012621852Y017418089D02*
X012615379Y017410242D01*
X012615379Y017410242D02*
X012608798Y017400771D01*
X012608798Y017400771D02*
X012602288Y017389533D01*
X012602288Y017389533D02*
X012596024Y017376383D01*
X012596024Y017376383D02*
X012590183Y017361178D01*
X012590183Y017361178D02*
X012584942Y017343773D01*
X012584942Y017343773D02*
X012580476Y017324026D01*
X012580476Y017324026D02*
X012575622Y017289698D01*
X012575622Y017289698D02*
X012573508Y017249288D01*
D19*
X-00675000Y019375000D02*
X-02925000Y019375000D01*
X-02925000Y017625000D01*
X-00675000Y017625000D01*
D20*
X-01767096Y019897443D02*
X-01775672Y019918345D01*
X-01775672Y019918345D02*
X-01791405Y019933145D01*
X-01791405Y019933145D02*
X-01821199Y019942812D01*
X-01821199Y019942812D02*
X-01843215Y019939860D01*
X-01843215Y019939860D02*
X-01862618Y019929951D01*
X-01862618Y019929951D02*
X-01881563Y019907079D01*
X-01881563Y019907079D02*
X-01894792Y019847044D01*
X-01894792Y019847044D02*
X-01884411Y019786692D01*
X-01884411Y019786692D02*
X-01868925Y019762389D01*
X-01868925Y019762389D02*
X-01852824Y019751016D01*
X-01852824Y019751016D02*
X-01821458Y019745860D01*
X-01821458Y019745860D02*
X-01794123Y019752450D01*
X-01794123Y019752450D02*
X-01773883Y019771680D01*
X-01773883Y019771680D02*
X-01767096Y019798822D01*
X-01576691Y019900634D02*
X-01531555Y019939121D01*
X-01531555Y019939121D02*
X-01531555Y019749290D01*
X-01341560Y019939121D02*
X-01213044Y019939121D01*
X-01213044Y019939121D02*
X-01222728Y019933323D01*
X-01222728Y019933323D02*
X-01227819Y019929486D01*
X-01227819Y019929486D02*
X-01239738Y019918089D01*
X-01239738Y019918089D02*
X-01246211Y019910242D01*
X-01246211Y019910242D02*
X-01252791Y019900771D01*
X-01252791Y019900771D02*
X-01259301Y019889533D01*
X-01259301Y019889533D02*
X-01265566Y019876383D01*
X-01265566Y019876383D02*
X-01271407Y019861178D01*
X-01271407Y019861178D02*
X-01276648Y019843773D01*
X-01276648Y019843773D02*
X-01281113Y019824026D01*
X-01281113Y019824026D02*
X-01285968Y019789698D01*
X-01285968Y019789698D02*
X-01288081Y019749288D01*
D19*
X-01175000Y007375000D02*
X-03425000Y007375000D01*
X-03425000Y005625000D01*
X-01175000Y005625000D01*
D20*
X-02267096Y007897443D02*
X-02275672Y007918345D01*
X-02275672Y007918345D02*
X-02291405Y007933145D01*
X-02291405Y007933145D02*
X-02321199Y007942812D01*
X-02321199Y007942812D02*
X-02343215Y007939860D01*
X-02343215Y007939860D02*
X-02362618Y007929951D01*
X-02362618Y007929951D02*
X-02381563Y007907079D01*
X-02381563Y007907079D02*
X-02394792Y007847044D01*
X-02394792Y007847044D02*
X-02384411Y007786692D01*
X-02384411Y007786692D02*
X-02368925Y007762389D01*
X-02368925Y007762389D02*
X-02352824Y007751016D01*
X-02352824Y007751016D02*
X-02321458Y007745860D01*
X-02321458Y007745860D02*
X-02294123Y007752450D01*
X-02294123Y007752450D02*
X-02273883Y007771680D01*
X-02273883Y007771680D02*
X-02267096Y007798822D01*
X-02076691Y007900634D02*
X-02031555Y007939121D01*
X-02031555Y007939121D02*
X-02031555Y007749290D01*
X-01781297Y007942812D02*
X-01802598Y007938946D01*
X-01802598Y007938946D02*
X-01821998Y007929426D01*
X-01821998Y007929426D02*
X-01835691Y007908005D01*
X-01835691Y007908005D02*
X-01830366Y007888964D01*
X-01830366Y007888964D02*
X-01814390Y007874386D01*
X-01814390Y007874386D02*
X-01797653Y007863973D01*
X-01797653Y007863973D02*
X-01755811Y007848502D01*
X-01755811Y007848502D02*
X-01729945Y007834222D01*
X-01729945Y007834222D02*
X-01714349Y007817263D01*
X-01714349Y007817263D02*
X-01710925Y007793165D01*
X-01710925Y007793165D02*
X-01719674Y007769661D01*
X-01719674Y007769661D02*
X-01738693Y007755381D01*
X-01738693Y007755381D02*
X-01766462Y007745860D01*
X-01766462Y007745860D02*
X-01787763Y007746455D01*
X-01787763Y007746455D02*
X-01812868Y007754786D01*
X-01812868Y007754786D02*
X-01833029Y007768174D01*
X-01833029Y007768174D02*
X-01843679Y007787809D01*
X-01843679Y007787809D02*
X-01842919Y007807446D01*
X-01842919Y007807446D02*
X-01833029Y007827081D01*
X-01833029Y007827081D02*
X-01810966Y007844635D01*
X-01810966Y007844635D02*
X-01788904Y007852370D01*
X-01788904Y007852370D02*
X-01761136Y007861295D01*
X-01761136Y007861295D02*
X-01733748Y007875874D01*
X-01733748Y007875874D02*
X-01725380Y007889857D01*
X-01725380Y007889857D02*
X-01724999Y007913360D01*
X-01724999Y007913360D02*
X-01734509Y007930318D01*
X-01734509Y007930318D02*
X-01753909Y007940731D01*
X-01753909Y007940731D02*
X-01781297Y007942812D01*
D19*
X-12337500Y015525000D02*
X-16025000Y015525000D01*
X-16025000Y012075000D01*
X-12337500Y012075000D01*
D20*
X-13928686Y016047443D02*
X-13937262Y016068345D01*
X-13937262Y016068345D02*
X-13952994Y016083145D01*
X-13952994Y016083145D02*
X-13982788Y016092812D01*
X-13982788Y016092812D02*
X-14004805Y016089860D01*
X-14004805Y016089860D02*
X-14024207Y016079951D01*
X-14024207Y016079951D02*
X-14043153Y016057079D01*
X-14043153Y016057079D02*
X-14056381Y015997044D01*
X-14056381Y015997044D02*
X-14046000Y015936692D01*
X-14046000Y015936692D02*
X-14030514Y015912389D01*
X-14030514Y015912389D02*
X-14014414Y015901016D01*
X-14014414Y015901016D02*
X-13983048Y015895860D01*
X-13983048Y015895860D02*
X-13955712Y015902450D01*
X-13955712Y015902450D02*
X-13935472Y015921680D01*
X-13935472Y015921680D02*
X-13928686Y015948822D01*
X-13738281Y016050634D02*
X-13693145Y016089121D01*
X-13693145Y016089121D02*
X-13693145Y015899290D01*
D19*
X003462500Y007225000D02*
X-00225000Y007225000D01*
X-00225000Y003775000D01*
X003462500Y003775000D01*
D20*
X001871314Y007747443D02*
X001862738Y007768345D01*
X001862738Y007768345D02*
X001847006Y007783145D01*
X001847006Y007783145D02*
X001817212Y007792812D01*
X001817212Y007792812D02*
X001795195Y007789860D01*
X001795195Y007789860D02*
X001775793Y007779951D01*
X001775793Y007779951D02*
X001756847Y007757079D01*
X001756847Y007757079D02*
X001743619Y007697044D01*
X001743619Y007697044D02*
X001754000Y007636692D01*
X001754000Y007636692D02*
X001769486Y007612389D01*
X001769486Y007612389D02*
X001785586Y007601016D01*
X001785586Y007601016D02*
X001816952Y007595860D01*
X001816952Y007595860D02*
X001844288Y007602450D01*
X001844288Y007602450D02*
X001864528Y007621680D01*
X001864528Y007621680D02*
X001871314Y007648822D01*
X002030915Y007755206D02*
X002035174Y007769158D01*
X002035174Y007769158D02*
X002047760Y007782170D01*
X002047760Y007782170D02*
X002068386Y007790993D01*
X002068386Y007790993D02*
X002081625Y007792812D01*
X002081625Y007792812D02*
X002104529Y007791136D01*
X002104529Y007791136D02*
X002121711Y007783603D01*
X002121711Y007783603D02*
X002131107Y007772050D01*
X002131107Y007772050D02*
X002134482Y007758624D01*
X002134482Y007758624D02*
X002134258Y007749694D01*
X002134258Y007749694D02*
X002130225Y007734746D01*
X002130225Y007734746D02*
X002112720Y007705683D01*
X002112720Y007705683D02*
X002068638Y007650397D01*
X002068638Y007650397D02*
X002022285Y007599547D01*
X002022285Y007599547D02*
X002146289Y007599547D01*
D19*
X-06675000Y004375000D02*
X-08925000Y004375000D01*
X-08925000Y002625000D01*
X-06675000Y002625000D01*
D20*
X-07628686Y004897443D02*
X-07637262Y004918345D01*
X-07637262Y004918345D02*
X-07652994Y004933145D01*
X-07652994Y004933145D02*
X-07682788Y004942812D01*
X-07682788Y004942812D02*
X-07704805Y004939860D01*
X-07704805Y004939860D02*
X-07724207Y004929951D01*
X-07724207Y004929951D02*
X-07743153Y004907079D01*
X-07743153Y004907079D02*
X-07756381Y004847044D01*
X-07756381Y004847044D02*
X-07746000Y004786692D01*
X-07746000Y004786692D02*
X-07730514Y004762389D01*
X-07730514Y004762389D02*
X-07714414Y004751016D01*
X-07714414Y004751016D02*
X-07683048Y004745860D01*
X-07683048Y004745860D02*
X-07655712Y004752450D01*
X-07655712Y004752450D02*
X-07635472Y004771680D01*
X-07635472Y004771680D02*
X-07628686Y004798822D01*
X-07477150Y004918380D02*
X-07466637Y004926623D01*
X-07466637Y004926623D02*
X-07449881Y004935455D01*
X-07449881Y004935455D02*
X-07428526Y004942812D01*
X-07428526Y004942812D02*
X-07402243Y004941343D01*
X-07402243Y004941343D02*
X-07379244Y004933983D01*
X-07379244Y004933983D02*
X-07362817Y004920735D01*
X-07362817Y004920735D02*
X-07352961Y004904543D01*
X-07352961Y004904543D02*
X-07356246Y004886878D01*
X-07356246Y004886878D02*
X-07369388Y004873630D01*
X-07369388Y004873630D02*
X-07392386Y004863326D01*
X-07392386Y004863326D02*
X-07418670Y004857438D01*
X-07418670Y004857438D02*
X-07441668Y004854494D01*
X-07441668Y004854494D02*
X-07418670Y004851550D01*
X-07418670Y004851550D02*
X-07392386Y004844190D01*
X-07392386Y004844190D02*
X-07369388Y004832414D01*
X-07369388Y004832414D02*
X-07354603Y004816222D01*
X-07354603Y004816222D02*
X-07351318Y004798558D01*
X-07351318Y004798558D02*
X-07357889Y004779422D01*
X-07357889Y004779422D02*
X-07372673Y004763230D01*
X-07372673Y004763230D02*
X-07395672Y004749982D01*
X-07395672Y004749982D02*
X-07413085Y004745860D01*
X-07413085Y004745860D02*
X-07441339Y004746449D01*
X-07441339Y004746449D02*
X-07464337Y004749982D01*
X-07464337Y004749982D02*
X-07480107Y004754692D01*
D16*
X010621068Y013760182D02*
X010621068Y013475433D01*
X010623116Y013758245D02*
X010801332Y013758245D01*
X010623116Y013618776D02*
X010772653Y013618776D01*
X011046372Y013709310D02*
X011052761Y013730237D01*
X011052761Y013730237D02*
X011071640Y013749754D01*
X011071640Y013749754D02*
X011102580Y013762990D01*
X011102580Y013762990D02*
X011122438Y013765719D01*
X011122438Y013765719D02*
X011156794Y013763204D01*
X011156794Y013763204D02*
X011182567Y013751904D01*
X011182567Y013751904D02*
X011196660Y013734574D01*
X011196660Y013734574D02*
X011201723Y013714437D01*
X011201723Y013714437D02*
X011201387Y013701041D01*
X011201387Y013701041D02*
X011195337Y013678619D01*
X011195337Y013678619D02*
X011169080Y013635025D01*
X011169080Y013635025D02*
X011102956Y013552096D01*
X011102956Y013552096D02*
X011033428Y013475821D01*
X011033428Y013475821D02*
X011219434Y013475821D01*
D19*
X015325000Y009535000D02*
X013075000Y009535000D01*
X013075000Y007785000D01*
X015325000Y007785000D01*
D20*
X014371314Y010057443D02*
X014362738Y010078345D01*
X014362738Y010078345D02*
X014347006Y010093145D01*
X014347006Y010093145D02*
X014317212Y010102812D01*
X014317212Y010102812D02*
X014295195Y010099860D01*
X014295195Y010099860D02*
X014275793Y010089951D01*
X014275793Y010089951D02*
X014256847Y010067079D01*
X014256847Y010067079D02*
X014243619Y010007044D01*
X014243619Y010007044D02*
X014254000Y009946692D01*
X014254000Y009946692D02*
X014269486Y009922389D01*
X014269486Y009922389D02*
X014285586Y009911016D01*
X014285586Y009911016D02*
X014316952Y009905860D01*
X014316952Y009905860D02*
X014344288Y009912450D01*
X014344288Y009912450D02*
X014364528Y009931680D01*
X014364528Y009931680D02*
X014371314Y009958822D01*
X014580293Y010102812D02*
X014558992Y010098946D01*
X014558992Y010098946D02*
X014539592Y010089426D01*
X014539592Y010089426D02*
X014525898Y010068005D01*
X014525898Y010068005D02*
X014531224Y010048964D01*
X014531224Y010048964D02*
X014547200Y010034386D01*
X014547200Y010034386D02*
X014563937Y010023973D01*
X014563937Y010023973D02*
X014605779Y010008502D01*
X014605779Y010008502D02*
X014631645Y009994222D01*
X014631645Y009994222D02*
X014647241Y009977263D01*
X014647241Y009977263D02*
X014650664Y009953165D01*
X014650664Y009953165D02*
X014641915Y009929661D01*
X014641915Y009929661D02*
X014622896Y009915381D01*
X014622896Y009915381D02*
X014595128Y009905860D01*
X014595128Y009905860D02*
X014573826Y009906455D01*
X014573826Y009906455D02*
X014548721Y009914786D01*
X014548721Y009914786D02*
X014528561Y009928174D01*
X014528561Y009928174D02*
X014517910Y009947809D01*
X014517910Y009947809D02*
X014518671Y009967446D01*
X014518671Y009967446D02*
X014528561Y009987081D01*
X014528561Y009987081D02*
X014550623Y010004635D01*
X014550623Y010004635D02*
X014572685Y010012370D01*
X014572685Y010012370D02*
X014600453Y010021295D01*
X014600453Y010021295D02*
X014627841Y010035874D01*
X014627841Y010035874D02*
X014636210Y010049857D01*
X014636210Y010049857D02*
X014636590Y010073360D01*
X014636590Y010073360D02*
X014627081Y010090318D01*
X014627081Y010090318D02*
X014607681Y010100731D01*
X014607681Y010100731D02*
X014580293Y010102812D01*
D42*
X-03305295Y-08271359D02*
X-03193427Y-08271046D01*
X-03193427Y-08271046D02*
X-03162995Y-08268887D01*
X-03162995Y-08268887D02*
X-03140454Y-08263365D01*
X-03140454Y-08263365D02*
X-03123308Y-08252778D01*
X-03123308Y-08252778D02*
X-03111972Y-08238928D01*
X-03111972Y-08238928D02*
X-03103784Y-08218237D01*
X-03103784Y-08218237D02*
X-03100688Y-08192128D01*
X-03100688Y-08192128D02*
X-03103787Y-08173804D01*
X-03103787Y-08173804D02*
X-03111953Y-08158775D01*
X-03111953Y-08158775D02*
X-03121519Y-08149781D01*
X-03121519Y-08149781D02*
X-03127808Y-08145919D01*
X-03127808Y-08145919D02*
X-03143841Y-08140012D01*
X-03143841Y-08140012D02*
X-03165081Y-08137254D01*
X-03165081Y-08137254D02*
X-03304992Y-08135769D01*
X-03269437Y-07967314D02*
X-03284188Y-07962811D01*
X-03284188Y-07962811D02*
X-03297945Y-07949504D01*
X-03297945Y-07949504D02*
X-03307274Y-07927696D01*
X-03307274Y-07927696D02*
X-03309197Y-07913699D01*
X-03309197Y-07913699D02*
X-03307425Y-07889482D01*
X-03307425Y-07889482D02*
X-03299460Y-07871316D01*
X-03299460Y-07871316D02*
X-03287245Y-07861382D01*
X-03287245Y-07861382D02*
X-03273051Y-07857814D01*
X-03273051Y-07857814D02*
X-03263609Y-07858050D01*
X-03263609Y-07858050D02*
X-03247805Y-07862315D01*
X-03247805Y-07862315D02*
X-03217077Y-07880822D01*
X-03217077Y-07880822D02*
X-03158623Y-07927430D01*
X-03158623Y-07927430D02*
X-03104860Y-07976438D01*
X-03104860Y-07976438D02*
X-03104860Y-07845329D01*
D19*
X-02837500Y-09937500D02*
X-02837500Y-10587500D01*
X-02187500Y-10587500D01*
D19*
X-02837500Y-06062500D02*
X-02837500Y-05412500D01*
X-02187500Y-05412500D01*
D19*
X-00162500Y-09937500D02*
X-00162500Y-10587500D01*
X-00812500Y-10587500D01*
D19*
X-00162500Y-06062500D02*
X-00162500Y-05412500D01*
X-00812500Y-05412500D01*
D19*
X-02512500Y-10668750D02*
X-02675000Y-10831250D01*
X-02350000Y-10831250D01*
X-02512500Y-10668750D01*
D26*
X-07837258Y-12477500D02*
X-07362742Y-12477500D01*
D26*
X-07837258Y-13522500D02*
X-07362742Y-13522500D01*
D20*
X-07867045Y-11749351D02*
X-07867045Y-11565796D01*
X-07867045Y-11565796D02*
X-07813225Y-11560879D01*
X-07813225Y-11560879D02*
X-07775450Y-11562523D01*
X-07775450Y-11562523D02*
X-07752662Y-11567574D01*
X-07752662Y-11567574D02*
X-07743080Y-11571692D01*
X-07743080Y-11571692D02*
X-07735194Y-11577052D01*
X-07735194Y-11577052D02*
X-07729368Y-11583789D01*
X-07729368Y-11583789D02*
X-07724231Y-11602057D01*
X-07724231Y-11602057D02*
X-07724713Y-11618258D01*
X-07724713Y-11618258D02*
X-07729971Y-11629989D01*
X-07729971Y-11629989D02*
X-07739408Y-11638025D01*
X-07739408Y-11638025D02*
X-07752427Y-11643144D01*
X-07752427Y-11643144D02*
X-07777366Y-11647047D01*
X-07777366Y-11647047D02*
X-07863478Y-11650096D01*
X-07791966Y-11657846D02*
X-07718022Y-11750712D01*
X-07579014Y-11560879D02*
X-07579014Y-11657116D01*
X-07579014Y-11657116D02*
X-07525057Y-11644460D01*
X-07525057Y-11644460D02*
X-07486531Y-11649221D01*
X-07486531Y-11649221D02*
X-07471199Y-11657813D01*
X-07471199Y-11657813D02*
X-07460552Y-11670005D01*
X-07460552Y-11670005D02*
X-07452412Y-11703232D01*
X-07452412Y-11703232D02*
X-07456261Y-11720494D01*
X-07456261Y-11720494D02*
X-07466363Y-11734079D01*
X-07466363Y-11734079D02*
X-07486214Y-11746696D01*
X-07486214Y-11746696D02*
X-07509155Y-11753334D01*
X-07509155Y-11753334D02*
X-07530728Y-11754399D01*
X-07530728Y-11754399D02*
X-07548896Y-11750935D01*
X-07548896Y-11750935D02*
X-07563581Y-11744142D01*
X-07563581Y-11744142D02*
X-07579014Y-11730170D01*
X-07579014Y-11560879D02*
X-07452412Y-11560879D01*
D26*
X-04637258Y-12477500D02*
X-04162742Y-12477500D01*
D26*
X-04637258Y-13522500D02*
X-04162742Y-13522500D01*
D20*
X-04667045Y-11749351D02*
X-04667045Y-11565796D01*
X-04667045Y-11565796D02*
X-04613225Y-11560879D01*
X-04613225Y-11560879D02*
X-04575450Y-11562523D01*
X-04575450Y-11562523D02*
X-04552662Y-11567574D01*
X-04552662Y-11567574D02*
X-04543080Y-11571692D01*
X-04543080Y-11571692D02*
X-04535194Y-11577052D01*
X-04535194Y-11577052D02*
X-04529368Y-11583789D01*
X-04529368Y-11583789D02*
X-04524231Y-11602057D01*
X-04524231Y-11602057D02*
X-04524713Y-11618258D01*
X-04524713Y-11618258D02*
X-04529971Y-11629989D01*
X-04529971Y-11629989D02*
X-04539408Y-11638025D01*
X-04539408Y-11638025D02*
X-04552427Y-11643144D01*
X-04552427Y-11643144D02*
X-04577366Y-11647047D01*
X-04577366Y-11647047D02*
X-04663478Y-11650096D01*
X-04591966Y-11657846D02*
X-04518022Y-11750712D01*
X-04280006Y-11557188D02*
X-04304399Y-11564815D01*
X-04304399Y-11564815D02*
X-04326996Y-11572388D01*
X-04326996Y-11572388D02*
X-04346187Y-11585851D01*
X-04346187Y-11585851D02*
X-04361107Y-11600071D01*
X-04361107Y-11600071D02*
X-04372499Y-11625118D01*
X-04372499Y-11625118D02*
X-04380330Y-11648595D01*
X-04380330Y-11648595D02*
X-04381166Y-11672800D01*
X-04381166Y-11672800D02*
X-04381754Y-11696922D01*
X-04381754Y-11696922D02*
X-04375594Y-11714872D01*
X-04375594Y-11714872D02*
X-04369713Y-11726092D01*
X-04369713Y-11726092D02*
X-04355784Y-11740677D01*
X-04355784Y-11740677D02*
X-04340925Y-11750494D01*
X-04340925Y-11750494D02*
X-04318019Y-11754140D01*
X-04318019Y-11754140D02*
X-04292327Y-11752738D01*
X-04292327Y-11752738D02*
X-04272205Y-11743762D01*
X-04272205Y-11743762D02*
X-04257967Y-11731702D01*
X-04257967Y-11731702D02*
X-04250228Y-11715153D01*
X-04250228Y-11715153D02*
X-04249609Y-11701129D01*
X-04249609Y-11701129D02*
X-04253942Y-11686263D01*
X-04253942Y-11686263D02*
X-04260443Y-11673642D01*
X-04260443Y-11673642D02*
X-04270348Y-11663264D01*
X-04270348Y-11663264D02*
X-04283969Y-11656813D01*
X-04283969Y-11656813D02*
X-04302851Y-11652605D01*
X-04302851Y-11652605D02*
X-04320805Y-11651764D01*
X-04320805Y-11651764D02*
X-04339687Y-11654569D01*
X-04339687Y-11654569D02*
X-04359188Y-11664666D01*
X-04359188Y-11664666D02*
X-04369403Y-11675044D01*
X-04369403Y-11675044D02*
X-04381816Y-11687722D01*
D26*
X-01437258Y-12477500D02*
X-00962742Y-12477500D01*
D26*
X-01437258Y-13522500D02*
X-00962742Y-13522500D01*
D20*
X-01467045Y-11749351D02*
X-01467045Y-11565796D01*
X-01467045Y-11565796D02*
X-01413225Y-11560879D01*
X-01413225Y-11560879D02*
X-01375450Y-11562523D01*
X-01375450Y-11562523D02*
X-01352662Y-11567574D01*
X-01352662Y-11567574D02*
X-01343080Y-11571692D01*
X-01343080Y-11571692D02*
X-01335194Y-11577052D01*
X-01335194Y-11577052D02*
X-01329368Y-11583789D01*
X-01329368Y-11583789D02*
X-01324231Y-11602057D01*
X-01324231Y-11602057D02*
X-01324713Y-11618258D01*
X-01324713Y-11618258D02*
X-01329971Y-11629989D01*
X-01329971Y-11629989D02*
X-01339408Y-11638025D01*
X-01339408Y-11638025D02*
X-01352427Y-11643144D01*
X-01352427Y-11643144D02*
X-01377366Y-11647047D01*
X-01377366Y-11647047D02*
X-01463478Y-11650096D01*
X-01391966Y-11657846D02*
X-01318022Y-11750712D01*
X-01179970Y-11560879D02*
X-01051455Y-11560879D01*
X-01051455Y-11560879D02*
X-01061138Y-11566677D01*
X-01061138Y-11566677D02*
X-01066229Y-11570514D01*
X-01066229Y-11570514D02*
X-01078148Y-11581911D01*
X-01078148Y-11581911D02*
X-01084621Y-11589758D01*
X-01084621Y-11589758D02*
X-01091202Y-11599229D01*
X-01091202Y-11599229D02*
X-01097712Y-11610467D01*
X-01097712Y-11610467D02*
X-01103976Y-11623617D01*
X-01103976Y-11623617D02*
X-01109817Y-11638822D01*
X-01109817Y-11638822D02*
X-01115058Y-11656227D01*
X-01115058Y-11656227D02*
X-01119524Y-11675974D01*
X-01119524Y-11675974D02*
X-01124378Y-11710302D01*
X-01124378Y-11710302D02*
X-01126492Y-11750712D01*
D26*
X001562742Y-13477500D02*
X002037258Y-13477500D01*
D26*
X001562742Y-14522500D02*
X002037258Y-14522500D01*
D20*
X001532955Y-12749351D02*
X001532955Y-12565796D01*
X001532955Y-12565796D02*
X001586775Y-12560879D01*
X001586775Y-12560879D02*
X001624550Y-12562523D01*
X001624550Y-12562523D02*
X001647338Y-12567574D01*
X001647338Y-12567574D02*
X001656920Y-12571692D01*
X001656920Y-12571692D02*
X001664806Y-12577052D01*
X001664806Y-12577052D02*
X001670632Y-12583789D01*
X001670632Y-12583789D02*
X001675769Y-12602057D01*
X001675769Y-12602057D02*
X001675287Y-12618258D01*
X001675287Y-12618258D02*
X001670029Y-12629989D01*
X001670029Y-12629989D02*
X001660592Y-12638025D01*
X001660592Y-12638025D02*
X001647573Y-12643144D01*
X001647573Y-12643144D02*
X001622634Y-12647047D01*
X001622634Y-12647047D02*
X001536522Y-12650096D01*
X001608034Y-12657846D02*
X001681978Y-12750712D01*
X001880293Y-12557188D02*
X001858992Y-12561054D01*
X001858992Y-12561054D02*
X001839592Y-12570574D01*
X001839592Y-12570574D02*
X001825898Y-12591995D01*
X001825898Y-12591995D02*
X001831224Y-12611036D01*
X001831224Y-12611036D02*
X001847200Y-12625614D01*
X001847200Y-12625614D02*
X001863937Y-12636027D01*
X001863937Y-12636027D02*
X001905779Y-12651498D01*
X001905779Y-12651498D02*
X001931645Y-12665778D01*
X001931645Y-12665778D02*
X001947241Y-12682737D01*
X001947241Y-12682737D02*
X001950664Y-12706835D01*
X001950664Y-12706835D02*
X001941915Y-12730339D01*
X001941915Y-12730339D02*
X001922896Y-12744619D01*
X001922896Y-12744619D02*
X001895128Y-12754140D01*
X001895128Y-12754140D02*
X001873826Y-12753545D01*
X001873826Y-12753545D02*
X001848721Y-12745214D01*
X001848721Y-12745214D02*
X001828561Y-12731826D01*
X001828561Y-12731826D02*
X001817910Y-12712191D01*
X001817910Y-12712191D02*
X001818671Y-12692554D01*
X001818671Y-12692554D02*
X001828561Y-12672919D01*
X001828561Y-12672919D02*
X001850623Y-12655365D01*
X001850623Y-12655365D02*
X001872685Y-12647630D01*
X001872685Y-12647630D02*
X001900453Y-12638705D01*
X001900453Y-12638705D02*
X001927841Y-12624126D01*
X001927841Y-12624126D02*
X001936210Y-12610143D01*
X001936210Y-12610143D02*
X001936590Y-12586640D01*
X001936590Y-12586640D02*
X001927081Y-12569682D01*
X001927081Y-12569682D02*
X001907681Y-12559269D01*
X001907681Y-12559269D02*
X001880293Y-12557188D01*
D44*
X003369142Y-10263606D02*
X003477814Y-10263301D01*
X003477814Y-10263301D02*
X003507376Y-10261204D01*
X003507376Y-10261204D02*
X003529274Y-10255840D01*
X003529274Y-10255840D02*
X003545929Y-10245556D01*
X003545929Y-10245556D02*
X003556942Y-10232101D01*
X003556942Y-10232101D02*
X003564896Y-10212001D01*
X003564896Y-10212001D02*
X003567903Y-10186639D01*
X003567903Y-10186639D02*
X003564892Y-10168838D01*
X003564892Y-10168838D02*
X003556960Y-10154238D01*
X003556960Y-10154238D02*
X003547667Y-10145501D01*
X003547667Y-10145501D02*
X003541558Y-10141750D01*
X003541558Y-10141750D02*
X003525983Y-10136012D01*
X003525983Y-10136012D02*
X003505350Y-10133333D01*
X003505350Y-10133333D02*
X003369436Y-10131890D01*
X003390446Y-09976531D02*
X003381979Y-09965733D01*
X003381979Y-09965733D02*
X003372908Y-09948524D01*
X003372908Y-09948524D02*
X003365351Y-09926590D01*
X003365351Y-09926590D02*
X003366861Y-09899595D01*
X003366861Y-09899595D02*
X003374420Y-09875974D01*
X003374420Y-09875974D02*
X003388027Y-09859101D01*
X003388027Y-09859101D02*
X003404657Y-09848978D01*
X003404657Y-09848978D02*
X003422800Y-09852353D01*
X003422800Y-09852353D02*
X003436407Y-09865850D01*
X003436407Y-09865850D02*
X003446990Y-09889472D01*
X003446990Y-09889472D02*
X003453037Y-09916467D01*
X003453037Y-09916467D02*
X003456061Y-09940088D01*
X003456061Y-09940088D02*
X003459085Y-09916467D01*
X003459085Y-09916467D02*
X003466644Y-09889472D01*
X003466644Y-09889472D02*
X003478739Y-09865850D01*
X003478739Y-09865850D02*
X003495370Y-09850665D01*
X003495370Y-09850665D02*
X003513512Y-09847291D01*
X003513512Y-09847291D02*
X003533167Y-09854040D01*
X003533167Y-09854040D02*
X003549797Y-09869225D01*
X003549797Y-09869225D02*
X003563404Y-09892846D01*
X003563404Y-09892846D02*
X003567637Y-09910731D01*
X003567637Y-09910731D02*
X003567033Y-09939750D01*
X003567033Y-09939750D02*
X003563404Y-09963371D01*
X003563404Y-09963371D02*
X003558566Y-09979568D01*
D19*
X003835000Y-12545000D02*
X003835000Y-13045000D01*
X004335000Y-13045000D01*
D19*
X003835000Y-07455000D02*
X003835000Y-06955000D01*
X004335000Y-06955000D01*
D19*
X006365000Y-12545000D02*
X006365000Y-13045000D01*
X005865000Y-13045000D01*
D19*
X006365000Y-07455000D02*
X006365000Y-06955000D01*
X005865000Y-06955000D01*
D19*
X004085000Y-13107500D02*
X003960000Y-13232500D01*
X004210000Y-13232500D01*
X004085000Y-13107500D01*
D19*
X005625000Y-13625000D02*
X003375000Y-13625000D01*
X003375000Y-15375000D01*
X005625000Y-15375000D01*
D20*
X004671314Y-13102557D02*
X004662738Y-13081655D01*
X004662738Y-13081655D02*
X004647006Y-13066855D01*
X004647006Y-13066855D02*
X004617212Y-13057188D01*
X004617212Y-13057188D02*
X004595195Y-13060140D01*
X004595195Y-13060140D02*
X004575793Y-13070049D01*
X004575793Y-13070049D02*
X004556847Y-13092921D01*
X004556847Y-13092921D02*
X004543619Y-13152956D01*
X004543619Y-13152956D02*
X004554000Y-13213308D01*
X004554000Y-13213308D02*
X004569486Y-13237611D01*
X004569486Y-13237611D02*
X004585586Y-13248984D01*
X004585586Y-13248984D02*
X004616952Y-13254140D01*
X004616952Y-13254140D02*
X004644288Y-13247550D01*
X004644288Y-13247550D02*
X004664528Y-13228320D01*
X004664528Y-13228320D02*
X004671314Y-13201178D01*
X004943087Y-13107587D02*
X004937487Y-13082387D01*
X004937487Y-13082387D02*
X004926287Y-13068387D01*
X004926287Y-13068387D02*
X004909487Y-13059987D01*
X004909487Y-13059987D02*
X004887087Y-13057188D01*
X004887087Y-13057188D02*
X004864687Y-13059987D01*
X004864687Y-13059987D02*
X004845087Y-13068387D01*
X004845087Y-13068387D02*
X004831087Y-13082387D01*
X004831087Y-13082387D02*
X004825487Y-13101987D01*
X004825487Y-13101987D02*
X004831087Y-13121587D01*
X004831087Y-13121587D02*
X004845087Y-13135587D01*
X004845087Y-13135587D02*
X004864687Y-13143987D01*
X004864687Y-13143987D02*
X004887087Y-13146787D01*
X004887087Y-13146787D02*
X004909487Y-13141187D01*
X004909487Y-13141187D02*
X004926287Y-13129987D01*
X004926287Y-13129987D02*
X004937487Y-13118787D01*
X004937487Y-13118787D02*
X004943087Y-13107587D01*
X004942807Y-13107867D02*
X004921527Y-13163307D01*
X004921527Y-13163307D02*
X004906687Y-13202787D01*
X004906687Y-13202787D02*
X004894367Y-13231347D01*
X004894367Y-13231347D02*
X004884287Y-13253187D01*
D19*
X009025000Y-13625000D02*
X006775000Y-13625000D01*
X006775000Y-15375000D01*
X009025000Y-15375000D01*
D20*
X007932904Y-13102557D02*
X007924328Y-13081655D01*
X007924328Y-13081655D02*
X007908595Y-13066855D01*
X007908595Y-13066855D02*
X007878801Y-13057188D01*
X007878801Y-13057188D02*
X007856785Y-13060140D01*
X007856785Y-13060140D02*
X007837382Y-13070049D01*
X007837382Y-13070049D02*
X007818437Y-13092921D01*
X007818437Y-13092921D02*
X007805208Y-13152956D01*
X007805208Y-13152956D02*
X007815589Y-13213308D01*
X007815589Y-13213308D02*
X007831075Y-13237611D01*
X007831075Y-13237611D02*
X007847176Y-13248984D01*
X007847176Y-13248984D02*
X007878542Y-13254140D01*
X007878542Y-13254140D02*
X007905877Y-13247550D01*
X007905877Y-13247550D02*
X007926117Y-13228320D01*
X007926117Y-13228320D02*
X007932904Y-13201178D01*
X008123309Y-13099366D02*
X008168445Y-13060879D01*
X008168445Y-13060879D02*
X008168445Y-13250710D01*
X008422697Y-13057188D02*
X008396256Y-13064348D01*
X008396256Y-13064348D02*
X008372582Y-13086166D01*
X008372582Y-13086166D02*
X008359669Y-13117843D01*
X008359669Y-13117843D02*
X008356594Y-13164822D01*
X008356594Y-13164822D02*
X008363973Y-13204209D01*
X008363973Y-13204209D02*
X008383036Y-13236850D01*
X008383036Y-13236850D02*
X008410400Y-13254140D01*
X008410400Y-13254140D02*
X008434996Y-13254140D01*
X008434996Y-13254140D02*
X008462360Y-13236850D01*
X008462360Y-13236850D02*
X008481422Y-13204209D01*
X008481422Y-13204209D02*
X008488801Y-13164822D01*
X008488801Y-13164822D02*
X008485727Y-13117843D01*
X008485727Y-13117843D02*
X008472814Y-13086166D01*
X008472814Y-13086166D02*
X008449139Y-13064348D01*
X008449139Y-13064348D02*
X008422697Y-13057188D01*
D19*
X002700000Y-03050000D02*
X001000000Y-03050000D01*
X001000000Y-02225000D01*
D19*
X002700000Y000250000D02*
X001000000Y000250000D01*
X001000000Y-00575000D01*
D23*
X002323467Y-03742861D02*
X002320883Y-03975223D01*
X002320883Y-03975223D02*
X002286100Y-03980151D01*
X002286100Y-03980151D02*
X002259454Y-03979578D01*
X002259454Y-03979578D02*
X002216173Y-03967873D01*
X002216173Y-03967873D02*
X002184165Y-03942594D01*
X002184165Y-03942594D02*
X002165864Y-03908556D01*
X002165864Y-03908556D02*
X002158569Y-03873263D01*
X002158569Y-03873263D02*
X002157866Y-03846690D01*
X002157866Y-03846690D02*
X002161203Y-03823917D01*
X002161203Y-03823917D02*
X002168029Y-03804653D01*
X002168029Y-03804653D02*
X002189944Y-03775507D01*
X002189944Y-03775507D02*
X002219201Y-03756952D01*
X002219201Y-03756952D02*
X002267205Y-03743948D01*
X002267205Y-03743948D02*
X002323467Y-03742861D01*
X001853527Y-03980151D02*
X001982910Y-03821530D01*
X001982910Y-03821530D02*
X001806372Y-03821530D01*
X001855037Y-03872642D02*
X001855037Y-03742861D01*
D19*
X006300000Y-03050000D02*
X004600000Y-03050000D01*
X004600000Y-02225000D01*
D19*
X006300000Y000250000D02*
X004600000Y000250000D01*
X004600000Y-00575000D01*
D23*
X005923467Y-03742861D02*
X005920883Y-03975223D01*
X005920883Y-03975223D02*
X005886100Y-03980151D01*
X005886100Y-03980151D02*
X005859454Y-03979578D01*
X005859454Y-03979578D02*
X005816173Y-03967873D01*
X005816173Y-03967873D02*
X005784165Y-03942594D01*
X005784165Y-03942594D02*
X005765864Y-03908556D01*
X005765864Y-03908556D02*
X005758569Y-03873263D01*
X005758569Y-03873263D02*
X005757866Y-03846690D01*
X005757866Y-03846690D02*
X005761203Y-03823917D01*
X005761203Y-03823917D02*
X005768029Y-03804653D01*
X005768029Y-03804653D02*
X005789944Y-03775507D01*
X005789944Y-03775507D02*
X005819201Y-03756952D01*
X005819201Y-03756952D02*
X005867205Y-03743948D01*
X005867205Y-03743948D02*
X005923467Y-03742861D01*
X005573767Y-03980151D02*
X005573767Y-03859855D01*
X005573767Y-03859855D02*
X005506321Y-03875675D01*
X005506321Y-03875675D02*
X005458164Y-03869724D01*
X005458164Y-03869724D02*
X005438999Y-03858984D01*
X005438999Y-03858984D02*
X005425690Y-03843744D01*
X005425690Y-03843744D02*
X005415515Y-03802210D01*
X005415515Y-03802210D02*
X005420327Y-03780633D01*
X005420327Y-03780633D02*
X005432954Y-03763651D01*
X005432954Y-03763651D02*
X005457768Y-03747880D01*
X005457768Y-03747880D02*
X005486444Y-03739582D01*
X005486444Y-03739582D02*
X005513410Y-03738251D01*
X005513410Y-03738251D02*
X005536119Y-03742582D01*
X005536119Y-03742582D02*
X005554476Y-03751072D01*
X005554476Y-03751072D02*
X005573767Y-03768538D01*
X005573767Y-03980151D02*
X005415515Y-03980151D01*
D19*
X010000000Y-03050000D02*
X008300000Y-03050000D01*
X008300000Y-02225000D01*
D19*
X010000000Y000250000D02*
X008300000Y000250000D01*
X008300000Y-00575000D01*
D23*
X009623467Y-03742861D02*
X009620883Y-03975223D01*
X009620883Y-03975223D02*
X009586100Y-03980151D01*
X009586100Y-03980151D02*
X009559454Y-03979578D01*
X009559454Y-03979578D02*
X009516173Y-03967873D01*
X009516173Y-03967873D02*
X009484165Y-03942594D01*
X009484165Y-03942594D02*
X009465864Y-03908556D01*
X009465864Y-03908556D02*
X009458569Y-03873263D01*
X009458569Y-03873263D02*
X009457866Y-03846690D01*
X009457866Y-03846690D02*
X009461203Y-03823917D01*
X009461203Y-03823917D02*
X009468029Y-03804653D01*
X009468029Y-03804653D02*
X009489944Y-03775507D01*
X009489944Y-03775507D02*
X009519201Y-03756952D01*
X009519201Y-03756952D02*
X009567205Y-03743948D01*
X009567205Y-03743948D02*
X009623467Y-03742861D01*
X009150008Y-03984765D02*
X009180498Y-03975231D01*
X009180498Y-03975231D02*
X009208745Y-03965765D01*
X009208745Y-03965765D02*
X009232734Y-03948936D01*
X009232734Y-03948936D02*
X009251384Y-03931161D01*
X009251384Y-03931161D02*
X009265623Y-03899852D01*
X009265623Y-03899852D02*
X009275413Y-03870507D01*
X009275413Y-03870507D02*
X009276458Y-03840249D01*
X009276458Y-03840249D02*
X009277193Y-03810098D01*
X009277193Y-03810098D02*
X009269493Y-03787659D01*
X009269493Y-03787659D02*
X009262141Y-03773635D01*
X009262141Y-03773635D02*
X009244729Y-03755404D01*
X009244729Y-03755404D02*
X009226157Y-03743133D01*
X009226157Y-03743133D02*
X009197524Y-03738575D01*
X009197524Y-03738575D02*
X009165408Y-03740328D01*
X009165408Y-03740328D02*
X009140257Y-03751547D01*
X009140257Y-03751547D02*
X009122458Y-03766623D01*
X009122458Y-03766623D02*
X009112785Y-03787309D01*
X009112785Y-03787309D02*
X009112011Y-03804839D01*
X009112011Y-03804839D02*
X009117428Y-03823421D01*
X009117428Y-03823421D02*
X009125554Y-03839198D01*
X009125554Y-03839198D02*
X009137935Y-03852170D01*
X009137935Y-03852170D02*
X009154961Y-03860234D01*
X009154961Y-03860234D02*
X009178564Y-03865493D01*
X009178564Y-03865493D02*
X009201006Y-03866545D01*
X009201006Y-03866545D02*
X009224609Y-03863039D01*
X009224609Y-03863039D02*
X009248985Y-03850417D01*
X009248985Y-03850417D02*
X009261754Y-03837445D01*
X009261754Y-03837445D02*
X009277270Y-03821598D01*
D19*
X017500000Y-04650000D02*
X015800000Y-04650000D01*
X015800000Y-03825000D01*
D19*
X017500000Y-01350000D02*
X015800000Y-01350000D01*
X015800000Y-02175000D01*
D23*
X017123467Y-05342861D02*
X017120883Y-05575223D01*
X017120883Y-05575223D02*
X017086100Y-05580151D01*
X017086100Y-05580151D02*
X017059454Y-05579578D01*
X017059454Y-05579578D02*
X017016173Y-05567873D01*
X017016173Y-05567873D02*
X016984165Y-05542594D01*
X016984165Y-05542594D02*
X016965864Y-05508556D01*
X016965864Y-05508556D02*
X016958569Y-05473263D01*
X016958569Y-05473263D02*
X016957866Y-05446690D01*
X016957866Y-05446690D02*
X016961203Y-05423917D01*
X016961203Y-05423917D02*
X016968029Y-05404653D01*
X016968029Y-05404653D02*
X016989944Y-05375507D01*
X016989944Y-05375507D02*
X017019201Y-05356952D01*
X017019201Y-05356952D02*
X017067205Y-05343948D01*
X017067205Y-05343948D02*
X017123467Y-05342861D01*
X016774963Y-05580151D02*
X016614318Y-05580151D01*
X016614318Y-05580151D02*
X016626423Y-05572904D01*
X016626423Y-05572904D02*
X016632787Y-05568108D01*
X016632787Y-05568108D02*
X016647685Y-05553861D01*
X016647685Y-05553861D02*
X016655777Y-05544052D01*
X016655777Y-05544052D02*
X016664002Y-05532214D01*
X016664002Y-05532214D02*
X016672140Y-05518166D01*
X016672140Y-05518166D02*
X016679970Y-05501728D01*
X016679970Y-05501728D02*
X016687272Y-05482722D01*
X016687272Y-05482722D02*
X016693823Y-05460967D01*
X016693823Y-05460967D02*
X016699404Y-05436283D01*
X016699404Y-05436283D02*
X016705473Y-05393373D01*
X016705473Y-05393373D02*
X016708115Y-05342861D01*
D26*
X001962742Y002022500D02*
X002437258Y002022500D01*
D26*
X001962742Y000977500D02*
X002437258Y000977500D01*
D20*
X001932955Y002750649D02*
X001932955Y002934204D01*
X001932955Y002934204D02*
X001986775Y002939121D01*
X001986775Y002939121D02*
X002024550Y002937477D01*
X002024550Y002937477D02*
X002047338Y002932426D01*
X002047338Y002932426D02*
X002056920Y002928308D01*
X002056920Y002928308D02*
X002064806Y002922948D01*
X002064806Y002922948D02*
X002070632Y002916211D01*
X002070632Y002916211D02*
X002075769Y002897943D01*
X002075769Y002897943D02*
X002075287Y002881742D01*
X002075287Y002881742D02*
X002070029Y002870011D01*
X002070029Y002870011D02*
X002060592Y002861975D01*
X002060592Y002861975D02*
X002047573Y002856856D01*
X002047573Y002856856D02*
X002022634Y002852953D01*
X002022634Y002852953D02*
X001936522Y002849904D01*
X002008034Y002842154D02*
X002081978Y002749288D01*
X002343087Y002892413D02*
X002337487Y002917613D01*
X002337487Y002917613D02*
X002326287Y002931613D01*
X002326287Y002931613D02*
X002309487Y002940013D01*
X002309487Y002940013D02*
X002287087Y002942812D01*
X002287087Y002942812D02*
X002264687Y002940013D01*
X002264687Y002940013D02*
X002245087Y002931613D01*
X002245087Y002931613D02*
X002231087Y002917613D01*
X002231087Y002917613D02*
X002225487Y002898013D01*
X002225487Y002898013D02*
X002231087Y002878413D01*
X002231087Y002878413D02*
X002245087Y002864413D01*
X002245087Y002864413D02*
X002264687Y002856013D01*
X002264687Y002856013D02*
X002287087Y002853213D01*
X002287087Y002853213D02*
X002309487Y002858813D01*
X002309487Y002858813D02*
X002326287Y002870013D01*
X002326287Y002870013D02*
X002337487Y002881213D01*
X002337487Y002881213D02*
X002343087Y002892413D01*
X002342807Y002892133D02*
X002321527Y002836693D01*
X002321527Y002836693D02*
X002306687Y002797213D01*
X002306687Y002797213D02*
X002294367Y002768653D01*
X002294367Y002768653D02*
X002284287Y002746813D01*
D26*
X005362742Y002022500D02*
X005837258Y002022500D01*
D26*
X005362742Y000977500D02*
X005837258Y000977500D01*
D20*
X005194544Y002750649D02*
X005194544Y002934204D01*
X005194544Y002934204D02*
X005248364Y002939121D01*
X005248364Y002939121D02*
X005286139Y002937477D01*
X005286139Y002937477D02*
X005308927Y002932426D01*
X005308927Y002932426D02*
X005318509Y002928308D01*
X005318509Y002928308D02*
X005326395Y002922948D01*
X005326395Y002922948D02*
X005332221Y002916211D01*
X005332221Y002916211D02*
X005337358Y002897943D01*
X005337358Y002897943D02*
X005336876Y002881742D01*
X005336876Y002881742D02*
X005331618Y002870011D01*
X005331618Y002870011D02*
X005322182Y002861975D01*
X005322182Y002861975D02*
X005309163Y002856856D01*
X005309163Y002856856D02*
X005284223Y002852953D01*
X005284223Y002852953D02*
X005198112Y002849904D01*
X005269624Y002842154D02*
X005343568Y002749288D01*
X005523309Y002900634D02*
X005568445Y002939121D01*
X005568445Y002939121D02*
X005568445Y002749290D01*
X005822697Y002942812D02*
X005796256Y002935652D01*
X005796256Y002935652D02*
X005772582Y002913834D01*
X005772582Y002913834D02*
X005759669Y002882157D01*
X005759669Y002882157D02*
X005756594Y002835178D01*
X005756594Y002835178D02*
X005763973Y002795791D01*
X005763973Y002795791D02*
X005783036Y002763150D01*
X005783036Y002763150D02*
X005810400Y002745860D01*
X005810400Y002745860D02*
X005834996Y002745860D01*
X005834996Y002745860D02*
X005862360Y002763150D01*
X005862360Y002763150D02*
X005881422Y002795791D01*
X005881422Y002795791D02*
X005888801Y002835178D01*
X005888801Y002835178D02*
X005885727Y002882157D01*
X005885727Y002882157D02*
X005872814Y002913834D01*
X005872814Y002913834D02*
X005849139Y002935652D01*
X005849139Y002935652D02*
X005822697Y002942812D01*
D26*
X009062742Y002022500D02*
X009537258Y002022500D01*
D26*
X009062742Y000977500D02*
X009537258Y000977500D01*
D20*
X008894544Y002750649D02*
X008894544Y002934204D01*
X008894544Y002934204D02*
X008948364Y002939121D01*
X008948364Y002939121D02*
X008986139Y002937477D01*
X008986139Y002937477D02*
X009008927Y002932426D01*
X009008927Y002932426D02*
X009018509Y002928308D01*
X009018509Y002928308D02*
X009026395Y002922948D01*
X009026395Y002922948D02*
X009032221Y002916211D01*
X009032221Y002916211D02*
X009037358Y002897943D01*
X009037358Y002897943D02*
X009036876Y002881742D01*
X009036876Y002881742D02*
X009031618Y002870011D01*
X009031618Y002870011D02*
X009022182Y002861975D01*
X009022182Y002861975D02*
X009009163Y002856856D01*
X009009163Y002856856D02*
X008984223Y002852953D01*
X008984223Y002852953D02*
X008898112Y002849904D01*
X008969624Y002842154D02*
X009043568Y002749288D01*
X009223309Y002900634D02*
X009268445Y002939121D01*
X009268445Y002939121D02*
X009268445Y002749290D01*
X009500130Y002900634D02*
X009545266Y002939121D01*
X009545266Y002939121D02*
X009545266Y002749290D01*
D26*
X016562742Y001022500D02*
X017037258Y001022500D01*
D26*
X016562742Y-00022500D02*
X017037258Y-00022500D01*
D20*
X016394544Y001750649D02*
X016394544Y001934204D01*
X016394544Y001934204D02*
X016448364Y001939121D01*
X016448364Y001939121D02*
X016486139Y001937477D01*
X016486139Y001937477D02*
X016508927Y001932426D01*
X016508927Y001932426D02*
X016518509Y001928308D01*
X016518509Y001928308D02*
X016526395Y001922948D01*
X016526395Y001922948D02*
X016532221Y001916211D01*
X016532221Y001916211D02*
X016537358Y001897943D01*
X016537358Y001897943D02*
X016536876Y001881742D01*
X016536876Y001881742D02*
X016531618Y001870011D01*
X016531618Y001870011D02*
X016522182Y001861975D01*
X016522182Y001861975D02*
X016509163Y001856856D01*
X016509163Y001856856D02*
X016484223Y001852953D01*
X016484223Y001852953D02*
X016398112Y001849904D01*
X016469624Y001842154D02*
X016543568Y001749288D01*
X016723309Y001900634D02*
X016768445Y001939121D01*
X016768445Y001939121D02*
X016768445Y001749290D01*
X016969325Y001905206D02*
X016973584Y001919158D01*
X016973584Y001919158D02*
X016986170Y001932170D01*
X016986170Y001932170D02*
X017006797Y001940993D01*
X017006797Y001940993D02*
X017020035Y001942812D01*
X017020035Y001942812D02*
X017042940Y001941136D01*
X017042940Y001941136D02*
X017060122Y001933603D01*
X017060122Y001933603D02*
X017069517Y001922050D01*
X017069517Y001922050D02*
X017072892Y001908624D01*
X017072892Y001908624D02*
X017072668Y001899694D01*
X017072668Y001899694D02*
X017068635Y001884746D01*
X017068635Y001884746D02*
X017051130Y001855683D01*
X017051130Y001855683D02*
X017007048Y001800397D01*
X017007048Y001800397D02*
X016960696Y001749547D01*
X016960696Y001749547D02*
X017084700Y001749547D01*
D19*
X002725000Y-05025000D02*
X000475000Y-05025000D01*
X000475000Y-06775000D01*
X002725000Y-06775000D01*
D20*
X001632904Y-04502557D02*
X001624328Y-04481655D01*
X001624328Y-04481655D02*
X001608595Y-04466855D01*
X001608595Y-04466855D02*
X001578801Y-04457188D01*
X001578801Y-04457188D02*
X001556785Y-04460140D01*
X001556785Y-04460140D02*
X001537382Y-04470049D01*
X001537382Y-04470049D02*
X001518437Y-04492921D01*
X001518437Y-04492921D02*
X001505208Y-04552956D01*
X001505208Y-04552956D02*
X001515589Y-04613308D01*
X001515589Y-04613308D02*
X001531075Y-04637611D01*
X001531075Y-04637611D02*
X001547176Y-04648984D01*
X001547176Y-04648984D02*
X001578542Y-04654140D01*
X001578542Y-04654140D02*
X001605877Y-04647550D01*
X001605877Y-04647550D02*
X001626117Y-04628320D01*
X001626117Y-04628320D02*
X001632904Y-04601178D01*
X001823309Y-04499366D02*
X001868445Y-04460879D01*
X001868445Y-04460879D02*
X001868445Y-04650710D01*
X002100130Y-04499366D02*
X002145266Y-04460879D01*
X002145266Y-04460879D02*
X002145266Y-04650710D01*
D19*
X006425000Y-04325000D02*
X004175000Y-04325000D01*
X004175000Y-06075000D01*
X006425000Y-06075000D01*
D20*
X005332904Y-03802557D02*
X005324328Y-03781655D01*
X005324328Y-03781655D02*
X005308595Y-03766855D01*
X005308595Y-03766855D02*
X005278801Y-03757188D01*
X005278801Y-03757188D02*
X005256785Y-03760140D01*
X005256785Y-03760140D02*
X005237382Y-03770049D01*
X005237382Y-03770049D02*
X005218437Y-03792921D01*
X005218437Y-03792921D02*
X005205208Y-03852956D01*
X005205208Y-03852956D02*
X005215589Y-03913308D01*
X005215589Y-03913308D02*
X005231075Y-03937611D01*
X005231075Y-03937611D02*
X005247176Y-03948984D01*
X005247176Y-03948984D02*
X005278542Y-03954140D01*
X005278542Y-03954140D02*
X005305877Y-03947550D01*
X005305877Y-03947550D02*
X005326117Y-03928320D01*
X005326117Y-03928320D02*
X005332904Y-03901178D01*
X005523309Y-03799366D02*
X005568445Y-03760879D01*
X005568445Y-03760879D02*
X005568445Y-03950710D01*
X005769325Y-03794794D02*
X005773584Y-03780842D01*
X005773584Y-03780842D02*
X005786170Y-03767830D01*
X005786170Y-03767830D02*
X005806797Y-03759007D01*
X005806797Y-03759007D02*
X005820035Y-03757188D01*
X005820035Y-03757188D02*
X005842940Y-03758864D01*
X005842940Y-03758864D02*
X005860122Y-03766397D01*
X005860122Y-03766397D02*
X005869517Y-03777950D01*
X005869517Y-03777950D02*
X005872892Y-03791376D01*
X005872892Y-03791376D02*
X005872668Y-03800306D01*
X005872668Y-03800306D02*
X005868635Y-03815254D01*
X005868635Y-03815254D02*
X005851130Y-03844317D01*
X005851130Y-03844317D02*
X005807048Y-03899603D01*
X005807048Y-03899603D02*
X005760696Y-03950453D01*
X005760696Y-03950453D02*
X005884700Y-03950453D01*
D19*
X010125000Y-05025000D02*
X007875000Y-05025000D01*
X007875000Y-06775000D01*
X010125000Y-06775000D01*
D20*
X009032904Y-04502557D02*
X009024328Y-04481655D01*
X009024328Y-04481655D02*
X009008595Y-04466855D01*
X009008595Y-04466855D02*
X008978801Y-04457188D01*
X008978801Y-04457188D02*
X008956785Y-04460140D01*
X008956785Y-04460140D02*
X008937382Y-04470049D01*
X008937382Y-04470049D02*
X008918437Y-04492921D01*
X008918437Y-04492921D02*
X008905208Y-04552956D01*
X008905208Y-04552956D02*
X008915589Y-04613308D01*
X008915589Y-04613308D02*
X008931075Y-04637611D01*
X008931075Y-04637611D02*
X008947176Y-04648984D01*
X008947176Y-04648984D02*
X008978542Y-04654140D01*
X008978542Y-04654140D02*
X009005877Y-04647550D01*
X009005877Y-04647550D02*
X009026117Y-04628320D01*
X009026117Y-04628320D02*
X009032904Y-04601178D01*
X009223309Y-04499366D02*
X009268445Y-04460879D01*
X009268445Y-04460879D02*
X009268445Y-04650710D01*
X009461260Y-04481620D02*
X009471774Y-04473377D01*
X009471774Y-04473377D02*
X009488529Y-04464545D01*
X009488529Y-04464545D02*
X009509885Y-04457188D01*
X009509885Y-04457188D02*
X009536168Y-04458657D01*
X009536168Y-04458657D02*
X009559166Y-04466017D01*
X009559166Y-04466017D02*
X009575594Y-04479265D01*
X009575594Y-04479265D02*
X009585450Y-04495457D01*
X009585450Y-04495457D02*
X009582164Y-04513122D01*
X009582164Y-04513122D02*
X009569023Y-04526370D01*
X009569023Y-04526370D02*
X009546024Y-04536674D01*
X009546024Y-04536674D02*
X009519740Y-04542562D01*
X009519740Y-04542562D02*
X009496743Y-04545506D01*
X009496743Y-04545506D02*
X009519740Y-04548450D01*
X009519740Y-04548450D02*
X009546024Y-04555810D01*
X009546024Y-04555810D02*
X009569023Y-04567586D01*
X009569023Y-04567586D02*
X009583807Y-04583778D01*
X009583807Y-04583778D02*
X009587092Y-04601442D01*
X009587092Y-04601442D02*
X009580522Y-04620578D01*
X009580522Y-04620578D02*
X009565737Y-04636770D01*
X009565737Y-04636770D02*
X009542738Y-04650018D01*
X009542738Y-04650018D02*
X009525326Y-04654140D01*
X009525326Y-04654140D02*
X009497071Y-04653551D01*
X009497071Y-04653551D02*
X009474073Y-04650018D01*
X009474073Y-04650018D02*
X009458303Y-04645308D01*
D19*
X017325000Y-05125000D02*
X015075000Y-05125000D01*
X015075000Y-06875000D01*
X017325000Y-06875000D01*
D20*
X016232904Y-04602557D02*
X016224328Y-04581655D01*
X016224328Y-04581655D02*
X016208595Y-04566855D01*
X016208595Y-04566855D02*
X016178801Y-04557188D01*
X016178801Y-04557188D02*
X016156785Y-04560140D01*
X016156785Y-04560140D02*
X016137382Y-04570049D01*
X016137382Y-04570049D02*
X016118437Y-04592921D01*
X016118437Y-04592921D02*
X016105208Y-04652956D01*
X016105208Y-04652956D02*
X016115589Y-04713308D01*
X016115589Y-04713308D02*
X016131075Y-04737611D01*
X016131075Y-04737611D02*
X016147176Y-04748984D01*
X016147176Y-04748984D02*
X016178542Y-04754140D01*
X016178542Y-04754140D02*
X016205877Y-04747550D01*
X016205877Y-04747550D02*
X016226117Y-04728320D01*
X016226117Y-04728320D02*
X016232904Y-04701178D01*
X016423309Y-04599366D02*
X016468445Y-04560879D01*
X016468445Y-04560879D02*
X016468445Y-04750710D01*
X016755589Y-04560879D02*
X016652082Y-04687776D01*
X016652082Y-04687776D02*
X016793313Y-04687776D01*
X016754381Y-04646887D02*
X016754381Y-04750712D01*
D19*
X014475000Y013675000D02*
X014475000Y014075000D01*
X014875000Y014075000D01*
D23*
X015179182Y014655151D02*
X015179552Y014522894D01*
X015179552Y014522894D02*
X015182104Y014486915D01*
X015182104Y014486915D02*
X015188632Y014460265D01*
X015188632Y014460265D02*
X015201149Y014439995D01*
X015201149Y014439995D02*
X015217524Y014426592D01*
X015217524Y014426592D02*
X015241986Y014416912D01*
X015241986Y014416912D02*
X015272853Y014413251D01*
X015272853Y014413251D02*
X015294518Y014416916D01*
X015294518Y014416916D02*
X015312286Y014426570D01*
X015312286Y014426570D02*
X015322919Y014437880D01*
X015322919Y014437880D02*
X015327485Y014445315D01*
X015327485Y014445315D02*
X015334469Y014464270D01*
X015334469Y014464270D02*
X015337729Y014489381D01*
X015337729Y014489381D02*
X015339485Y014654794D01*
X015646473Y014655151D02*
X015517090Y014496530D01*
X015517090Y014496530D02*
X015693628Y014496530D01*
X015644963Y014547642D02*
X015644963Y014417860D01*
D19*
X012325000Y014875000D02*
X010075000Y014875000D01*
X010075000Y013125000D01*
X012325000Y013125000D01*
D20*
X011232904Y015397443D02*
X011224328Y015418345D01*
X011224328Y015418345D02*
X011208595Y015433145D01*
X011208595Y015433145D02*
X011178801Y015442812D01*
X011178801Y015442812D02*
X011156785Y015439860D01*
X011156785Y015439860D02*
X011137382Y015429951D01*
X011137382Y015429951D02*
X011118437Y015407079D01*
X011118437Y015407079D02*
X011105208Y015347044D01*
X011105208Y015347044D02*
X011115589Y015286692D01*
X011115589Y015286692D02*
X011131075Y015262389D01*
X011131075Y015262389D02*
X011147176Y015251016D01*
X011147176Y015251016D02*
X011178542Y015245860D01*
X011178542Y015245860D02*
X011205877Y015252450D01*
X011205877Y015252450D02*
X011226117Y015271680D01*
X011226117Y015271680D02*
X011232904Y015298822D01*
X011423309Y015400634D02*
X011468445Y015439121D01*
X011468445Y015439121D02*
X011468445Y015249290D01*
X011659397Y015439121D02*
X011659397Y015342884D01*
X011659397Y015342884D02*
X011713354Y015355540D01*
X011713354Y015355540D02*
X011751880Y015350779D01*
X011751880Y015350779D02*
X011767211Y015342187D01*
X011767211Y015342187D02*
X011777858Y015329995D01*
X011777858Y015329995D02*
X011785999Y015296768D01*
X011785999Y015296768D02*
X011782149Y015279506D01*
X011782149Y015279506D02*
X011772047Y015265921D01*
X011772047Y015265921D02*
X011752196Y015253304D01*
X011752196Y015253304D02*
X011729255Y015246666D01*
X011729255Y015246666D02*
X011707682Y015245601D01*
X011707682Y015245601D02*
X011689515Y015249065D01*
X011689515Y015249065D02*
X011674829Y015255858D01*
X011674829Y015255858D02*
X011659397Y015269830D01*
X011659397Y015439121D02*
X011785999Y015439121D01*
D19*
X-08982500Y-06600000D02*
X-14017500Y-06600000D01*
X-14017500Y-05533333D01*
X-13813402Y-05492736D01*
X-13640376Y-05377124D01*
X-13524764Y-05204098D01*
X-13484167Y-05000000D01*
X-13524764Y-04795902D01*
X-13640376Y-04622876D01*
X-13813402Y-04507264D01*
X-14017500Y-04466667D01*
X-14017500Y-03400000D01*
X-08982500Y-03400000D01*
X-08982500Y-06600000D01*
D50*
X-14516821Y-05397547D02*
X-14352932Y-05397088D01*
X-14352932Y-05397088D02*
X-14308349Y-05393926D01*
X-14308349Y-05393926D02*
X-14275325Y-05385836D01*
X-14275325Y-05385836D02*
X-14250206Y-05370326D01*
X-14250206Y-05370326D02*
X-14233598Y-05350035D01*
X-14233598Y-05350035D02*
X-14221603Y-05319722D01*
X-14221603Y-05319722D02*
X-14217066Y-05281473D01*
X-14217066Y-05281473D02*
X-14221608Y-05254627D01*
X-14221608Y-05254627D02*
X-14233570Y-05232609D01*
X-14233570Y-05232609D02*
X-14247586Y-05219432D01*
X-14247586Y-05219432D02*
X-14256798Y-05213775D01*
X-14256798Y-05213775D02*
X-14280288Y-05205121D01*
X-14280288Y-05205121D02*
X-14311404Y-05201081D01*
X-14311404Y-05201081D02*
X-14516378Y-05198905D01*
X-14516821Y-04967493D02*
X-14367753Y-04967493D01*
X-14367753Y-04967493D02*
X-14387357Y-04883916D01*
X-14387357Y-04883916D02*
X-14379983Y-04824241D01*
X-14379983Y-04824241D02*
X-14366674Y-04800493D01*
X-14366674Y-04800493D02*
X-14347790Y-04784001D01*
X-14347790Y-04784001D02*
X-14296321Y-04771392D01*
X-14296321Y-04771392D02*
X-14269584Y-04777355D01*
X-14269584Y-04777355D02*
X-14248541Y-04793002D01*
X-14248541Y-04793002D02*
X-14228997Y-04823750D01*
X-14228997Y-04823750D02*
X-14218715Y-04859285D01*
X-14218715Y-04859285D02*
X-14217066Y-04892701D01*
X-14217066Y-04892701D02*
X-14222432Y-04920841D01*
X-14222432Y-04920841D02*
X-14232954Y-04943588D01*
X-14232954Y-04943588D02*
X-14254596Y-04967493D01*
X-14516821Y-04967493D02*
X-14516821Y-04771392D01*
D16*
X015588567Y-03595981D02*
X015307160Y-03595981D01*
X015307160Y-03595981D02*
X015303818Y-03534917D01*
X015303818Y-03534917D02*
X015313645Y-03479003D01*
X015313645Y-03479003D02*
X015346626Y-03441332D01*
X015346626Y-03441332D02*
X015394847Y-03447193D01*
X015394847Y-03447193D02*
X015420650Y-03491519D01*
X015420650Y-03491519D02*
X015431723Y-03587261D01*
X015431723Y-03587261D02*
X015437562Y-03494168D01*
X015437562Y-03494168D02*
X015461932Y-03425918D01*
X015461932Y-03425918D02*
X015499396Y-03396850D01*
X015499396Y-03396850D02*
X015547848Y-03399239D01*
X015547848Y-03399239D02*
X015569253Y-03412323D01*
X015569253Y-03412323D02*
X015586647Y-03444956D01*
X015586647Y-03444956D02*
X015588567Y-03595981D01*
X015303818Y-03197977D02*
X015303818Y-02964392D01*
X015303818Y-03077716D02*
X015588567Y-03077716D01*
X015361549Y-02699805D02*
X015303818Y-02632101D01*
X015303818Y-02632101D02*
X015588566Y-02632101D01*
D19*
X-06175000Y-04125000D02*
X-08425000Y-04125000D01*
X-08425000Y-05875000D01*
X-06175000Y-05875000D01*
D20*
X-07267096Y-03602557D02*
X-07275672Y-03581655D01*
X-07275672Y-03581655D02*
X-07291405Y-03566855D01*
X-07291405Y-03566855D02*
X-07321199Y-03557188D01*
X-07321199Y-03557188D02*
X-07343215Y-03560140D01*
X-07343215Y-03560140D02*
X-07362618Y-03570049D01*
X-07362618Y-03570049D02*
X-07381563Y-03592921D01*
X-07381563Y-03592921D02*
X-07394792Y-03652956D01*
X-07394792Y-03652956D02*
X-07384411Y-03713308D01*
X-07384411Y-03713308D02*
X-07368925Y-03737611D01*
X-07368925Y-03737611D02*
X-07352824Y-03748984D01*
X-07352824Y-03748984D02*
X-07321458Y-03754140D01*
X-07321458Y-03754140D02*
X-07294123Y-03747550D01*
X-07294123Y-03747550D02*
X-07273883Y-03728320D01*
X-07273883Y-03728320D02*
X-07267096Y-03701178D01*
X-07076691Y-03599366D02*
X-07031555Y-03560879D01*
X-07031555Y-03560879D02*
X-07031555Y-03750710D01*
X-06741596Y-03557188D02*
X-06765988Y-03564815D01*
X-06765988Y-03564815D02*
X-06788585Y-03572388D01*
X-06788585Y-03572388D02*
X-06807777Y-03585851D01*
X-06807777Y-03585851D02*
X-06822697Y-03600071D01*
X-06822697Y-03600071D02*
X-06834088Y-03625118D01*
X-06834088Y-03625118D02*
X-06841920Y-03648595D01*
X-06841920Y-03648595D02*
X-06842756Y-03672800D01*
X-06842756Y-03672800D02*
X-06843344Y-03696922D01*
X-06843344Y-03696922D02*
X-06837184Y-03714872D01*
X-06837184Y-03714872D02*
X-06831303Y-03726092D01*
X-06831303Y-03726092D02*
X-06817373Y-03740677D01*
X-06817373Y-03740677D02*
X-06802515Y-03750494D01*
X-06802515Y-03750494D02*
X-06779608Y-03754140D01*
X-06779608Y-03754140D02*
X-06753916Y-03752738D01*
X-06753916Y-03752738D02*
X-06733795Y-03743762D01*
X-06733795Y-03743762D02*
X-06719556Y-03731702D01*
X-06719556Y-03731702D02*
X-06711818Y-03715153D01*
X-06711818Y-03715153D02*
X-06711199Y-03701129D01*
X-06711199Y-03701129D02*
X-06715532Y-03686263D01*
X-06715532Y-03686263D02*
X-06722033Y-03673642D01*
X-06722033Y-03673642D02*
X-06731938Y-03663264D01*
X-06731938Y-03663264D02*
X-06745558Y-03656813D01*
X-06745558Y-03656813D02*
X-06764441Y-03652605D01*
X-06764441Y-03652605D02*
X-06782394Y-03651764D01*
X-06782394Y-03651764D02*
X-06801277Y-03654569D01*
X-06801277Y-03654569D02*
X-06820778Y-03664666D01*
X-06820778Y-03664666D02*
X-06830993Y-03675044D01*
X-06830993Y-03675044D02*
X-06843406Y-03687722D01*
D12*
X-15908259Y-00421861D02*
X-15908259Y-00161855D01*
X-15908259Y-00384871D02*
X-15935589Y-00409651D01*
X-15935589Y-00409651D02*
X-15962510Y-00421861D01*
X-15962510Y-00421861D02*
X-16003300Y-00421861D01*
X-16003300Y-00421861D02*
X-16030630Y-00409651D01*
X-16030630Y-00409651D02*
X-16057958Y-00384871D01*
X-16057958Y-00384871D02*
X-16071420Y-00347522D01*
X-16071420Y-00347522D02*
X-16071420Y-00322742D01*
X-16071420Y-00322742D02*
X-16057958Y-00285753D01*
X-16057958Y-00285753D02*
X-16030630Y-00260973D01*
X-16030630Y-00260973D02*
X-16003300Y-00248405D01*
X-16003300Y-00248405D02*
X-15962510Y-00248405D01*
X-15962510Y-00248405D02*
X-15935589Y-00260973D01*
X-15935589Y-00260973D02*
X-15908259Y-00285753D01*
X-16335146Y-00494555D02*
X-16364266Y-00494555D01*
X-16349689Y-00408704D02*
X-16349689Y-00237359D01*
X-16633503Y-00421861D02*
X-16633503Y-00232270D01*
X-16633503Y-00367692D02*
X-16674961Y-00408515D01*
X-16674961Y-00408515D02*
X-16702727Y-00421861D01*
X-16702727Y-00421861D02*
X-16744185Y-00421861D01*
X-16744185Y-00421861D02*
X-16771761Y-00408515D01*
X-16771761Y-00408515D02*
X-16785644Y-00367692D01*
X-16785644Y-00367692D02*
X-16785644Y-00232270D01*
X-17040102Y-00433324D02*
X-17098779Y-00483357D01*
X-17098779Y-00483357D02*
X-17098779Y-00236576D01*
D12*
X-17908259Y-00421861D02*
X-17908259Y-00161855D01*
X-17908259Y-00384871D02*
X-17935589Y-00409651D01*
X-17935589Y-00409651D02*
X-17962510Y-00421861D01*
X-17962510Y-00421861D02*
X-18003300Y-00421861D01*
X-18003300Y-00421861D02*
X-18030630Y-00409651D01*
X-18030630Y-00409651D02*
X-18057958Y-00384871D01*
X-18057958Y-00384871D02*
X-18071420Y-00347522D01*
X-18071420Y-00347522D02*
X-18071420Y-00322742D01*
X-18071420Y-00322742D02*
X-18057958Y-00285753D01*
X-18057958Y-00285753D02*
X-18030630Y-00260973D01*
X-18030630Y-00260973D02*
X-18003300Y-00248405D01*
X-18003300Y-00248405D02*
X-17962510Y-00248405D01*
X-17962510Y-00248405D02*
X-17935589Y-00260973D01*
X-17935589Y-00260973D02*
X-17908259Y-00285753D01*
X-18335146Y-00494555D02*
X-18364266Y-00494555D01*
X-18349689Y-00408704D02*
X-18349689Y-00237359D01*
X-18633503Y-00421861D02*
X-18633503Y-00232270D01*
X-18633503Y-00367692D02*
X-18674961Y-00408515D01*
X-18674961Y-00408515D02*
X-18702727Y-00421861D01*
X-18702727Y-00421861D02*
X-18744185Y-00421861D01*
X-18744185Y-00421861D02*
X-18771761Y-00408515D01*
X-18771761Y-00408515D02*
X-18785644Y-00367692D01*
X-18785644Y-00367692D02*
X-18785644Y-00232270D01*
X-19000056Y-00439268D02*
X-19005593Y-00457405D01*
X-19005593Y-00457405D02*
X-19021955Y-00474320D01*
X-19021955Y-00474320D02*
X-19048769Y-00485791D01*
X-19048769Y-00485791D02*
X-19065980Y-00488156D01*
X-19065980Y-00488156D02*
X-19095755Y-00485977D01*
X-19095755Y-00485977D02*
X-19118092Y-00476183D01*
X-19118092Y-00476183D02*
X-19130306Y-00461164D01*
X-19130306Y-00461164D02*
X-19134693Y-00443712D01*
X-19134693Y-00443712D02*
X-19134402Y-00432103D01*
X-19134402Y-00432103D02*
X-19129159Y-00412670D01*
X-19129159Y-00412670D02*
X-19106403Y-00374888D01*
X-19106403Y-00374888D02*
X-19049096Y-00303017D01*
X-19049096Y-00303017D02*
X-18988838Y-00236912D01*
X-18988838Y-00236912D02*
X-19150043Y-00236912D01*
D12*
X-19908259Y-00421861D02*
X-19908259Y-00161855D01*
X-19908259Y-00384871D02*
X-19935589Y-00409651D01*
X-19935589Y-00409651D02*
X-19962510Y-00421861D01*
X-19962510Y-00421861D02*
X-20003300Y-00421861D01*
X-20003300Y-00421861D02*
X-20030630Y-00409651D01*
X-20030630Y-00409651D02*
X-20057958Y-00384871D01*
X-20057958Y-00384871D02*
X-20071420Y-00347522D01*
X-20071420Y-00347522D02*
X-20071420Y-00322742D01*
X-20071420Y-00322742D02*
X-20057958Y-00285753D01*
X-20057958Y-00285753D02*
X-20030630Y-00260973D01*
X-20030630Y-00260973D02*
X-20003300Y-00248405D01*
X-20003300Y-00248405D02*
X-19962510Y-00248405D01*
X-19962510Y-00248405D02*
X-19935589Y-00260973D01*
X-19935589Y-00260973D02*
X-19908259Y-00285753D01*
X-20335146Y-00494555D02*
X-20364266Y-00494555D01*
X-20349689Y-00408704D02*
X-20349689Y-00237359D01*
X-20633503Y-00421861D02*
X-20633503Y-00232270D01*
X-20633503Y-00367692D02*
X-20674961Y-00408515D01*
X-20674961Y-00408515D02*
X-20702727Y-00421861D01*
X-20702727Y-00421861D02*
X-20744185Y-00421861D01*
X-20744185Y-00421861D02*
X-20771761Y-00408515D01*
X-20771761Y-00408515D02*
X-20785644Y-00367692D01*
X-20785644Y-00367692D02*
X-20785644Y-00232270D01*
X-20989572Y-00456393D02*
X-21003239Y-00467110D01*
X-21003239Y-00467110D02*
X-21025022Y-00478591D01*
X-21025022Y-00478591D02*
X-21052784Y-00488156D01*
X-21052784Y-00488156D02*
X-21086951Y-00486245D01*
X-21086951Y-00486245D02*
X-21116849Y-00476677D01*
X-21116849Y-00476677D02*
X-21138205Y-00459455D01*
X-21138205Y-00459455D02*
X-21151018Y-00438405D01*
X-21151018Y-00438405D02*
X-21146747Y-00415442D01*
X-21146747Y-00415442D02*
X-21129663Y-00398219D01*
X-21129663Y-00398219D02*
X-21099765Y-00384824D01*
X-21099765Y-00384824D02*
X-21065596Y-00377170D01*
X-21065596Y-00377170D02*
X-21035699Y-00373342D01*
X-21035699Y-00373342D02*
X-21065596Y-00369515D01*
X-21065596Y-00369515D02*
X-21099765Y-00359947D01*
X-21099765Y-00359947D02*
X-21129663Y-00344639D01*
X-21129663Y-00344639D02*
X-21148883Y-00323588D01*
X-21148883Y-00323588D02*
X-21153154Y-00300625D01*
X-21153154Y-00300625D02*
X-21144612Y-00275748D01*
X-21144612Y-00275748D02*
X-21125392Y-00254699D01*
X-21125392Y-00254699D02*
X-21095493Y-00237476D01*
X-21095493Y-00237476D02*
X-21072857Y-00232118D01*
X-21072857Y-00232118D02*
X-21036126Y-00232884D01*
X-21036126Y-00232884D02*
X-21006229Y-00237476D01*
X-21006229Y-00237476D02*
X-20985728Y-00243600D01*
D13*
X-18363915Y-01112212D02*
X-18364392Y-00861725D01*
X-18364392Y-00861725D02*
X-18359813Y-00830378D01*
X-18359813Y-00830378D02*
X-18351123Y-00813413D01*
X-18351123Y-00813413D02*
X-18338937Y-00799923D01*
X-18338937Y-00799923D02*
X-18324350Y-00789590D01*
X-18324350Y-00789590D02*
X-18292329Y-00777142D01*
X-18292329Y-00777142D02*
X-18263793Y-00773552D01*
X-18263793Y-00773552D02*
X-18225114Y-00777717D01*
X-18225114Y-00777717D02*
X-18196600Y-00789147D01*
X-18196600Y-00789147D02*
X-18182729Y-00800220D01*
X-18182729Y-00800220D02*
X-18172613Y-00813647D01*
X-18172613Y-00813647D02*
X-18165946Y-00829079D01*
X-18165946Y-00829079D02*
X-18162424Y-00846166D01*
X-18162424Y-00846166D02*
X-18161741Y-00864558D01*
X-18654100Y-01052861D02*
X-18661554Y-01077276D01*
X-18661554Y-01077276D02*
X-18683580Y-01100047D01*
X-18683580Y-01100047D02*
X-18719676Y-01115488D01*
X-18719676Y-01115488D02*
X-18742844Y-01118672D01*
X-18742844Y-01118672D02*
X-18782926Y-01115738D01*
X-18782926Y-01115738D02*
X-18812995Y-01102555D01*
X-18812995Y-01102555D02*
X-18829437Y-01082337D01*
X-18829437Y-01082337D02*
X-18835343Y-01058843D01*
X-18835343Y-01058843D02*
X-18834951Y-01043215D01*
X-18834951Y-01043215D02*
X-18827893Y-01017056D01*
X-18827893Y-01017056D02*
X-18797260Y-00966196D01*
X-18797260Y-00966196D02*
X-18720116Y-00869445D01*
X-18720116Y-00869445D02*
X-18638999Y-00780458D01*
X-18638999Y-00780458D02*
X-18856006Y-00780458D01*
D12*
X-16308259Y-03921861D02*
X-16308259Y-03661855D01*
X-16308259Y-03884871D02*
X-16335589Y-03909651D01*
X-16335589Y-03909651D02*
X-16362510Y-03921861D01*
X-16362510Y-03921861D02*
X-16403300Y-03921861D01*
X-16403300Y-03921861D02*
X-16430630Y-03909651D01*
X-16430630Y-03909651D02*
X-16457958Y-03884871D01*
X-16457958Y-03884871D02*
X-16471420Y-03847522D01*
X-16471420Y-03847522D02*
X-16471420Y-03822742D01*
X-16471420Y-03822742D02*
X-16457958Y-03785753D01*
X-16457958Y-03785753D02*
X-16430630Y-03760973D01*
X-16430630Y-03760973D02*
X-16403300Y-03748405D01*
X-16403300Y-03748405D02*
X-16362510Y-03748405D01*
X-16362510Y-03748405D02*
X-16335589Y-03760973D01*
X-16335589Y-03760973D02*
X-16308259Y-03785753D01*
X-16735146Y-03994555D02*
X-16764266Y-03994555D01*
X-16749689Y-03908704D02*
X-16749689Y-03737359D01*
X-17033503Y-03921861D02*
X-17033503Y-03732270D01*
X-17033503Y-03867692D02*
X-17074961Y-03908515D01*
X-17074961Y-03908515D02*
X-17102727Y-03921861D01*
X-17102727Y-03921861D02*
X-17144185Y-03921861D01*
X-17144185Y-03921861D02*
X-17171761Y-03908515D01*
X-17171761Y-03908515D02*
X-17185644Y-03867692D01*
X-17185644Y-03867692D02*
X-17185644Y-03732270D01*
X-17440102Y-03933324D02*
X-17498779Y-03983357D01*
X-17498779Y-03983357D02*
X-17498779Y-03736576D01*
D12*
X-18308259Y-03921861D02*
X-18308259Y-03661855D01*
X-18308259Y-03884871D02*
X-18335589Y-03909651D01*
X-18335589Y-03909651D02*
X-18362510Y-03921861D01*
X-18362510Y-03921861D02*
X-18403300Y-03921861D01*
X-18403300Y-03921861D02*
X-18430630Y-03909651D01*
X-18430630Y-03909651D02*
X-18457958Y-03884871D01*
X-18457958Y-03884871D02*
X-18471420Y-03847522D01*
X-18471420Y-03847522D02*
X-18471420Y-03822742D01*
X-18471420Y-03822742D02*
X-18457958Y-03785753D01*
X-18457958Y-03785753D02*
X-18430630Y-03760973D01*
X-18430630Y-03760973D02*
X-18403300Y-03748405D01*
X-18403300Y-03748405D02*
X-18362510Y-03748405D01*
X-18362510Y-03748405D02*
X-18335589Y-03760973D01*
X-18335589Y-03760973D02*
X-18308259Y-03785753D01*
X-18735146Y-03994555D02*
X-18764266Y-03994555D01*
X-18749689Y-03908704D02*
X-18749689Y-03737359D01*
X-19033503Y-03921861D02*
X-19033503Y-03732270D01*
X-19033503Y-03867692D02*
X-19074961Y-03908515D01*
X-19074961Y-03908515D02*
X-19102727Y-03921861D01*
X-19102727Y-03921861D02*
X-19144185Y-03921861D01*
X-19144185Y-03921861D02*
X-19171761Y-03908515D01*
X-19171761Y-03908515D02*
X-19185644Y-03867692D01*
X-19185644Y-03867692D02*
X-19185644Y-03732270D01*
X-19400056Y-03939268D02*
X-19405593Y-03957405D01*
X-19405593Y-03957405D02*
X-19421955Y-03974320D01*
X-19421955Y-03974320D02*
X-19448769Y-03985791D01*
X-19448769Y-03985791D02*
X-19465980Y-03988156D01*
X-19465980Y-03988156D02*
X-19495755Y-03985977D01*
X-19495755Y-03985977D02*
X-19518092Y-03976183D01*
X-19518092Y-03976183D02*
X-19530306Y-03961164D01*
X-19530306Y-03961164D02*
X-19534693Y-03943712D01*
X-19534693Y-03943712D02*
X-19534402Y-03932103D01*
X-19534402Y-03932103D02*
X-19529159Y-03912670D01*
X-19529159Y-03912670D02*
X-19506403Y-03874888D01*
X-19506403Y-03874888D02*
X-19449096Y-03803017D01*
X-19449096Y-03803017D02*
X-19388838Y-03736912D01*
X-19388838Y-03736912D02*
X-19550043Y-03736912D01*
D12*
X-20308259Y-03921861D02*
X-20308259Y-03661855D01*
X-20308259Y-03884871D02*
X-20335589Y-03909651D01*
X-20335589Y-03909651D02*
X-20362510Y-03921861D01*
X-20362510Y-03921861D02*
X-20403300Y-03921861D01*
X-20403300Y-03921861D02*
X-20430630Y-03909651D01*
X-20430630Y-03909651D02*
X-20457958Y-03884871D01*
X-20457958Y-03884871D02*
X-20471420Y-03847522D01*
X-20471420Y-03847522D02*
X-20471420Y-03822742D01*
X-20471420Y-03822742D02*
X-20457958Y-03785753D01*
X-20457958Y-03785753D02*
X-20430630Y-03760973D01*
X-20430630Y-03760973D02*
X-20403300Y-03748405D01*
X-20403300Y-03748405D02*
X-20362510Y-03748405D01*
X-20362510Y-03748405D02*
X-20335589Y-03760973D01*
X-20335589Y-03760973D02*
X-20308259Y-03785753D01*
X-20735146Y-03994555D02*
X-20764266Y-03994555D01*
X-20749689Y-03908704D02*
X-20749689Y-03737359D01*
X-21033503Y-03921861D02*
X-21033503Y-03732270D01*
X-21033503Y-03867692D02*
X-21074961Y-03908515D01*
X-21074961Y-03908515D02*
X-21102727Y-03921861D01*
X-21102727Y-03921861D02*
X-21144185Y-03921861D01*
X-21144185Y-03921861D02*
X-21171761Y-03908515D01*
X-21171761Y-03908515D02*
X-21185644Y-03867692D01*
X-21185644Y-03867692D02*
X-21185644Y-03732270D01*
X-21389572Y-03956393D02*
X-21403239Y-03967110D01*
X-21403239Y-03967110D02*
X-21425022Y-03978591D01*
X-21425022Y-03978591D02*
X-21452784Y-03988156D01*
X-21452784Y-03988156D02*
X-21486951Y-03986245D01*
X-21486951Y-03986245D02*
X-21516849Y-03976677D01*
X-21516849Y-03976677D02*
X-21538205Y-03959455D01*
X-21538205Y-03959455D02*
X-21551018Y-03938405D01*
X-21551018Y-03938405D02*
X-21546747Y-03915442D01*
X-21546747Y-03915442D02*
X-21529663Y-03898219D01*
X-21529663Y-03898219D02*
X-21499765Y-03884824D01*
X-21499765Y-03884824D02*
X-21465596Y-03877170D01*
X-21465596Y-03877170D02*
X-21435699Y-03873342D01*
X-21435699Y-03873342D02*
X-21465596Y-03869515D01*
X-21465596Y-03869515D02*
X-21499765Y-03859947D01*
X-21499765Y-03859947D02*
X-21529663Y-03844639D01*
X-21529663Y-03844639D02*
X-21548883Y-03823588D01*
X-21548883Y-03823588D02*
X-21553154Y-03800625D01*
X-21553154Y-03800625D02*
X-21544612Y-03775748D01*
X-21544612Y-03775748D02*
X-21525392Y-03754699D01*
X-21525392Y-03754699D02*
X-21495493Y-03737476D01*
X-21495493Y-03737476D02*
X-21472857Y-03732118D01*
X-21472857Y-03732118D02*
X-21436126Y-03732884D01*
X-21436126Y-03732884D02*
X-21406229Y-03737476D01*
X-21406229Y-03737476D02*
X-21385728Y-03743600D01*
D13*
X-18763915Y-04612212D02*
X-18764392Y-04361725D01*
X-18764392Y-04361725D02*
X-18759813Y-04330378D01*
X-18759813Y-04330378D02*
X-18751123Y-04313413D01*
X-18751123Y-04313413D02*
X-18738937Y-04299923D01*
X-18738937Y-04299923D02*
X-18724350Y-04289590D01*
X-18724350Y-04289590D02*
X-18692329Y-04277142D01*
X-18692329Y-04277142D02*
X-18663793Y-04273552D01*
X-18663793Y-04273552D02*
X-18625114Y-04277717D01*
X-18625114Y-04277717D02*
X-18596600Y-04289147D01*
X-18596600Y-04289147D02*
X-18582729Y-04300220D01*
X-18582729Y-04300220D02*
X-18572613Y-04313647D01*
X-18572613Y-04313647D02*
X-18565946Y-04329079D01*
X-18565946Y-04329079D02*
X-18562424Y-04346166D01*
X-18562424Y-04346166D02*
X-18561741Y-04364558D01*
X-19039987Y-04575914D02*
X-19058385Y-04590340D01*
X-19058385Y-04590340D02*
X-19087708Y-04605795D01*
X-19087708Y-04605795D02*
X-19125080Y-04618672D01*
X-19125080Y-04618672D02*
X-19171075Y-04616100D01*
X-19171075Y-04616100D02*
X-19211322Y-04603219D01*
X-19211322Y-04603219D02*
X-19240071Y-04580036D01*
X-19240071Y-04580036D02*
X-19257319Y-04551699D01*
X-19257319Y-04551699D02*
X-19251569Y-04520787D01*
X-19251569Y-04520787D02*
X-19228571Y-04497603D01*
X-19228571Y-04497603D02*
X-19188324Y-04479571D01*
X-19188324Y-04479571D02*
X-19142327Y-04469267D01*
X-19142327Y-04469267D02*
X-19102082Y-04464115D01*
X-19102082Y-04464115D02*
X-19142327Y-04458963D01*
X-19142327Y-04458963D02*
X-19188324Y-04446083D01*
X-19188324Y-04446083D02*
X-19228571Y-04425475D01*
X-19228571Y-04425475D02*
X-19254444Y-04397138D01*
X-19254444Y-04397138D02*
X-19260193Y-04366227D01*
X-19260193Y-04366227D02*
X-19248695Y-04332738D01*
X-19248695Y-04332738D02*
X-19222822Y-04304402D01*
X-19222822Y-04304402D02*
X-19182574Y-04281218D01*
X-19182574Y-04281218D02*
X-19152102Y-04274005D01*
X-19152102Y-04274005D02*
X-19102656Y-04275036D01*
X-19102656Y-04275036D02*
X-19062410Y-04281218D01*
X-19062410Y-04281218D02*
X-19034813Y-04289461D01*
D12*
X-17221861Y-07691741D02*
X-16961855Y-07691741D01*
X-17184871Y-07691741D02*
X-17209651Y-07664411D01*
X-17209651Y-07664411D02*
X-17221861Y-07637490D01*
X-17221861Y-07637490D02*
X-17221861Y-07596700D01*
X-17221861Y-07596700D02*
X-17209651Y-07569370D01*
X-17209651Y-07569370D02*
X-17184871Y-07542042D01*
X-17184871Y-07542042D02*
X-17147522Y-07528580D01*
X-17147522Y-07528580D02*
X-17122742Y-07528580D01*
X-17122742Y-07528580D02*
X-17085753Y-07542042D01*
X-17085753Y-07542042D02*
X-17060973Y-07569370D01*
X-17060973Y-07569370D02*
X-17048405Y-07596700D01*
X-17048405Y-07596700D02*
X-17048405Y-07637490D01*
X-17048405Y-07637490D02*
X-17060973Y-07664411D01*
X-17060973Y-07664411D02*
X-17085753Y-07691741D01*
X-17294555Y-07264854D02*
X-17294555Y-07235734D01*
X-17208704Y-07250311D02*
X-17037359Y-07250311D01*
X-17221861Y-06966497D02*
X-17032270Y-06966497D01*
X-17167692Y-06966497D02*
X-17208515Y-06925039D01*
X-17208515Y-06925039D02*
X-17221861Y-06897273D01*
X-17221861Y-06897273D02*
X-17221861Y-06855815D01*
X-17221861Y-06855815D02*
X-17208515Y-06828239D01*
X-17208515Y-06828239D02*
X-17167692Y-06814356D01*
X-17167692Y-06814356D02*
X-17032270Y-06814356D01*
X-17233324Y-06559898D02*
X-17283357Y-06501221D01*
X-17283357Y-06501221D02*
X-17036576Y-06501221D01*
D12*
X-17221861Y-09691741D02*
X-16961855Y-09691741D01*
X-17184871Y-09691741D02*
X-17209651Y-09664411D01*
X-17209651Y-09664411D02*
X-17221861Y-09637490D01*
X-17221861Y-09637490D02*
X-17221861Y-09596700D01*
X-17221861Y-09596700D02*
X-17209651Y-09569370D01*
X-17209651Y-09569370D02*
X-17184871Y-09542042D01*
X-17184871Y-09542042D02*
X-17147522Y-09528580D01*
X-17147522Y-09528580D02*
X-17122742Y-09528580D01*
X-17122742Y-09528580D02*
X-17085753Y-09542042D01*
X-17085753Y-09542042D02*
X-17060973Y-09569370D01*
X-17060973Y-09569370D02*
X-17048405Y-09596700D01*
X-17048405Y-09596700D02*
X-17048405Y-09637490D01*
X-17048405Y-09637490D02*
X-17060973Y-09664411D01*
X-17060973Y-09664411D02*
X-17085753Y-09691741D01*
X-17294555Y-09264854D02*
X-17294555Y-09235734D01*
X-17208704Y-09250311D02*
X-17037359Y-09250311D01*
X-17221861Y-08966497D02*
X-17032270Y-08966497D01*
X-17167692Y-08966497D02*
X-17208515Y-08925039D01*
X-17208515Y-08925039D02*
X-17221861Y-08897273D01*
X-17221861Y-08897273D02*
X-17221861Y-08855815D01*
X-17221861Y-08855815D02*
X-17208515Y-08828239D01*
X-17208515Y-08828239D02*
X-17167692Y-08814356D01*
X-17167692Y-08814356D02*
X-17032270Y-08814356D01*
X-17239268Y-08599944D02*
X-17257405Y-08594407D01*
X-17257405Y-08594407D02*
X-17274320Y-08578045D01*
X-17274320Y-08578045D02*
X-17285791Y-08551231D01*
X-17285791Y-08551231D02*
X-17288156Y-08534020D01*
X-17288156Y-08534020D02*
X-17285977Y-08504245D01*
X-17285977Y-08504245D02*
X-17276183Y-08481908D01*
X-17276183Y-08481908D02*
X-17261164Y-08469694D01*
X-17261164Y-08469694D02*
X-17243712Y-08465307D01*
X-17243712Y-08465307D02*
X-17232103Y-08465598D01*
X-17232103Y-08465598D02*
X-17212670Y-08470841D01*
X-17212670Y-08470841D02*
X-17174888Y-08493597D01*
X-17174888Y-08493597D02*
X-17103017Y-08550904D01*
X-17103017Y-08550904D02*
X-17036912Y-08611162D01*
X-17036912Y-08611162D02*
X-17036912Y-08449957D01*
D12*
X-17221861Y-11691741D02*
X-16961855Y-11691741D01*
X-17184871Y-11691741D02*
X-17209651Y-11664411D01*
X-17209651Y-11664411D02*
X-17221861Y-11637490D01*
X-17221861Y-11637490D02*
X-17221861Y-11596700D01*
X-17221861Y-11596700D02*
X-17209651Y-11569370D01*
X-17209651Y-11569370D02*
X-17184871Y-11542042D01*
X-17184871Y-11542042D02*
X-17147522Y-11528580D01*
X-17147522Y-11528580D02*
X-17122742Y-11528580D01*
X-17122742Y-11528580D02*
X-17085753Y-11542042D01*
X-17085753Y-11542042D02*
X-17060973Y-11569370D01*
X-17060973Y-11569370D02*
X-17048405Y-11596700D01*
X-17048405Y-11596700D02*
X-17048405Y-11637490D01*
X-17048405Y-11637490D02*
X-17060973Y-11664411D01*
X-17060973Y-11664411D02*
X-17085753Y-11691741D01*
X-17294555Y-11264854D02*
X-17294555Y-11235734D01*
X-17208704Y-11250311D02*
X-17037359Y-11250311D01*
X-17221861Y-10966497D02*
X-17032270Y-10966497D01*
X-17167692Y-10966497D02*
X-17208515Y-10925039D01*
X-17208515Y-10925039D02*
X-17221861Y-10897273D01*
X-17221861Y-10897273D02*
X-17221861Y-10855815D01*
X-17221861Y-10855815D02*
X-17208515Y-10828239D01*
X-17208515Y-10828239D02*
X-17167692Y-10814356D01*
X-17167692Y-10814356D02*
X-17032270Y-10814356D01*
X-17256393Y-10610428D02*
X-17267110Y-10596761D01*
X-17267110Y-10596761D02*
X-17278591Y-10574978D01*
X-17278591Y-10574978D02*
X-17288156Y-10547216D01*
X-17288156Y-10547216D02*
X-17286245Y-10513049D01*
X-17286245Y-10513049D02*
X-17276677Y-10483151D01*
X-17276677Y-10483151D02*
X-17259455Y-10461795D01*
X-17259455Y-10461795D02*
X-17238405Y-10448982D01*
X-17238405Y-10448982D02*
X-17215442Y-10453253D01*
X-17215442Y-10453253D02*
X-17198219Y-10470337D01*
X-17198219Y-10470337D02*
X-17184824Y-10500235D01*
X-17184824Y-10500235D02*
X-17177170Y-10534404D01*
X-17177170Y-10534404D02*
X-17173342Y-10564301D01*
X-17173342Y-10564301D02*
X-17169515Y-10534404D01*
X-17169515Y-10534404D02*
X-17159947Y-10500235D01*
X-17159947Y-10500235D02*
X-17144639Y-10470337D01*
X-17144639Y-10470337D02*
X-17123588Y-10451117D01*
X-17123588Y-10451117D02*
X-17100625Y-10446846D01*
X-17100625Y-10446846D02*
X-17075748Y-10455388D01*
X-17075748Y-10455388D02*
X-17054699Y-10474608D01*
X-17054699Y-10474608D02*
X-17037476Y-10504507D01*
X-17037476Y-10504507D02*
X-17032118Y-10527143D01*
X-17032118Y-10527143D02*
X-17032884Y-10563874D01*
X-17032884Y-10563874D02*
X-17037476Y-10593771D01*
X-17037476Y-10593771D02*
X-17043600Y-10614272D01*
D13*
X-16712212Y-09236085D02*
X-16461725Y-09235608D01*
X-16461725Y-09235608D02*
X-16430378Y-09240187D01*
X-16430378Y-09240187D02*
X-16413413Y-09248877D01*
X-16413413Y-09248877D02*
X-16399923Y-09261063D01*
X-16399923Y-09261063D02*
X-16389590Y-09275650D01*
X-16389590Y-09275650D02*
X-16377142Y-09307671D01*
X-16377142Y-09307671D02*
X-16373552Y-09336207D01*
X-16373552Y-09336207D02*
X-16377717Y-09374886D01*
X-16377717Y-09374886D02*
X-16389147Y-09403400D01*
X-16389147Y-09403400D02*
X-16400220Y-09417271D01*
X-16400220Y-09417271D02*
X-16413647Y-09427387D01*
X-16413647Y-09427387D02*
X-16429079Y-09434054D01*
X-16429079Y-09434054D02*
X-16446166Y-09437576D01*
X-16446166Y-09437576D02*
X-16464558Y-09438259D01*
X-16712212Y-08794938D02*
X-16490142Y-08976074D01*
X-16490142Y-08976074D02*
X-16490142Y-08728920D01*
X-16561698Y-08797051D02*
X-16380005Y-08797051D01*
D12*
X021691741Y001578139D02*
X021691741Y001838145D01*
X021691741Y001615129D02*
X021664411Y001590349D01*
X021664411Y001590349D02*
X021637490Y001578139D01*
X021637490Y001578139D02*
X021596700Y001578139D01*
X021596700Y001578139D02*
X021569370Y001590349D01*
X021569370Y001590349D02*
X021542042Y001615129D01*
X021542042Y001615129D02*
X021528580Y001652478D01*
X021528580Y001652478D02*
X021528580Y001677258D01*
X021528580Y001677258D02*
X021542042Y001714247D01*
X021542042Y001714247D02*
X021569370Y001739027D01*
X021569370Y001739027D02*
X021596700Y001751595D01*
X021596700Y001751595D02*
X021637490Y001751595D01*
X021637490Y001751595D02*
X021664411Y001739027D01*
X021664411Y001739027D02*
X021691741Y001714247D01*
X021264854Y001505445D02*
X021235734Y001505445D01*
X021250311Y001591296D02*
X021250311Y001762641D01*
X020966497Y001578139D02*
X020966497Y001767730D01*
X020966497Y001632308D02*
X020925039Y001591485D01*
X020925039Y001591485D02*
X020897273Y001578139D01*
X020897273Y001578139D02*
X020855815Y001578139D01*
X020855815Y001578139D02*
X020828239Y001591485D01*
X020828239Y001591485D02*
X020814356Y001632308D01*
X020814356Y001632308D02*
X020814356Y001767730D01*
X020559898Y001566676D02*
X020501221Y001516643D01*
X020501221Y001516643D02*
X020501221Y001763424D01*
D12*
X019691741Y001578139D02*
X019691741Y001838145D01*
X019691741Y001615129D02*
X019664411Y001590349D01*
X019664411Y001590349D02*
X019637490Y001578139D01*
X019637490Y001578139D02*
X019596700Y001578139D01*
X019596700Y001578139D02*
X019569370Y001590349D01*
X019569370Y001590349D02*
X019542042Y001615129D01*
X019542042Y001615129D02*
X019528580Y001652478D01*
X019528580Y001652478D02*
X019528580Y001677258D01*
X019528580Y001677258D02*
X019542042Y001714247D01*
X019542042Y001714247D02*
X019569370Y001739027D01*
X019569370Y001739027D02*
X019596700Y001751595D01*
X019596700Y001751595D02*
X019637490Y001751595D01*
X019637490Y001751595D02*
X019664411Y001739027D01*
X019664411Y001739027D02*
X019691741Y001714247D01*
X019264854Y001505445D02*
X019235734Y001505445D01*
X019250311Y001591296D02*
X019250311Y001762641D01*
X018966497Y001578139D02*
X018966497Y001767730D01*
X018966497Y001632308D02*
X018925039Y001591485D01*
X018925039Y001591485D02*
X018897273Y001578139D01*
X018897273Y001578139D02*
X018855815Y001578139D01*
X018855815Y001578139D02*
X018828239Y001591485D01*
X018828239Y001591485D02*
X018814356Y001632308D01*
X018814356Y001632308D02*
X018814356Y001767730D01*
X018599944Y001560732D02*
X018594407Y001542595D01*
X018594407Y001542595D02*
X018578045Y001525680D01*
X018578045Y001525680D02*
X018551231Y001514209D01*
X018551231Y001514209D02*
X018534020Y001511844D01*
X018534020Y001511844D02*
X018504245Y001514023D01*
X018504245Y001514023D02*
X018481908Y001523817D01*
X018481908Y001523817D02*
X018469694Y001538836D01*
X018469694Y001538836D02*
X018465307Y001556288D01*
X018465307Y001556288D02*
X018465598Y001567897D01*
X018465598Y001567897D02*
X018470841Y001587330D01*
X018470841Y001587330D02*
X018493597Y001625112D01*
X018493597Y001625112D02*
X018550904Y001696983D01*
X018550904Y001696983D02*
X018611162Y001763088D01*
X018611162Y001763088D02*
X018449957Y001763088D01*
D12*
X017691741Y001578139D02*
X017691741Y001838145D01*
X017691741Y001615129D02*
X017664411Y001590349D01*
X017664411Y001590349D02*
X017637490Y001578139D01*
X017637490Y001578139D02*
X017596700Y001578139D01*
X017596700Y001578139D02*
X017569370Y001590349D01*
X017569370Y001590349D02*
X017542042Y001615129D01*
X017542042Y001615129D02*
X017528580Y001652478D01*
X017528580Y001652478D02*
X017528580Y001677258D01*
X017528580Y001677258D02*
X017542042Y001714247D01*
X017542042Y001714247D02*
X017569370Y001739027D01*
X017569370Y001739027D02*
X017596700Y001751595D01*
X017596700Y001751595D02*
X017637490Y001751595D01*
X017637490Y001751595D02*
X017664411Y001739027D01*
X017664411Y001739027D02*
X017691741Y001714247D01*
X017264854Y001505445D02*
X017235734Y001505445D01*
X017250311Y001591296D02*
X017250311Y001762641D01*
X016966497Y001578139D02*
X016966497Y001767730D01*
X016966497Y001632308D02*
X016925039Y001591485D01*
X016925039Y001591485D02*
X016897273Y001578139D01*
X016897273Y001578139D02*
X016855815Y001578139D01*
X016855815Y001578139D02*
X016828239Y001591485D01*
X016828239Y001591485D02*
X016814356Y001632308D01*
X016814356Y001632308D02*
X016814356Y001767730D01*
X016610428Y001543607D02*
X016596761Y001532890D01*
X016596761Y001532890D02*
X016574978Y001521409D01*
X016574978Y001521409D02*
X016547216Y001511844D01*
X016547216Y001511844D02*
X016513049Y001513755D01*
X016513049Y001513755D02*
X016483151Y001523323D01*
X016483151Y001523323D02*
X016461795Y001540545D01*
X016461795Y001540545D02*
X016448982Y001561595D01*
X016448982Y001561595D02*
X016453253Y001584558D01*
X016453253Y001584558D02*
X016470337Y001601781D01*
X016470337Y001601781D02*
X016500235Y001615176D01*
X016500235Y001615176D02*
X016534404Y001622830D01*
X016534404Y001622830D02*
X016564301Y001626658D01*
X016564301Y001626658D02*
X016534404Y001630485D01*
X016534404Y001630485D02*
X016500235Y001640053D01*
X016500235Y001640053D02*
X016470337Y001655361D01*
X016470337Y001655361D02*
X016451117Y001676412D01*
X016451117Y001676412D02*
X016446846Y001699375D01*
X016446846Y001699375D02*
X016455388Y001724252D01*
X016455388Y001724252D02*
X016474608Y001745301D01*
X016474608Y001745301D02*
X016504507Y001762524D01*
X016504507Y001762524D02*
X016527143Y001767882D01*
X016527143Y001767882D02*
X016563874Y001767116D01*
X016563874Y001767116D02*
X016593771Y001762524D01*
X016593771Y001762524D02*
X016614272Y001756400D01*
D13*
X019236085Y000887788D02*
X019235608Y001138275D01*
X019235608Y001138275D02*
X019240187Y001169622D01*
X019240187Y001169622D02*
X019248877Y001186587D01*
X019248877Y001186587D02*
X019261063Y001200077D01*
X019261063Y001200077D02*
X019275650Y001210410D01*
X019275650Y001210410D02*
X019307671Y001222858D01*
X019307671Y001222858D02*
X019336207Y001226448D01*
X019336207Y001226448D02*
X019374886Y001222283D01*
X019374886Y001222283D02*
X019403400Y001210853D01*
X019403400Y001210853D02*
X019417271Y001199780D01*
X019417271Y001199780D02*
X019427387Y001186353D01*
X019427387Y001186353D02*
X019434054Y001170921D01*
X019434054Y001170921D02*
X019437576Y001153834D01*
X019437576Y001153834D02*
X019438259Y001135442D01*
X018963274Y000887788D02*
X018963274Y001056203D01*
X018963274Y001056203D02*
X018868849Y001034055D01*
X018868849Y001034055D02*
X018801429Y001042386D01*
X018801429Y001042386D02*
X018774599Y001057423D01*
X018774599Y001057423D02*
X018755966Y001078758D01*
X018755966Y001078758D02*
X018741721Y001136906D01*
X018741721Y001136906D02*
X018748458Y001167114D01*
X018748458Y001167114D02*
X018766136Y001190888D01*
X018766136Y001190888D02*
X018800875Y001212969D01*
X018800875Y001212969D02*
X018841022Y001224585D01*
X018841022Y001224585D02*
X018878774Y001226448D01*
X018878774Y001226448D02*
X018910567Y001220386D01*
X018910567Y001220386D02*
X018936267Y001208499D01*
X018936267Y001208499D02*
X018963274Y001184047D01*
X018963274Y000887788D02*
X018741721Y000887788D01*
D23*
X-09212613Y-17249849D02*
X-09212613Y-17487139D01*
X-09212613Y-17363480D02*
X-09050523Y-17363480D01*
X-09048721Y-17249849D02*
X-09048721Y-17487139D01*
X-08851357Y-17292242D02*
X-08846033Y-17274803D01*
X-08846033Y-17274803D02*
X-08830300Y-17258538D01*
X-08830300Y-17258538D02*
X-08804517Y-17247509D01*
X-08804517Y-17247509D02*
X-08787969Y-17245235D01*
X-08787969Y-17245235D02*
X-08759338Y-17247330D01*
X-08759338Y-17247330D02*
X-08737861Y-17256747D01*
X-08737861Y-17256747D02*
X-08726116Y-17271188D01*
X-08726116Y-17271188D02*
X-08721898Y-17287970D01*
X-08721898Y-17287970D02*
X-08722178Y-17299132D01*
X-08722178Y-17299132D02*
X-08727219Y-17317817D01*
X-08727219Y-17317817D02*
X-08749100Y-17354146D01*
X-08749100Y-17354146D02*
X-08804203Y-17423253D01*
X-08804203Y-17423253D02*
X-08862144Y-17486816D01*
X-08862144Y-17486816D02*
X-08707138Y-17486816D01*
D23*
X-06672613Y-17249849D02*
X-06672613Y-17487139D01*
X-06672613Y-17363480D02*
X-06510523Y-17363480D01*
X-06508721Y-17249849D02*
X-06508721Y-17487139D01*
X-06311357Y-17292242D02*
X-06306033Y-17274803D01*
X-06306033Y-17274803D02*
X-06290300Y-17258538D01*
X-06290300Y-17258538D02*
X-06264517Y-17247509D01*
X-06264517Y-17247509D02*
X-06247969Y-17245235D01*
X-06247969Y-17245235D02*
X-06219338Y-17247330D01*
X-06219338Y-17247330D02*
X-06197861Y-17256747D01*
X-06197861Y-17256747D02*
X-06186116Y-17271188D01*
X-06186116Y-17271188D02*
X-06181898Y-17287970D01*
X-06181898Y-17287970D02*
X-06182178Y-17299132D01*
X-06182178Y-17299132D02*
X-06187219Y-17317817D01*
X-06187219Y-17317817D02*
X-06209100Y-17354146D01*
X-06209100Y-17354146D02*
X-06264203Y-17423253D01*
X-06264203Y-17423253D02*
X-06322144Y-17486816D01*
X-06322144Y-17486816D02*
X-06167138Y-17486816D01*
D23*
X-04132613Y-17249849D02*
X-04132613Y-17487139D01*
X-04132613Y-17363480D02*
X-03970523Y-17363480D01*
X-03968721Y-17249849D02*
X-03968721Y-17487139D01*
X-03771357Y-17292242D02*
X-03766033Y-17274803D01*
X-03766033Y-17274803D02*
X-03750300Y-17258538D01*
X-03750300Y-17258538D02*
X-03724517Y-17247509D01*
X-03724517Y-17247509D02*
X-03707969Y-17245235D01*
X-03707969Y-17245235D02*
X-03679338Y-17247330D01*
X-03679338Y-17247330D02*
X-03657861Y-17256747D01*
X-03657861Y-17256747D02*
X-03646116Y-17271188D01*
X-03646116Y-17271188D02*
X-03641898Y-17287970D01*
X-03641898Y-17287970D02*
X-03642178Y-17299132D01*
X-03642178Y-17299132D02*
X-03647219Y-17317817D01*
X-03647219Y-17317817D02*
X-03669100Y-17354146D01*
X-03669100Y-17354146D02*
X-03724203Y-17423253D01*
X-03724203Y-17423253D02*
X-03782144Y-17486816D01*
X-03782144Y-17486816D02*
X-03627138Y-17486816D01*
D23*
X-01592613Y-17249849D02*
X-01592613Y-17487139D01*
X-01592613Y-17363480D02*
X-01430523Y-17363480D01*
X-01428721Y-17249849D02*
X-01428721Y-17487139D01*
X-01231357Y-17292242D02*
X-01226033Y-17274803D01*
X-01226033Y-17274803D02*
X-01210300Y-17258538D01*
X-01210300Y-17258538D02*
X-01184517Y-17247509D01*
X-01184517Y-17247509D02*
X-01167969Y-17245235D01*
X-01167969Y-17245235D02*
X-01139338Y-17247330D01*
X-01139338Y-17247330D02*
X-01117861Y-17256747D01*
X-01117861Y-17256747D02*
X-01106116Y-17271188D01*
X-01106116Y-17271188D02*
X-01101898Y-17287970D01*
X-01101898Y-17287970D02*
X-01102178Y-17299132D01*
X-01102178Y-17299132D02*
X-01107219Y-17317817D01*
X-01107219Y-17317817D02*
X-01129100Y-17354146D01*
X-01129100Y-17354146D02*
X-01184203Y-17423253D01*
X-01184203Y-17423253D02*
X-01242144Y-17486816D01*
X-01242144Y-17486816D02*
X-01087138Y-17486816D01*
D23*
X000947387Y-17249849D02*
X000947387Y-17487139D01*
X000947387Y-17363480D02*
X001109477Y-17363480D01*
X001111279Y-17249849D02*
X001111279Y-17487139D01*
X001308643Y-17292242D02*
X001313967Y-17274803D01*
X001313967Y-17274803D02*
X001329700Y-17258538D01*
X001329700Y-17258538D02*
X001355483Y-17247509D01*
X001355483Y-17247509D02*
X001372031Y-17245235D01*
X001372031Y-17245235D02*
X001400662Y-17247330D01*
X001400662Y-17247330D02*
X001422139Y-17256747D01*
X001422139Y-17256747D02*
X001433884Y-17271188D01*
X001433884Y-17271188D02*
X001438102Y-17287970D01*
X001438102Y-17287970D02*
X001437822Y-17299132D01*
X001437822Y-17299132D02*
X001432781Y-17317817D01*
X001432781Y-17317817D02*
X001410900Y-17354146D01*
X001410900Y-17354146D02*
X001355797Y-17423253D01*
X001355797Y-17423253D02*
X001297856Y-17486816D01*
X001297856Y-17486816D02*
X001452862Y-17486816D01*
D23*
X003487387Y-17249849D02*
X003487387Y-17487139D01*
X003487387Y-17363480D02*
X003649477Y-17363480D01*
X003651279Y-17249849D02*
X003651279Y-17487139D01*
X003848643Y-17292242D02*
X003853967Y-17274803D01*
X003853967Y-17274803D02*
X003869700Y-17258538D01*
X003869700Y-17258538D02*
X003895483Y-17247509D01*
X003895483Y-17247509D02*
X003912031Y-17245235D01*
X003912031Y-17245235D02*
X003940662Y-17247330D01*
X003940662Y-17247330D02*
X003962139Y-17256747D01*
X003962139Y-17256747D02*
X003973884Y-17271188D01*
X003973884Y-17271188D02*
X003978102Y-17287970D01*
X003978102Y-17287970D02*
X003977822Y-17299132D01*
X003977822Y-17299132D02*
X003972781Y-17317817D01*
X003972781Y-17317817D02*
X003950900Y-17354146D01*
X003950900Y-17354146D02*
X003895797Y-17423253D01*
X003895797Y-17423253D02*
X003837856Y-17486816D01*
X003837856Y-17486816D02*
X003992862Y-17486816D01*
D23*
X006027387Y-17249849D02*
X006027387Y-17487139D01*
X006027387Y-17363480D02*
X006189477Y-17363480D01*
X006191279Y-17249849D02*
X006191279Y-17487139D01*
X006388643Y-17292242D02*
X006393967Y-17274803D01*
X006393967Y-17274803D02*
X006409700Y-17258538D01*
X006409700Y-17258538D02*
X006435483Y-17247509D01*
X006435483Y-17247509D02*
X006452031Y-17245235D01*
X006452031Y-17245235D02*
X006480662Y-17247330D01*
X006480662Y-17247330D02*
X006502139Y-17256747D01*
X006502139Y-17256747D02*
X006513884Y-17271188D01*
X006513884Y-17271188D02*
X006518102Y-17287970D01*
X006518102Y-17287970D02*
X006517822Y-17299132D01*
X006517822Y-17299132D02*
X006512781Y-17317817D01*
X006512781Y-17317817D02*
X006490900Y-17354146D01*
X006490900Y-17354146D02*
X006435797Y-17423253D01*
X006435797Y-17423253D02*
X006377857Y-17486816D01*
X006377857Y-17486816D02*
X006532862Y-17486816D01*
D23*
X008567387Y-17249849D02*
X008567387Y-17487139D01*
X008567387Y-17363480D02*
X008729477Y-17363480D01*
X008731279Y-17249849D02*
X008731279Y-17487139D01*
X008928643Y-17292242D02*
X008933967Y-17274803D01*
X008933967Y-17274803D02*
X008949700Y-17258538D01*
X008949700Y-17258538D02*
X008975483Y-17247509D01*
X008975483Y-17247509D02*
X008992031Y-17245235D01*
X008992031Y-17245235D02*
X009020662Y-17247330D01*
X009020662Y-17247330D02*
X009042139Y-17256747D01*
X009042139Y-17256747D02*
X009053884Y-17271188D01*
X009053884Y-17271188D02*
X009058102Y-17287970D01*
X009058102Y-17287970D02*
X009057822Y-17299132D01*
X009057822Y-17299132D02*
X009052781Y-17317817D01*
X009052781Y-17317817D02*
X009030900Y-17354146D01*
X009030900Y-17354146D02*
X008975797Y-17423253D01*
X008975797Y-17423253D02*
X008917857Y-17486816D01*
X008917857Y-17486816D02*
X009072862Y-17486816D01*
D13*
X-00451658Y-16027788D02*
X-00451658Y-16359995D01*
X-00451658Y-16186872D02*
X-00224732Y-16186872D01*
X-00222209Y-16027788D02*
X-00222209Y-16359995D01*
X000054100Y-16087139D02*
X000061554Y-16062724D01*
X000061554Y-16062724D02*
X000083580Y-16039953D01*
X000083580Y-16039953D02*
X000119676Y-16024512D01*
X000119676Y-16024512D02*
X000142844Y-16021328D01*
X000142844Y-16021328D02*
X000182926Y-16024262D01*
X000182926Y-16024262D02*
X000212995Y-16037445D01*
X000212995Y-16037445D02*
X000229437Y-16057663D01*
X000229437Y-16057663D02*
X000235343Y-16081157D01*
X000235343Y-16081157D02*
X000234951Y-16096785D01*
X000234951Y-16096785D02*
X000227893Y-16122944D01*
X000227893Y-16122944D02*
X000197260Y-16173804D01*
X000197260Y-16173804D02*
X000120116Y-16270555D01*
X000120116Y-16270555D02*
X000038999Y-16359542D01*
X000038999Y-16359542D02*
X000256006Y-16359542D01*
M02*